M48
; DRILL file {KiCad (6.0.0-0)} date Saturday, November 25, 2023 at 10:37:44 PM
; FORMAT={-:-/ absolute / inch / decimal}
; #@! TF.CreationDate,2023-11-25T22:37:44-05:00
; #@! TF.GenerationSoftware,Kicad,Pcbnew,(6.0.0-0)
; #@! TF.FileFunction,Plated,1,2,PTH
FMAT,2
INCH
; #@! TA.AperFunction,Plated,PTH,ComponentDrill
T1C0.0236
; #@! TA.AperFunction,Plated,PTH,ComponentDrill
T2C0.0276
; #@! TA.AperFunction,Plated,PTH,ComponentDrill
T3C0.0295
; #@! TA.AperFunction,Plated,PTH,ComponentDrill
T4C0.0315
; #@! TA.AperFunction,Plated,PTH,ComponentDrill
T5C0.0394
; #@! TA.AperFunction,Plated,PTH,ComponentDrill
T6C0.0472
; #@! TA.AperFunction,Plated,PTH,ComponentDrill
T7C0.0630
%
G90
G05
T1
X5.246Y-3.7742
X5.3051Y-3.7742
X5.3809Y-4.0844
X5.44Y-4.0844
X5.9016Y-3.56
X5.9606Y-3.56
T2
X5.05Y-3.4408
X5.05Y-3.5156
X5.28Y-3.4408
X5.28Y-3.5156
X5.56Y-4.0552
X5.56Y-4.13
X5.7Y-4.0552
X5.7Y-4.13
X6.0725Y-3.44
X6.1473Y-3.44
X6.3002Y-3.445
X6.31Y-3.665
X6.375Y-3.445
X6.3848Y-3.665
X6.4944Y-4.12
X6.4952Y-3.905
X6.5692Y-4.12
X6.57Y-3.905
X6.692Y-4.115
X6.6952Y-3.89
X6.7668Y-4.115
X6.77Y-3.89
X6.85Y-3.78
X6.9248Y-3.78
X7.4008Y-4.18
X7.44Y-3.5708
X7.44Y-3.6456
X7.44Y-3.9508
X7.44Y-4.0256
X7.4756Y-4.18
T3
X5.0Y-3.7842
X5.05Y-3.7842
X5.1Y-3.7842
T4
X5.05Y-4.0444
X5.15Y-4.1444
X5.25Y-4.0444
X5.4596Y-3.4896
X5.4596Y-3.5896
X5.4596Y-3.6896
X5.4596Y-3.7896
X5.7596Y-3.4896
X5.7596Y-3.5896
X5.7596Y-3.6896
X5.7596Y-3.7896
X6.0608Y-3.665
X6.1592Y-3.665
X6.2531Y-4.12
X6.2574Y-3.895
X6.3516Y-4.12
X6.3558Y-3.895
X7.44Y-3.75
X7.44Y-3.8484
T5
X5.99Y-3.8868
X5.99Y-4.0836
X6.66Y-3.4568
X6.66Y-3.6536
X7.0164Y-3.55
X7.09Y-3.9268
X7.09Y-4.1236
X7.2132Y-3.55
T6
X7.6303Y-3.8
X7.8303Y-3.8
T7
X7.6303Y-3.65
X7.6303Y-3.95
T0
M30
