%TF.GenerationSoftware,KiCad,Pcbnew,(6.0.0-0)*%
%TF.CreationDate,2023-11-25T11:43:55-05:00*%
%TF.ProjectId,pinker2,70696e6b-6572-4322-9e6b-696361645f70,rev?*%
%TF.SameCoordinates,Original*%
%TF.FileFunction,Copper,L1,Top*%
%TF.FilePolarity,Positive*%
%FSLAX46Y46*%
G04 Gerber Fmt 4.6, Leading zero omitted, Abs format (unit mm)*
G04 Created by KiCad (PCBNEW (6.0.0-0)) date 2023-11-25 11:43:55*
%MOMM*%
%LPD*%
G01*
G04 APERTURE LIST*
%ADD10C,0.300000*%
%TA.AperFunction,NonConductor*%
%ADD11C,0.300000*%
%TD*%
%TA.AperFunction,NonConductor*%
%ADD12C,0.200000*%
%TD*%
%TA.AperFunction,ComponentPad*%
%ADD13C,1.440000*%
%TD*%
%TA.AperFunction,ComponentPad*%
%ADD14R,1.600000X1.600000*%
%TD*%
%TA.AperFunction,ComponentPad*%
%ADD15O,1.600000X1.600000*%
%TD*%
%TA.AperFunction,ComponentPad*%
%ADD16C,1.400000*%
%TD*%
%TA.AperFunction,ComponentPad*%
%ADD17O,1.400000X1.400000*%
%TD*%
%TA.AperFunction,ComponentPad*%
%ADD18C,3.400000*%
%TD*%
%TA.AperFunction,ComponentPad*%
%ADD19C,2.900000*%
%TD*%
%TA.AperFunction,ComponentPad*%
%ADD20C,1.600000*%
%TD*%
%TA.AperFunction,ComponentPad*%
%ADD21R,1.050000X1.500000*%
%TD*%
%TA.AperFunction,ComponentPad*%
%ADD22O,1.050000X1.500000*%
%TD*%
%TA.AperFunction,ComponentPad*%
%ADD23R,2.000000X2.000000*%
%TD*%
%TA.AperFunction,ComponentPad*%
%ADD24C,2.000000*%
%TD*%
%TA.AperFunction,ComponentPad*%
%ADD25R,1.200000X1.200000*%
%TD*%
%TA.AperFunction,ComponentPad*%
%ADD26C,1.200000*%
%TD*%
%TA.AperFunction,Conductor*%
%ADD27C,0.400000*%
%TD*%
G04 APERTURE END LIST*
D10*
D11*
X122952105Y-102432571D02*
X122880677Y-102361142D01*
X122809248Y-102218285D01*
X122809248Y-101861142D01*
X122880677Y-101718285D01*
X122952105Y-101646857D01*
X123094962Y-101575428D01*
X123237819Y-101575428D01*
X123452105Y-101646857D01*
X124309248Y-102504000D01*
X124309248Y-101575428D01*
X122809248Y-101075428D02*
X122809248Y-100146857D01*
X123380677Y-100646857D01*
X123380677Y-100432571D01*
X123452105Y-100289714D01*
X123523534Y-100218285D01*
X123666391Y-100146857D01*
X124023534Y-100146857D01*
X124166391Y-100218285D01*
X124237819Y-100289714D01*
X124309248Y-100432571D01*
X124309248Y-100861142D01*
X124237819Y-101004000D01*
X124166391Y-101075428D01*
X124166391Y-99504000D02*
X124237819Y-99432571D01*
X124309248Y-99504000D01*
X124237819Y-99575428D01*
X124166391Y-99504000D01*
X124309248Y-99504000D01*
X123452105Y-98575428D02*
X123380677Y-98718285D01*
X123309248Y-98789714D01*
X123166391Y-98861142D01*
X123094962Y-98861142D01*
X122952105Y-98789714D01*
X122880677Y-98718285D01*
X122809248Y-98575428D01*
X122809248Y-98289714D01*
X122880677Y-98146857D01*
X122952105Y-98075428D01*
X123094962Y-98004000D01*
X123166391Y-98004000D01*
X123309248Y-98075428D01*
X123380677Y-98146857D01*
X123452105Y-98289714D01*
X123452105Y-98575428D01*
X123523534Y-98718285D01*
X123594962Y-98789714D01*
X123737819Y-98861142D01*
X124023534Y-98861142D01*
X124166391Y-98789714D01*
X124237819Y-98718285D01*
X124309248Y-98575428D01*
X124309248Y-98289714D01*
X124237819Y-98146857D01*
X124166391Y-98075428D01*
X124023534Y-98004000D01*
X123737819Y-98004000D01*
X123594962Y-98075428D01*
X123523534Y-98146857D01*
X123452105Y-98289714D01*
X122809248Y-97504000D02*
X122809248Y-96504000D01*
X124309248Y-97146857D01*
X122809248Y-95289714D02*
X122809248Y-95575428D01*
X122880677Y-95718285D01*
X122952105Y-95789714D01*
X123166391Y-95932571D01*
X123452105Y-96004000D01*
X124023534Y-96004000D01*
X124166391Y-95932571D01*
X124237819Y-95861142D01*
X124309248Y-95718285D01*
X124309248Y-95432571D01*
X124237819Y-95289714D01*
X124166391Y-95218285D01*
X124023534Y-95146857D01*
X123666391Y-95146857D01*
X123523534Y-95218285D01*
X123452105Y-95289714D01*
X123380677Y-95432571D01*
X123380677Y-95718285D01*
X123452105Y-95861142D01*
X123523534Y-95932571D01*
X123666391Y-96004000D01*
X122809248Y-94218285D02*
X122809248Y-94075428D01*
X122880677Y-93932571D01*
X122952105Y-93861142D01*
X123094962Y-93789714D01*
X123380677Y-93718285D01*
X123737819Y-93718285D01*
X124023534Y-93789714D01*
X124166391Y-93861142D01*
X124237819Y-93932571D01*
X124309248Y-94075428D01*
X124309248Y-94218285D01*
X124237819Y-94361142D01*
X124166391Y-94432571D01*
X124023534Y-94504000D01*
X123737819Y-94575428D01*
X123380677Y-94575428D01*
X123094962Y-94504000D01*
X122952105Y-94432571D01*
X122880677Y-94361142D01*
X122809248Y-94218285D01*
X124309248Y-91932571D02*
X123309248Y-91932571D01*
X123452105Y-91932571D02*
X123380677Y-91861142D01*
X123309248Y-91718285D01*
X123309248Y-91504000D01*
X123380677Y-91361142D01*
X123523534Y-91289714D01*
X124309248Y-91289714D01*
X123523534Y-91289714D02*
X123380677Y-91218285D01*
X123309248Y-91075428D01*
X123309248Y-90861142D01*
X123380677Y-90718285D01*
X123523534Y-90646857D01*
X124309248Y-90646857D01*
X124309248Y-89932571D02*
X123309248Y-89932571D01*
X123452105Y-89932571D02*
X123380677Y-89861142D01*
X123309248Y-89718285D01*
X123309248Y-89504000D01*
X123380677Y-89361142D01*
X123523534Y-89289714D01*
X124309248Y-89289714D01*
X123523534Y-89289714D02*
X123380677Y-89218285D01*
X123309248Y-89075428D01*
X123309248Y-88861142D01*
X123380677Y-88718285D01*
X123523534Y-88646857D01*
X124309248Y-88646857D01*
D12*
X125930677Y-83566000D02*
X126017097Y-83566000D01*
X125930677Y-107442000D02*
X126017097Y-107442000D01*
X125430677Y-83566000D02*
X125430677Y-87389714D01*
X125430677Y-103618285D02*
X125430677Y-107442000D01*
X125430677Y-83566000D02*
X124844256Y-84692504D01*
X125430677Y-83566000D02*
X126017098Y-84692504D01*
X125430677Y-107442000D02*
X126017098Y-106315496D01*
X125430677Y-107442000D02*
X124844256Y-106315496D01*
D10*
D11*
X151123926Y-76729857D02*
X152123920Y-76733247D01*
X151475982Y-78231059D01*
X153336504Y-77237360D02*
X153333114Y-78237354D01*
X152981301Y-76664724D02*
X152620528Y-77734936D01*
X153549094Y-77738084D01*
X154119309Y-78097161D02*
X154190495Y-78168832D01*
X154118824Y-78240018D01*
X154047638Y-78168347D01*
X154119309Y-78097161D01*
X154118824Y-78240018D01*
X154904534Y-78242681D02*
X155190247Y-78243650D01*
X155333345Y-78172706D01*
X155405015Y-78101520D01*
X155548598Y-77887720D01*
X155620995Y-77602249D01*
X155622932Y-77030824D01*
X155551988Y-76887725D01*
X155480802Y-76816055D01*
X155338188Y-76744143D01*
X155052475Y-76743174D01*
X154909377Y-76814118D01*
X154837706Y-76885304D01*
X154765794Y-77027918D01*
X154764583Y-77385059D01*
X154835527Y-77528157D01*
X154906713Y-77599828D01*
X155049327Y-77671740D01*
X155335040Y-77672709D01*
X155478138Y-77601765D01*
X155549809Y-77530579D01*
X155621721Y-77387965D01*
X156123897Y-76746806D02*
X157052464Y-76749954D01*
X156550529Y-77319684D01*
X156764814Y-77320410D01*
X156907428Y-77392323D01*
X156978614Y-77463993D01*
X157049558Y-77607092D01*
X157048347Y-77964232D01*
X156976435Y-78106847D01*
X156904765Y-78178033D01*
X156761666Y-78248977D01*
X156333097Y-78247524D01*
X156190483Y-78175611D01*
X156119297Y-78103941D01*
X157981030Y-76753101D02*
X158123886Y-76753586D01*
X158266500Y-76825498D01*
X158337686Y-76897168D01*
X158408630Y-77040267D01*
X158479090Y-77326222D01*
X158477879Y-77683362D01*
X158405482Y-77968833D01*
X158333570Y-78111447D01*
X158261900Y-78182633D01*
X158118801Y-78253577D01*
X157975945Y-78253093D01*
X157833331Y-78181180D01*
X157762145Y-78109510D01*
X157691201Y-77966412D01*
X157620741Y-77680457D01*
X157621952Y-77323316D01*
X157694349Y-77037846D01*
X157766261Y-76895231D01*
X157837931Y-76824045D01*
X157981030Y-76753101D01*
X159765039Y-77259152D02*
X159761649Y-78259146D01*
X159409835Y-76686516D02*
X159049062Y-77756728D01*
X159977628Y-77759875D01*
X161690209Y-78265683D02*
X161693599Y-77265689D01*
X161693115Y-77408546D02*
X161764785Y-77337360D01*
X161907884Y-77266416D01*
X162122168Y-77267142D01*
X162264782Y-77339054D01*
X162335726Y-77482153D01*
X162333063Y-78267863D01*
X162335726Y-77482153D02*
X162407639Y-77339539D01*
X162550737Y-77268595D01*
X162765022Y-77269321D01*
X162907636Y-77341234D01*
X162978580Y-77484332D01*
X162975916Y-78270042D01*
X163690198Y-78272463D02*
X163693588Y-77272469D01*
X163693103Y-77415325D02*
X163764774Y-77344139D01*
X163907872Y-77273195D01*
X164122157Y-77273922D01*
X164264771Y-77345834D01*
X164335715Y-77488933D01*
X164333051Y-78274642D01*
X164335715Y-77488933D02*
X164407627Y-77346318D01*
X164550726Y-77275374D01*
X164765010Y-77276101D01*
X164907624Y-77348013D01*
X164978568Y-77491112D01*
X164975905Y-78276821D01*
D12*
X120651695Y-78748003D02*
X120651988Y-78661583D01*
X195581695Y-79002003D02*
X195581988Y-78915583D01*
X120650000Y-79248000D02*
X150000762Y-79347494D01*
X166229240Y-79402506D02*
X195580000Y-79502000D01*
X120650000Y-79248000D02*
X121774509Y-79838236D01*
X120650000Y-79248000D02*
X121778485Y-78665401D01*
X195580000Y-79502000D02*
X194455491Y-78911764D01*
X195580000Y-79502000D02*
X194451515Y-80084599D01*
D10*
D11*
X155790142Y-81079428D02*
X155647285Y-81008000D01*
X155575857Y-80936571D01*
X155504428Y-80793714D01*
X155504428Y-80722285D01*
X155575857Y-80579428D01*
X155647285Y-80508000D01*
X155790142Y-80436571D01*
X156075857Y-80436571D01*
X156218714Y-80508000D01*
X156290142Y-80579428D01*
X156361571Y-80722285D01*
X156361571Y-80793714D01*
X156290142Y-80936571D01*
X156218714Y-81008000D01*
X156075857Y-81079428D01*
X155790142Y-81079428D01*
X155647285Y-81150857D01*
X155575857Y-81222285D01*
X155504428Y-81365142D01*
X155504428Y-81650857D01*
X155575857Y-81793714D01*
X155647285Y-81865142D01*
X155790142Y-81936571D01*
X156075857Y-81936571D01*
X156218714Y-81865142D01*
X156290142Y-81793714D01*
X156361571Y-81650857D01*
X156361571Y-81365142D01*
X156290142Y-81222285D01*
X156218714Y-81150857D01*
X156075857Y-81079428D01*
X157647285Y-80936571D02*
X157647285Y-81936571D01*
X157290142Y-80365142D02*
X156933000Y-81436571D01*
X157861571Y-81436571D01*
X158433000Y-81793714D02*
X158504428Y-81865142D01*
X158433000Y-81936571D01*
X158361571Y-81865142D01*
X158433000Y-81793714D01*
X158433000Y-81936571D01*
X159861571Y-80436571D02*
X159147285Y-80436571D01*
X159075857Y-81150857D01*
X159147285Y-81079428D01*
X159290142Y-81008000D01*
X159647285Y-81008000D01*
X159790142Y-81079428D01*
X159861571Y-81150857D01*
X159933000Y-81293714D01*
X159933000Y-81650857D01*
X159861571Y-81793714D01*
X159790142Y-81865142D01*
X159647285Y-81936571D01*
X159290142Y-81936571D01*
X159147285Y-81865142D01*
X159075857Y-81793714D01*
X160790142Y-81079428D02*
X160647285Y-81008000D01*
X160575857Y-80936571D01*
X160504428Y-80793714D01*
X160504428Y-80722285D01*
X160575857Y-80579428D01*
X160647285Y-80508000D01*
X160790142Y-80436571D01*
X161075857Y-80436571D01*
X161218714Y-80508000D01*
X161290142Y-80579428D01*
X161361571Y-80722285D01*
X161361571Y-80793714D01*
X161290142Y-80936571D01*
X161218714Y-81008000D01*
X161075857Y-81079428D01*
X160790142Y-81079428D01*
X160647285Y-81150857D01*
X160575857Y-81222285D01*
X160504428Y-81365142D01*
X160504428Y-81650857D01*
X160575857Y-81793714D01*
X160647285Y-81865142D01*
X160790142Y-81936571D01*
X161075857Y-81936571D01*
X161218714Y-81865142D01*
X161290142Y-81793714D01*
X161361571Y-81650857D01*
X161361571Y-81365142D01*
X161290142Y-81222285D01*
X161218714Y-81150857D01*
X161075857Y-81079428D01*
X161933000Y-80579428D02*
X162004428Y-80508000D01*
X162147285Y-80436571D01*
X162504428Y-80436571D01*
X162647285Y-80508000D01*
X162718714Y-80579428D01*
X162790142Y-80722285D01*
X162790142Y-80865142D01*
X162718714Y-81079428D01*
X161861571Y-81936571D01*
X162790142Y-81936571D01*
X163718714Y-80436571D02*
X163861571Y-80436571D01*
X164004428Y-80508000D01*
X164075857Y-80579428D01*
X164147285Y-80722285D01*
X164218714Y-81008000D01*
X164218714Y-81365142D01*
X164147285Y-81650857D01*
X164075857Y-81793714D01*
X164004428Y-81865142D01*
X163861571Y-81936571D01*
X163718714Y-81936571D01*
X163575857Y-81865142D01*
X163504428Y-81793714D01*
X163433000Y-81650857D01*
X163361571Y-81365142D01*
X163361571Y-81008000D01*
X163433000Y-80722285D01*
X163504428Y-80579428D01*
X163575857Y-80508000D01*
X163718714Y-80436571D01*
X166004428Y-81936571D02*
X166004428Y-80936571D01*
X166004428Y-81079428D02*
X166075857Y-81008000D01*
X166218714Y-80936571D01*
X166433000Y-80936571D01*
X166575857Y-81008000D01*
X166647285Y-81150857D01*
X166647285Y-81936571D01*
X166647285Y-81150857D02*
X166718714Y-81008000D01*
X166861571Y-80936571D01*
X167075857Y-80936571D01*
X167218714Y-81008000D01*
X167290142Y-81150857D01*
X167290142Y-81936571D01*
X168004428Y-81936571D02*
X168004428Y-80936571D01*
X168004428Y-81079428D02*
X168075857Y-81008000D01*
X168218714Y-80936571D01*
X168433000Y-80936571D01*
X168575857Y-81008000D01*
X168647285Y-81150857D01*
X168647285Y-81936571D01*
X168647285Y-81150857D02*
X168718714Y-81008000D01*
X168861571Y-80936571D01*
X169075857Y-80936571D01*
X169218714Y-81008000D01*
X169290142Y-81150857D01*
X169290142Y-81936571D01*
D12*
X204724000Y-82812000D02*
X204724000Y-82471580D01*
X120142000Y-82812000D02*
X120142000Y-82471580D01*
X204724000Y-83058000D02*
X170547286Y-83058000D01*
X154318715Y-83058000D02*
X120142000Y-83058000D01*
X204724000Y-83058000D02*
X203597496Y-82471579D01*
X204724000Y-83058000D02*
X203597496Y-83644421D01*
X120142000Y-83058000D02*
X121268504Y-83644421D01*
X120142000Y-83058000D02*
X121268504Y-82471579D01*
D13*
%TO.P,R17,1,1*%
%TO.N,Net-(C10-Pad2)*%
X132080000Y-100076000D03*
%TO.P,R17,2,2*%
X129540000Y-102616000D03*
%TO.P,R17,3,3*%
%TO.N,Earth*%
X127000000Y-100076000D03*
%TD*%
D14*
%TO.P,U1,1*%
%TO.N,Net-(R10-Pad2)*%
X146040000Y-94478000D03*
D15*
%TO.P,U1,5,+*%
%TO.N,Net-(C9-Pad2)*%
X138420000Y-86858000D03*
%TO.P,U1,2,-*%
%TO.N,Net-(C2-Pad2)*%
X146040000Y-91938000D03*
%TO.P,U1,6,-*%
%TO.N,Net-(R3-Pad2)*%
X138420000Y-89398000D03*
%TO.P,U1,3,+*%
%TO.N,Net-(C11-Pad1)*%
X146040000Y-89398000D03*
%TO.P,U1,7*%
%TO.N,Net-(C1-Pad1)*%
X138420000Y-91938000D03*
%TO.P,U1,4,V-*%
%TO.N,Earth*%
X146040000Y-86858000D03*
%TO.P,U1,8,V+*%
%TO.N,Net-(C5-Pad2)*%
X138420000Y-94478000D03*
%TD*%
D16*
%TO.P,R11,1*%
%TO.N,Net-(C2-Pad2)*%
X160024000Y-87503000D03*
D17*
%TO.P,R11,2*%
%TO.N,Net-(R10-Pad2)*%
X161924000Y-87503000D03*
%TD*%
D18*
%TO.P,J1,1*%
%TO.N,Earth*%
X193810000Y-100330000D03*
%TO.P,J1,2*%
%TO.N,Net-(C6-Pad1)*%
X193810000Y-92710000D03*
D19*
%TO.P,J1,3*%
%TO.N,Net-(C8-Pad1)*%
X193810000Y-96520000D03*
%TO.P,J1,G*%
%TO.N,N/C*%
X198890000Y-96520000D03*
%TD*%
D16*
%TO.P,R3,1*%
%TO.N,Net-(C10-Pad1)*%
X139954000Y-102251000D03*
D17*
%TO.P,R3,2*%
%TO.N,Net-(R3-Pad2)*%
X139954000Y-100351000D03*
%TD*%
D20*
%TO.P,C3,1*%
%TO.N,Net-(C3-Pad1)*%
X161329401Y-104648000D03*
%TO.P,C3,2*%
%TO.N,Net-(C2-Pad2)*%
X158829401Y-104648000D03*
%TD*%
D21*
%TO.P,Q1,1,C*%
%TO.N,unconnected-(Q1-Pad1)*%
X126746000Y-93451000D03*
D22*
%TO.P,Q1,2,B*%
%TO.N,Earth*%
X128016000Y-93451000D03*
%TO.P,Q1,3,E*%
%TO.N,Net-(C9-Pad1)*%
X129286000Y-93451000D03*
%TD*%
D16*
%TO.P,R15,1*%
%TO.N,Earth*%
X189881000Y-106426000D03*
D17*
%TO.P,R15,2*%
%TO.N,Net-(C8-Pad2)*%
X187981000Y-106426000D03*
%TD*%
D16*
%TO.P,R1,1*%
%TO.N,Net-(C9-Pad1)*%
X128016000Y-87646000D03*
D17*
%TO.P,R1,2*%
%TO.N,Net-(C5-Pad2)*%
X128016000Y-85746000D03*
%TD*%
D23*
%TO.P,C8,1*%
%TO.N,Net-(C8-Pad1)*%
X180086000Y-99740323D03*
D24*
%TO.P,C8,2*%
%TO.N,Net-(C8-Pad2)*%
X180086000Y-104740323D03*
%TD*%
D23*
%TO.P,C6,1*%
%TO.N,Net-(C6-Pad1)*%
X182707677Y-89916000D03*
D24*
%TO.P,C6,2*%
%TO.N,Net-(C6-Pad2)*%
X177707677Y-89916000D03*
%TD*%
D20*
%TO.P,C7,1*%
%TO.N,Earth*%
X188976000Y-95901000D03*
%TO.P,C7,2*%
%TO.N,Net-(C5-Pad2)*%
X188976000Y-98401000D03*
%TD*%
%TO.P,C4,1*%
%TO.N,Net-(C4-Pad1)*%
X161437000Y-98933000D03*
%TO.P,C4,2*%
%TO.N,Net-(C2-Pad2)*%
X158937000Y-98933000D03*
%TD*%
D25*
%TO.P,C9,1*%
%TO.N,Net-(C9-Pad1)*%
X132994600Y-93197000D03*
D26*
%TO.P,C9,2*%
%TO.N,Net-(C9-Pad2)*%
X134494600Y-93197000D03*
%TD*%
D16*
%TO.P,R13,1*%
%TO.N,Net-(C5-Pad2)*%
X188976000Y-93361000D03*
D17*
%TO.P,R13,2*%
%TO.N,Net-(C6-Pad1)*%
X188976000Y-91461000D03*
%TD*%
D16*
%TO.P,R4,1*%
%TO.N,Net-(R3-Pad2)*%
X143510000Y-102251000D03*
D17*
%TO.P,R4,2*%
%TO.N,Net-(C1-Pad1)*%
X143510000Y-100351000D03*
%TD*%
D23*
%TO.P,C5,1*%
%TO.N,Earth*%
X152146000Y-98724323D03*
D24*
%TO.P,C5,2*%
%TO.N,Net-(C5-Pad2)*%
X152146000Y-103724323D03*
%TD*%
D16*
%TO.P,R5,1*%
%TO.N,Net-(C11-Pad1)*%
X169975677Y-104521000D03*
D17*
%TO.P,R5,2*%
%TO.N,Net-(C5-Pad2)*%
X171875677Y-104521000D03*
%TD*%
D16*
%TO.P,R14,1*%
%TO.N,Net-(C5-Pad2)*%
X188976000Y-102648000D03*
D17*
%TO.P,R14,2*%
%TO.N,Net-(C8-Pad1)*%
X188976000Y-100748000D03*
%TD*%
D16*
%TO.P,R10,1*%
%TO.N,Net-(C4-Pad1)*%
X164977000Y-99187000D03*
D17*
%TO.P,R10,2*%
%TO.N,Net-(R10-Pad2)*%
X166877000Y-99187000D03*
%TD*%
D16*
%TO.P,R8,1*%
%TO.N,Net-(C2-Pad1)*%
X160274599Y-93091000D03*
D17*
%TO.P,R8,2*%
%TO.N,Net-(R10-Pad2)*%
X162174599Y-93091000D03*
%TD*%
D16*
%TO.P,R6,1*%
%TO.N,Earth*%
X171958000Y-98806000D03*
D17*
%TO.P,R6,2*%
%TO.N,Net-(C11-Pad1)*%
X170058000Y-98806000D03*
%TD*%
D20*
%TO.P,C2,1*%
%TO.N,Net-(C2-Pad1)*%
X156444599Y-93091000D03*
%TO.P,C2,2*%
%TO.N,Net-(C2-Pad2)*%
X153944599Y-93091000D03*
%TD*%
D16*
%TO.P,R7,1*%
%TO.N,Net-(C2-Pad2)*%
X156142401Y-87376000D03*
D17*
%TO.P,R7,2*%
%TO.N,Net-(C1-Pad2)*%
X154242401Y-87376000D03*
%TD*%
D16*
%TO.P,R2,1*%
%TO.N,Net-(C9-Pad2)*%
X133858000Y-87519000D03*
D17*
%TO.P,R2,2*%
%TO.N,Net-(C11-Pad1)*%
X133858000Y-85619000D03*
%TD*%
D16*
%TO.P,R12,1*%
%TO.N,Net-(R10-Pad2)*%
X187563000Y-87122000D03*
D17*
%TO.P,R12,2*%
%TO.N,Net-(C6-Pad2)*%
X189463000Y-87122000D03*
%TD*%
D23*
%TO.P,C11,1*%
%TO.N,Net-(C11-Pad1)*%
X169164000Y-87802323D03*
D24*
%TO.P,C11,2*%
%TO.N,Earth*%
X169164000Y-92802323D03*
%TD*%
D26*
%TO.P,C10,2*%
%TO.N,Net-(C10-Pad2)*%
X135406000Y-101092000D03*
D25*
%TO.P,C10,1*%
%TO.N,Net-(C10-Pad1)*%
X136906000Y-101092000D03*
%TD*%
%TO.P,C1,1*%
%TO.N,Net-(C1-Pad1)*%
X149899401Y-90424000D03*
D26*
%TO.P,C1,2*%
%TO.N,Net-(C1-Pad2)*%
X151399401Y-90424000D03*
%TD*%
D16*
%TO.P,R9,1*%
%TO.N,Net-(C3-Pad1)*%
X164957000Y-104648000D03*
D17*
%TO.P,R9,2*%
%TO.N,Net-(R10-Pad2)*%
X166857000Y-104648000D03*
%TD*%
D27*
%TO.N,Net-(C5-Pad2)*%
X152146000Y-103724323D02*
X154593677Y-106172000D01*
X154593677Y-106172000D02*
X170224677Y-106172000D01*
X170224677Y-106172000D02*
X171875677Y-104521000D01*
%TO.N,Net-(C3-Pad1)*%
X161329401Y-104648000D02*
X164957000Y-104648000D01*
%TO.N,Net-(C4-Pad1)*%
X161437000Y-98933000D02*
X164723000Y-98933000D01*
X164723000Y-98933000D02*
X164977000Y-99187000D01*
%TO.N,Earth*%
X148082000Y-88138000D02*
X146040000Y-86858000D01*
X152146000Y-98724323D02*
X148082000Y-94660323D01*
X148082000Y-94660323D02*
X148082000Y-88138000D01*
%TO.N,Net-(C2-Pad1)*%
X156444599Y-93091000D02*
X160274599Y-93091000D01*
%TO.N,Net-(C1-Pad2)*%
X154242401Y-87376000D02*
X151399401Y-90219000D01*
X151399401Y-90219000D02*
X151399401Y-90424000D01*
%TO.N,Net-(C2-Pad2)*%
X160024000Y-87503000D02*
X156269401Y-87503000D01*
X156269401Y-87503000D02*
X156142401Y-87376000D01*
X153944599Y-93091000D02*
X158937000Y-98083401D01*
X158937000Y-98083401D02*
X158937000Y-98933000D01*
X158937000Y-98933000D02*
X158937000Y-104540401D01*
X158937000Y-104540401D02*
X158829401Y-104648000D01*
X156142401Y-87376000D02*
X156142401Y-90893198D01*
X156142401Y-90893198D02*
X153944599Y-93091000D01*
%TO.N,Net-(R10-Pad2)*%
X161924000Y-87503000D02*
X161924000Y-92840401D01*
X161924000Y-92840401D02*
X162174599Y-93091000D01*
X162174599Y-93091000D02*
X162174599Y-94484599D01*
X162174599Y-94484599D02*
X166877000Y-99187000D01*
X166877000Y-99187000D02*
X166877000Y-104628000D01*
X166877000Y-104628000D02*
X166857000Y-104648000D01*
%TO.N,Net-(C5-Pad2)*%
X138420000Y-94478000D02*
X142899677Y-94478000D01*
X142899677Y-94478000D02*
X152146000Y-103724323D01*
X128016000Y-85746000D02*
X129688000Y-85746000D01*
X129688000Y-85746000D02*
X138420000Y-94478000D01*
X128016000Y-85746000D02*
X128016000Y-85852000D01*
%TO.N,Earth*%
X128016000Y-93451000D02*
X128016000Y-99060000D01*
X128016000Y-99060000D02*
X127000000Y-100076000D01*
%TO.N,Net-(C11-Pad1)*%
X133858000Y-85619000D02*
X141965000Y-85619000D01*
X141965000Y-85619000D02*
X141986000Y-85598000D01*
X141986000Y-85598000D02*
X142240000Y-85598000D01*
X142240000Y-85598000D02*
X146040000Y-89398000D01*
%TO.N,Net-(C9-Pad2)*%
X138420000Y-86858000D02*
X134519000Y-86858000D01*
X134519000Y-86858000D02*
X133858000Y-87519000D01*
%TO.N,Net-(C9-Pad1)*%
X132994600Y-93197000D02*
X129540000Y-93197000D01*
X129540000Y-93197000D02*
X129286000Y-93451000D01*
X128016000Y-87646000D02*
X129286000Y-88916000D01*
X129286000Y-88916000D02*
X129286000Y-93451000D01*
%TO.N,Net-(R3-Pad2)*%
X139954000Y-100351000D02*
X141610000Y-100351000D01*
X141610000Y-100351000D02*
X143510000Y-102251000D01*
%TO.N,Net-(C10-Pad1)*%
X136906000Y-101092000D02*
X138795000Y-101092000D01*
X138795000Y-101092000D02*
X139954000Y-102251000D01*
%TO.N,Net-(C10-Pad2)*%
X132080000Y-100076000D02*
X134390000Y-100076000D01*
X134390000Y-100076000D02*
X135406000Y-101092000D01*
X129540000Y-102616000D02*
X132080000Y-100076000D01*
%TO.N,Earth*%
X174863000Y-95901000D02*
X171764323Y-92802323D01*
X189881000Y-104259000D02*
X193810000Y-100330000D01*
X174863000Y-95901000D02*
X171958000Y-98806000D01*
X171764323Y-92802323D02*
X169164000Y-92802323D01*
X188976000Y-95901000D02*
X174863000Y-95901000D01*
X189881000Y-106426000D02*
X189881000Y-104259000D01*
%TO.N,Net-(C5-Pad2)*%
X173748677Y-102648000D02*
X188976000Y-102648000D01*
X171875677Y-104521000D02*
X173748677Y-102648000D01*
X190100511Y-94485511D02*
X188976000Y-93361000D01*
X190100511Y-97276489D02*
X190100511Y-94485511D01*
X188976000Y-98401000D02*
X190100511Y-97276489D01*
X188976000Y-102648000D02*
X188976000Y-102362000D01*
%TO.N,Net-(C6-Pad1)*%
X190225000Y-92710000D02*
X188976000Y-91461000D01*
X184252677Y-91461000D02*
X182707677Y-89916000D01*
X193810000Y-92710000D02*
X190225000Y-92710000D01*
X188976000Y-91461000D02*
X184252677Y-91461000D01*
%TO.N,Net-(C6-Pad2)*%
X177707677Y-89916000D02*
X179032188Y-88591489D01*
X187993511Y-88591489D02*
X189463000Y-87122000D01*
X179032188Y-88591489D02*
X187993511Y-88591489D01*
%TO.N,Net-(C8-Pad1)*%
X193810000Y-96520000D02*
X189582000Y-100748000D01*
X189582000Y-100748000D02*
X188976000Y-100748000D01*
X181093677Y-100748000D02*
X180086000Y-99740323D01*
X188976000Y-100748000D02*
X181093677Y-100748000D01*
%TO.N,Net-(C8-Pad2)*%
X186295323Y-104740323D02*
X187981000Y-106426000D01*
X180086000Y-104740323D02*
X186295323Y-104740323D01*
%TO.N,Net-(C11-Pad1)*%
X166542323Y-95290323D02*
X170058000Y-98806000D01*
X169975677Y-104521000D02*
X169975677Y-98888323D01*
X169975677Y-98888323D02*
X170058000Y-98806000D01*
X166542323Y-90424000D02*
X166542323Y-95290323D01*
X166542323Y-90424000D02*
X169164000Y-87802323D01*
%TD*%
M02*
