M48
; DRILL file {KiCad (6.0.0-0)} date Saturday, November 25, 2023 at 11:43:45 AM
; FORMAT={-:-/ absolute / inch / decimal}
; #@! TF.CreationDate,2023-11-25T11:43:45-05:00
; #@! TF.GenerationSoftware,Kicad,Pcbnew,(6.0.0-0)
; #@! TF.FileFunction,Plated,1,2,PTH
FMAT,2
INCH
; #@! TA.AperFunction,Plated,PTH,ComponentDrill
T1C0.0236
; #@! TA.AperFunction,Plated,PTH,ComponentDrill
T2C0.0276
; #@! TA.AperFunction,Plated,PTH,ComponentDrill
T3C0.0295
; #@! TA.AperFunction,Plated,PTH,ComponentDrill
T4C0.0315
; #@! TA.AperFunction,Plated,PTH,ComponentDrill
T5C0.0394
; #@! TA.AperFunction,Plated,PTH,ComponentDrill
T6C0.0472
; #@! TA.AperFunction,Plated,PTH,ComponentDrill
T7C0.0630
%
G90
G05
T1
X5.236Y-3.6692
X5.2951Y-3.6692
X5.3309Y-3.98
X5.39Y-3.98
X5.9016Y-3.56
X5.9606Y-3.56
T2
X5.04Y-3.3758
X5.04Y-3.4506
X5.27Y-3.3708
X5.27Y-3.4456
X5.51Y-3.9508
X5.51Y-4.0256
X5.65Y-3.9508
X5.65Y-4.0256
X6.0725Y-3.44
X6.1473Y-3.44
X6.3002Y-3.445
X6.31Y-3.665
X6.375Y-3.445
X6.3848Y-3.665
X6.4944Y-4.12
X6.4952Y-3.905
X6.5692Y-4.12
X6.57Y-3.905
X6.692Y-4.115
X6.6952Y-3.89
X6.7668Y-4.115
X6.77Y-3.89
X7.3844Y-3.43
X7.4008Y-4.19
X7.44Y-3.6008
X7.44Y-3.6756
X7.44Y-3.9665
X7.44Y-4.0413
X7.4592Y-3.43
X7.4756Y-4.19
T3
X4.99Y-3.6792
X5.04Y-3.6792
X5.09Y-3.6792
T4
X5.0Y-3.94
X5.1Y-4.04
X5.2Y-3.94
X5.4496Y-3.4196
X5.4496Y-3.5196
X5.4496Y-3.6196
X5.4496Y-3.7196
X5.7496Y-3.4196
X5.7496Y-3.5196
X5.7496Y-3.6196
X5.7496Y-3.7196
X6.0608Y-3.665
X6.1592Y-3.665
X6.2531Y-4.12
X6.2574Y-3.895
X6.3516Y-4.12
X6.3558Y-3.895
X7.44Y-3.7756
X7.44Y-3.8741
T5
X5.99Y-3.8868
X5.99Y-4.0836
X6.66Y-3.4568
X6.66Y-3.6536
X6.9964Y-3.54
X7.09Y-3.9268
X7.09Y-4.1236
X7.1932Y-3.54
T6
X7.6303Y-3.8
X7.8303Y-3.8
T7
X7.6303Y-3.65
X7.6303Y-3.95
T0
M30
