%TF.GenerationSoftware,KiCad,Pcbnew,(6.0.0-0)*%
%TF.CreationDate,2023-11-25T22:37:41-05:00*%
%TF.ProjectId,pinker2,70696e6b-6572-4322-9e6b-696361645f70,rev?*%
%TF.SameCoordinates,Original*%
%TF.FileFunction,Copper,L1,Top*%
%TF.FilePolarity,Positive*%
%FSLAX46Y46*%
G04 Gerber Fmt 4.6, Leading zero omitted, Abs format (unit mm)*
G04 Created by KiCad (PCBNEW (6.0.0-0)) date 2023-11-25 22:37:41*
%MOMM*%
%LPD*%
G01*
G04 APERTURE LIST*
%TA.AperFunction,ComponentPad*%
%ADD10C,1.400000*%
%TD*%
%TA.AperFunction,ComponentPad*%
%ADD11O,1.400000X1.400000*%
%TD*%
%TA.AperFunction,ComponentPad*%
%ADD12C,3.400000*%
%TD*%
%TA.AperFunction,ComponentPad*%
%ADD13C,2.900000*%
%TD*%
%TA.AperFunction,ComponentPad*%
%ADD14C,1.440000*%
%TD*%
%TA.AperFunction,ComponentPad*%
%ADD15C,1.600000*%
%TD*%
%TA.AperFunction,ComponentPad*%
%ADD16R,1.050000X1.500000*%
%TD*%
%TA.AperFunction,ComponentPad*%
%ADD17O,1.050000X1.500000*%
%TD*%
%TA.AperFunction,ComponentPad*%
%ADD18R,2.000000X2.000000*%
%TD*%
%TA.AperFunction,ComponentPad*%
%ADD19C,2.000000*%
%TD*%
%TA.AperFunction,ComponentPad*%
%ADD20R,1.200000X1.200000*%
%TD*%
%TA.AperFunction,ComponentPad*%
%ADD21C,1.200000*%
%TD*%
%TA.AperFunction,ComponentPad*%
%ADD22R,1.600000X1.600000*%
%TD*%
%TA.AperFunction,ComponentPad*%
%ADD23O,1.600000X1.600000*%
%TD*%
%TA.AperFunction,Conductor*%
%ADD24C,0.400000*%
%TD*%
G04 APERTURE END LIST*
D10*
%TO.P,R11,1*%
%TO.N,Net-(C2-Pad2)*%
X160024000Y-87503000D03*
D11*
%TO.P,R11,2*%
%TO.N,Net-(R10-Pad2)*%
X161924000Y-87503000D03*
%TD*%
D12*
%TO.P,J1,1*%
%TO.N,Earth*%
X193810000Y-100330000D03*
%TO.P,J1,2*%
%TO.N,Net-(C6-Pad1)*%
X193810000Y-92710000D03*
D13*
%TO.P,J1,3*%
%TO.N,Net-(C8-Pad1)*%
X193810000Y-96520000D03*
%TO.P,J1,G*%
%TO.N,N/C*%
X198890000Y-96520000D03*
%TD*%
D10*
%TO.P,R3,1*%
%TO.N,Net-(C10-Pad1)*%
X141224000Y-104902000D03*
D11*
%TO.P,R3,2*%
%TO.N,Net-(R3-Pad2)*%
X141224000Y-103002000D03*
%TD*%
D14*
%TO.P,R17,1,1*%
%TO.N,Net-(C10-Pad2)*%
X133350000Y-102727000D03*
%TO.P,R17,2,2*%
X130810000Y-105267000D03*
%TO.P,R17,3,3*%
%TO.N,Earth*%
X128270000Y-102727000D03*
%TD*%
D15*
%TO.P,C3,1*%
%TO.N,Net-(C3-Pad1)*%
X161329401Y-104648000D03*
%TO.P,C3,2*%
%TO.N,Net-(C2-Pad2)*%
X158829401Y-104648000D03*
%TD*%
D16*
%TO.P,Q1,1,C*%
%TO.N,unconnected-(Q1-Pad1)*%
X127000000Y-96118000D03*
D17*
%TO.P,Q1,2,B*%
%TO.N,Earth*%
X128270000Y-96118000D03*
%TO.P,Q1,3,E*%
%TO.N,Net-(C9-Pad1)*%
X129540000Y-96118000D03*
%TD*%
D10*
%TO.P,R15,1*%
%TO.N,Earth*%
X189881000Y-106172000D03*
D11*
%TO.P,R15,2*%
%TO.N,Net-(C8-Pad2)*%
X187981000Y-106172000D03*
%TD*%
D10*
%TO.P,R1,1*%
%TO.N,Net-(C9-Pad1)*%
X128270000Y-89297000D03*
D11*
%TO.P,R1,2*%
%TO.N,Net-(C5-Pad2)*%
X128270000Y-87397000D03*
%TD*%
D18*
%TO.P,C8,1*%
%TO.N,Net-(C8-Pad1)*%
X180086000Y-99740323D03*
D19*
%TO.P,C8,2*%
%TO.N,Net-(C8-Pad2)*%
X180086000Y-104740323D03*
%TD*%
%TO.P,C6,2*%
%TO.N,Net-(C6-Pad2)*%
X178215677Y-90170000D03*
D18*
%TO.P,C6,1*%
%TO.N,Net-(C6-Pad1)*%
X183215677Y-90170000D03*
%TD*%
D15*
%TO.P,C7,1*%
%TO.N,Earth*%
X188976000Y-95250000D03*
%TO.P,C7,2*%
%TO.N,Net-(C5-Pad2)*%
X188976000Y-97750000D03*
%TD*%
%TO.P,C4,1*%
%TO.N,Net-(C4-Pad1)*%
X161437000Y-98933000D03*
%TO.P,C4,2*%
%TO.N,Net-(C2-Pad2)*%
X158937000Y-98933000D03*
%TD*%
D20*
%TO.P,C9,1*%
%TO.N,Net-(C9-Pad1)*%
X133248600Y-95864000D03*
D21*
%TO.P,C9,2*%
%TO.N,Net-(C9-Pad2)*%
X134748600Y-95864000D03*
%TD*%
D10*
%TO.P,R13,1*%
%TO.N,Net-(C5-Pad2)*%
X188976000Y-92599000D03*
D11*
%TO.P,R13,2*%
%TO.N,Net-(C6-Pad1)*%
X188976000Y-90699000D03*
%TD*%
D22*
%TO.P,U1,1*%
%TO.N,Net-(R10-Pad2)*%
X146294000Y-96256000D03*
D23*
%TO.P,U1,2,-*%
%TO.N,Net-(C2-Pad2)*%
X146294000Y-93716000D03*
%TO.P,U1,3,+*%
%TO.N,Net-(C11-Pad1)*%
X146294000Y-91176000D03*
%TO.P,U1,4,V-*%
%TO.N,Earth*%
X146294000Y-88636000D03*
%TO.P,U1,5,+*%
%TO.N,Net-(C9-Pad2)*%
X138674000Y-88636000D03*
%TO.P,U1,6,-*%
%TO.N,Net-(R3-Pad2)*%
X138674000Y-91176000D03*
%TO.P,U1,7*%
%TO.N,Net-(C1-Pad1)*%
X138674000Y-93716000D03*
%TO.P,U1,8,V+*%
%TO.N,Net-(C5-Pad2)*%
X138674000Y-96256000D03*
%TD*%
D10*
%TO.P,R4,1*%
%TO.N,Net-(R3-Pad2)*%
X144780000Y-104902000D03*
D11*
%TO.P,R4,2*%
%TO.N,Net-(C1-Pad1)*%
X144780000Y-103002000D03*
%TD*%
D18*
%TO.P,C5,1*%
%TO.N,Earth*%
X152146000Y-98724323D03*
D19*
%TO.P,C5,2*%
%TO.N,Net-(C5-Pad2)*%
X152146000Y-103724323D03*
%TD*%
D10*
%TO.P,R5,1*%
%TO.N,Net-(C11-Pad1)*%
X169975677Y-104521000D03*
D11*
%TO.P,R5,2*%
%TO.N,Net-(C5-Pad2)*%
X171875677Y-104521000D03*
%TD*%
D10*
%TO.P,R14,1*%
%TO.N,Net-(C5-Pad2)*%
X188976000Y-102251000D03*
D11*
%TO.P,R14,2*%
%TO.N,Net-(C8-Pad1)*%
X188976000Y-100351000D03*
%TD*%
D10*
%TO.P,R10,1*%
%TO.N,Net-(C4-Pad1)*%
X164977000Y-99187000D03*
D11*
%TO.P,R10,2*%
%TO.N,Net-(R10-Pad2)*%
X166877000Y-99187000D03*
%TD*%
D10*
%TO.P,R8,1*%
%TO.N,Net-(C2-Pad1)*%
X160274599Y-93091000D03*
D11*
%TO.P,R8,2*%
%TO.N,Net-(R10-Pad2)*%
X162174599Y-93091000D03*
%TD*%
D10*
%TO.P,R6,1*%
%TO.N,Earth*%
X171958000Y-98806000D03*
D11*
%TO.P,R6,2*%
%TO.N,Net-(C11-Pad1)*%
X170058000Y-98806000D03*
%TD*%
D15*
%TO.P,C2,1*%
%TO.N,Net-(C2-Pad1)*%
X156444599Y-93091000D03*
%TO.P,C2,2*%
%TO.N,Net-(C2-Pad2)*%
X153944599Y-93091000D03*
%TD*%
D10*
%TO.P,R7,1*%
%TO.N,Net-(C2-Pad2)*%
X156142401Y-87376000D03*
D11*
%TO.P,R7,2*%
%TO.N,Net-(C1-Pad2)*%
X154242401Y-87376000D03*
%TD*%
D10*
%TO.P,R2,1*%
%TO.N,Net-(C9-Pad2)*%
X134112000Y-89297000D03*
D11*
%TO.P,R2,2*%
%TO.N,Net-(C11-Pad1)*%
X134112000Y-87397000D03*
%TD*%
D10*
%TO.P,R12,1*%
%TO.N,Net-(R10-Pad2)*%
X173990000Y-96012000D03*
D11*
%TO.P,R12,2*%
%TO.N,Net-(C6-Pad2)*%
X175890000Y-96012000D03*
%TD*%
D18*
%TO.P,C11,1*%
%TO.N,Net-(C11-Pad1)*%
X169164000Y-87802323D03*
D19*
%TO.P,C11,2*%
%TO.N,Earth*%
X169164000Y-92802323D03*
%TD*%
D20*
%TO.P,C10,1*%
%TO.N,Net-(C10-Pad1)*%
X138176000Y-103743000D03*
D21*
%TO.P,C10,2*%
%TO.N,Net-(C10-Pad2)*%
X136676000Y-103743000D03*
%TD*%
D20*
%TO.P,C1,1*%
%TO.N,Net-(C1-Pad1)*%
X149899401Y-90424000D03*
D21*
%TO.P,C1,2*%
%TO.N,Net-(C1-Pad2)*%
X151399401Y-90424000D03*
%TD*%
D10*
%TO.P,R9,1*%
%TO.N,Net-(C3-Pad1)*%
X164957000Y-104648000D03*
D11*
%TO.P,R9,2*%
%TO.N,Net-(R10-Pad2)*%
X166857000Y-104648000D03*
%TD*%
D24*
%TO.N,Net-(C1-Pad2)*%
X151399401Y-90219000D02*
X151399401Y-90424000D01*
X154242401Y-87376000D02*
X151399401Y-90219000D01*
%TO.N,Net-(C2-Pad1)*%
X156444599Y-93091000D02*
X160274599Y-93091000D01*
%TO.N,Net-(C2-Pad2)*%
X156142401Y-90893198D02*
X153944599Y-93091000D01*
X160024000Y-87503000D02*
X156269401Y-87503000D01*
X158937000Y-104540401D02*
X158829401Y-104648000D01*
X156142401Y-87376000D02*
X156142401Y-90893198D01*
X153944599Y-93091000D02*
X158937000Y-98083401D01*
X158937000Y-98933000D02*
X158937000Y-104540401D01*
X156269401Y-87503000D02*
X156142401Y-87376000D01*
X158937000Y-98083401D02*
X158937000Y-98933000D01*
%TO.N,Net-(C3-Pad1)*%
X161329401Y-104648000D02*
X164957000Y-104648000D01*
%TO.N,Net-(C4-Pad1)*%
X161437000Y-98933000D02*
X164723000Y-98933000D01*
X164723000Y-98933000D02*
X164977000Y-99187000D01*
%TO.N,Net-(C5-Pad2)*%
X154593677Y-106172000D02*
X170224677Y-106172000D01*
X191008000Y-93218000D02*
X191008000Y-97028000D01*
X173748677Y-102648000D02*
X188976000Y-102648000D01*
X171875677Y-104521000D02*
X173748677Y-102648000D01*
X190389000Y-92599000D02*
X191008000Y-93218000D01*
X190286000Y-97750000D02*
X188976000Y-97750000D01*
X188976000Y-92599000D02*
X190389000Y-92599000D01*
X191008000Y-97028000D02*
X190286000Y-97750000D01*
X152146000Y-103724323D02*
X154593677Y-106172000D01*
X170224677Y-106172000D02*
X171875677Y-104521000D01*
%TO.N,Net-(C6-Pad1)*%
X193810000Y-92710000D02*
X191778000Y-90678000D01*
X191516000Y-90678000D02*
X191495000Y-90699000D01*
X188976000Y-90699000D02*
X183744677Y-90699000D01*
X191495000Y-90699000D02*
X188976000Y-90699000D01*
X191778000Y-90678000D02*
X191516000Y-90678000D01*
X183744677Y-90699000D02*
X183215677Y-90170000D01*
%TO.N,Net-(C6-Pad2)*%
X178215677Y-93686323D02*
X175890000Y-96012000D01*
X178215677Y-90170000D02*
X178215677Y-93686323D01*
%TO.N,Net-(C8-Pad1)*%
X193810000Y-96520000D02*
X189979000Y-100351000D01*
X189979000Y-100351000D02*
X188976000Y-100351000D01*
X188976000Y-100351000D02*
X180696677Y-100351000D01*
X180696677Y-100351000D02*
X180086000Y-99740323D01*
%TO.N,Net-(C8-Pad2)*%
X186295323Y-104740323D02*
X187981000Y-106426000D01*
X180086000Y-104740323D02*
X186295323Y-104740323D01*
%TO.N,Net-(C9-Pad1)*%
X132994600Y-96118000D02*
X133248600Y-95864000D01*
X129540000Y-96118000D02*
X129540000Y-90567000D01*
X129540000Y-96118000D02*
X132994600Y-96118000D01*
X129540000Y-90567000D02*
X128270000Y-89297000D01*
%TO.N,Net-(C9-Pad2)*%
X138674000Y-88636000D02*
X134773000Y-88636000D01*
X134748600Y-89933600D02*
X134112000Y-89297000D01*
X134748600Y-95864000D02*
X134748600Y-89933600D01*
X134773000Y-88636000D02*
X134112000Y-89297000D01*
%TO.N,Net-(C10-Pad1)*%
X138176000Y-103743000D02*
X140065000Y-103743000D01*
X140065000Y-103743000D02*
X141224000Y-104902000D01*
%TO.N,Net-(C10-Pad2)*%
X133350000Y-102727000D02*
X135660000Y-102727000D01*
X135660000Y-102727000D02*
X136676000Y-103743000D01*
X130810000Y-105267000D02*
X133350000Y-102727000D01*
%TO.N,Net-(C11-Pad1)*%
X166542323Y-95290323D02*
X170058000Y-98806000D01*
X151193511Y-86276489D02*
X167638166Y-86276489D01*
X169975677Y-104521000D02*
X169975677Y-98888323D01*
X169975677Y-98888323D02*
X170058000Y-98806000D01*
X146294000Y-91176000D02*
X141732000Y-86614000D01*
X166542323Y-90424000D02*
X166542323Y-95290323D01*
X134895000Y-86614000D02*
X134112000Y-87397000D01*
X167638166Y-86276489D02*
X169164000Y-87802323D01*
X166542323Y-90424000D02*
X169164000Y-87802323D01*
X141732000Y-86614000D02*
X134895000Y-86614000D01*
X146294000Y-91176000D02*
X151193511Y-86276489D01*
%TO.N,Net-(R3-Pad2)*%
X136906000Y-92944000D02*
X138674000Y-91176000D01*
X141224000Y-103002000D02*
X142880000Y-103002000D01*
X136906000Y-98684000D02*
X136906000Y-92944000D01*
X142880000Y-103002000D02*
X144780000Y-104902000D01*
X141224000Y-103002000D02*
X136906000Y-98684000D01*
%TO.N,Net-(R10-Pad2)*%
X166877000Y-99187000D02*
X166877000Y-104628000D01*
X162174599Y-94484599D02*
X166877000Y-99187000D01*
X161924000Y-92840401D02*
X162174599Y-93091000D01*
X166877000Y-104628000D02*
X166857000Y-104648000D01*
X161924000Y-87503000D02*
X161924000Y-92840401D01*
X162174599Y-93091000D02*
X162174599Y-94484599D01*
%TO.N,Net-(C1-Pad1)*%
X140970000Y-94488000D02*
X140198000Y-93716000D01*
X144780000Y-101346000D02*
X140970000Y-97536000D01*
X149899401Y-90424000D02*
X147806912Y-92516489D01*
X140198000Y-93716000D02*
X139690000Y-93716000D01*
X140889511Y-92516489D02*
X139690000Y-93716000D01*
X139690000Y-93716000D02*
X138674000Y-93716000D01*
X144780000Y-103002000D02*
X144780000Y-101346000D01*
X140970000Y-97536000D02*
X140970000Y-94488000D01*
X147806912Y-92516489D02*
X140889511Y-92516489D01*
%TD*%
M02*
