%TF.GenerationSoftware,KiCad,Pcbnew,(6.0.0-0)*%
%TF.CreationDate,2023-11-25T11:43:56-05:00*%
%TF.ProjectId,pinker2,70696e6b-6572-4322-9e6b-696361645f70,rev?*%
%TF.SameCoordinates,Original*%
%TF.FileFunction,Soldermask,Top*%
%TF.FilePolarity,Negative*%
%FSLAX46Y46*%
G04 Gerber Fmt 4.6, Leading zero omitted, Abs format (unit mm)*
G04 Created by KiCad (PCBNEW (6.0.0-0)) date 2023-11-25 11:43:56*
%MOMM*%
%LPD*%
G01*
G04 APERTURE LIST*
%ADD10C,1.440000*%
%ADD11R,1.600000X1.600000*%
%ADD12O,1.600000X1.600000*%
%ADD13C,1.400000*%
%ADD14O,1.400000X1.400000*%
%ADD15C,1.600000*%
%ADD16C,3.400000*%
%ADD17C,2.900000*%
%ADD18R,1.050000X1.500000*%
%ADD19O,1.050000X1.500000*%
%ADD20R,2.000000X2.000000*%
%ADD21C,2.000000*%
%ADD22R,1.200000X1.200000*%
%ADD23C,1.200000*%
G04 APERTURE END LIST*
D10*
%TO.C,R17*%
X132080000Y-100076000D03*
X129540000Y-102616000D03*
X127000000Y-100076000D03*
%TD*%
D11*
%TO.C,U1*%
X146040000Y-94478000D03*
D12*
X138420000Y-86858000D03*
X146040000Y-91938000D03*
X138420000Y-89398000D03*
X146040000Y-89398000D03*
X138420000Y-91938000D03*
X146040000Y-86858000D03*
X138420000Y-94478000D03*
%TD*%
D13*
%TO.C,R11*%
X160024000Y-87503000D03*
D14*
X161924000Y-87503000D03*
%TD*%
D15*
%TO.C,J1*%
X202700000Y-100330000D03*
X207780000Y-92710000D03*
D16*
X193810000Y-100330000D03*
X193810000Y-92710000D03*
D17*
X193810000Y-96520000D03*
X198890000Y-96520000D03*
%TD*%
D13*
%TO.C,R3*%
X139954000Y-102251000D03*
D14*
X139954000Y-100351000D03*
%TD*%
D15*
%TO.C,C3*%
X161329401Y-104648000D03*
X158829401Y-104648000D03*
%TD*%
D18*
%TO.C,Q1*%
X126746000Y-93451000D03*
D19*
X128016000Y-93451000D03*
X129286000Y-93451000D03*
%TD*%
D13*
%TO.C,R15*%
X189881000Y-106426000D03*
D14*
X187981000Y-106426000D03*
%TD*%
D13*
%TO.C,R1*%
X128016000Y-87646000D03*
D14*
X128016000Y-85746000D03*
%TD*%
D20*
%TO.C,C8*%
X180086000Y-99740323D03*
D21*
X180086000Y-104740323D03*
%TD*%
D20*
%TO.C,C6*%
X182707677Y-89916000D03*
D21*
X177707677Y-89916000D03*
%TD*%
D15*
%TO.C,C7*%
X188976000Y-95901000D03*
X188976000Y-98401000D03*
%TD*%
%TO.C,C4*%
X161437000Y-98933000D03*
X158937000Y-98933000D03*
%TD*%
D22*
%TO.C,C9*%
X132994600Y-93197000D03*
D23*
X134494600Y-93197000D03*
%TD*%
D13*
%TO.C,R13*%
X188976000Y-93361000D03*
D14*
X188976000Y-91461000D03*
%TD*%
D13*
%TO.C,R4*%
X143510000Y-102251000D03*
D14*
X143510000Y-100351000D03*
%TD*%
D20*
%TO.C,C5*%
X152146000Y-98724323D03*
D21*
X152146000Y-103724323D03*
%TD*%
D13*
%TO.C,R5*%
X169975677Y-104521000D03*
D14*
X171875677Y-104521000D03*
%TD*%
D13*
%TO.C,R14*%
X188976000Y-102648000D03*
D14*
X188976000Y-100748000D03*
%TD*%
D13*
%TO.C,R10*%
X164977000Y-99187000D03*
D14*
X166877000Y-99187000D03*
%TD*%
D13*
%TO.C,R8*%
X160274599Y-93091000D03*
D14*
X162174599Y-93091000D03*
%TD*%
D13*
%TO.C,R6*%
X171958000Y-98806000D03*
D14*
X170058000Y-98806000D03*
%TD*%
D15*
%TO.C,C2*%
X156444599Y-93091000D03*
X153944599Y-93091000D03*
%TD*%
D13*
%TO.C,R7*%
X156142401Y-87376000D03*
D14*
X154242401Y-87376000D03*
%TD*%
D13*
%TO.C,R2*%
X133858000Y-87519000D03*
D14*
X133858000Y-85619000D03*
%TD*%
D13*
%TO.C,R12*%
X187563000Y-87122000D03*
D14*
X189463000Y-87122000D03*
%TD*%
D20*
%TO.C,C11*%
X169164000Y-87802323D03*
D21*
X169164000Y-92802323D03*
%TD*%
D23*
%TO.C,C10*%
X135406000Y-101092000D03*
D22*
X136906000Y-101092000D03*
%TD*%
%TO.C,C1*%
X149899401Y-90424000D03*
D23*
X151399401Y-90424000D03*
%TD*%
D13*
%TO.C,R9*%
X164957000Y-104648000D03*
D14*
X166857000Y-104648000D03*
%TD*%
M02*
