%TF.GenerationSoftware,KiCad,Pcbnew,(6.0.0-0)*%
%TF.CreationDate,2023-11-25T22:11:59-05:00*%
%TF.ProjectId,pinker2,70696e6b-6572-4322-9e6b-696361645f70,rev?*%
%TF.SameCoordinates,Original*%
%TF.FileFunction,Copper,L2,Bot*%
%TF.FilePolarity,Positive*%
%FSLAX46Y46*%
G04 Gerber Fmt 4.6, Leading zero omitted, Abs format (unit mm)*
G04 Created by KiCad (PCBNEW (6.0.0-0)) date 2023-11-25 22:11:59*
%MOMM*%
%LPD*%
G01*
G04 APERTURE LIST*
%TA.AperFunction,ComponentPad*%
%ADD10C,1.440000*%
%TD*%
%TA.AperFunction,ComponentPad*%
%ADD11O,1.600000X1.600000*%
%TD*%
%TA.AperFunction,ComponentPad*%
%ADD12R,1.600000X1.600000*%
%TD*%
%TA.AperFunction,ComponentPad*%
%ADD13C,1.400000*%
%TD*%
%TA.AperFunction,ComponentPad*%
%ADD14O,1.400000X1.400000*%
%TD*%
%TA.AperFunction,ComponentPad*%
%ADD15C,3.400000*%
%TD*%
%TA.AperFunction,ComponentPad*%
%ADD16C,2.900000*%
%TD*%
%TA.AperFunction,ComponentPad*%
%ADD17C,1.600000*%
%TD*%
%TA.AperFunction,ComponentPad*%
%ADD18O,1.050000X1.500000*%
%TD*%
%TA.AperFunction,ComponentPad*%
%ADD19R,1.050000X1.500000*%
%TD*%
%TA.AperFunction,ComponentPad*%
%ADD20R,2.000000X2.000000*%
%TD*%
%TA.AperFunction,ComponentPad*%
%ADD21C,2.000000*%
%TD*%
%TA.AperFunction,ComponentPad*%
%ADD22C,1.200000*%
%TD*%
%TA.AperFunction,ComponentPad*%
%ADD23R,1.200000X1.200000*%
%TD*%
%TA.AperFunction,Conductor*%
%ADD24C,0.400000*%
%TD*%
G04 APERTURE END LIST*
D10*
%TO.P,R17,3,3*%
%TO.N,Earth*%
X128270000Y-102727000D03*
%TO.P,R17,2,2*%
%TO.N,Net-(C10-Pad2)*%
X130810000Y-105267000D03*
%TO.P,R17,1,1*%
X133350000Y-102727000D03*
%TD*%
D11*
%TO.P,U1,8,V+*%
%TO.N,Net-(C5-Pad2)*%
X138674000Y-96256000D03*
%TO.P,U1,4,V-*%
%TO.N,Earth*%
X146294000Y-88636000D03*
%TO.P,U1,7*%
%TO.N,Net-(C1-Pad1)*%
X138674000Y-93716000D03*
%TO.P,U1,3,+*%
%TO.N,Net-(C11-Pad1)*%
X146294000Y-91176000D03*
%TO.P,U1,6,-*%
%TO.N,Net-(R3-Pad2)*%
X138674000Y-91176000D03*
%TO.P,U1,2,-*%
%TO.N,Net-(C2-Pad2)*%
X146294000Y-93716000D03*
%TO.P,U1,5,+*%
%TO.N,Net-(C9-Pad2)*%
X138674000Y-88636000D03*
D12*
%TO.P,U1,1*%
%TO.N,Net-(R10-Pad2)*%
X146294000Y-96256000D03*
%TD*%
D13*
%TO.P,R11,1*%
%TO.N,Net-(C2-Pad2)*%
X160024000Y-87503000D03*
D14*
%TO.P,R11,2*%
%TO.N,Net-(R10-Pad2)*%
X161924000Y-87503000D03*
%TD*%
D15*
%TO.P,J1,1*%
%TO.N,Earth*%
X193810000Y-100330000D03*
%TO.P,J1,2*%
%TO.N,Net-(C6-Pad1)*%
X193810000Y-92710000D03*
D16*
%TO.P,J1,3*%
%TO.N,Net-(C8-Pad1)*%
X193810000Y-96520000D03*
%TO.P,J1,G*%
%TO.N,N/C*%
X198890000Y-96520000D03*
%TD*%
D14*
%TO.P,R3,2*%
%TO.N,Net-(R3-Pad2)*%
X141224000Y-103002000D03*
D13*
%TO.P,R3,1*%
%TO.N,Net-(C10-Pad1)*%
X141224000Y-104902000D03*
%TD*%
D17*
%TO.P,C3,1*%
%TO.N,Net-(C3-Pad1)*%
X161329401Y-104648000D03*
%TO.P,C3,2*%
%TO.N,Net-(C2-Pad2)*%
X158829401Y-104648000D03*
%TD*%
D18*
%TO.P,Q1,3,E*%
%TO.N,Net-(C9-Pad1)*%
X129540000Y-96118000D03*
%TO.P,Q1,2,B*%
%TO.N,Earth*%
X128270000Y-96118000D03*
D19*
%TO.P,Q1,1,C*%
%TO.N,unconnected-(Q1-Pad1)*%
X127000000Y-96118000D03*
%TD*%
D13*
%TO.P,R15,1*%
%TO.N,Earth*%
X189881000Y-106172000D03*
D14*
%TO.P,R15,2*%
%TO.N,Net-(C8-Pad2)*%
X187981000Y-106172000D03*
%TD*%
%TO.P,R1,2*%
%TO.N,Net-(C5-Pad2)*%
X128270000Y-87397000D03*
D13*
%TO.P,R1,1*%
%TO.N,Net-(C9-Pad1)*%
X128270000Y-89297000D03*
%TD*%
D20*
%TO.P,C8,1*%
%TO.N,Net-(C8-Pad1)*%
X180086000Y-99740323D03*
D21*
%TO.P,C8,2*%
%TO.N,Net-(C8-Pad2)*%
X180086000Y-104740323D03*
%TD*%
D20*
%TO.P,C6,1*%
%TO.N,Net-(C6-Pad1)*%
X183215677Y-90170000D03*
D21*
%TO.P,C6,2*%
%TO.N,Net-(C6-Pad2)*%
X178215677Y-90170000D03*
%TD*%
D17*
%TO.P,C7,1*%
%TO.N,Earth*%
X188976000Y-95250000D03*
%TO.P,C7,2*%
%TO.N,Net-(C5-Pad2)*%
X188976000Y-97750000D03*
%TD*%
%TO.P,C4,1*%
%TO.N,Net-(C4-Pad1)*%
X161437000Y-98933000D03*
%TO.P,C4,2*%
%TO.N,Net-(C2-Pad2)*%
X158937000Y-98933000D03*
%TD*%
D22*
%TO.P,C9,2*%
%TO.N,Net-(C9-Pad2)*%
X134748600Y-95864000D03*
D23*
%TO.P,C9,1*%
%TO.N,Net-(C9-Pad1)*%
X133248600Y-95864000D03*
%TD*%
D13*
%TO.P,R13,1*%
%TO.N,Net-(C5-Pad2)*%
X188976000Y-92599000D03*
D14*
%TO.P,R13,2*%
%TO.N,Net-(C6-Pad1)*%
X188976000Y-90699000D03*
%TD*%
%TO.P,R4,2*%
%TO.N,Net-(C1-Pad1)*%
X144780000Y-103002000D03*
D13*
%TO.P,R4,1*%
%TO.N,Net-(R3-Pad2)*%
X144780000Y-104902000D03*
%TD*%
D21*
%TO.P,C5,2*%
%TO.N,Net-(C5-Pad2)*%
X152146000Y-103724323D03*
D20*
%TO.P,C5,1*%
%TO.N,Earth*%
X152146000Y-98724323D03*
%TD*%
D13*
%TO.P,R5,1*%
%TO.N,Net-(C11-Pad1)*%
X169975677Y-104521000D03*
D14*
%TO.P,R5,2*%
%TO.N,Net-(C5-Pad2)*%
X171875677Y-104521000D03*
%TD*%
D13*
%TO.P,R14,1*%
%TO.N,Net-(C5-Pad2)*%
X188976000Y-102251000D03*
D14*
%TO.P,R14,2*%
%TO.N,Net-(C8-Pad1)*%
X188976000Y-100351000D03*
%TD*%
D13*
%TO.P,R10,1*%
%TO.N,Net-(C4-Pad1)*%
X164977000Y-99187000D03*
D14*
%TO.P,R10,2*%
%TO.N,Net-(R10-Pad2)*%
X166877000Y-99187000D03*
%TD*%
D13*
%TO.P,R8,1*%
%TO.N,Net-(C2-Pad1)*%
X160274599Y-93091000D03*
D14*
%TO.P,R8,2*%
%TO.N,Net-(R10-Pad2)*%
X162174599Y-93091000D03*
%TD*%
D13*
%TO.P,R6,1*%
%TO.N,Earth*%
X171958000Y-98806000D03*
D14*
%TO.P,R6,2*%
%TO.N,Net-(C11-Pad1)*%
X170058000Y-98806000D03*
%TD*%
D17*
%TO.P,C2,1*%
%TO.N,Net-(C2-Pad1)*%
X156444599Y-93091000D03*
%TO.P,C2,2*%
%TO.N,Net-(C2-Pad2)*%
X153944599Y-93091000D03*
%TD*%
D13*
%TO.P,R7,1*%
%TO.N,Net-(C2-Pad2)*%
X156142401Y-87376000D03*
D14*
%TO.P,R7,2*%
%TO.N,Net-(C1-Pad2)*%
X154242401Y-87376000D03*
%TD*%
%TO.P,R2,2*%
%TO.N,Net-(C11-Pad1)*%
X134112000Y-87397000D03*
D13*
%TO.P,R2,1*%
%TO.N,Net-(C9-Pad2)*%
X134112000Y-89297000D03*
%TD*%
%TO.P,R12,1*%
%TO.N,Net-(R10-Pad2)*%
X173990000Y-96012000D03*
D14*
%TO.P,R12,2*%
%TO.N,Net-(C6-Pad2)*%
X175890000Y-96012000D03*
%TD*%
D20*
%TO.P,C11,1*%
%TO.N,Net-(C11-Pad1)*%
X169164000Y-87802323D03*
D21*
%TO.P,C11,2*%
%TO.N,Earth*%
X169164000Y-92802323D03*
%TD*%
D23*
%TO.P,C10,1*%
%TO.N,Net-(C10-Pad1)*%
X138176000Y-103743000D03*
D22*
%TO.P,C10,2*%
%TO.N,Net-(C10-Pad2)*%
X136676000Y-103743000D03*
%TD*%
D23*
%TO.P,C1,1*%
%TO.N,Net-(C1-Pad1)*%
X149899401Y-90424000D03*
D22*
%TO.P,C1,2*%
%TO.N,Net-(C1-Pad2)*%
X151399401Y-90424000D03*
%TD*%
D13*
%TO.P,R9,1*%
%TO.N,Net-(C3-Pad1)*%
X164957000Y-104648000D03*
D14*
%TO.P,R9,2*%
%TO.N,Net-(R10-Pad2)*%
X166857000Y-104648000D03*
%TD*%
D24*
%TO.N,Net-(R10-Pad2)*%
X166877000Y-99187000D02*
X166877000Y-98045000D01*
X166877000Y-98045000D02*
X168910000Y-96012000D01*
X168910000Y-96012000D02*
X173990000Y-96012000D01*
%TO.N,Net-(C5-Pad2)*%
X188976000Y-102251000D02*
X187341000Y-102251000D01*
X186436000Y-99060000D02*
X187746000Y-97750000D01*
X187746000Y-97750000D02*
X188976000Y-97750000D01*
X187341000Y-102251000D02*
X186436000Y-101346000D01*
X186436000Y-101346000D02*
X186436000Y-99060000D01*
%TO.N,Net-(C2-Pad2)*%
X146294000Y-93716000D02*
X153319599Y-93716000D01*
X153319599Y-93716000D02*
X153944599Y-93091000D01*
%TO.N,Net-(R10-Pad2)*%
X146294000Y-96256000D02*
X159009599Y-96256000D01*
X159009599Y-96256000D02*
X162174599Y-93091000D01*
%TO.N,Earth*%
X152146000Y-98724323D02*
X152359161Y-98511161D01*
X152146000Y-98724323D02*
X145206323Y-98724323D01*
X145206323Y-98724323D02*
X144526000Y-98044000D01*
X146294000Y-88636000D02*
X144526000Y-90404000D01*
X144526000Y-90404000D02*
X144526000Y-98044000D01*
%TO.N,Net-(C5-Pad2)*%
X138674000Y-96256000D02*
X138674000Y-98034000D01*
X138674000Y-98034000D02*
X140716000Y-100076000D01*
X140716000Y-100076000D02*
X148497677Y-100076000D01*
X148497677Y-100076000D02*
X152146000Y-103724323D01*
X128270000Y-87397000D02*
X129815000Y-87397000D01*
X129815000Y-87397000D02*
X138674000Y-96256000D01*
%TD*%
%TA.AperFunction,Conductor*%
%TO.N,Earth*%
G36*
X195268121Y-84602002D02*
G01*
X195314614Y-84655658D01*
X195326000Y-84708000D01*
X195326000Y-90831088D01*
X195305998Y-90899209D01*
X195252342Y-90945702D01*
X195182068Y-90955806D01*
X195129998Y-90935853D01*
X195041617Y-90876799D01*
X194916620Y-90793279D01*
X194912921Y-90791455D01*
X194912916Y-90791452D01*
X194660665Y-90667056D01*
X194660663Y-90667055D01*
X194656970Y-90665234D01*
X194622418Y-90653505D01*
X194386738Y-90573502D01*
X194386734Y-90573501D01*
X194382828Y-90572175D01*
X194378784Y-90571371D01*
X194378778Y-90571369D01*
X194102929Y-90516500D01*
X194102926Y-90516500D01*
X194098886Y-90515696D01*
X194094775Y-90515427D01*
X194094771Y-90515426D01*
X193814119Y-90497031D01*
X193810000Y-90496761D01*
X193805881Y-90497031D01*
X193525229Y-90515426D01*
X193525225Y-90515427D01*
X193521114Y-90515696D01*
X193517074Y-90516500D01*
X193517071Y-90516500D01*
X193241222Y-90571369D01*
X193241216Y-90571371D01*
X193237172Y-90572175D01*
X193233266Y-90573501D01*
X193233262Y-90573502D01*
X192997582Y-90653505D01*
X192963030Y-90665234D01*
X192959337Y-90667055D01*
X192959335Y-90667056D01*
X192894559Y-90699000D01*
X192703381Y-90793279D01*
X192462665Y-90954119D01*
X192459573Y-90956831D01*
X192459566Y-90956836D01*
X192324222Y-91075531D01*
X192245004Y-91145004D01*
X192242295Y-91148093D01*
X192056836Y-91359566D01*
X192056831Y-91359573D01*
X192054119Y-91362665D01*
X191893279Y-91603381D01*
X191884780Y-91620615D01*
X191788758Y-91815329D01*
X191765234Y-91863030D01*
X191763911Y-91866928D01*
X191763910Y-91866930D01*
X191691025Y-92081643D01*
X191672175Y-92137172D01*
X191671371Y-92141216D01*
X191671369Y-92141222D01*
X191624128Y-92378722D01*
X191615696Y-92421114D01*
X191615427Y-92425225D01*
X191615426Y-92425229D01*
X191601234Y-92641757D01*
X191596761Y-92710000D01*
X191597031Y-92714119D01*
X191614950Y-92987498D01*
X191615696Y-92998886D01*
X191616500Y-93002926D01*
X191616500Y-93002929D01*
X191670486Y-93274335D01*
X191672175Y-93282828D01*
X191673501Y-93286734D01*
X191673502Y-93286738D01*
X191754180Y-93524406D01*
X191765234Y-93556970D01*
X191893279Y-93816619D01*
X192054119Y-94057335D01*
X192056831Y-94060427D01*
X192056836Y-94060434D01*
X192213486Y-94239057D01*
X192245004Y-94274996D01*
X192248093Y-94277705D01*
X192459565Y-94463163D01*
X192459571Y-94463168D01*
X192462665Y-94465881D01*
X192703380Y-94626721D01*
X192707078Y-94628545D01*
X192707089Y-94628551D01*
X192743729Y-94646619D01*
X192795979Y-94694686D01*
X192813946Y-94763372D01*
X192791927Y-94830868D01*
X192761260Y-94862140D01*
X192660951Y-94933822D01*
X192558416Y-95007095D01*
X192555196Y-95010167D01*
X192363759Y-95192789D01*
X192357732Y-95198538D01*
X192247565Y-95338285D01*
X192192712Y-95407866D01*
X192186025Y-95416348D01*
X192183793Y-95420190D01*
X192183790Y-95420195D01*
X192048958Y-95652324D01*
X192048955Y-95652330D01*
X192046720Y-95656178D01*
X192045046Y-95660311D01*
X191944271Y-95909112D01*
X191944268Y-95909120D01*
X191942598Y-95913244D01*
X191875735Y-96182417D01*
X191847466Y-96458325D01*
X191848687Y-96489402D01*
X191857665Y-96717891D01*
X191858355Y-96735464D01*
X191861395Y-96752109D01*
X191900238Y-96964792D01*
X191908184Y-97008303D01*
X191918022Y-97037790D01*
X191977583Y-97216316D01*
X191995960Y-97271400D01*
X191997952Y-97275387D01*
X191997953Y-97275389D01*
X192115065Y-97509767D01*
X192119930Y-97519504D01*
X192277623Y-97747666D01*
X192305141Y-97777435D01*
X192462874Y-97948070D01*
X192462879Y-97948075D01*
X192465890Y-97951332D01*
X192680975Y-98126439D01*
X192684793Y-98128738D01*
X192684795Y-98128739D01*
X192755904Y-98171550D01*
X192803948Y-98223822D01*
X192816104Y-98293770D01*
X192788514Y-98359186D01*
X192746643Y-98392502D01*
X192707335Y-98411887D01*
X192700198Y-98416007D01*
X192466399Y-98572226D01*
X192459871Y-98577235D01*
X192450354Y-98585581D01*
X192441959Y-98598817D01*
X192447794Y-98608584D01*
X194080115Y-100240905D01*
X194114141Y-100303217D01*
X194109076Y-100374032D01*
X194080115Y-100419095D01*
X192449547Y-102049663D01*
X192442032Y-102063424D01*
X192448489Y-102072783D01*
X192459871Y-102082765D01*
X192466399Y-102087774D01*
X192700198Y-102243993D01*
X192707335Y-102248114D01*
X192959527Y-102372481D01*
X192967122Y-102375627D01*
X193233391Y-102466014D01*
X193241351Y-102468147D01*
X193517137Y-102523004D01*
X193525295Y-102524078D01*
X193805881Y-102542468D01*
X193814119Y-102542468D01*
X194094705Y-102524078D01*
X194102863Y-102523004D01*
X194378649Y-102468147D01*
X194386609Y-102466014D01*
X194652878Y-102375627D01*
X194660473Y-102372481D01*
X194912665Y-102248114D01*
X194919802Y-102243993D01*
X195129998Y-102103545D01*
X195197751Y-102082330D01*
X195266218Y-102101113D01*
X195313661Y-102153930D01*
X195326000Y-102208310D01*
X195326000Y-108332000D01*
X195305998Y-108400121D01*
X195252342Y-108446614D01*
X195200000Y-108458000D01*
X125094000Y-108458000D01*
X125025879Y-108437998D01*
X124979386Y-108384342D01*
X124968000Y-108332000D01*
X124968000Y-105267000D01*
X129576807Y-105267000D01*
X129595542Y-105481142D01*
X129596966Y-105486455D01*
X129596966Y-105486457D01*
X129644105Y-105662379D01*
X129651178Y-105688777D01*
X129653500Y-105693757D01*
X129653501Y-105693759D01*
X129723171Y-105843165D01*
X129742024Y-105883596D01*
X129865319Y-106059681D01*
X130017319Y-106211681D01*
X130193403Y-106334976D01*
X130198381Y-106337297D01*
X130198384Y-106337299D01*
X130307049Y-106387970D01*
X130388223Y-106425822D01*
X130393531Y-106427244D01*
X130393533Y-106427245D01*
X130590543Y-106480034D01*
X130590545Y-106480034D01*
X130595858Y-106481458D01*
X130810000Y-106500193D01*
X131024142Y-106481458D01*
X131029455Y-106480034D01*
X131029457Y-106480034D01*
X131226467Y-106427245D01*
X131226469Y-106427244D01*
X131231777Y-106425822D01*
X131312951Y-106387970D01*
X131421616Y-106337299D01*
X131421619Y-106337297D01*
X131426597Y-106334976D01*
X131602681Y-106211681D01*
X131754681Y-106059681D01*
X131877976Y-105883596D01*
X131896830Y-105843165D01*
X131966499Y-105693759D01*
X131966500Y-105693757D01*
X131968822Y-105688777D01*
X131975896Y-105662379D01*
X132023034Y-105486457D01*
X132023034Y-105486455D01*
X132024458Y-105481142D01*
X132043193Y-105267000D01*
X132024458Y-105052858D01*
X132004730Y-104979231D01*
X131984036Y-104902000D01*
X140010884Y-104902000D01*
X140029314Y-105112655D01*
X140030738Y-105117968D01*
X140030738Y-105117970D01*
X140080765Y-105304671D01*
X140084044Y-105316910D01*
X140086366Y-105321891D01*
X140086367Y-105321892D01*
X140165830Y-105492300D01*
X140173411Y-105508558D01*
X140294699Y-105681776D01*
X140444224Y-105831301D01*
X140617442Y-105952589D01*
X140622420Y-105954910D01*
X140622423Y-105954912D01*
X140647971Y-105966825D01*
X140809090Y-106041956D01*
X140814398Y-106043378D01*
X140814400Y-106043379D01*
X141008030Y-106095262D01*
X141008032Y-106095262D01*
X141013345Y-106096686D01*
X141224000Y-106115116D01*
X141434655Y-106096686D01*
X141439968Y-106095262D01*
X141439970Y-106095262D01*
X141633600Y-106043379D01*
X141633602Y-106043378D01*
X141638910Y-106041956D01*
X141800029Y-105966825D01*
X141825577Y-105954912D01*
X141825580Y-105954910D01*
X141830558Y-105952589D01*
X142003776Y-105831301D01*
X142153301Y-105681776D01*
X142274589Y-105508558D01*
X142282171Y-105492300D01*
X142361633Y-105321892D01*
X142361634Y-105321891D01*
X142363956Y-105316910D01*
X142367236Y-105304671D01*
X142417262Y-105117970D01*
X142417262Y-105117968D01*
X142418686Y-105112655D01*
X142437116Y-104902000D01*
X143566884Y-104902000D01*
X143585314Y-105112655D01*
X143586738Y-105117968D01*
X143586738Y-105117970D01*
X143636765Y-105304671D01*
X143640044Y-105316910D01*
X143642366Y-105321891D01*
X143642367Y-105321892D01*
X143721830Y-105492300D01*
X143729411Y-105508558D01*
X143850699Y-105681776D01*
X144000224Y-105831301D01*
X144173442Y-105952589D01*
X144178420Y-105954910D01*
X144178423Y-105954912D01*
X144203971Y-105966825D01*
X144365090Y-106041956D01*
X144370398Y-106043378D01*
X144370400Y-106043379D01*
X144564030Y-106095262D01*
X144564032Y-106095262D01*
X144569345Y-106096686D01*
X144780000Y-106115116D01*
X144990655Y-106096686D01*
X144995968Y-106095262D01*
X144995970Y-106095262D01*
X145189600Y-106043379D01*
X145189602Y-106043378D01*
X145194910Y-106041956D01*
X145356029Y-105966825D01*
X145381577Y-105954912D01*
X145381580Y-105954910D01*
X145386558Y-105952589D01*
X145559776Y-105831301D01*
X145709301Y-105681776D01*
X145830589Y-105508558D01*
X145838171Y-105492300D01*
X145917633Y-105321892D01*
X145917634Y-105321891D01*
X145919956Y-105316910D01*
X145923236Y-105304671D01*
X145973262Y-105117970D01*
X145973262Y-105117968D01*
X145974686Y-105112655D01*
X145993116Y-104902000D01*
X145974686Y-104691345D01*
X145953255Y-104611364D01*
X145921379Y-104492400D01*
X145921378Y-104492398D01*
X145919956Y-104487090D01*
X145886576Y-104415506D01*
X145832912Y-104300423D01*
X145832910Y-104300420D01*
X145830589Y-104295442D01*
X145709301Y-104122224D01*
X145628172Y-104041095D01*
X145594146Y-103978783D01*
X145599211Y-103907968D01*
X145628172Y-103862905D01*
X145709301Y-103781776D01*
X145830589Y-103608558D01*
X145836635Y-103595594D01*
X145917633Y-103421892D01*
X145917634Y-103421891D01*
X145919956Y-103416910D01*
X145925916Y-103394669D01*
X145973262Y-103217970D01*
X145973262Y-103217968D01*
X145974686Y-103212655D01*
X145993116Y-103002000D01*
X145974686Y-102791345D01*
X145970484Y-102775664D01*
X145921379Y-102592400D01*
X145921378Y-102592398D01*
X145919956Y-102587090D01*
X145917633Y-102582108D01*
X145832912Y-102400423D01*
X145832910Y-102400420D01*
X145830589Y-102395442D01*
X145709301Y-102222224D01*
X145559776Y-102072699D01*
X145386558Y-101951411D01*
X145381580Y-101949090D01*
X145381577Y-101949088D01*
X145199892Y-101864367D01*
X145199891Y-101864366D01*
X145194910Y-101862044D01*
X145189602Y-101860622D01*
X145189600Y-101860621D01*
X144995970Y-101808738D01*
X144995968Y-101808738D01*
X144990655Y-101807314D01*
X144780000Y-101788884D01*
X144569345Y-101807314D01*
X144564032Y-101808738D01*
X144564030Y-101808738D01*
X144370400Y-101860621D01*
X144370398Y-101860622D01*
X144365090Y-101862044D01*
X144360109Y-101864366D01*
X144360108Y-101864367D01*
X144178423Y-101949088D01*
X144178420Y-101949090D01*
X144173442Y-101951411D01*
X144000224Y-102072699D01*
X143850699Y-102222224D01*
X143729411Y-102395442D01*
X143727090Y-102400420D01*
X143727088Y-102400423D01*
X143642367Y-102582108D01*
X143640044Y-102587090D01*
X143638622Y-102592398D01*
X143638621Y-102592400D01*
X143589516Y-102775664D01*
X143585314Y-102791345D01*
X143566884Y-103002000D01*
X143585314Y-103212655D01*
X143586738Y-103217968D01*
X143586738Y-103217970D01*
X143634085Y-103394669D01*
X143640044Y-103416910D01*
X143642366Y-103421891D01*
X143642367Y-103421892D01*
X143723366Y-103595594D01*
X143729411Y-103608558D01*
X143850699Y-103781776D01*
X143931828Y-103862905D01*
X143965854Y-103925217D01*
X143960789Y-103996032D01*
X143931828Y-104041095D01*
X143850699Y-104122224D01*
X143729411Y-104295442D01*
X143727090Y-104300420D01*
X143727088Y-104300423D01*
X143673424Y-104415506D01*
X143640044Y-104487090D01*
X143638622Y-104492398D01*
X143638621Y-104492400D01*
X143606745Y-104611364D01*
X143585314Y-104691345D01*
X143566884Y-104902000D01*
X142437116Y-104902000D01*
X142418686Y-104691345D01*
X142397255Y-104611364D01*
X142365379Y-104492400D01*
X142365378Y-104492398D01*
X142363956Y-104487090D01*
X142330576Y-104415506D01*
X142276912Y-104300423D01*
X142276910Y-104300420D01*
X142274589Y-104295442D01*
X142153301Y-104122224D01*
X142072172Y-104041095D01*
X142038146Y-103978783D01*
X142043211Y-103907968D01*
X142072172Y-103862905D01*
X142153301Y-103781776D01*
X142274589Y-103608558D01*
X142280635Y-103595594D01*
X142361633Y-103421892D01*
X142361634Y-103421891D01*
X142363956Y-103416910D01*
X142369916Y-103394669D01*
X142417262Y-103217970D01*
X142417262Y-103217968D01*
X142418686Y-103212655D01*
X142437116Y-103002000D01*
X142418686Y-102791345D01*
X142414484Y-102775664D01*
X142365379Y-102592400D01*
X142365378Y-102592398D01*
X142363956Y-102587090D01*
X142361633Y-102582108D01*
X142276912Y-102400423D01*
X142276910Y-102400420D01*
X142274589Y-102395442D01*
X142153301Y-102222224D01*
X142003776Y-102072699D01*
X141830558Y-101951411D01*
X141825580Y-101949090D01*
X141825577Y-101949088D01*
X141643892Y-101864367D01*
X141643891Y-101864366D01*
X141638910Y-101862044D01*
X141633602Y-101860622D01*
X141633600Y-101860621D01*
X141439970Y-101808738D01*
X141439968Y-101808738D01*
X141434655Y-101807314D01*
X141224000Y-101788884D01*
X141013345Y-101807314D01*
X141008032Y-101808738D01*
X141008030Y-101808738D01*
X140814400Y-101860621D01*
X140814398Y-101860622D01*
X140809090Y-101862044D01*
X140804109Y-101864366D01*
X140804108Y-101864367D01*
X140622423Y-101949088D01*
X140622420Y-101949090D01*
X140617442Y-101951411D01*
X140444224Y-102072699D01*
X140294699Y-102222224D01*
X140173411Y-102395442D01*
X140171090Y-102400420D01*
X140171088Y-102400423D01*
X140086367Y-102582108D01*
X140084044Y-102587090D01*
X140082622Y-102592398D01*
X140082621Y-102592400D01*
X140033516Y-102775664D01*
X140029314Y-102791345D01*
X140010884Y-103002000D01*
X140029314Y-103212655D01*
X140030738Y-103217968D01*
X140030738Y-103217970D01*
X140078085Y-103394669D01*
X140084044Y-103416910D01*
X140086366Y-103421891D01*
X140086367Y-103421892D01*
X140167366Y-103595594D01*
X140173411Y-103608558D01*
X140294699Y-103781776D01*
X140375828Y-103862905D01*
X140409854Y-103925217D01*
X140404789Y-103996032D01*
X140375828Y-104041095D01*
X140294699Y-104122224D01*
X140173411Y-104295442D01*
X140171090Y-104300420D01*
X140171088Y-104300423D01*
X140117424Y-104415506D01*
X140084044Y-104487090D01*
X140082622Y-104492398D01*
X140082621Y-104492400D01*
X140050745Y-104611364D01*
X140029314Y-104691345D01*
X140010884Y-104902000D01*
X131984036Y-104902000D01*
X131970245Y-104850533D01*
X131970244Y-104850531D01*
X131968822Y-104845223D01*
X131966499Y-104840241D01*
X131880299Y-104655385D01*
X131880297Y-104655382D01*
X131877976Y-104650404D01*
X131754681Y-104474319D01*
X131602681Y-104322319D01*
X131426597Y-104199024D01*
X131421619Y-104196703D01*
X131421616Y-104196701D01*
X131236759Y-104110501D01*
X131236758Y-104110500D01*
X131231777Y-104108178D01*
X131226469Y-104106756D01*
X131226467Y-104106755D01*
X131029457Y-104053966D01*
X131029455Y-104053966D01*
X131024142Y-104052542D01*
X130810000Y-104033807D01*
X130595858Y-104052542D01*
X130590545Y-104053966D01*
X130590543Y-104053966D01*
X130393533Y-104106755D01*
X130393531Y-104106756D01*
X130388223Y-104108178D01*
X130383243Y-104110500D01*
X130383241Y-104110501D01*
X130198385Y-104196701D01*
X130198382Y-104196703D01*
X130193404Y-104199024D01*
X130017319Y-104322319D01*
X129865319Y-104474319D01*
X129742024Y-104650404D01*
X129739703Y-104655382D01*
X129739701Y-104655385D01*
X129653501Y-104840241D01*
X129651178Y-104845223D01*
X129649756Y-104850531D01*
X129649755Y-104850533D01*
X129615270Y-104979231D01*
X129595542Y-105052858D01*
X129576807Y-105267000D01*
X124968000Y-105267000D01*
X124968000Y-103755621D01*
X127605933Y-103755621D01*
X127615227Y-103767635D01*
X127649146Y-103791385D01*
X127658641Y-103796868D01*
X127843413Y-103883028D01*
X127853705Y-103886774D01*
X128050632Y-103939540D01*
X128061425Y-103941443D01*
X128264525Y-103959212D01*
X128275475Y-103959212D01*
X128478575Y-103941443D01*
X128489368Y-103939540D01*
X128686295Y-103886774D01*
X128696587Y-103883028D01*
X128881359Y-103796868D01*
X128890854Y-103791385D01*
X128925607Y-103767051D01*
X128933983Y-103756572D01*
X128926916Y-103743127D01*
X128282811Y-103099021D01*
X128268868Y-103091408D01*
X128267034Y-103091539D01*
X128260420Y-103095790D01*
X127612360Y-103743851D01*
X127605933Y-103755621D01*
X124968000Y-103755621D01*
X124968000Y-102732475D01*
X127037788Y-102732475D01*
X127055557Y-102935575D01*
X127057460Y-102946368D01*
X127110226Y-103143295D01*
X127113972Y-103153587D01*
X127200135Y-103338364D01*
X127205613Y-103347850D01*
X127229949Y-103382607D01*
X127240428Y-103390983D01*
X127253872Y-103383917D01*
X127897979Y-102739811D01*
X127904356Y-102728132D01*
X128634408Y-102728132D01*
X128634539Y-102729966D01*
X128638790Y-102736580D01*
X129286851Y-103384640D01*
X129298621Y-103391067D01*
X129310635Y-103381772D01*
X129334387Y-103347850D01*
X129339865Y-103338364D01*
X129426028Y-103153587D01*
X129429774Y-103143295D01*
X129482540Y-102946368D01*
X129484443Y-102935575D01*
X129502212Y-102732475D01*
X129502212Y-102727000D01*
X132116807Y-102727000D01*
X132135542Y-102941142D01*
X132136966Y-102946455D01*
X132136966Y-102946457D01*
X132159560Y-103030776D01*
X132191178Y-103148777D01*
X132193500Y-103153757D01*
X132193501Y-103153759D01*
X132278007Y-103334981D01*
X132282024Y-103343596D01*
X132405319Y-103519681D01*
X132557319Y-103671681D01*
X132733403Y-103794976D01*
X132738381Y-103797297D01*
X132738384Y-103797299D01*
X132805915Y-103828789D01*
X132928223Y-103885822D01*
X132933531Y-103887244D01*
X132933533Y-103887245D01*
X133130543Y-103940034D01*
X133130545Y-103940034D01*
X133135858Y-103941458D01*
X133350000Y-103960193D01*
X133564142Y-103941458D01*
X133569455Y-103940034D01*
X133569457Y-103940034D01*
X133766467Y-103887245D01*
X133766469Y-103887244D01*
X133771777Y-103885822D01*
X133894085Y-103828789D01*
X133961616Y-103797299D01*
X133961619Y-103797297D01*
X133966597Y-103794976D01*
X134082444Y-103713859D01*
X135563132Y-103713859D01*
X135576457Y-103917151D01*
X135626605Y-104114610D01*
X135711898Y-104299624D01*
X135829479Y-104465997D01*
X135851132Y-104487090D01*
X135956469Y-104589705D01*
X135975410Y-104608157D01*
X135980206Y-104611362D01*
X135980209Y-104611364D01*
X136091955Y-104686030D01*
X136144803Y-104721342D01*
X136150106Y-104723620D01*
X136150109Y-104723622D01*
X136326680Y-104799483D01*
X136331987Y-104801763D01*
X136404817Y-104818243D01*
X136525055Y-104845450D01*
X136525060Y-104845451D01*
X136530692Y-104846725D01*
X136536463Y-104846952D01*
X136536465Y-104846952D01*
X136599470Y-104849427D01*
X136734263Y-104854723D01*
X136935883Y-104825490D01*
X136941347Y-104823635D01*
X136941352Y-104823634D01*
X137123327Y-104761862D01*
X137123332Y-104761860D01*
X137128799Y-104760004D01*
X137146355Y-104750172D01*
X137215560Y-104734339D01*
X137283482Y-104759280D01*
X137329295Y-104793615D01*
X137465684Y-104844745D01*
X137527866Y-104851500D01*
X138824134Y-104851500D01*
X138886316Y-104844745D01*
X139022705Y-104793615D01*
X139139261Y-104706261D01*
X139226615Y-104589705D01*
X139277745Y-104453316D01*
X139284500Y-104391134D01*
X139284500Y-103094866D01*
X139277745Y-103032684D01*
X139226615Y-102896295D01*
X139139261Y-102779739D01*
X139022705Y-102692385D01*
X138886316Y-102641255D01*
X138824134Y-102634500D01*
X137527866Y-102634500D01*
X137465684Y-102641255D01*
X137329295Y-102692385D01*
X137322110Y-102697770D01*
X137322108Y-102697771D01*
X137304336Y-102711091D01*
X137283383Y-102726794D01*
X137216878Y-102751643D01*
X137161130Y-102742999D01*
X136992180Y-102675595D01*
X136792366Y-102635849D01*
X136786592Y-102635773D01*
X136786588Y-102635773D01*
X136683452Y-102634424D01*
X136588655Y-102633183D01*
X136582958Y-102634162D01*
X136582957Y-102634162D01*
X136398194Y-102665910D01*
X136387870Y-102667684D01*
X136196734Y-102738198D01*
X136191773Y-102741150D01*
X136191772Y-102741150D01*
X136040500Y-102831148D01*
X136021649Y-102842363D01*
X135868478Y-102976690D01*
X135864911Y-102981215D01*
X135864906Y-102981220D01*
X135778331Y-103091040D01*
X135742351Y-103136681D01*
X135739662Y-103141792D01*
X135739660Y-103141795D01*
X135719401Y-103180301D01*
X135647492Y-103316978D01*
X135587078Y-103511543D01*
X135563132Y-103713859D01*
X134082444Y-103713859D01*
X134142681Y-103671681D01*
X134294681Y-103519681D01*
X134417976Y-103343596D01*
X134421994Y-103334981D01*
X134506499Y-103153759D01*
X134506500Y-103153757D01*
X134508822Y-103148777D01*
X134540441Y-103030776D01*
X134563034Y-102946457D01*
X134563034Y-102946455D01*
X134564458Y-102941142D01*
X134583193Y-102727000D01*
X134564458Y-102512858D01*
X134563034Y-102507543D01*
X134510245Y-102310533D01*
X134510244Y-102310531D01*
X134508822Y-102305223D01*
X134500377Y-102287112D01*
X134420299Y-102115385D01*
X134420297Y-102115382D01*
X134417976Y-102110404D01*
X134294681Y-101934319D01*
X134142681Y-101782319D01*
X133966597Y-101659024D01*
X133961619Y-101656703D01*
X133961616Y-101656701D01*
X133776759Y-101570501D01*
X133776758Y-101570500D01*
X133771777Y-101568178D01*
X133766469Y-101566756D01*
X133766467Y-101566755D01*
X133569457Y-101513966D01*
X133569455Y-101513966D01*
X133564142Y-101512542D01*
X133350000Y-101493807D01*
X133135858Y-101512542D01*
X133130545Y-101513966D01*
X133130543Y-101513966D01*
X132933533Y-101566755D01*
X132933531Y-101566756D01*
X132928223Y-101568178D01*
X132923243Y-101570500D01*
X132923241Y-101570501D01*
X132738385Y-101656701D01*
X132738382Y-101656703D01*
X132733404Y-101659024D01*
X132557319Y-101782319D01*
X132405319Y-101934319D01*
X132282024Y-102110404D01*
X132279703Y-102115382D01*
X132279701Y-102115385D01*
X132199623Y-102287112D01*
X132191178Y-102305223D01*
X132189756Y-102310531D01*
X132189755Y-102310533D01*
X132136966Y-102507543D01*
X132135542Y-102512858D01*
X132116807Y-102727000D01*
X129502212Y-102727000D01*
X129502212Y-102721525D01*
X129484443Y-102518425D01*
X129482540Y-102507632D01*
X129429774Y-102310705D01*
X129426028Y-102300413D01*
X129339865Y-102115636D01*
X129334387Y-102106150D01*
X129310051Y-102071393D01*
X129299572Y-102063017D01*
X129286128Y-102070083D01*
X128642021Y-102714189D01*
X128634408Y-102728132D01*
X127904356Y-102728132D01*
X127905592Y-102725868D01*
X127905461Y-102724034D01*
X127901210Y-102717420D01*
X127253149Y-102069360D01*
X127241379Y-102062933D01*
X127229365Y-102072228D01*
X127205613Y-102106150D01*
X127200135Y-102115636D01*
X127113972Y-102300413D01*
X127110226Y-102310705D01*
X127057460Y-102507632D01*
X127055557Y-102518425D01*
X127037788Y-102721525D01*
X127037788Y-102732475D01*
X124968000Y-102732475D01*
X124968000Y-101697428D01*
X127606017Y-101697428D01*
X127613083Y-101710872D01*
X128257189Y-102354979D01*
X128271132Y-102362592D01*
X128272966Y-102362461D01*
X128279580Y-102358210D01*
X128927640Y-101710149D01*
X128934067Y-101698379D01*
X128924773Y-101686365D01*
X128890854Y-101662615D01*
X128881359Y-101657132D01*
X128696587Y-101570972D01*
X128686295Y-101567226D01*
X128489368Y-101514460D01*
X128478575Y-101512557D01*
X128275475Y-101494788D01*
X128264525Y-101494788D01*
X128061425Y-101512557D01*
X128050632Y-101514460D01*
X127853705Y-101567226D01*
X127843413Y-101570972D01*
X127658636Y-101657135D01*
X127649150Y-101662613D01*
X127614393Y-101686949D01*
X127606017Y-101697428D01*
X124968000Y-101697428D01*
X124968000Y-96916134D01*
X125966500Y-96916134D01*
X125973255Y-96978316D01*
X126024385Y-97114705D01*
X126111739Y-97231261D01*
X126228295Y-97318615D01*
X126364684Y-97369745D01*
X126426866Y-97376500D01*
X127573134Y-97376500D01*
X127635316Y-97369745D01*
X127710294Y-97341637D01*
X127763301Y-97321766D01*
X127763304Y-97321764D01*
X127771705Y-97318615D01*
X127778888Y-97313232D01*
X127779753Y-97312758D01*
X127849110Y-97297589D01*
X127877522Y-97302913D01*
X127998693Y-97340422D01*
X128012795Y-97340628D01*
X128016000Y-97333873D01*
X128016000Y-97029820D01*
X128022584Y-96993505D01*
X128022144Y-96993400D01*
X128023971Y-96985715D01*
X128026745Y-96978316D01*
X128033500Y-96916134D01*
X128033500Y-96394004D01*
X128506500Y-96394004D01*
X128521277Y-96544713D01*
X128521968Y-96547002D01*
X128524000Y-96567724D01*
X128524000Y-97326986D01*
X128527973Y-97340517D01*
X128535768Y-97341637D01*
X128652932Y-97307154D01*
X128664300Y-97302561D01*
X128832907Y-97214416D01*
X128835983Y-97212403D01*
X128837822Y-97211846D01*
X128838370Y-97211560D01*
X128838424Y-97211664D01*
X128903936Y-97191839D01*
X128964906Y-97206999D01*
X129137565Y-97300356D01*
X129234372Y-97330323D01*
X129325293Y-97358468D01*
X129325296Y-97358469D01*
X129331180Y-97360290D01*
X129337305Y-97360934D01*
X129337306Y-97360934D01*
X129526622Y-97380832D01*
X129526623Y-97380832D01*
X129532750Y-97381476D01*
X129616014Y-97373898D01*
X129728457Y-97363665D01*
X129728460Y-97363664D01*
X129734596Y-97363106D01*
X129740502Y-97361368D01*
X129740506Y-97361367D01*
X129923120Y-97307620D01*
X129923119Y-97307620D01*
X129929029Y-97305881D01*
X129934486Y-97303028D01*
X129934489Y-97303027D01*
X130082127Y-97225844D01*
X130108645Y-97211981D01*
X130266601Y-97084981D01*
X130396881Y-96929719D01*
X130399845Y-96924327D01*
X130399848Y-96924323D01*
X130491556Y-96757506D01*
X130494523Y-96752109D01*
X130555807Y-96558916D01*
X130557401Y-96544713D01*
X130561055Y-96512134D01*
X132140100Y-96512134D01*
X132146855Y-96574316D01*
X132197985Y-96710705D01*
X132285339Y-96827261D01*
X132401895Y-96914615D01*
X132538284Y-96965745D01*
X132600466Y-96972500D01*
X133896734Y-96972500D01*
X133958916Y-96965745D01*
X134095305Y-96914615D01*
X134142762Y-96879048D01*
X134209266Y-96854201D01*
X134268063Y-96864108D01*
X134399271Y-96920480D01*
X134399280Y-96920483D01*
X134404587Y-96922763D01*
X134456179Y-96934437D01*
X134597655Y-96966450D01*
X134597660Y-96966451D01*
X134603292Y-96967725D01*
X134609063Y-96967952D01*
X134609065Y-96967952D01*
X134672070Y-96970427D01*
X134806863Y-96975723D01*
X135008483Y-96946490D01*
X135013947Y-96944635D01*
X135013952Y-96944634D01*
X135195927Y-96882862D01*
X135195932Y-96882860D01*
X135201399Y-96881004D01*
X135379151Y-96781458D01*
X135535786Y-96651186D01*
X135666058Y-96494551D01*
X135732483Y-96375941D01*
X135762780Y-96321842D01*
X135762781Y-96321840D01*
X135765604Y-96316799D01*
X135767460Y-96311332D01*
X135767462Y-96311327D01*
X135829234Y-96129352D01*
X135829235Y-96129347D01*
X135831090Y-96123883D01*
X135860323Y-95922263D01*
X135861849Y-95864000D01*
X135846207Y-95693761D01*
X135843737Y-95666880D01*
X135843736Y-95666877D01*
X135843208Y-95661126D01*
X135793222Y-95483891D01*
X135789475Y-95470606D01*
X135789474Y-95470604D01*
X135787907Y-95465047D01*
X135774860Y-95438589D01*
X135700356Y-95287510D01*
X135697801Y-95282329D01*
X135680814Y-95259580D01*
X135579358Y-95123715D01*
X135579358Y-95123714D01*
X135575905Y-95119091D01*
X135465783Y-95017295D01*
X135430543Y-94984719D01*
X135430540Y-94984717D01*
X135426303Y-94980800D01*
X135360114Y-94939038D01*
X135258888Y-94875169D01*
X135258883Y-94875167D01*
X135254004Y-94872088D01*
X135064780Y-94796595D01*
X134864966Y-94756849D01*
X134859192Y-94756773D01*
X134859188Y-94756773D01*
X134756052Y-94755424D01*
X134661255Y-94754183D01*
X134655558Y-94755162D01*
X134655557Y-94755162D01*
X134466167Y-94787705D01*
X134460470Y-94788684D01*
X134269334Y-94859198D01*
X134268198Y-94859874D01*
X134199531Y-94870918D01*
X134139815Y-94846744D01*
X134138607Y-94845838D01*
X134118632Y-94830868D01*
X134102492Y-94818771D01*
X134102490Y-94818770D01*
X134095305Y-94813385D01*
X133958916Y-94762255D01*
X133896734Y-94755500D01*
X132600466Y-94755500D01*
X132538284Y-94762255D01*
X132401895Y-94813385D01*
X132285339Y-94900739D01*
X132197985Y-95017295D01*
X132146855Y-95153684D01*
X132140100Y-95215866D01*
X132140100Y-96512134D01*
X130561055Y-96512134D01*
X130567587Y-96453893D01*
X130573500Y-96401183D01*
X130573500Y-95841996D01*
X130558723Y-95691287D01*
X130500142Y-95497258D01*
X130404990Y-95318302D01*
X130399218Y-95311224D01*
X130280785Y-95166013D01*
X130276890Y-95161237D01*
X130229018Y-95121634D01*
X130125472Y-95035973D01*
X130125469Y-95035971D01*
X130120722Y-95032044D01*
X129942435Y-94935644D01*
X129834159Y-94902127D01*
X129754707Y-94877532D01*
X129754704Y-94877531D01*
X129748820Y-94875710D01*
X129742695Y-94875066D01*
X129742694Y-94875066D01*
X129553378Y-94855168D01*
X129553377Y-94855168D01*
X129547250Y-94854524D01*
X129463986Y-94862102D01*
X129351543Y-94872335D01*
X129351540Y-94872336D01*
X129345404Y-94872894D01*
X129339498Y-94874632D01*
X129339494Y-94874633D01*
X129264712Y-94896643D01*
X129150971Y-94930119D01*
X129145514Y-94932972D01*
X129145511Y-94932973D01*
X128976819Y-95021162D01*
X128976815Y-95021165D01*
X128971355Y-95024019D01*
X128971103Y-95024221D01*
X128905088Y-95044201D01*
X128844115Y-95029041D01*
X128677658Y-94939038D01*
X128666353Y-94934286D01*
X128541308Y-94895578D01*
X128527205Y-94895372D01*
X128524000Y-94902127D01*
X128524000Y-95671758D01*
X128523215Y-95685803D01*
X128506500Y-95834817D01*
X128506500Y-96394004D01*
X128033500Y-96394004D01*
X128033500Y-95319866D01*
X128026745Y-95257684D01*
X128023971Y-95250284D01*
X128022144Y-95242600D01*
X128022584Y-95242495D01*
X128016000Y-95206180D01*
X128016000Y-94909014D01*
X128012027Y-94895483D01*
X128004232Y-94894363D01*
X127887067Y-94928846D01*
X127886560Y-94929051D01*
X127886276Y-94929079D01*
X127881159Y-94930585D01*
X127880873Y-94929612D01*
X127815906Y-94936025D01*
X127778869Y-94922754D01*
X127771705Y-94917385D01*
X127635316Y-94866255D01*
X127573134Y-94859500D01*
X126426866Y-94859500D01*
X126364684Y-94866255D01*
X126228295Y-94917385D01*
X126111739Y-95004739D01*
X126024385Y-95121295D01*
X125973255Y-95257684D01*
X125966500Y-95319866D01*
X125966500Y-96916134D01*
X124968000Y-96916134D01*
X124968000Y-89297000D01*
X127056884Y-89297000D01*
X127075314Y-89507655D01*
X127076738Y-89512968D01*
X127076738Y-89512970D01*
X127110321Y-89638301D01*
X127130044Y-89711910D01*
X127132366Y-89716891D01*
X127132367Y-89716892D01*
X127189049Y-89838446D01*
X127219411Y-89903558D01*
X127340699Y-90076776D01*
X127490224Y-90226301D01*
X127663442Y-90347589D01*
X127668420Y-90349910D01*
X127668423Y-90349912D01*
X127835249Y-90427704D01*
X127855090Y-90436956D01*
X127860398Y-90438378D01*
X127860400Y-90438379D01*
X128054030Y-90490262D01*
X128054032Y-90490262D01*
X128059345Y-90491686D01*
X128270000Y-90510116D01*
X128480655Y-90491686D01*
X128485968Y-90490262D01*
X128485970Y-90490262D01*
X128679600Y-90438379D01*
X128679602Y-90438378D01*
X128684910Y-90436956D01*
X128704751Y-90427704D01*
X128871577Y-90349912D01*
X128871580Y-90349910D01*
X128876558Y-90347589D01*
X129049776Y-90226301D01*
X129199301Y-90076776D01*
X129320589Y-89903558D01*
X129350952Y-89838446D01*
X129407633Y-89716892D01*
X129407634Y-89716891D01*
X129409956Y-89711910D01*
X129429680Y-89638301D01*
X129463262Y-89512970D01*
X129463262Y-89512968D01*
X129464686Y-89507655D01*
X129483116Y-89297000D01*
X129464686Y-89086345D01*
X129457542Y-89059684D01*
X129411379Y-88887400D01*
X129411378Y-88887398D01*
X129409956Y-88882090D01*
X129407633Y-88877108D01*
X129322912Y-88695423D01*
X129322910Y-88695420D01*
X129320589Y-88690442D01*
X129199301Y-88517224D01*
X129118172Y-88436095D01*
X129084146Y-88373783D01*
X129089211Y-88302968D01*
X129118172Y-88257905D01*
X129199301Y-88176776D01*
X129202462Y-88172262D01*
X129211589Y-88159228D01*
X129267047Y-88114900D01*
X129314801Y-88105500D01*
X129469340Y-88105500D01*
X129537461Y-88125502D01*
X129558435Y-88142405D01*
X137344018Y-95927988D01*
X137378044Y-95990300D01*
X137380444Y-96028063D01*
X137360502Y-96256000D01*
X137380457Y-96484087D01*
X137381881Y-96489400D01*
X137381881Y-96489402D01*
X137416489Y-96618558D01*
X137439716Y-96705243D01*
X137442039Y-96710224D01*
X137442039Y-96710225D01*
X137534151Y-96907762D01*
X137534154Y-96907767D01*
X137536477Y-96912749D01*
X137589008Y-96987771D01*
X137663227Y-97093766D01*
X137667802Y-97100300D01*
X137829700Y-97262198D01*
X137834208Y-97265355D01*
X137834211Y-97265357D01*
X137911771Y-97319665D01*
X137956099Y-97375122D01*
X137965500Y-97422878D01*
X137965500Y-98005088D01*
X137965208Y-98013658D01*
X137961886Y-98062392D01*
X137961275Y-98071352D01*
X137962580Y-98078829D01*
X137962580Y-98078830D01*
X137972261Y-98134299D01*
X137973223Y-98140821D01*
X137980898Y-98204242D01*
X137983581Y-98211343D01*
X137984222Y-98213952D01*
X137988685Y-98230262D01*
X137989450Y-98232798D01*
X137990757Y-98240284D01*
X138004569Y-98271747D01*
X138016442Y-98298795D01*
X138018935Y-98304904D01*
X138031754Y-98338828D01*
X138041513Y-98364656D01*
X138045817Y-98370919D01*
X138047054Y-98373285D01*
X138055299Y-98388097D01*
X138056632Y-98390351D01*
X138059685Y-98397305D01*
X138093669Y-98441592D01*
X138098579Y-98447991D01*
X138102459Y-98453332D01*
X138134339Y-98499720D01*
X138134344Y-98499725D01*
X138138643Y-98505981D01*
X138144313Y-98511032D01*
X138144314Y-98511034D01*
X138185170Y-98547435D01*
X138190446Y-98552416D01*
X140194557Y-100556528D01*
X140200411Y-100562793D01*
X140238439Y-100606385D01*
X140290729Y-100643136D01*
X140295971Y-100647028D01*
X140346282Y-100686476D01*
X140353201Y-100689600D01*
X140355493Y-100690988D01*
X140370165Y-100699357D01*
X140372525Y-100700622D01*
X140378739Y-100704990D01*
X140385818Y-100707750D01*
X140385820Y-100707751D01*
X140438275Y-100728202D01*
X140444344Y-100730753D01*
X140502573Y-100757045D01*
X140510046Y-100758430D01*
X140512612Y-100759234D01*
X140528835Y-100763855D01*
X140531427Y-100764520D01*
X140538509Y-100767282D01*
X140546044Y-100768274D01*
X140601861Y-100775622D01*
X140608377Y-100776654D01*
X140646770Y-100783770D01*
X140671186Y-100788295D01*
X140678766Y-100787858D01*
X140678767Y-100787858D01*
X140733380Y-100784709D01*
X140740633Y-100784500D01*
X148152017Y-100784500D01*
X148220138Y-100804502D01*
X148241112Y-100821405D01*
X150651102Y-103231395D01*
X150685128Y-103293707D01*
X150684526Y-103349902D01*
X150674643Y-103391067D01*
X150655595Y-103470411D01*
X150651465Y-103487612D01*
X150632835Y-103724323D01*
X150651465Y-103961034D01*
X150652619Y-103965841D01*
X150652620Y-103965847D01*
X150685094Y-104101108D01*
X150706895Y-104191917D01*
X150708788Y-104196488D01*
X150708789Y-104196490D01*
X150789413Y-104391134D01*
X150797760Y-104411286D01*
X150800346Y-104415506D01*
X150919241Y-104609525D01*
X150919245Y-104609531D01*
X150921824Y-104613739D01*
X151076031Y-104794292D01*
X151256584Y-104948499D01*
X151260792Y-104951078D01*
X151260798Y-104951082D01*
X151434620Y-105057600D01*
X151459037Y-105072563D01*
X151463607Y-105074456D01*
X151463611Y-105074458D01*
X151664671Y-105157739D01*
X151678406Y-105163428D01*
X151758609Y-105182683D01*
X151904476Y-105217703D01*
X151904482Y-105217704D01*
X151909289Y-105218858D01*
X152146000Y-105237488D01*
X152382711Y-105218858D01*
X152387518Y-105217704D01*
X152387524Y-105217703D01*
X152533391Y-105182683D01*
X152613594Y-105163428D01*
X152627329Y-105157739D01*
X152828389Y-105074458D01*
X152828393Y-105074456D01*
X152832963Y-105072563D01*
X152857380Y-105057600D01*
X153031202Y-104951082D01*
X153031208Y-104951078D01*
X153035416Y-104948499D01*
X153215969Y-104794292D01*
X153340914Y-104648000D01*
X157515903Y-104648000D01*
X157535858Y-104876087D01*
X157537282Y-104881400D01*
X157537282Y-104881402D01*
X157584495Y-105057600D01*
X157595117Y-105097243D01*
X157597440Y-105102224D01*
X157597440Y-105102225D01*
X157689552Y-105299762D01*
X157689555Y-105299767D01*
X157691878Y-105304749D01*
X157716709Y-105340211D01*
X157819112Y-105486457D01*
X157823203Y-105492300D01*
X157985101Y-105654198D01*
X157989609Y-105657355D01*
X157989612Y-105657357D01*
X158024486Y-105681776D01*
X158172652Y-105785523D01*
X158177634Y-105787846D01*
X158177639Y-105787849D01*
X158375176Y-105879961D01*
X158380158Y-105882284D01*
X158385466Y-105883706D01*
X158385468Y-105883707D01*
X158595999Y-105940119D01*
X158596001Y-105940119D01*
X158601314Y-105941543D01*
X158829401Y-105961498D01*
X159057488Y-105941543D01*
X159062801Y-105940119D01*
X159062803Y-105940119D01*
X159273334Y-105883707D01*
X159273336Y-105883706D01*
X159278644Y-105882284D01*
X159283626Y-105879961D01*
X159481163Y-105787849D01*
X159481168Y-105787846D01*
X159486150Y-105785523D01*
X159634316Y-105681776D01*
X159669190Y-105657357D01*
X159669193Y-105657355D01*
X159673701Y-105654198D01*
X159835599Y-105492300D01*
X159839691Y-105486457D01*
X159963770Y-105309253D01*
X159966924Y-105304749D01*
X159969247Y-105299767D01*
X159970283Y-105297973D01*
X160021667Y-105248981D01*
X160091380Y-105235546D01*
X160157291Y-105261934D01*
X160188519Y-105297973D01*
X160189555Y-105299767D01*
X160191878Y-105304749D01*
X160195032Y-105309253D01*
X160319112Y-105486457D01*
X160323203Y-105492300D01*
X160485101Y-105654198D01*
X160489609Y-105657355D01*
X160489612Y-105657357D01*
X160524486Y-105681776D01*
X160672652Y-105785523D01*
X160677634Y-105787846D01*
X160677639Y-105787849D01*
X160875176Y-105879961D01*
X160880158Y-105882284D01*
X160885466Y-105883706D01*
X160885468Y-105883707D01*
X161095999Y-105940119D01*
X161096001Y-105940119D01*
X161101314Y-105941543D01*
X161329401Y-105961498D01*
X161557488Y-105941543D01*
X161562801Y-105940119D01*
X161562803Y-105940119D01*
X161773334Y-105883707D01*
X161773336Y-105883706D01*
X161778644Y-105882284D01*
X161783626Y-105879961D01*
X161981163Y-105787849D01*
X161981168Y-105787846D01*
X161986150Y-105785523D01*
X162134316Y-105681776D01*
X162169190Y-105657357D01*
X162169193Y-105657355D01*
X162173701Y-105654198D01*
X162335599Y-105492300D01*
X162339691Y-105486457D01*
X162442093Y-105340211D01*
X162466924Y-105304749D01*
X162469247Y-105299767D01*
X162469250Y-105299762D01*
X162561362Y-105102225D01*
X162561362Y-105102224D01*
X162563685Y-105097243D01*
X162574308Y-105057600D01*
X162621520Y-104881402D01*
X162621520Y-104881400D01*
X162622944Y-104876087D01*
X162642899Y-104648000D01*
X163743884Y-104648000D01*
X163762314Y-104858655D01*
X163763738Y-104863968D01*
X163763738Y-104863970D01*
X163814351Y-105052858D01*
X163817044Y-105062910D01*
X163819366Y-105067891D01*
X163819367Y-105067892D01*
X163897546Y-105235546D01*
X163906411Y-105254558D01*
X164027699Y-105427776D01*
X164177224Y-105577301D01*
X164350442Y-105698589D01*
X164355420Y-105700910D01*
X164355423Y-105700912D01*
X164530102Y-105782366D01*
X164542090Y-105787956D01*
X164547398Y-105789378D01*
X164547400Y-105789379D01*
X164741030Y-105841262D01*
X164741032Y-105841262D01*
X164746345Y-105842686D01*
X164957000Y-105861116D01*
X165167655Y-105842686D01*
X165172968Y-105841262D01*
X165172970Y-105841262D01*
X165366600Y-105789379D01*
X165366602Y-105789378D01*
X165371910Y-105787956D01*
X165383898Y-105782366D01*
X165558577Y-105700912D01*
X165558580Y-105700910D01*
X165563558Y-105698589D01*
X165736776Y-105577301D01*
X165817905Y-105496172D01*
X165880217Y-105462146D01*
X165951032Y-105467211D01*
X165996095Y-105496172D01*
X166077224Y-105577301D01*
X166250442Y-105698589D01*
X166255420Y-105700910D01*
X166255423Y-105700912D01*
X166430102Y-105782366D01*
X166442090Y-105787956D01*
X166447398Y-105789378D01*
X166447400Y-105789379D01*
X166641030Y-105841262D01*
X166641032Y-105841262D01*
X166646345Y-105842686D01*
X166857000Y-105861116D01*
X167067655Y-105842686D01*
X167072968Y-105841262D01*
X167072970Y-105841262D01*
X167266600Y-105789379D01*
X167266602Y-105789378D01*
X167271910Y-105787956D01*
X167283898Y-105782366D01*
X167458577Y-105700912D01*
X167458580Y-105700910D01*
X167463558Y-105698589D01*
X167636776Y-105577301D01*
X167786301Y-105427776D01*
X167907589Y-105254558D01*
X167916455Y-105235546D01*
X167994633Y-105067892D01*
X167994634Y-105067891D01*
X167996956Y-105062910D01*
X167999650Y-105052858D01*
X168050262Y-104863970D01*
X168050262Y-104863968D01*
X168051686Y-104858655D01*
X168070116Y-104648000D01*
X168059005Y-104521000D01*
X168762561Y-104521000D01*
X168780991Y-104731655D01*
X168782415Y-104736968D01*
X168782415Y-104736970D01*
X168821116Y-104881402D01*
X168835721Y-104935910D01*
X168838043Y-104940891D01*
X168838044Y-104940892D01*
X168922222Y-105121411D01*
X168925088Y-105127558D01*
X169046376Y-105300776D01*
X169195901Y-105450301D01*
X169369119Y-105571589D01*
X169374097Y-105573910D01*
X169374100Y-105573912D01*
X169484785Y-105625525D01*
X169560767Y-105660956D01*
X169566075Y-105662378D01*
X169566077Y-105662379D01*
X169759707Y-105714262D01*
X169759709Y-105714262D01*
X169765022Y-105715686D01*
X169975677Y-105734116D01*
X170186332Y-105715686D01*
X170191645Y-105714262D01*
X170191647Y-105714262D01*
X170385277Y-105662379D01*
X170385279Y-105662378D01*
X170390587Y-105660956D01*
X170466569Y-105625525D01*
X170577254Y-105573912D01*
X170577257Y-105573910D01*
X170582235Y-105571589D01*
X170755453Y-105450301D01*
X170836582Y-105369172D01*
X170898894Y-105335146D01*
X170969709Y-105340211D01*
X171014772Y-105369172D01*
X171095901Y-105450301D01*
X171269119Y-105571589D01*
X171274097Y-105573910D01*
X171274100Y-105573912D01*
X171384785Y-105625525D01*
X171460767Y-105660956D01*
X171466075Y-105662378D01*
X171466077Y-105662379D01*
X171659707Y-105714262D01*
X171659709Y-105714262D01*
X171665022Y-105715686D01*
X171875677Y-105734116D01*
X172086332Y-105715686D01*
X172091645Y-105714262D01*
X172091647Y-105714262D01*
X172285277Y-105662379D01*
X172285279Y-105662378D01*
X172290587Y-105660956D01*
X172366569Y-105625525D01*
X172477254Y-105573912D01*
X172477257Y-105573910D01*
X172482235Y-105571589D01*
X172655453Y-105450301D01*
X172804978Y-105300776D01*
X172926266Y-105127558D01*
X172929133Y-105121411D01*
X173013310Y-104940892D01*
X173013311Y-104940891D01*
X173015633Y-104935910D01*
X173030239Y-104881402D01*
X173068041Y-104740323D01*
X178572835Y-104740323D01*
X178591465Y-104977034D01*
X178592619Y-104981841D01*
X178592620Y-104981847D01*
X178621521Y-105102225D01*
X178646895Y-105207917D01*
X178648788Y-105212488D01*
X178648789Y-105212490D01*
X178725106Y-105396736D01*
X178737760Y-105427286D01*
X178740346Y-105431506D01*
X178859241Y-105625525D01*
X178859245Y-105625531D01*
X178861824Y-105629739D01*
X178970336Y-105756790D01*
X179005680Y-105798172D01*
X179016031Y-105810292D01*
X179196584Y-105964499D01*
X179200792Y-105967078D01*
X179200798Y-105967082D01*
X179344543Y-106055169D01*
X179399037Y-106088563D01*
X179403607Y-106090456D01*
X179403611Y-106090458D01*
X179597740Y-106170868D01*
X179618406Y-106179428D01*
X179698609Y-106198683D01*
X179844476Y-106233703D01*
X179844482Y-106233704D01*
X179849289Y-106234858D01*
X180086000Y-106253488D01*
X180322711Y-106234858D01*
X180327518Y-106233704D01*
X180327524Y-106233703D01*
X180473391Y-106198683D01*
X180553594Y-106179428D01*
X180571527Y-106172000D01*
X186767884Y-106172000D01*
X186786314Y-106382655D01*
X186787738Y-106387968D01*
X186787738Y-106387970D01*
X186812917Y-106481937D01*
X186841044Y-106586910D01*
X186843366Y-106591891D01*
X186843368Y-106591893D01*
X186930411Y-106778558D01*
X187051699Y-106951776D01*
X187201224Y-107101301D01*
X187374442Y-107222589D01*
X187379420Y-107224910D01*
X187379423Y-107224912D01*
X187560092Y-107309159D01*
X187566090Y-107311956D01*
X187571398Y-107313378D01*
X187571400Y-107313379D01*
X187765030Y-107365262D01*
X187765032Y-107365262D01*
X187770345Y-107366686D01*
X187981000Y-107385116D01*
X188191655Y-107366686D01*
X188196968Y-107365262D01*
X188196970Y-107365262D01*
X188390600Y-107313379D01*
X188390602Y-107313378D01*
X188395910Y-107311956D01*
X188401908Y-107309159D01*
X188582577Y-107224912D01*
X188582580Y-107224910D01*
X188587558Y-107222589D01*
X188639440Y-107186261D01*
X189231294Y-107186261D01*
X189240590Y-107198276D01*
X189270189Y-107219001D01*
X189279677Y-107224479D01*
X189461277Y-107309159D01*
X189471571Y-107312907D01*
X189665122Y-107364769D01*
X189675909Y-107366671D01*
X189875525Y-107384135D01*
X189886475Y-107384135D01*
X190086091Y-107366671D01*
X190096878Y-107364769D01*
X190290429Y-107312907D01*
X190300723Y-107309159D01*
X190482323Y-107224479D01*
X190491811Y-107219001D01*
X190522248Y-107197689D01*
X190530623Y-107187212D01*
X190523554Y-107173764D01*
X189893812Y-106544022D01*
X189879868Y-106536408D01*
X189878035Y-106536539D01*
X189871420Y-106540790D01*
X189237724Y-107174486D01*
X189231294Y-107186261D01*
X188639440Y-107186261D01*
X188760776Y-107101301D01*
X188910301Y-106951776D01*
X189031589Y-106778558D01*
X189034030Y-106773323D01*
X189118633Y-106591893D01*
X189118635Y-106591888D01*
X189120956Y-106586910D01*
X189121599Y-106587210D01*
X189147962Y-106545828D01*
X189508978Y-106184812D01*
X189515356Y-106173132D01*
X190245408Y-106173132D01*
X190245539Y-106174965D01*
X190249790Y-106181580D01*
X190883486Y-106815276D01*
X190895261Y-106821706D01*
X190907276Y-106812410D01*
X190928001Y-106782811D01*
X190933479Y-106773323D01*
X191018159Y-106591723D01*
X191021907Y-106581429D01*
X191073769Y-106387878D01*
X191075671Y-106377091D01*
X191093135Y-106177475D01*
X191093135Y-106166525D01*
X191075671Y-105966909D01*
X191073769Y-105956122D01*
X191021907Y-105762571D01*
X191018159Y-105752277D01*
X190933479Y-105570677D01*
X190928001Y-105561189D01*
X190906689Y-105530752D01*
X190896212Y-105522377D01*
X190882764Y-105529446D01*
X190253022Y-106159188D01*
X190245408Y-106173132D01*
X189515356Y-106173132D01*
X189516592Y-106170868D01*
X189516461Y-106169035D01*
X189512210Y-106162420D01*
X189147962Y-105798172D01*
X189121599Y-105756790D01*
X189120956Y-105757090D01*
X189118633Y-105752108D01*
X189118633Y-105752107D01*
X189033912Y-105570423D01*
X189033910Y-105570420D01*
X189031589Y-105565442D01*
X188910301Y-105392224D01*
X188760776Y-105242699D01*
X188638082Y-105156788D01*
X189231377Y-105156788D01*
X189238446Y-105170236D01*
X189868188Y-105799978D01*
X189882132Y-105807592D01*
X189883965Y-105807461D01*
X189890580Y-105803210D01*
X190524276Y-105169514D01*
X190530706Y-105157739D01*
X190521410Y-105145724D01*
X190491811Y-105124999D01*
X190482323Y-105119521D01*
X190300723Y-105034841D01*
X190290429Y-105031093D01*
X190096878Y-104979231D01*
X190086091Y-104977329D01*
X189886475Y-104959865D01*
X189875525Y-104959865D01*
X189675909Y-104977329D01*
X189665122Y-104979231D01*
X189471571Y-105031093D01*
X189461277Y-105034841D01*
X189279677Y-105119521D01*
X189270189Y-105124999D01*
X189239752Y-105146311D01*
X189231377Y-105156788D01*
X188638082Y-105156788D01*
X188587558Y-105121411D01*
X188582580Y-105119090D01*
X188582577Y-105119088D01*
X188400892Y-105034367D01*
X188400891Y-105034366D01*
X188395910Y-105032044D01*
X188390602Y-105030622D01*
X188390600Y-105030621D01*
X188196970Y-104978738D01*
X188196968Y-104978738D01*
X188191655Y-104977314D01*
X187981000Y-104958884D01*
X187770345Y-104977314D01*
X187765032Y-104978738D01*
X187765030Y-104978738D01*
X187571400Y-105030621D01*
X187571398Y-105030622D01*
X187566090Y-105032044D01*
X187561109Y-105034366D01*
X187561108Y-105034367D01*
X187379423Y-105119088D01*
X187379420Y-105119090D01*
X187374442Y-105121411D01*
X187201224Y-105242699D01*
X187051699Y-105392224D01*
X186930411Y-105565442D01*
X186928090Y-105570420D01*
X186928088Y-105570423D01*
X186843367Y-105752108D01*
X186841044Y-105757090D01*
X186839622Y-105762398D01*
X186839621Y-105762400D01*
X186788660Y-105952589D01*
X186786314Y-105961345D01*
X186767884Y-106172000D01*
X180571527Y-106172000D01*
X180574260Y-106170868D01*
X180768389Y-106090458D01*
X180768393Y-106090456D01*
X180772963Y-106088563D01*
X180827457Y-106055169D01*
X180971202Y-105967082D01*
X180971208Y-105967078D01*
X180975416Y-105964499D01*
X181155969Y-105810292D01*
X181166321Y-105798172D01*
X181201664Y-105756790D01*
X181310176Y-105629739D01*
X181312755Y-105625531D01*
X181312759Y-105625525D01*
X181431654Y-105431506D01*
X181434240Y-105427286D01*
X181446895Y-105396736D01*
X181523211Y-105212490D01*
X181523212Y-105212488D01*
X181525105Y-105207917D01*
X181550479Y-105102225D01*
X181579380Y-104981847D01*
X181579381Y-104981841D01*
X181580535Y-104977034D01*
X181599165Y-104740323D01*
X181580535Y-104503612D01*
X181577844Y-104492400D01*
X181544360Y-104352932D01*
X181525105Y-104272729D01*
X181506623Y-104228108D01*
X181436135Y-104057934D01*
X181436133Y-104057930D01*
X181434240Y-104053360D01*
X181400332Y-103998027D01*
X181312759Y-103855121D01*
X181312755Y-103855115D01*
X181310176Y-103850907D01*
X181155969Y-103670354D01*
X180975416Y-103516147D01*
X180971208Y-103513568D01*
X180971202Y-103513564D01*
X180777183Y-103394669D01*
X180772963Y-103392083D01*
X180768393Y-103390190D01*
X180768389Y-103390188D01*
X180558167Y-103303112D01*
X180558165Y-103303111D01*
X180553594Y-103301218D01*
X180470592Y-103281291D01*
X180327524Y-103246943D01*
X180327518Y-103246942D01*
X180322711Y-103245788D01*
X180086000Y-103227158D01*
X179849289Y-103245788D01*
X179844482Y-103246942D01*
X179844476Y-103246943D01*
X179701408Y-103281291D01*
X179618406Y-103301218D01*
X179613835Y-103303111D01*
X179613833Y-103303112D01*
X179403611Y-103390188D01*
X179403607Y-103390190D01*
X179399037Y-103392083D01*
X179394817Y-103394669D01*
X179200798Y-103513564D01*
X179200792Y-103513568D01*
X179196584Y-103516147D01*
X179016031Y-103670354D01*
X178861824Y-103850907D01*
X178859245Y-103855115D01*
X178859241Y-103855121D01*
X178771668Y-103998027D01*
X178737760Y-104053360D01*
X178735867Y-104057930D01*
X178735865Y-104057934D01*
X178665377Y-104228108D01*
X178646895Y-104272729D01*
X178627640Y-104352932D01*
X178594157Y-104492400D01*
X178591465Y-104503612D01*
X178572835Y-104740323D01*
X173068041Y-104740323D01*
X173068939Y-104736970D01*
X173068939Y-104736968D01*
X173070363Y-104731655D01*
X173088793Y-104521000D01*
X173070363Y-104310345D01*
X173068754Y-104304340D01*
X173017056Y-104111400D01*
X173017055Y-104111398D01*
X173015633Y-104106090D01*
X172994353Y-104060454D01*
X172928589Y-103919423D01*
X172928587Y-103919420D01*
X172926266Y-103914442D01*
X172804978Y-103741224D01*
X172655453Y-103591699D01*
X172482235Y-103470411D01*
X172477257Y-103468090D01*
X172477254Y-103468088D01*
X172295569Y-103383367D01*
X172295568Y-103383366D01*
X172290587Y-103381044D01*
X172285279Y-103379622D01*
X172285277Y-103379621D01*
X172091647Y-103327738D01*
X172091645Y-103327738D01*
X172086332Y-103326314D01*
X171875677Y-103307884D01*
X171665022Y-103326314D01*
X171659709Y-103327738D01*
X171659707Y-103327738D01*
X171466077Y-103379621D01*
X171466075Y-103379622D01*
X171460767Y-103381044D01*
X171455786Y-103383366D01*
X171455785Y-103383367D01*
X171274100Y-103468088D01*
X171274097Y-103468090D01*
X171269119Y-103470411D01*
X171095901Y-103591699D01*
X171014772Y-103672828D01*
X170952460Y-103706854D01*
X170881645Y-103701789D01*
X170836582Y-103672828D01*
X170755453Y-103591699D01*
X170582235Y-103470411D01*
X170577257Y-103468090D01*
X170577254Y-103468088D01*
X170395569Y-103383367D01*
X170395568Y-103383366D01*
X170390587Y-103381044D01*
X170385279Y-103379622D01*
X170385277Y-103379621D01*
X170191647Y-103327738D01*
X170191645Y-103327738D01*
X170186332Y-103326314D01*
X169975677Y-103307884D01*
X169765022Y-103326314D01*
X169759709Y-103327738D01*
X169759707Y-103327738D01*
X169566077Y-103379621D01*
X169566075Y-103379622D01*
X169560767Y-103381044D01*
X169555786Y-103383366D01*
X169555785Y-103383367D01*
X169374100Y-103468088D01*
X169374097Y-103468090D01*
X169369119Y-103470411D01*
X169195901Y-103591699D01*
X169046376Y-103741224D01*
X168925088Y-103914442D01*
X168922767Y-103919420D01*
X168922765Y-103919423D01*
X168857001Y-104060454D01*
X168835721Y-104106090D01*
X168834299Y-104111398D01*
X168834298Y-104111400D01*
X168782600Y-104304340D01*
X168780991Y-104310345D01*
X168762561Y-104521000D01*
X168059005Y-104521000D01*
X168051686Y-104437345D01*
X168050262Y-104432030D01*
X167998379Y-104238400D01*
X167998378Y-104238398D01*
X167996956Y-104233090D01*
X167994633Y-104228108D01*
X167909912Y-104046423D01*
X167909910Y-104046420D01*
X167907589Y-104041442D01*
X167786301Y-103868224D01*
X167636776Y-103718699D01*
X167463558Y-103597411D01*
X167458580Y-103595090D01*
X167458577Y-103595088D01*
X167276892Y-103510367D01*
X167276891Y-103510366D01*
X167271910Y-103508044D01*
X167266602Y-103506622D01*
X167266600Y-103506621D01*
X167072970Y-103454738D01*
X167072968Y-103454738D01*
X167067655Y-103453314D01*
X166857000Y-103434884D01*
X166646345Y-103453314D01*
X166641032Y-103454738D01*
X166641030Y-103454738D01*
X166447400Y-103506621D01*
X166447398Y-103506622D01*
X166442090Y-103508044D01*
X166437109Y-103510366D01*
X166437108Y-103510367D01*
X166255423Y-103595088D01*
X166255420Y-103595090D01*
X166250442Y-103597411D01*
X166077224Y-103718699D01*
X165996095Y-103799828D01*
X165933783Y-103833854D01*
X165862968Y-103828789D01*
X165817905Y-103799828D01*
X165736776Y-103718699D01*
X165563558Y-103597411D01*
X165558580Y-103595090D01*
X165558577Y-103595088D01*
X165376892Y-103510367D01*
X165376891Y-103510366D01*
X165371910Y-103508044D01*
X165366602Y-103506622D01*
X165366600Y-103506621D01*
X165172970Y-103454738D01*
X165172968Y-103454738D01*
X165167655Y-103453314D01*
X164957000Y-103434884D01*
X164746345Y-103453314D01*
X164741032Y-103454738D01*
X164741030Y-103454738D01*
X164547400Y-103506621D01*
X164547398Y-103506622D01*
X164542090Y-103508044D01*
X164537109Y-103510366D01*
X164537108Y-103510367D01*
X164355423Y-103595088D01*
X164355420Y-103595090D01*
X164350442Y-103597411D01*
X164177224Y-103718699D01*
X164027699Y-103868224D01*
X163906411Y-104041442D01*
X163904090Y-104046420D01*
X163904088Y-104046423D01*
X163819367Y-104228108D01*
X163817044Y-104233090D01*
X163815622Y-104238398D01*
X163815621Y-104238400D01*
X163763738Y-104432030D01*
X163762314Y-104437345D01*
X163743884Y-104648000D01*
X162642899Y-104648000D01*
X162622944Y-104419913D01*
X162621520Y-104414598D01*
X162565108Y-104204067D01*
X162565107Y-104204065D01*
X162563685Y-104198757D01*
X162561362Y-104193775D01*
X162469250Y-103996238D01*
X162469247Y-103996233D01*
X162466924Y-103991251D01*
X162377055Y-103862905D01*
X162338758Y-103808211D01*
X162338756Y-103808208D01*
X162335599Y-103803700D01*
X162173701Y-103641802D01*
X162169193Y-103638645D01*
X162169190Y-103638643D01*
X162004857Y-103523576D01*
X161986150Y-103510477D01*
X161981168Y-103508154D01*
X161981163Y-103508151D01*
X161783626Y-103416039D01*
X161783625Y-103416039D01*
X161778644Y-103413716D01*
X161773336Y-103412294D01*
X161773334Y-103412293D01*
X161562803Y-103355881D01*
X161562801Y-103355881D01*
X161557488Y-103354457D01*
X161329401Y-103334502D01*
X161101314Y-103354457D01*
X161096001Y-103355881D01*
X161095999Y-103355881D01*
X160885468Y-103412293D01*
X160885466Y-103412294D01*
X160880158Y-103413716D01*
X160875177Y-103416039D01*
X160875176Y-103416039D01*
X160677639Y-103508151D01*
X160677634Y-103508154D01*
X160672652Y-103510477D01*
X160653945Y-103523576D01*
X160489612Y-103638643D01*
X160489609Y-103638645D01*
X160485101Y-103641802D01*
X160323203Y-103803700D01*
X160320046Y-103808208D01*
X160320044Y-103808211D01*
X160281747Y-103862905D01*
X160191878Y-103991251D01*
X160189555Y-103996233D01*
X160188519Y-103998027D01*
X160137135Y-104047019D01*
X160067422Y-104060454D01*
X160001511Y-104034066D01*
X159970283Y-103998027D01*
X159969247Y-103996233D01*
X159966924Y-103991251D01*
X159877055Y-103862905D01*
X159838758Y-103808211D01*
X159838756Y-103808208D01*
X159835599Y-103803700D01*
X159673701Y-103641802D01*
X159669193Y-103638645D01*
X159669190Y-103638643D01*
X159504857Y-103523576D01*
X159486150Y-103510477D01*
X159481168Y-103508154D01*
X159481163Y-103508151D01*
X159283626Y-103416039D01*
X159283625Y-103416039D01*
X159278644Y-103413716D01*
X159273336Y-103412294D01*
X159273334Y-103412293D01*
X159062803Y-103355881D01*
X159062801Y-103355881D01*
X159057488Y-103354457D01*
X158829401Y-103334502D01*
X158601314Y-103354457D01*
X158596001Y-103355881D01*
X158595999Y-103355881D01*
X158385468Y-103412293D01*
X158385466Y-103412294D01*
X158380158Y-103413716D01*
X158375177Y-103416039D01*
X158375176Y-103416039D01*
X158177639Y-103508151D01*
X158177634Y-103508154D01*
X158172652Y-103510477D01*
X158153945Y-103523576D01*
X157989612Y-103638643D01*
X157989609Y-103638645D01*
X157985101Y-103641802D01*
X157823203Y-103803700D01*
X157820046Y-103808208D01*
X157820044Y-103808211D01*
X157781747Y-103862905D01*
X157691878Y-103991251D01*
X157689555Y-103996233D01*
X157689552Y-103996238D01*
X157597440Y-104193775D01*
X157595117Y-104198757D01*
X157593695Y-104204065D01*
X157593694Y-104204067D01*
X157537282Y-104414598D01*
X157535858Y-104419913D01*
X157515903Y-104648000D01*
X153340914Y-104648000D01*
X153370176Y-104613739D01*
X153372755Y-104609531D01*
X153372759Y-104609525D01*
X153491654Y-104415506D01*
X153494240Y-104411286D01*
X153502588Y-104391134D01*
X153583211Y-104196490D01*
X153583212Y-104196488D01*
X153585105Y-104191917D01*
X153606906Y-104101108D01*
X153639380Y-103965847D01*
X153639381Y-103965841D01*
X153640535Y-103961034D01*
X153659165Y-103724323D01*
X153640535Y-103487612D01*
X153636406Y-103470411D01*
X153596433Y-103303912D01*
X153585105Y-103256729D01*
X153580573Y-103245788D01*
X153496135Y-103041934D01*
X153496133Y-103041930D01*
X153494240Y-103037360D01*
X153459837Y-102981220D01*
X153372759Y-102839121D01*
X153372755Y-102839115D01*
X153370176Y-102834907D01*
X153215969Y-102654354D01*
X153035416Y-102500147D01*
X153031208Y-102497568D01*
X153031202Y-102497564D01*
X152837183Y-102378669D01*
X152832963Y-102376083D01*
X152828393Y-102374190D01*
X152828389Y-102374188D01*
X152618167Y-102287112D01*
X152618165Y-102287111D01*
X152613594Y-102285218D01*
X152471066Y-102251000D01*
X152387524Y-102230943D01*
X152387518Y-102230942D01*
X152382711Y-102229788D01*
X152146000Y-102211158D01*
X151909289Y-102229788D01*
X151904482Y-102230942D01*
X151904476Y-102230943D01*
X151843739Y-102245525D01*
X151771580Y-102262849D01*
X151700673Y-102259302D01*
X151653072Y-102229425D01*
X150806999Y-101383352D01*
X185723275Y-101383352D01*
X185724580Y-101390829D01*
X185724580Y-101390830D01*
X185734261Y-101446299D01*
X185735223Y-101452821D01*
X185742898Y-101516242D01*
X185745581Y-101523343D01*
X185746222Y-101525952D01*
X185750685Y-101542262D01*
X185751450Y-101544798D01*
X185752757Y-101552284D01*
X185755811Y-101559241D01*
X185778442Y-101610795D01*
X185780933Y-101616899D01*
X185803513Y-101676656D01*
X185807817Y-101682919D01*
X185809054Y-101685285D01*
X185817299Y-101700097D01*
X185818632Y-101702351D01*
X185821685Y-101709305D01*
X185826307Y-101715328D01*
X185860579Y-101759991D01*
X185864459Y-101765332D01*
X185896339Y-101811720D01*
X185896344Y-101811725D01*
X185900643Y-101817981D01*
X185906313Y-101823032D01*
X185906314Y-101823034D01*
X185947161Y-101859427D01*
X185952438Y-101864408D01*
X186819565Y-102731536D01*
X186825418Y-102737801D01*
X186863439Y-102781385D01*
X186915729Y-102818136D01*
X186920971Y-102822028D01*
X186971282Y-102861476D01*
X186978201Y-102864600D01*
X186980493Y-102865988D01*
X186995165Y-102874357D01*
X186997525Y-102875622D01*
X187003739Y-102879990D01*
X187010818Y-102882750D01*
X187010820Y-102882751D01*
X187063275Y-102903202D01*
X187069344Y-102905753D01*
X187127573Y-102932045D01*
X187135046Y-102933430D01*
X187137612Y-102934234D01*
X187153835Y-102938855D01*
X187156427Y-102939520D01*
X187163509Y-102942282D01*
X187171044Y-102943274D01*
X187226861Y-102950622D01*
X187233377Y-102951654D01*
X187271770Y-102958770D01*
X187296186Y-102963295D01*
X187303766Y-102962858D01*
X187303767Y-102962858D01*
X187358380Y-102959709D01*
X187365633Y-102959500D01*
X187931199Y-102959500D01*
X187999320Y-102979502D01*
X188034411Y-103013228D01*
X188042854Y-103025285D01*
X188046699Y-103030776D01*
X188196224Y-103180301D01*
X188369442Y-103301589D01*
X188374420Y-103303910D01*
X188374423Y-103303912D01*
X188547545Y-103384640D01*
X188561090Y-103390956D01*
X188566398Y-103392378D01*
X188566400Y-103392379D01*
X188760030Y-103444262D01*
X188760032Y-103444262D01*
X188765345Y-103445686D01*
X188976000Y-103464116D01*
X189186655Y-103445686D01*
X189191968Y-103444262D01*
X189191970Y-103444262D01*
X189385600Y-103392379D01*
X189385602Y-103392378D01*
X189390910Y-103390956D01*
X189404455Y-103384640D01*
X189577577Y-103303912D01*
X189577580Y-103303910D01*
X189582558Y-103301589D01*
X189755776Y-103180301D01*
X189905301Y-103030776D01*
X190026589Y-102857558D01*
X190035187Y-102839121D01*
X190113633Y-102670892D01*
X190113634Y-102670891D01*
X190115956Y-102665910D01*
X190119053Y-102654354D01*
X190169262Y-102466970D01*
X190169262Y-102466968D01*
X190170686Y-102461655D01*
X190189116Y-102251000D01*
X190170686Y-102040345D01*
X190146234Y-101949088D01*
X190117379Y-101841400D01*
X190117378Y-101841398D01*
X190115956Y-101836090D01*
X190094167Y-101789363D01*
X190028912Y-101649423D01*
X190028910Y-101649420D01*
X190026589Y-101644442D01*
X189905301Y-101471224D01*
X189824172Y-101390095D01*
X189790146Y-101327783D01*
X189795211Y-101256968D01*
X189824172Y-101211905D01*
X189905301Y-101130776D01*
X190026589Y-100957558D01*
X190105722Y-100787858D01*
X190113633Y-100770892D01*
X190113634Y-100770891D01*
X190115956Y-100765910D01*
X190118332Y-100757045D01*
X190169262Y-100566970D01*
X190169262Y-100566968D01*
X190170686Y-100561655D01*
X190189116Y-100351000D01*
X190187639Y-100334119D01*
X191597532Y-100334119D01*
X191615922Y-100614705D01*
X191616996Y-100622863D01*
X191671853Y-100898649D01*
X191673986Y-100906609D01*
X191764373Y-101172878D01*
X191767519Y-101180473D01*
X191891886Y-101432665D01*
X191896007Y-101439802D01*
X192052226Y-101673601D01*
X192057235Y-101680129D01*
X192065581Y-101689646D01*
X192078817Y-101698041D01*
X192088584Y-101692206D01*
X193437978Y-100342812D01*
X193445592Y-100328868D01*
X193445461Y-100327035D01*
X193441210Y-100320420D01*
X192090337Y-98969547D01*
X192076576Y-98962032D01*
X192067217Y-98968489D01*
X192057235Y-98979871D01*
X192052226Y-98986399D01*
X191896007Y-99220198D01*
X191891886Y-99227335D01*
X191767519Y-99479527D01*
X191764373Y-99487122D01*
X191673986Y-99753391D01*
X191671853Y-99761351D01*
X191616996Y-100037137D01*
X191615922Y-100045295D01*
X191597532Y-100325881D01*
X191597532Y-100334119D01*
X190187639Y-100334119D01*
X190170686Y-100140345D01*
X190165090Y-100119460D01*
X190117379Y-99941400D01*
X190117378Y-99941398D01*
X190115956Y-99936090D01*
X190079967Y-99858912D01*
X190028912Y-99749423D01*
X190028910Y-99749420D01*
X190026589Y-99744442D01*
X189905301Y-99571224D01*
X189755776Y-99421699D01*
X189582558Y-99300411D01*
X189577580Y-99298090D01*
X189577577Y-99298088D01*
X189425846Y-99227335D01*
X189407923Y-99218977D01*
X189354639Y-99172061D01*
X189335178Y-99103784D01*
X189355720Y-99035824D01*
X189409743Y-98989758D01*
X189418077Y-98986383D01*
X189419939Y-98985705D01*
X189425243Y-98984284D01*
X189507661Y-98945852D01*
X189627762Y-98889849D01*
X189627767Y-98889846D01*
X189632749Y-98887523D01*
X189737611Y-98814098D01*
X189815789Y-98759357D01*
X189815792Y-98759355D01*
X189820300Y-98756198D01*
X189982198Y-98594300D01*
X189990504Y-98582439D01*
X190059601Y-98483757D01*
X190113523Y-98406749D01*
X190115846Y-98401767D01*
X190115849Y-98401762D01*
X190207961Y-98204225D01*
X190207961Y-98204224D01*
X190210284Y-98199243D01*
X190216866Y-98174681D01*
X190268119Y-97983402D01*
X190268119Y-97983400D01*
X190269543Y-97978087D01*
X190289498Y-97750000D01*
X190269543Y-97521913D01*
X190267831Y-97515524D01*
X190211707Y-97306067D01*
X190211706Y-97306065D01*
X190210284Y-97300757D01*
X190192304Y-97262198D01*
X190115849Y-97098238D01*
X190115846Y-97098233D01*
X190113523Y-97093251D01*
X190025967Y-96968209D01*
X189985357Y-96910211D01*
X189985355Y-96910208D01*
X189982198Y-96905700D01*
X189820300Y-96743802D01*
X189815792Y-96740645D01*
X189815789Y-96740643D01*
X189647867Y-96623063D01*
X189632749Y-96612477D01*
X189627765Y-96610153D01*
X189625472Y-96608829D01*
X189576479Y-96557447D01*
X189563043Y-96487733D01*
X189589429Y-96421822D01*
X189625472Y-96390591D01*
X189637002Y-96383934D01*
X189689048Y-96347491D01*
X189697424Y-96337012D01*
X189690356Y-96323566D01*
X188988812Y-95622022D01*
X188974868Y-95614408D01*
X188973035Y-95614539D01*
X188966420Y-95618790D01*
X188260923Y-96324287D01*
X188254493Y-96336062D01*
X188263789Y-96348077D01*
X188314998Y-96383934D01*
X188326528Y-96390591D01*
X188375521Y-96441973D01*
X188388958Y-96511687D01*
X188362571Y-96577598D01*
X188326528Y-96608829D01*
X188324235Y-96610153D01*
X188319251Y-96612477D01*
X188304133Y-96623063D01*
X188136211Y-96740643D01*
X188136208Y-96740645D01*
X188131700Y-96743802D01*
X187969802Y-96905700D01*
X187966645Y-96910208D01*
X187966643Y-96910211D01*
X187912335Y-96987771D01*
X187856878Y-97032099D01*
X187809122Y-97041500D01*
X187774927Y-97041500D01*
X187766358Y-97041208D01*
X187716225Y-97037790D01*
X187716221Y-97037790D01*
X187708648Y-97037274D01*
X187645681Y-97048264D01*
X187639169Y-97049224D01*
X187575758Y-97056898D01*
X187568657Y-97059581D01*
X187566048Y-97060222D01*
X187549715Y-97064691D01*
X187547195Y-97065452D01*
X187539717Y-97066757D01*
X187532765Y-97069809D01*
X187532764Y-97069809D01*
X187481204Y-97092441D01*
X187475099Y-97094932D01*
X187422456Y-97114825D01*
X187422452Y-97114827D01*
X187415344Y-97117513D01*
X187409083Y-97121816D01*
X187406717Y-97123053D01*
X187391937Y-97131280D01*
X187389652Y-97132631D01*
X187382695Y-97135685D01*
X187376675Y-97140305D01*
X187376669Y-97140308D01*
X187345542Y-97164194D01*
X187331998Y-97174587D01*
X187326668Y-97178459D01*
X187280280Y-97210339D01*
X187280275Y-97210344D01*
X187274019Y-97214643D01*
X187268968Y-97220313D01*
X187268966Y-97220314D01*
X187232565Y-97261170D01*
X187227584Y-97266446D01*
X185955480Y-98538550D01*
X185949215Y-98544404D01*
X185905615Y-98582439D01*
X185892693Y-98600825D01*
X185868872Y-98634719D01*
X185864939Y-98640014D01*
X185825524Y-98690282D01*
X185822401Y-98697198D01*
X185821017Y-98699484D01*
X185812643Y-98714165D01*
X185811378Y-98716525D01*
X185807010Y-98722739D01*
X185804250Y-98729818D01*
X185804249Y-98729820D01*
X185783798Y-98782275D01*
X185781247Y-98788344D01*
X185754955Y-98846573D01*
X185753571Y-98854040D01*
X185752770Y-98856595D01*
X185748141Y-98872848D01*
X185747478Y-98875428D01*
X185744718Y-98882509D01*
X185743727Y-98890040D01*
X185743726Y-98890042D01*
X185736379Y-98945852D01*
X185735348Y-98952359D01*
X185723704Y-99015186D01*
X185724141Y-99022766D01*
X185724141Y-99022767D01*
X185727291Y-99077392D01*
X185727500Y-99084646D01*
X185727500Y-101317088D01*
X185727208Y-101325658D01*
X185723275Y-101383352D01*
X150806999Y-101383352D01*
X150212104Y-100788457D01*
X178577500Y-100788457D01*
X178584255Y-100850639D01*
X178635385Y-100987028D01*
X178722739Y-101103584D01*
X178839295Y-101190938D01*
X178975684Y-101242068D01*
X179037866Y-101248823D01*
X181134134Y-101248823D01*
X181196316Y-101242068D01*
X181332705Y-101190938D01*
X181449261Y-101103584D01*
X181536615Y-100987028D01*
X181587745Y-100850639D01*
X181594500Y-100788457D01*
X181594500Y-98692189D01*
X181587745Y-98630007D01*
X181536615Y-98493618D01*
X181449261Y-98377062D01*
X181332705Y-98289708D01*
X181196316Y-98238578D01*
X181134134Y-98231823D01*
X179037866Y-98231823D01*
X178975684Y-98238578D01*
X178839295Y-98289708D01*
X178722739Y-98377062D01*
X178635385Y-98493618D01*
X178584255Y-98630007D01*
X178577500Y-98692189D01*
X178577500Y-100788457D01*
X150212104Y-100788457D01*
X149192639Y-99768992D01*
X150638001Y-99768992D01*
X150638371Y-99775813D01*
X150643895Y-99826675D01*
X150647521Y-99841927D01*
X150692676Y-99962377D01*
X150701214Y-99977972D01*
X150777715Y-100080047D01*
X150790276Y-100092608D01*
X150892351Y-100169109D01*
X150907946Y-100177647D01*
X151028394Y-100222801D01*
X151043649Y-100226428D01*
X151094514Y-100231954D01*
X151101328Y-100232323D01*
X151873885Y-100232323D01*
X151889124Y-100227848D01*
X151890329Y-100226458D01*
X151892000Y-100218775D01*
X151892000Y-100214207D01*
X152400000Y-100214207D01*
X152404475Y-100229446D01*
X152405865Y-100230651D01*
X152413548Y-100232322D01*
X153190669Y-100232322D01*
X153197490Y-100231952D01*
X153248352Y-100226428D01*
X153263604Y-100222802D01*
X153384054Y-100177647D01*
X153399649Y-100169109D01*
X153501724Y-100092608D01*
X153514285Y-100080047D01*
X153590786Y-99977972D01*
X153599324Y-99962377D01*
X153644478Y-99841929D01*
X153648105Y-99826674D01*
X153653631Y-99775809D01*
X153654000Y-99768995D01*
X153654000Y-98996438D01*
X153649525Y-98981199D01*
X153648135Y-98979994D01*
X153640452Y-98978323D01*
X152418115Y-98978323D01*
X152402876Y-98982798D01*
X152401671Y-98984188D01*
X152400000Y-98991871D01*
X152400000Y-100214207D01*
X151892000Y-100214207D01*
X151892000Y-98996438D01*
X151887525Y-98981199D01*
X151886135Y-98979994D01*
X151878452Y-98978323D01*
X150656116Y-98978323D01*
X150640877Y-98982798D01*
X150639672Y-98984188D01*
X150638001Y-98991871D01*
X150638001Y-99768992D01*
X149192639Y-99768992D01*
X149019127Y-99595480D01*
X149013273Y-99589215D01*
X148994180Y-99567329D01*
X148975238Y-99545615D01*
X148922957Y-99508871D01*
X148917663Y-99504939D01*
X148873370Y-99470209D01*
X148867395Y-99465524D01*
X148860479Y-99462401D01*
X148858193Y-99461017D01*
X148843512Y-99452643D01*
X148841152Y-99451378D01*
X148834938Y-99447010D01*
X148827859Y-99444250D01*
X148827857Y-99444249D01*
X148775402Y-99423798D01*
X148769333Y-99421247D01*
X148711104Y-99394955D01*
X148703637Y-99393571D01*
X148701082Y-99392770D01*
X148684829Y-99388141D01*
X148682249Y-99387478D01*
X148675168Y-99384718D01*
X148667637Y-99383727D01*
X148667635Y-99383726D01*
X148638016Y-99379827D01*
X148611816Y-99376378D01*
X148605318Y-99375348D01*
X148542491Y-99363704D01*
X148534911Y-99364141D01*
X148534910Y-99364141D01*
X148480285Y-99367291D01*
X148473031Y-99367500D01*
X141061660Y-99367500D01*
X140993539Y-99347498D01*
X140972565Y-99330595D01*
X140574970Y-98933000D01*
X157623502Y-98933000D01*
X157643457Y-99161087D01*
X157644881Y-99166400D01*
X157644881Y-99166402D01*
X157698766Y-99367500D01*
X157702716Y-99382243D01*
X157705039Y-99387224D01*
X157705039Y-99387225D01*
X157797151Y-99584762D01*
X157797154Y-99584767D01*
X157799477Y-99589749D01*
X157811481Y-99606892D01*
X157924987Y-99768995D01*
X157930802Y-99777300D01*
X158092700Y-99939198D01*
X158097208Y-99942355D01*
X158097211Y-99942357D01*
X158125803Y-99962377D01*
X158280251Y-100070523D01*
X158285233Y-100072846D01*
X158285238Y-100072849D01*
X158482775Y-100164961D01*
X158487757Y-100167284D01*
X158493065Y-100168706D01*
X158493067Y-100168707D01*
X158703598Y-100225119D01*
X158703600Y-100225119D01*
X158708913Y-100226543D01*
X158937000Y-100246498D01*
X159165087Y-100226543D01*
X159170400Y-100225119D01*
X159170402Y-100225119D01*
X159380933Y-100168707D01*
X159380935Y-100168706D01*
X159386243Y-100167284D01*
X159391225Y-100164961D01*
X159588762Y-100072849D01*
X159588767Y-100072846D01*
X159593749Y-100070523D01*
X159748197Y-99962377D01*
X159776789Y-99942357D01*
X159776792Y-99942355D01*
X159781300Y-99939198D01*
X159943198Y-99777300D01*
X159949014Y-99768995D01*
X160071369Y-99594253D01*
X160074523Y-99589749D01*
X160076846Y-99584767D01*
X160077882Y-99582973D01*
X160129266Y-99533981D01*
X160198979Y-99520546D01*
X160264890Y-99546934D01*
X160296118Y-99582973D01*
X160297154Y-99584767D01*
X160299477Y-99589749D01*
X160302631Y-99594253D01*
X160424987Y-99768995D01*
X160430802Y-99777300D01*
X160592700Y-99939198D01*
X160597208Y-99942355D01*
X160597211Y-99942357D01*
X160625803Y-99962377D01*
X160780251Y-100070523D01*
X160785233Y-100072846D01*
X160785238Y-100072849D01*
X160982775Y-100164961D01*
X160987757Y-100167284D01*
X160993065Y-100168706D01*
X160993067Y-100168707D01*
X161203598Y-100225119D01*
X161203600Y-100225119D01*
X161208913Y-100226543D01*
X161437000Y-100246498D01*
X161665087Y-100226543D01*
X161670400Y-100225119D01*
X161670402Y-100225119D01*
X161880933Y-100168707D01*
X161880935Y-100168706D01*
X161886243Y-100167284D01*
X161891225Y-100164961D01*
X162088762Y-100072849D01*
X162088767Y-100072846D01*
X162093749Y-100070523D01*
X162248197Y-99962377D01*
X162276789Y-99942357D01*
X162276792Y-99942355D01*
X162281300Y-99939198D01*
X162443198Y-99777300D01*
X162449014Y-99768995D01*
X162562519Y-99606892D01*
X162574523Y-99589749D01*
X162576846Y-99584767D01*
X162576849Y-99584762D01*
X162668961Y-99387225D01*
X162668961Y-99387224D01*
X162671284Y-99382243D01*
X162675235Y-99367500D01*
X162723600Y-99187000D01*
X163763884Y-99187000D01*
X163782314Y-99397655D01*
X163783738Y-99402968D01*
X163783738Y-99402970D01*
X163833765Y-99589671D01*
X163837044Y-99601910D01*
X163839366Y-99606891D01*
X163839367Y-99606892D01*
X163918830Y-99777300D01*
X163926411Y-99793558D01*
X164047699Y-99966776D01*
X164197224Y-100116301D01*
X164370442Y-100237589D01*
X164375420Y-100239910D01*
X164375423Y-100239912D01*
X164557108Y-100324633D01*
X164562090Y-100326956D01*
X164567398Y-100328378D01*
X164567400Y-100328379D01*
X164761030Y-100380262D01*
X164761032Y-100380262D01*
X164766345Y-100381686D01*
X164977000Y-100400116D01*
X165187655Y-100381686D01*
X165192968Y-100380262D01*
X165192970Y-100380262D01*
X165386600Y-100328379D01*
X165386602Y-100328378D01*
X165391910Y-100326956D01*
X165396892Y-100324633D01*
X165578577Y-100239912D01*
X165578580Y-100239910D01*
X165583558Y-100237589D01*
X165756776Y-100116301D01*
X165837905Y-100035172D01*
X165900217Y-100001146D01*
X165971032Y-100006211D01*
X166016095Y-100035172D01*
X166097224Y-100116301D01*
X166270442Y-100237589D01*
X166275420Y-100239910D01*
X166275423Y-100239912D01*
X166457108Y-100324633D01*
X166462090Y-100326956D01*
X166467398Y-100328378D01*
X166467400Y-100328379D01*
X166661030Y-100380262D01*
X166661032Y-100380262D01*
X166666345Y-100381686D01*
X166877000Y-100400116D01*
X167087655Y-100381686D01*
X167092968Y-100380262D01*
X167092970Y-100380262D01*
X167286600Y-100328379D01*
X167286602Y-100328378D01*
X167291910Y-100326956D01*
X167296892Y-100324633D01*
X167478577Y-100239912D01*
X167478580Y-100239910D01*
X167483558Y-100237589D01*
X167656776Y-100116301D01*
X167806301Y-99966776D01*
X167927589Y-99793558D01*
X167935171Y-99777300D01*
X168014633Y-99606892D01*
X168014634Y-99606891D01*
X168016956Y-99601910D01*
X168020236Y-99589671D01*
X168070262Y-99402970D01*
X168070262Y-99402968D01*
X168071686Y-99397655D01*
X168090116Y-99187000D01*
X168071686Y-98976345D01*
X168070262Y-98971030D01*
X168026042Y-98806000D01*
X168844884Y-98806000D01*
X168863314Y-99016655D01*
X168864738Y-99021968D01*
X168864738Y-99021970D01*
X168916431Y-99214889D01*
X168918044Y-99220910D01*
X168920366Y-99225891D01*
X168920367Y-99225892D01*
X169000661Y-99398082D01*
X169007411Y-99412558D01*
X169128699Y-99585776D01*
X169278224Y-99735301D01*
X169451442Y-99856589D01*
X169456420Y-99858910D01*
X169456423Y-99858912D01*
X169635372Y-99942357D01*
X169643090Y-99945956D01*
X169648398Y-99947378D01*
X169648400Y-99947379D01*
X169842030Y-99999262D01*
X169842032Y-99999262D01*
X169847345Y-100000686D01*
X170058000Y-100019116D01*
X170268655Y-100000686D01*
X170273968Y-99999262D01*
X170273970Y-99999262D01*
X170467600Y-99947379D01*
X170467602Y-99947378D01*
X170472910Y-99945956D01*
X170480628Y-99942357D01*
X170659577Y-99858912D01*
X170659580Y-99858910D01*
X170664558Y-99856589D01*
X170716440Y-99820261D01*
X171308294Y-99820261D01*
X171317590Y-99832276D01*
X171347189Y-99853001D01*
X171356677Y-99858479D01*
X171538277Y-99943159D01*
X171548571Y-99946907D01*
X171742122Y-99998769D01*
X171752909Y-100000671D01*
X171952525Y-100018135D01*
X171963475Y-100018135D01*
X172163091Y-100000671D01*
X172173878Y-99998769D01*
X172367429Y-99946907D01*
X172377723Y-99943159D01*
X172559323Y-99858479D01*
X172568811Y-99853001D01*
X172599248Y-99831689D01*
X172607623Y-99821212D01*
X172600554Y-99807764D01*
X171970812Y-99178022D01*
X171956868Y-99170408D01*
X171955035Y-99170539D01*
X171948420Y-99174790D01*
X171314724Y-99808486D01*
X171308294Y-99820261D01*
X170716440Y-99820261D01*
X170837776Y-99735301D01*
X170987301Y-99585776D01*
X171108589Y-99412558D01*
X171113060Y-99402970D01*
X171195633Y-99225893D01*
X171195635Y-99225888D01*
X171197956Y-99220910D01*
X171198599Y-99221210D01*
X171224962Y-99179828D01*
X171585978Y-98818812D01*
X171592356Y-98807132D01*
X172322408Y-98807132D01*
X172322539Y-98808965D01*
X172326790Y-98815580D01*
X172960486Y-99449276D01*
X172972261Y-99455706D01*
X172984276Y-99446410D01*
X173005001Y-99416811D01*
X173010479Y-99407323D01*
X173095159Y-99225723D01*
X173098907Y-99215429D01*
X173150769Y-99021878D01*
X173152671Y-99011091D01*
X173170135Y-98811475D01*
X173170135Y-98800525D01*
X173152671Y-98600909D01*
X173150769Y-98590122D01*
X173098907Y-98396571D01*
X173095159Y-98386277D01*
X173010479Y-98204677D01*
X173005001Y-98195189D01*
X172983689Y-98164752D01*
X172973212Y-98156377D01*
X172959764Y-98163446D01*
X172330022Y-98793188D01*
X172322408Y-98807132D01*
X171592356Y-98807132D01*
X171593592Y-98804868D01*
X171593461Y-98803035D01*
X171589210Y-98796420D01*
X171224962Y-98432172D01*
X171198599Y-98390790D01*
X171197956Y-98391090D01*
X171195633Y-98386108D01*
X171195633Y-98386107D01*
X171110912Y-98204423D01*
X171110910Y-98204420D01*
X171108589Y-98199442D01*
X170987301Y-98026224D01*
X170837776Y-97876699D01*
X170715082Y-97790788D01*
X171308377Y-97790788D01*
X171315446Y-97804236D01*
X171945188Y-98433978D01*
X171959132Y-98441592D01*
X171960965Y-98441461D01*
X171967580Y-98437210D01*
X172601276Y-97803514D01*
X172607706Y-97791739D01*
X172598410Y-97779724D01*
X172568811Y-97758999D01*
X172559323Y-97753521D01*
X172377723Y-97668841D01*
X172367429Y-97665093D01*
X172173878Y-97613231D01*
X172163091Y-97611329D01*
X171963475Y-97593865D01*
X171952525Y-97593865D01*
X171752909Y-97611329D01*
X171742122Y-97613231D01*
X171548571Y-97665093D01*
X171538277Y-97668841D01*
X171356677Y-97753521D01*
X171347189Y-97758999D01*
X171316752Y-97780311D01*
X171308377Y-97790788D01*
X170715082Y-97790788D01*
X170664558Y-97755411D01*
X170659580Y-97753090D01*
X170659577Y-97753088D01*
X170477892Y-97668367D01*
X170477891Y-97668366D01*
X170472910Y-97666044D01*
X170467602Y-97664622D01*
X170467600Y-97664621D01*
X170273970Y-97612738D01*
X170273968Y-97612738D01*
X170268655Y-97611314D01*
X170058000Y-97592884D01*
X169847345Y-97611314D01*
X169842032Y-97612738D01*
X169842030Y-97612738D01*
X169648400Y-97664621D01*
X169648398Y-97664622D01*
X169643090Y-97666044D01*
X169638109Y-97668366D01*
X169638108Y-97668367D01*
X169456423Y-97753088D01*
X169456420Y-97753090D01*
X169451442Y-97755411D01*
X169278224Y-97876699D01*
X169128699Y-98026224D01*
X169007411Y-98199442D01*
X169005090Y-98204420D01*
X169005088Y-98204423D01*
X168920367Y-98386108D01*
X168918044Y-98391090D01*
X168916622Y-98396398D01*
X168916621Y-98396400D01*
X168865930Y-98585581D01*
X168863314Y-98595345D01*
X168844884Y-98806000D01*
X168026042Y-98806000D01*
X168018379Y-98777400D01*
X168018378Y-98777398D01*
X168016956Y-98772090D01*
X168014633Y-98767108D01*
X167929912Y-98585423D01*
X167929910Y-98585420D01*
X167927589Y-98580442D01*
X167806301Y-98407224D01*
X167750619Y-98351542D01*
X167716593Y-98289230D01*
X167721658Y-98218415D01*
X167750619Y-98173352D01*
X169166566Y-96757405D01*
X169228878Y-96723379D01*
X169255661Y-96720500D01*
X172945199Y-96720500D01*
X173013320Y-96740502D01*
X173048411Y-96774228D01*
X173057538Y-96787262D01*
X173060699Y-96791776D01*
X173210224Y-96941301D01*
X173383442Y-97062589D01*
X173388420Y-97064910D01*
X173388423Y-97064912D01*
X173570108Y-97149633D01*
X173575090Y-97151956D01*
X173580398Y-97153378D01*
X173580400Y-97153379D01*
X173774030Y-97205262D01*
X173774032Y-97205262D01*
X173779345Y-97206686D01*
X173990000Y-97225116D01*
X174200655Y-97206686D01*
X174205968Y-97205262D01*
X174205970Y-97205262D01*
X174399600Y-97153379D01*
X174399602Y-97153378D01*
X174404910Y-97151956D01*
X174409892Y-97149633D01*
X174591577Y-97064912D01*
X174591580Y-97064910D01*
X174596558Y-97062589D01*
X174769776Y-96941301D01*
X174850905Y-96860172D01*
X174913217Y-96826146D01*
X174984032Y-96831211D01*
X175029095Y-96860172D01*
X175110224Y-96941301D01*
X175283442Y-97062589D01*
X175288420Y-97064910D01*
X175288423Y-97064912D01*
X175470108Y-97149633D01*
X175475090Y-97151956D01*
X175480398Y-97153378D01*
X175480400Y-97153379D01*
X175674030Y-97205262D01*
X175674032Y-97205262D01*
X175679345Y-97206686D01*
X175890000Y-97225116D01*
X176100655Y-97206686D01*
X176105968Y-97205262D01*
X176105970Y-97205262D01*
X176299600Y-97153379D01*
X176299602Y-97153378D01*
X176304910Y-97151956D01*
X176309892Y-97149633D01*
X176491577Y-97064912D01*
X176491580Y-97064910D01*
X176496558Y-97062589D01*
X176669776Y-96941301D01*
X176819301Y-96791776D01*
X176940589Y-96618558D01*
X176961220Y-96574316D01*
X177027633Y-96431892D01*
X177027634Y-96431891D01*
X177029956Y-96426910D01*
X177041472Y-96383934D01*
X177083262Y-96227970D01*
X177083262Y-96227968D01*
X177084686Y-96222655D01*
X177103116Y-96012000D01*
X177084686Y-95801345D01*
X177058617Y-95704053D01*
X177031379Y-95602400D01*
X177031378Y-95602398D01*
X177029956Y-95597090D01*
X176997505Y-95527498D01*
X176942912Y-95410423D01*
X176942910Y-95410420D01*
X176940589Y-95405442D01*
X176835581Y-95255475D01*
X187663483Y-95255475D01*
X187682472Y-95472519D01*
X187684375Y-95483312D01*
X187740764Y-95693761D01*
X187744510Y-95704053D01*
X187836586Y-95901511D01*
X187842069Y-95911006D01*
X187878509Y-95963048D01*
X187888988Y-95971424D01*
X187902434Y-95964356D01*
X188603978Y-95262812D01*
X188610356Y-95251132D01*
X189340408Y-95251132D01*
X189340539Y-95252965D01*
X189344790Y-95259580D01*
X190050287Y-95965077D01*
X190062062Y-95971507D01*
X190074077Y-95962211D01*
X190109931Y-95911006D01*
X190115414Y-95901511D01*
X190207490Y-95704053D01*
X190211236Y-95693761D01*
X190267625Y-95483312D01*
X190269528Y-95472519D01*
X190288517Y-95255475D01*
X190288517Y-95244525D01*
X190269528Y-95027481D01*
X190267625Y-95016688D01*
X190211236Y-94806239D01*
X190207490Y-94795947D01*
X190115414Y-94598489D01*
X190109931Y-94588994D01*
X190073491Y-94536952D01*
X190063012Y-94528576D01*
X190049566Y-94535644D01*
X189348022Y-95237188D01*
X189340408Y-95251132D01*
X188610356Y-95251132D01*
X188611592Y-95248868D01*
X188611461Y-95247035D01*
X188607210Y-95240420D01*
X187901713Y-94534923D01*
X187889938Y-94528493D01*
X187877923Y-94537789D01*
X187842069Y-94588994D01*
X187836586Y-94598489D01*
X187744510Y-94795947D01*
X187740764Y-94806239D01*
X187684375Y-95016688D01*
X187682472Y-95027481D01*
X187663483Y-95244525D01*
X187663483Y-95255475D01*
X176835581Y-95255475D01*
X176819301Y-95232224D01*
X176669776Y-95082699D01*
X176496558Y-94961411D01*
X176491580Y-94959090D01*
X176491577Y-94959088D01*
X176309892Y-94874367D01*
X176309891Y-94874366D01*
X176304910Y-94872044D01*
X176299602Y-94870622D01*
X176299600Y-94870621D01*
X176105970Y-94818738D01*
X176105968Y-94818738D01*
X176100655Y-94817314D01*
X175890000Y-94798884D01*
X175679345Y-94817314D01*
X175674032Y-94818738D01*
X175674030Y-94818738D01*
X175480400Y-94870621D01*
X175480398Y-94870622D01*
X175475090Y-94872044D01*
X175470109Y-94874366D01*
X175470108Y-94874367D01*
X175288423Y-94959088D01*
X175288420Y-94959090D01*
X175283442Y-94961411D01*
X175110224Y-95082699D01*
X175029095Y-95163828D01*
X174966783Y-95197854D01*
X174895968Y-95192789D01*
X174850905Y-95163828D01*
X174769776Y-95082699D01*
X174596558Y-94961411D01*
X174591580Y-94959090D01*
X174591577Y-94959088D01*
X174409892Y-94874367D01*
X174409891Y-94874366D01*
X174404910Y-94872044D01*
X174399602Y-94870622D01*
X174399600Y-94870621D01*
X174205970Y-94818738D01*
X174205968Y-94818738D01*
X174200655Y-94817314D01*
X173990000Y-94798884D01*
X173779345Y-94817314D01*
X173774032Y-94818738D01*
X173774030Y-94818738D01*
X173580400Y-94870621D01*
X173580398Y-94870622D01*
X173575090Y-94872044D01*
X173570109Y-94874366D01*
X173570108Y-94874367D01*
X173388423Y-94959088D01*
X173388420Y-94959090D01*
X173383442Y-94961411D01*
X173210224Y-95082699D01*
X173060699Y-95232224D01*
X173057540Y-95236736D01*
X173057538Y-95236738D01*
X173048411Y-95249772D01*
X172992953Y-95294100D01*
X172945199Y-95303500D01*
X168938912Y-95303500D01*
X168930342Y-95303208D01*
X168880224Y-95299791D01*
X168880220Y-95299791D01*
X168872648Y-95299275D01*
X168865171Y-95300580D01*
X168865170Y-95300580D01*
X168838692Y-95305201D01*
X168809697Y-95310262D01*
X168803179Y-95311223D01*
X168739758Y-95318898D01*
X168732657Y-95321581D01*
X168730048Y-95322222D01*
X168713738Y-95326685D01*
X168711202Y-95327450D01*
X168703716Y-95328757D01*
X168647260Y-95353540D01*
X168645205Y-95354442D01*
X168639101Y-95356933D01*
X168579344Y-95379513D01*
X168573081Y-95383817D01*
X168570715Y-95385054D01*
X168555903Y-95393299D01*
X168553649Y-95394632D01*
X168546695Y-95397685D01*
X168495998Y-95436587D01*
X168490668Y-95440459D01*
X168444280Y-95472339D01*
X168444275Y-95472344D01*
X168438019Y-95476643D01*
X168432968Y-95482313D01*
X168432966Y-95482314D01*
X168396565Y-95523170D01*
X168391584Y-95528446D01*
X166396480Y-97523550D01*
X166390215Y-97529404D01*
X166346615Y-97567439D01*
X166309872Y-97619719D01*
X166305939Y-97625014D01*
X166266524Y-97675282D01*
X166263401Y-97682198D01*
X166262017Y-97684484D01*
X166253643Y-97699165D01*
X166252378Y-97701525D01*
X166248010Y-97707739D01*
X166245250Y-97714818D01*
X166245249Y-97714820D01*
X166224798Y-97767275D01*
X166222247Y-97773344D01*
X166195955Y-97831573D01*
X166194571Y-97839040D01*
X166193770Y-97841595D01*
X166189141Y-97857848D01*
X166188478Y-97860428D01*
X166185718Y-97867509D01*
X166184727Y-97875040D01*
X166184726Y-97875042D01*
X166177379Y-97930852D01*
X166176348Y-97937359D01*
X166164704Y-98000186D01*
X166165141Y-98007766D01*
X166165141Y-98007767D01*
X166168291Y-98062392D01*
X166168500Y-98069646D01*
X166168500Y-98142199D01*
X166148498Y-98210320D01*
X166114772Y-98245411D01*
X166101738Y-98254538D01*
X166097224Y-98257699D01*
X166016095Y-98338828D01*
X165953783Y-98372854D01*
X165882968Y-98367789D01*
X165837905Y-98338828D01*
X165756776Y-98257699D01*
X165583558Y-98136411D01*
X165578580Y-98134090D01*
X165578577Y-98134088D01*
X165396892Y-98049367D01*
X165396891Y-98049366D01*
X165391910Y-98047044D01*
X165386602Y-98045622D01*
X165386600Y-98045621D01*
X165192970Y-97993738D01*
X165192968Y-97993738D01*
X165187655Y-97992314D01*
X164977000Y-97973884D01*
X164766345Y-97992314D01*
X164761032Y-97993738D01*
X164761030Y-97993738D01*
X164567400Y-98045621D01*
X164567398Y-98045622D01*
X164562090Y-98047044D01*
X164557109Y-98049366D01*
X164557108Y-98049367D01*
X164375423Y-98134088D01*
X164375420Y-98134090D01*
X164370442Y-98136411D01*
X164197224Y-98257699D01*
X164047699Y-98407224D01*
X163926411Y-98580442D01*
X163924090Y-98585420D01*
X163924088Y-98585423D01*
X163839367Y-98767108D01*
X163837044Y-98772090D01*
X163835622Y-98777398D01*
X163835621Y-98777400D01*
X163783738Y-98971030D01*
X163782314Y-98976345D01*
X163763884Y-99187000D01*
X162723600Y-99187000D01*
X162729119Y-99166402D01*
X162729119Y-99166400D01*
X162730543Y-99161087D01*
X162750498Y-98933000D01*
X162730543Y-98704913D01*
X162726623Y-98690282D01*
X162672707Y-98489067D01*
X162672706Y-98489065D01*
X162671284Y-98483757D01*
X162665020Y-98470323D01*
X162576849Y-98281238D01*
X162576846Y-98281233D01*
X162574523Y-98276251D01*
X162480659Y-98142199D01*
X162446357Y-98093211D01*
X162446355Y-98093208D01*
X162443198Y-98088700D01*
X162281300Y-97926802D01*
X162276792Y-97923645D01*
X162276789Y-97923643D01*
X162182824Y-97857848D01*
X162093749Y-97795477D01*
X162088767Y-97793154D01*
X162088762Y-97793151D01*
X161891225Y-97701039D01*
X161891224Y-97701039D01*
X161886243Y-97698716D01*
X161880935Y-97697294D01*
X161880933Y-97697293D01*
X161670402Y-97640881D01*
X161670400Y-97640881D01*
X161665087Y-97639457D01*
X161437000Y-97619502D01*
X161208913Y-97639457D01*
X161203600Y-97640881D01*
X161203598Y-97640881D01*
X160993067Y-97697293D01*
X160993065Y-97697294D01*
X160987757Y-97698716D01*
X160982776Y-97701039D01*
X160982775Y-97701039D01*
X160785238Y-97793151D01*
X160785233Y-97793154D01*
X160780251Y-97795477D01*
X160691176Y-97857848D01*
X160597211Y-97923643D01*
X160597208Y-97923645D01*
X160592700Y-97926802D01*
X160430802Y-98088700D01*
X160427645Y-98093208D01*
X160427643Y-98093211D01*
X160393341Y-98142199D01*
X160299477Y-98276251D01*
X160297154Y-98281233D01*
X160296118Y-98283027D01*
X160244734Y-98332019D01*
X160175021Y-98345454D01*
X160109110Y-98319066D01*
X160077882Y-98283027D01*
X160076846Y-98281233D01*
X160074523Y-98276251D01*
X159980659Y-98142199D01*
X159946357Y-98093211D01*
X159946355Y-98093208D01*
X159943198Y-98088700D01*
X159781300Y-97926802D01*
X159776792Y-97923645D01*
X159776789Y-97923643D01*
X159682824Y-97857848D01*
X159593749Y-97795477D01*
X159588767Y-97793154D01*
X159588762Y-97793151D01*
X159391225Y-97701039D01*
X159391224Y-97701039D01*
X159386243Y-97698716D01*
X159380935Y-97697294D01*
X159380933Y-97697293D01*
X159170402Y-97640881D01*
X159170400Y-97640881D01*
X159165087Y-97639457D01*
X158937000Y-97619502D01*
X158708913Y-97639457D01*
X158703600Y-97640881D01*
X158703598Y-97640881D01*
X158493067Y-97697293D01*
X158493065Y-97697294D01*
X158487757Y-97698716D01*
X158482776Y-97701039D01*
X158482775Y-97701039D01*
X158285238Y-97793151D01*
X158285233Y-97793154D01*
X158280251Y-97795477D01*
X158191176Y-97857848D01*
X158097211Y-97923643D01*
X158097208Y-97923645D01*
X158092700Y-97926802D01*
X157930802Y-98088700D01*
X157927645Y-98093208D01*
X157927643Y-98093211D01*
X157893341Y-98142199D01*
X157799477Y-98276251D01*
X157797154Y-98281233D01*
X157797151Y-98281238D01*
X157708980Y-98470323D01*
X157702716Y-98483757D01*
X157701294Y-98489065D01*
X157701293Y-98489067D01*
X157647377Y-98690282D01*
X157643457Y-98704913D01*
X157623502Y-98933000D01*
X140574970Y-98933000D01*
X139419405Y-97777435D01*
X139385379Y-97715123D01*
X139382500Y-97688340D01*
X139382500Y-97422878D01*
X139402502Y-97354757D01*
X139436229Y-97319665D01*
X139513789Y-97265357D01*
X139513792Y-97265355D01*
X139518300Y-97262198D01*
X139680198Y-97100300D01*
X139684774Y-97093766D01*
X139758992Y-96987771D01*
X139811523Y-96912749D01*
X139813846Y-96907767D01*
X139813849Y-96907762D01*
X139905961Y-96710225D01*
X139905961Y-96710224D01*
X139908284Y-96705243D01*
X139931512Y-96618558D01*
X139966119Y-96489402D01*
X139966119Y-96489400D01*
X139967543Y-96484087D01*
X139987498Y-96256000D01*
X139967543Y-96027913D01*
X139950513Y-95964356D01*
X139909707Y-95812067D01*
X139909706Y-95812065D01*
X139908284Y-95806757D01*
X139857300Y-95697420D01*
X139813849Y-95604238D01*
X139813846Y-95604233D01*
X139811523Y-95599251D01*
X139725672Y-95476643D01*
X139683357Y-95416211D01*
X139683355Y-95416208D01*
X139680198Y-95411700D01*
X139518300Y-95249802D01*
X139513792Y-95246645D01*
X139513789Y-95246643D01*
X139398637Y-95166013D01*
X139330749Y-95118477D01*
X139325767Y-95116154D01*
X139325762Y-95116151D01*
X139291543Y-95100195D01*
X139238258Y-95053278D01*
X139218797Y-94985001D01*
X139239339Y-94917041D01*
X139291543Y-94871805D01*
X139325762Y-94855849D01*
X139325767Y-94855846D01*
X139330749Y-94853523D01*
X139467204Y-94757976D01*
X139513789Y-94725357D01*
X139513792Y-94725355D01*
X139518300Y-94722198D01*
X139680198Y-94560300D01*
X139695961Y-94537789D01*
X139775286Y-94424500D01*
X139811523Y-94372749D01*
X139813846Y-94367767D01*
X139813849Y-94367762D01*
X139905961Y-94170225D01*
X139905961Y-94170224D01*
X139908284Y-94165243D01*
X139922930Y-94110586D01*
X139966119Y-93949402D01*
X139966119Y-93949400D01*
X139967543Y-93944087D01*
X139987498Y-93716000D01*
X144980502Y-93716000D01*
X145000457Y-93944087D01*
X145001881Y-93949400D01*
X145001881Y-93949402D01*
X145045071Y-94110586D01*
X145059716Y-94165243D01*
X145062039Y-94170224D01*
X145062039Y-94170225D01*
X145154151Y-94367762D01*
X145154154Y-94367767D01*
X145156477Y-94372749D01*
X145192714Y-94424500D01*
X145272040Y-94537789D01*
X145287802Y-94560300D01*
X145449700Y-94722198D01*
X145454211Y-94725357D01*
X145458424Y-94728892D01*
X145457473Y-94730026D01*
X145497471Y-94780071D01*
X145504776Y-94850690D01*
X145472742Y-94914049D01*
X145411538Y-94950030D01*
X145394483Y-94953082D01*
X145383684Y-94954255D01*
X145247295Y-95005385D01*
X145130739Y-95092739D01*
X145043385Y-95209295D01*
X144992255Y-95345684D01*
X144985500Y-95407866D01*
X144985500Y-97104134D01*
X144992255Y-97166316D01*
X145043385Y-97302705D01*
X145130739Y-97419261D01*
X145247295Y-97506615D01*
X145383684Y-97557745D01*
X145445866Y-97564500D01*
X147142134Y-97564500D01*
X147204316Y-97557745D01*
X147340705Y-97506615D01*
X147457261Y-97419261D01*
X147544615Y-97302705D01*
X147595745Y-97166316D01*
X147602500Y-97104134D01*
X147602500Y-97090500D01*
X147622502Y-97022379D01*
X147676158Y-96975886D01*
X147728500Y-96964500D01*
X151094663Y-96964500D01*
X151162784Y-96984502D01*
X151209277Y-97038158D01*
X151219381Y-97108432D01*
X151189887Y-97173012D01*
X151130161Y-97211396D01*
X151101479Y-97216316D01*
X151094510Y-97216694D01*
X151043648Y-97222218D01*
X151028396Y-97225844D01*
X150907946Y-97270999D01*
X150892351Y-97279537D01*
X150790276Y-97356038D01*
X150777715Y-97368599D01*
X150701214Y-97470674D01*
X150692676Y-97486269D01*
X150647522Y-97606717D01*
X150643895Y-97621972D01*
X150638369Y-97672837D01*
X150638000Y-97679651D01*
X150638000Y-98452208D01*
X150642475Y-98467447D01*
X150643865Y-98468652D01*
X150651548Y-98470323D01*
X153635884Y-98470323D01*
X153651123Y-98465848D01*
X153652328Y-98464458D01*
X153653999Y-98456775D01*
X153653999Y-97679654D01*
X153653629Y-97672833D01*
X153648105Y-97621971D01*
X153644479Y-97606719D01*
X153599324Y-97486269D01*
X153590786Y-97470674D01*
X153514285Y-97368599D01*
X153501724Y-97356038D01*
X153399649Y-97279537D01*
X153384054Y-97270999D01*
X153263606Y-97225845D01*
X153248351Y-97222218D01*
X153197486Y-97216692D01*
X153190543Y-97216316D01*
X153123604Y-97192659D01*
X153080080Y-97136567D01*
X153073792Y-97065850D01*
X153106734Y-97002959D01*
X153168449Y-96967861D01*
X153197357Y-96964500D01*
X158980687Y-96964500D01*
X158989257Y-96964792D01*
X159039375Y-96968209D01*
X159039379Y-96968209D01*
X159046951Y-96968725D01*
X159054428Y-96967420D01*
X159054429Y-96967420D01*
X159080907Y-96962799D01*
X159109902Y-96957738D01*
X159116420Y-96956777D01*
X159179841Y-96949102D01*
X159186942Y-96946419D01*
X159189551Y-96945778D01*
X159205861Y-96941315D01*
X159208397Y-96940550D01*
X159215883Y-96939243D01*
X159274399Y-96913556D01*
X159280503Y-96911065D01*
X159289245Y-96907762D01*
X159340255Y-96888487D01*
X159346518Y-96884183D01*
X159348884Y-96882946D01*
X159363696Y-96874701D01*
X159365950Y-96873368D01*
X159372904Y-96870315D01*
X159423601Y-96831413D01*
X159428931Y-96827541D01*
X159475319Y-96795661D01*
X159475324Y-96795656D01*
X159481580Y-96791357D01*
X159493695Y-96777760D01*
X159523034Y-96744830D01*
X159528015Y-96739554D01*
X161938893Y-94328676D01*
X162001205Y-94294650D01*
X162038970Y-94292250D01*
X162169124Y-94303637D01*
X162174599Y-94304116D01*
X162385254Y-94285686D01*
X162390567Y-94284262D01*
X162390569Y-94284262D01*
X162584199Y-94232379D01*
X162584201Y-94232378D01*
X162589509Y-94230956D01*
X162707978Y-94175713D01*
X162776176Y-94143912D01*
X162776179Y-94143910D01*
X162781157Y-94141589D01*
X162933393Y-94034993D01*
X168296160Y-94034993D01*
X168301887Y-94042643D01*
X168473042Y-94147528D01*
X168481837Y-94152010D01*
X168691988Y-94239057D01*
X168701373Y-94242106D01*
X168922554Y-94295208D01*
X168932301Y-94296751D01*
X169159070Y-94314598D01*
X169168930Y-94314598D01*
X169395699Y-94296751D01*
X169405446Y-94295208D01*
X169626627Y-94242106D01*
X169636012Y-94239057D01*
X169846163Y-94152010D01*
X169854958Y-94147528D01*
X170022445Y-94044891D01*
X170031907Y-94034433D01*
X170028124Y-94025657D01*
X169176812Y-93174345D01*
X169162868Y-93166731D01*
X169161035Y-93166862D01*
X169154420Y-93171113D01*
X168302920Y-94022613D01*
X168296160Y-94034993D01*
X162933393Y-94034993D01*
X162954375Y-94020301D01*
X163103900Y-93870776D01*
X163225188Y-93697558D01*
X163234054Y-93678546D01*
X163312232Y-93510892D01*
X163312233Y-93510891D01*
X163314555Y-93505910D01*
X163320802Y-93482598D01*
X163367861Y-93306970D01*
X163367861Y-93306968D01*
X163369285Y-93301655D01*
X163387715Y-93091000D01*
X163369285Y-92880345D01*
X163366969Y-92871700D01*
X163349700Y-92807253D01*
X167651725Y-92807253D01*
X167669572Y-93034022D01*
X167671115Y-93043769D01*
X167724217Y-93264950D01*
X167727266Y-93274335D01*
X167814313Y-93484486D01*
X167818795Y-93493281D01*
X167921432Y-93660768D01*
X167931890Y-93670230D01*
X167940666Y-93666447D01*
X168791978Y-92815135D01*
X168798356Y-92803455D01*
X169528408Y-92803455D01*
X169528539Y-92805288D01*
X169532790Y-92811903D01*
X170384290Y-93663403D01*
X170396670Y-93670163D01*
X170404320Y-93664436D01*
X170509205Y-93493281D01*
X170513687Y-93484486D01*
X170600734Y-93274335D01*
X170603783Y-93264950D01*
X170656885Y-93043769D01*
X170658428Y-93034022D01*
X170676275Y-92807253D01*
X170676275Y-92797393D01*
X170660661Y-92599000D01*
X187762884Y-92599000D01*
X187781314Y-92809655D01*
X187782738Y-92814968D01*
X187782738Y-92814970D01*
X187833102Y-93002929D01*
X187836044Y-93013910D01*
X187838366Y-93018891D01*
X187838367Y-93018892D01*
X187907367Y-93166862D01*
X187925411Y-93205558D01*
X188046699Y-93378776D01*
X188196224Y-93528301D01*
X188369442Y-93649589D01*
X188374420Y-93651910D01*
X188374423Y-93651912D01*
X188519167Y-93719407D01*
X188561090Y-93738956D01*
X188566397Y-93740378D01*
X188607114Y-93751288D01*
X188667736Y-93788240D01*
X188698758Y-93852101D01*
X188690329Y-93922595D01*
X188645126Y-93977342D01*
X188607113Y-93994702D01*
X188532239Y-94014764D01*
X188521947Y-94018510D01*
X188324489Y-94110586D01*
X188314994Y-94116069D01*
X188262952Y-94152509D01*
X188254576Y-94162988D01*
X188261644Y-94176434D01*
X188963188Y-94877978D01*
X188977132Y-94885592D01*
X188978965Y-94885461D01*
X188985580Y-94881210D01*
X189691077Y-94175713D01*
X189697507Y-94163938D01*
X189688211Y-94151923D01*
X189637006Y-94116069D01*
X189627511Y-94110586D01*
X189430053Y-94018510D01*
X189419761Y-94014764D01*
X189344887Y-93994702D01*
X189284264Y-93957750D01*
X189253243Y-93893890D01*
X189261671Y-93823395D01*
X189306874Y-93768648D01*
X189344886Y-93751288D01*
X189385603Y-93740378D01*
X189390910Y-93738956D01*
X189432833Y-93719407D01*
X189577577Y-93651912D01*
X189577580Y-93651910D01*
X189582558Y-93649589D01*
X189755776Y-93528301D01*
X189905301Y-93378776D01*
X190026589Y-93205558D01*
X190044634Y-93166862D01*
X190113633Y-93018892D01*
X190113634Y-93018891D01*
X190115956Y-93013910D01*
X190118899Y-93002929D01*
X190169262Y-92814970D01*
X190169262Y-92814968D01*
X190170686Y-92809655D01*
X190189116Y-92599000D01*
X190170686Y-92388345D01*
X190151261Y-92315849D01*
X190117379Y-92189400D01*
X190117378Y-92189398D01*
X190115956Y-92184090D01*
X190094078Y-92137172D01*
X190028912Y-91997423D01*
X190028910Y-91997420D01*
X190026589Y-91992442D01*
X189905301Y-91819224D01*
X189824172Y-91738095D01*
X189790146Y-91675783D01*
X189795211Y-91604968D01*
X189824172Y-91559905D01*
X189905301Y-91478776D01*
X190026589Y-91305558D01*
X190033822Y-91290048D01*
X190113633Y-91118892D01*
X190113634Y-91118891D01*
X190115956Y-91113910D01*
X190128066Y-91068717D01*
X190169262Y-90914970D01*
X190169262Y-90914968D01*
X190170686Y-90909655D01*
X190189116Y-90699000D01*
X190170686Y-90488345D01*
X190157298Y-90438379D01*
X190117379Y-90289400D01*
X190117378Y-90289398D01*
X190115956Y-90284090D01*
X190087192Y-90222406D01*
X190028912Y-90097423D01*
X190028910Y-90097420D01*
X190026589Y-90092442D01*
X189905301Y-89919224D01*
X189755776Y-89769699D01*
X189582558Y-89648411D01*
X189577580Y-89646090D01*
X189577577Y-89646088D01*
X189395892Y-89561367D01*
X189395891Y-89561366D01*
X189390910Y-89559044D01*
X189385602Y-89557622D01*
X189385600Y-89557621D01*
X189191970Y-89505738D01*
X189191968Y-89505738D01*
X189186655Y-89504314D01*
X188976000Y-89485884D01*
X188765345Y-89504314D01*
X188760032Y-89505738D01*
X188760030Y-89505738D01*
X188566400Y-89557621D01*
X188566398Y-89557622D01*
X188561090Y-89559044D01*
X188556109Y-89561366D01*
X188556108Y-89561367D01*
X188374423Y-89646088D01*
X188374420Y-89646090D01*
X188369442Y-89648411D01*
X188196224Y-89769699D01*
X188046699Y-89919224D01*
X187925411Y-90092442D01*
X187923090Y-90097420D01*
X187923088Y-90097423D01*
X187864808Y-90222406D01*
X187836044Y-90284090D01*
X187834622Y-90289398D01*
X187834621Y-90289400D01*
X187794702Y-90438379D01*
X187781314Y-90488345D01*
X187762884Y-90699000D01*
X187781314Y-90909655D01*
X187782738Y-90914968D01*
X187782738Y-90914970D01*
X187823935Y-91068717D01*
X187836044Y-91113910D01*
X187838366Y-91118891D01*
X187838367Y-91118892D01*
X187918179Y-91290048D01*
X187925411Y-91305558D01*
X188046699Y-91478776D01*
X188127828Y-91559905D01*
X188161854Y-91622217D01*
X188156789Y-91693032D01*
X188127828Y-91738095D01*
X188046699Y-91819224D01*
X187925411Y-91992442D01*
X187923090Y-91997420D01*
X187923088Y-91997423D01*
X187857922Y-92137172D01*
X187836044Y-92184090D01*
X187834622Y-92189398D01*
X187834621Y-92189400D01*
X187800739Y-92315849D01*
X187781314Y-92388345D01*
X187762884Y-92599000D01*
X170660661Y-92599000D01*
X170658428Y-92570624D01*
X170656885Y-92560877D01*
X170603783Y-92339696D01*
X170600734Y-92330311D01*
X170513687Y-92120160D01*
X170509205Y-92111365D01*
X170406568Y-91943878D01*
X170396110Y-91934416D01*
X170387334Y-91938199D01*
X169536022Y-92789511D01*
X169528408Y-92803455D01*
X168798356Y-92803455D01*
X168799592Y-92801191D01*
X168799461Y-92799358D01*
X168795210Y-92792743D01*
X167943710Y-91941243D01*
X167931330Y-91934483D01*
X167923680Y-91940210D01*
X167818795Y-92111365D01*
X167814313Y-92120160D01*
X167727266Y-92330311D01*
X167724217Y-92339696D01*
X167671115Y-92560877D01*
X167669572Y-92570624D01*
X167651725Y-92797393D01*
X167651725Y-92807253D01*
X163349700Y-92807253D01*
X163315978Y-92681400D01*
X163315977Y-92681398D01*
X163314555Y-92676090D01*
X163312232Y-92671108D01*
X163227511Y-92489423D01*
X163227509Y-92489420D01*
X163225188Y-92484442D01*
X163103900Y-92311224D01*
X162954375Y-92161699D01*
X162781157Y-92040411D01*
X162776179Y-92038090D01*
X162776176Y-92038088D01*
X162594491Y-91953367D01*
X162594490Y-91953366D01*
X162589509Y-91951044D01*
X162584201Y-91949622D01*
X162584199Y-91949621D01*
X162390569Y-91897738D01*
X162390567Y-91897738D01*
X162385254Y-91896314D01*
X162174599Y-91877884D01*
X161963944Y-91896314D01*
X161958631Y-91897738D01*
X161958629Y-91897738D01*
X161764999Y-91949621D01*
X161764997Y-91949622D01*
X161759689Y-91951044D01*
X161754708Y-91953366D01*
X161754707Y-91953367D01*
X161573022Y-92038088D01*
X161573019Y-92038090D01*
X161568041Y-92040411D01*
X161394823Y-92161699D01*
X161313694Y-92242828D01*
X161251382Y-92276854D01*
X161180567Y-92271789D01*
X161135504Y-92242828D01*
X161054375Y-92161699D01*
X160881157Y-92040411D01*
X160876179Y-92038090D01*
X160876176Y-92038088D01*
X160694491Y-91953367D01*
X160694490Y-91953366D01*
X160689509Y-91951044D01*
X160684201Y-91949622D01*
X160684199Y-91949621D01*
X160490569Y-91897738D01*
X160490567Y-91897738D01*
X160485254Y-91896314D01*
X160274599Y-91877884D01*
X160063944Y-91896314D01*
X160058631Y-91897738D01*
X160058629Y-91897738D01*
X159864999Y-91949621D01*
X159864997Y-91949622D01*
X159859689Y-91951044D01*
X159854708Y-91953366D01*
X159854707Y-91953367D01*
X159673022Y-92038088D01*
X159673019Y-92038090D01*
X159668041Y-92040411D01*
X159494823Y-92161699D01*
X159345298Y-92311224D01*
X159224010Y-92484442D01*
X159221689Y-92489420D01*
X159221687Y-92489423D01*
X159136966Y-92671108D01*
X159134643Y-92676090D01*
X159133221Y-92681398D01*
X159133220Y-92681400D01*
X159082229Y-92871700D01*
X159079913Y-92880345D01*
X159061483Y-93091000D01*
X159079913Y-93301655D01*
X159081337Y-93306968D01*
X159081337Y-93306970D01*
X159128397Y-93482598D01*
X159134643Y-93505910D01*
X159136965Y-93510891D01*
X159136966Y-93510892D01*
X159215145Y-93678546D01*
X159224010Y-93697558D01*
X159345298Y-93870776D01*
X159494823Y-94020301D01*
X159668041Y-94141589D01*
X159673019Y-94143910D01*
X159673022Y-94143912D01*
X159814575Y-94209919D01*
X159867860Y-94256836D01*
X159887321Y-94325114D01*
X159866779Y-94393074D01*
X159850420Y-94413209D01*
X158753034Y-95510595D01*
X158690722Y-95544621D01*
X158663939Y-95547500D01*
X147728500Y-95547500D01*
X147660379Y-95527498D01*
X147613886Y-95473842D01*
X147602500Y-95421500D01*
X147602500Y-95407866D01*
X147595745Y-95345684D01*
X147544615Y-95209295D01*
X147457261Y-95092739D01*
X147340705Y-95005385D01*
X147204316Y-94954255D01*
X147193526Y-94953083D01*
X147191394Y-94952197D01*
X147188778Y-94951575D01*
X147188879Y-94951152D01*
X147127965Y-94925845D01*
X147087537Y-94867483D01*
X147085078Y-94796529D01*
X147121371Y-94735510D01*
X147130031Y-94728511D01*
X147133793Y-94725354D01*
X147138300Y-94722198D01*
X147300198Y-94560300D01*
X147303357Y-94555789D01*
X147357665Y-94478229D01*
X147413122Y-94433901D01*
X147460878Y-94424500D01*
X153290687Y-94424500D01*
X153299257Y-94424792D01*
X153349375Y-94428209D01*
X153349379Y-94428209D01*
X153356951Y-94428725D01*
X153364428Y-94427420D01*
X153364429Y-94427420D01*
X153390907Y-94422799D01*
X153419902Y-94417738D01*
X153426420Y-94416777D01*
X153489841Y-94409102D01*
X153496942Y-94406419D01*
X153499551Y-94405778D01*
X153515861Y-94401315D01*
X153518397Y-94400549D01*
X153525883Y-94399243D01*
X153532838Y-94396190D01*
X153532841Y-94396189D01*
X153578415Y-94376183D01*
X153648831Y-94367117D01*
X153661672Y-94369849D01*
X153711197Y-94383119D01*
X153711199Y-94383119D01*
X153716512Y-94384543D01*
X153944599Y-94404498D01*
X154172686Y-94384543D01*
X154177999Y-94383119D01*
X154178001Y-94383119D01*
X154388532Y-94326707D01*
X154388534Y-94326706D01*
X154393842Y-94325284D01*
X154409538Y-94317965D01*
X154596361Y-94230849D01*
X154596366Y-94230846D01*
X154601348Y-94228523D01*
X154730008Y-94138434D01*
X154784388Y-94100357D01*
X154784391Y-94100355D01*
X154788899Y-94097198D01*
X154950797Y-93935300D01*
X155082122Y-93747749D01*
X155084445Y-93742767D01*
X155085481Y-93740973D01*
X155136865Y-93691981D01*
X155206578Y-93678546D01*
X155272489Y-93704934D01*
X155303717Y-93740973D01*
X155304753Y-93742767D01*
X155307076Y-93747749D01*
X155438401Y-93935300D01*
X155600299Y-94097198D01*
X155604807Y-94100355D01*
X155604810Y-94100357D01*
X155659190Y-94138434D01*
X155787850Y-94228523D01*
X155792832Y-94230846D01*
X155792837Y-94230849D01*
X155979660Y-94317965D01*
X155995356Y-94325284D01*
X156000664Y-94326706D01*
X156000666Y-94326707D01*
X156211197Y-94383119D01*
X156211199Y-94383119D01*
X156216512Y-94384543D01*
X156444599Y-94404498D01*
X156672686Y-94384543D01*
X156677999Y-94383119D01*
X156678001Y-94383119D01*
X156888532Y-94326707D01*
X156888534Y-94326706D01*
X156893842Y-94325284D01*
X156909538Y-94317965D01*
X157096361Y-94230849D01*
X157096366Y-94230846D01*
X157101348Y-94228523D01*
X157230008Y-94138434D01*
X157284388Y-94100357D01*
X157284391Y-94100355D01*
X157288899Y-94097198D01*
X157450797Y-93935300D01*
X157582122Y-93747749D01*
X157584445Y-93742767D01*
X157584448Y-93742762D01*
X157676560Y-93545225D01*
X157676560Y-93545224D01*
X157678883Y-93540243D01*
X157681237Y-93531460D01*
X157736718Y-93324402D01*
X157736718Y-93324400D01*
X157738142Y-93319087D01*
X157758097Y-93091000D01*
X157738142Y-92862913D01*
X157724474Y-92811903D01*
X157680306Y-92647067D01*
X157680305Y-92647065D01*
X157678883Y-92641757D01*
X157656392Y-92593525D01*
X157584448Y-92439238D01*
X157584445Y-92439233D01*
X157582122Y-92434251D01*
X157450797Y-92246700D01*
X157288899Y-92084802D01*
X157284391Y-92081645D01*
X157284388Y-92081643D01*
X157196781Y-92020300D01*
X157101348Y-91953477D01*
X157096366Y-91951154D01*
X157096361Y-91951151D01*
X156898824Y-91859039D01*
X156898823Y-91859039D01*
X156893842Y-91856716D01*
X156888534Y-91855294D01*
X156888532Y-91855293D01*
X156678001Y-91798881D01*
X156677999Y-91798881D01*
X156672686Y-91797457D01*
X156444599Y-91777502D01*
X156216512Y-91797457D01*
X156211199Y-91798881D01*
X156211197Y-91798881D01*
X156000666Y-91855293D01*
X156000664Y-91855294D01*
X155995356Y-91856716D01*
X155990375Y-91859039D01*
X155990374Y-91859039D01*
X155792837Y-91951151D01*
X155792832Y-91951154D01*
X155787850Y-91953477D01*
X155692417Y-92020300D01*
X155604810Y-92081643D01*
X155604807Y-92081645D01*
X155600299Y-92084802D01*
X155438401Y-92246700D01*
X155307076Y-92434251D01*
X155304753Y-92439233D01*
X155303717Y-92441027D01*
X155252333Y-92490019D01*
X155182620Y-92503454D01*
X155116709Y-92477066D01*
X155085481Y-92441027D01*
X155084445Y-92439233D01*
X155082122Y-92434251D01*
X154950797Y-92246700D01*
X154788899Y-92084802D01*
X154784391Y-92081645D01*
X154784388Y-92081643D01*
X154696781Y-92020300D01*
X154601348Y-91953477D01*
X154596366Y-91951154D01*
X154596361Y-91951151D01*
X154398824Y-91859039D01*
X154398823Y-91859039D01*
X154393842Y-91856716D01*
X154388534Y-91855294D01*
X154388532Y-91855293D01*
X154178001Y-91798881D01*
X154177999Y-91798881D01*
X154172686Y-91797457D01*
X153944599Y-91777502D01*
X153716512Y-91797457D01*
X153711199Y-91798881D01*
X153711197Y-91798881D01*
X153500666Y-91855293D01*
X153500664Y-91855294D01*
X153495356Y-91856716D01*
X153490375Y-91859039D01*
X153490374Y-91859039D01*
X153292837Y-91951151D01*
X153292832Y-91951154D01*
X153287850Y-91953477D01*
X153192417Y-92020300D01*
X153104810Y-92081643D01*
X153104807Y-92081645D01*
X153100299Y-92084802D01*
X152938401Y-92246700D01*
X152807076Y-92434251D01*
X152804753Y-92439233D01*
X152804750Y-92439238D01*
X152732806Y-92593525D01*
X152710315Y-92641757D01*
X152708893Y-92647065D01*
X152708892Y-92647067D01*
X152664724Y-92811903D01*
X152651056Y-92862913D01*
X152648469Y-92892482D01*
X152622605Y-92958600D01*
X152565102Y-93000239D01*
X152522948Y-93007500D01*
X147460878Y-93007500D01*
X147392757Y-92987498D01*
X147357665Y-92953771D01*
X147303357Y-92876211D01*
X147303355Y-92876208D01*
X147300198Y-92871700D01*
X147138300Y-92709802D01*
X147133792Y-92706645D01*
X147133789Y-92706643D01*
X147034007Y-92636775D01*
X146950749Y-92578477D01*
X146945767Y-92576154D01*
X146945762Y-92576151D01*
X146911543Y-92560195D01*
X146858258Y-92513278D01*
X146838797Y-92445001D01*
X146859339Y-92377041D01*
X146911543Y-92331805D01*
X146945762Y-92315849D01*
X146945767Y-92315846D01*
X146950749Y-92313523D01*
X147128015Y-92189400D01*
X147133789Y-92185357D01*
X147133792Y-92185355D01*
X147138300Y-92182198D01*
X147300198Y-92020300D01*
X147319705Y-91992442D01*
X147387014Y-91896314D01*
X147431523Y-91832749D01*
X147433846Y-91827767D01*
X147433849Y-91827762D01*
X147525961Y-91630225D01*
X147525961Y-91630224D01*
X147528284Y-91625243D01*
X147543030Y-91570213D01*
X168296093Y-91570213D01*
X168299876Y-91578989D01*
X169151188Y-92430301D01*
X169165132Y-92437915D01*
X169166965Y-92437784D01*
X169173580Y-92433533D01*
X170025080Y-91582033D01*
X170031840Y-91569653D01*
X170026113Y-91562003D01*
X169854958Y-91457118D01*
X169846163Y-91452636D01*
X169636012Y-91365589D01*
X169626627Y-91362540D01*
X169405446Y-91309438D01*
X169395699Y-91307895D01*
X169168930Y-91290048D01*
X169159070Y-91290048D01*
X168932301Y-91307895D01*
X168922554Y-91309438D01*
X168701373Y-91362540D01*
X168691988Y-91365589D01*
X168481837Y-91452636D01*
X168473042Y-91457118D01*
X168305555Y-91559755D01*
X168296093Y-91570213D01*
X147543030Y-91570213D01*
X147586119Y-91409402D01*
X147586119Y-91409400D01*
X147587543Y-91404087D01*
X147607498Y-91176000D01*
X147598411Y-91072134D01*
X148790901Y-91072134D01*
X148797656Y-91134316D01*
X148848786Y-91270705D01*
X148936140Y-91387261D01*
X149052696Y-91474615D01*
X149189085Y-91525745D01*
X149251267Y-91532500D01*
X150547535Y-91532500D01*
X150609717Y-91525745D01*
X150746106Y-91474615D01*
X150793563Y-91439048D01*
X150860067Y-91414201D01*
X150918864Y-91424108D01*
X151050072Y-91480480D01*
X151050081Y-91480483D01*
X151055388Y-91482763D01*
X151128218Y-91499243D01*
X151248456Y-91526450D01*
X151248461Y-91526451D01*
X151254093Y-91527725D01*
X151259864Y-91527952D01*
X151259866Y-91527952D01*
X151322871Y-91530427D01*
X151457664Y-91535723D01*
X151659284Y-91506490D01*
X151664748Y-91504635D01*
X151664753Y-91504634D01*
X151846728Y-91442862D01*
X151846733Y-91442860D01*
X151852200Y-91441004D01*
X151882758Y-91423891D01*
X151948165Y-91387261D01*
X152029952Y-91341458D01*
X152186587Y-91211186D01*
X152316859Y-91054551D01*
X152416405Y-90876799D01*
X152418261Y-90871332D01*
X152418263Y-90871327D01*
X152480035Y-90689352D01*
X152480036Y-90689347D01*
X152481891Y-90683883D01*
X152511124Y-90482263D01*
X152512650Y-90424000D01*
X152494009Y-90221126D01*
X152479590Y-90170000D01*
X176702512Y-90170000D01*
X176721142Y-90406711D01*
X176722296Y-90411518D01*
X176722297Y-90411524D01*
X176741780Y-90492675D01*
X176776572Y-90637594D01*
X176778465Y-90642165D01*
X176778466Y-90642167D01*
X176842009Y-90795573D01*
X176867437Y-90856963D01*
X176870023Y-90861183D01*
X176988918Y-91055202D01*
X176988922Y-91055208D01*
X176991501Y-91059416D01*
X177145708Y-91239969D01*
X177326261Y-91394176D01*
X177330469Y-91396755D01*
X177330475Y-91396759D01*
X177506511Y-91504634D01*
X177528714Y-91518240D01*
X177533284Y-91520133D01*
X177533288Y-91520135D01*
X177738095Y-91604968D01*
X177748083Y-91609105D01*
X177793185Y-91619933D01*
X177974153Y-91663380D01*
X177974159Y-91663381D01*
X177978966Y-91664535D01*
X178215677Y-91683165D01*
X178452388Y-91664535D01*
X178457195Y-91663381D01*
X178457201Y-91663380D01*
X178638169Y-91619933D01*
X178683271Y-91609105D01*
X178693259Y-91604968D01*
X178898066Y-91520135D01*
X178898070Y-91520133D01*
X178902640Y-91518240D01*
X178924843Y-91504634D01*
X179100879Y-91396759D01*
X179100885Y-91396755D01*
X179105093Y-91394176D01*
X179285646Y-91239969D01*
X179304295Y-91218134D01*
X181707177Y-91218134D01*
X181713932Y-91280316D01*
X181765062Y-91416705D01*
X181852416Y-91533261D01*
X181968972Y-91620615D01*
X182105361Y-91671745D01*
X182167543Y-91678500D01*
X184263811Y-91678500D01*
X184325993Y-91671745D01*
X184462382Y-91620615D01*
X184578938Y-91533261D01*
X184666292Y-91416705D01*
X184717422Y-91280316D01*
X184724177Y-91218134D01*
X184724177Y-89121866D01*
X184717422Y-89059684D01*
X184666292Y-88923295D01*
X184578938Y-88806739D01*
X184462382Y-88719385D01*
X184325993Y-88668255D01*
X184263811Y-88661500D01*
X182167543Y-88661500D01*
X182105361Y-88668255D01*
X181968972Y-88719385D01*
X181852416Y-88806739D01*
X181765062Y-88923295D01*
X181713932Y-89059684D01*
X181707177Y-89121866D01*
X181707177Y-91218134D01*
X179304295Y-91218134D01*
X179439853Y-91059416D01*
X179442432Y-91055208D01*
X179442436Y-91055202D01*
X179561331Y-90861183D01*
X179563917Y-90856963D01*
X179589346Y-90795573D01*
X179652888Y-90642167D01*
X179652889Y-90642165D01*
X179654782Y-90637594D01*
X179689574Y-90492675D01*
X179709057Y-90411524D01*
X179709058Y-90411518D01*
X179710212Y-90406711D01*
X179728842Y-90170000D01*
X179710212Y-89933289D01*
X179706836Y-89919224D01*
X179674037Y-89782609D01*
X179654782Y-89702406D01*
X179632417Y-89648411D01*
X179565812Y-89487611D01*
X179565810Y-89487607D01*
X179563917Y-89483037D01*
X179523572Y-89417200D01*
X179442436Y-89284798D01*
X179442432Y-89284792D01*
X179439853Y-89280584D01*
X179285646Y-89100031D01*
X179268332Y-89085243D01*
X179216085Y-89040620D01*
X179105093Y-88945824D01*
X179100885Y-88943245D01*
X179100879Y-88943241D01*
X178906860Y-88824346D01*
X178902640Y-88821760D01*
X178898070Y-88819867D01*
X178898066Y-88819865D01*
X178687844Y-88732789D01*
X178687842Y-88732788D01*
X178683271Y-88730895D01*
X178603068Y-88711640D01*
X178457201Y-88676620D01*
X178457195Y-88676619D01*
X178452388Y-88675465D01*
X178215677Y-88656835D01*
X177978966Y-88675465D01*
X177974159Y-88676619D01*
X177974153Y-88676620D01*
X177828286Y-88711640D01*
X177748083Y-88730895D01*
X177743512Y-88732788D01*
X177743510Y-88732789D01*
X177533288Y-88819865D01*
X177533284Y-88819867D01*
X177528714Y-88821760D01*
X177524494Y-88824346D01*
X177330475Y-88943241D01*
X177330469Y-88943245D01*
X177326261Y-88945824D01*
X177215269Y-89040620D01*
X177163023Y-89085243D01*
X177145708Y-89100031D01*
X176991501Y-89280584D01*
X176988922Y-89284792D01*
X176988918Y-89284798D01*
X176907782Y-89417200D01*
X176867437Y-89483037D01*
X176865544Y-89487607D01*
X176865542Y-89487611D01*
X176798937Y-89648411D01*
X176776572Y-89702406D01*
X176757317Y-89782609D01*
X176724519Y-89919224D01*
X176721142Y-89933289D01*
X176702512Y-90170000D01*
X152479590Y-90170000D01*
X152454396Y-90080671D01*
X152440276Y-90030606D01*
X152440275Y-90030604D01*
X152438708Y-90025047D01*
X152414008Y-89974959D01*
X152351157Y-89847510D01*
X152348602Y-89842329D01*
X152294367Y-89769699D01*
X152230159Y-89683715D01*
X152230159Y-89683714D01*
X152226706Y-89679091D01*
X152108810Y-89570109D01*
X152081344Y-89544719D01*
X152081341Y-89544717D01*
X152077104Y-89540800D01*
X151990067Y-89485884D01*
X151909689Y-89435169D01*
X151909684Y-89435167D01*
X151904805Y-89432088D01*
X151715581Y-89356595D01*
X151515767Y-89316849D01*
X151509993Y-89316773D01*
X151509989Y-89316773D01*
X151406853Y-89315424D01*
X151312056Y-89314183D01*
X151306359Y-89315162D01*
X151306358Y-89315162D01*
X151116968Y-89347705D01*
X151111271Y-89348684D01*
X150920135Y-89419198D01*
X150918999Y-89419874D01*
X150850332Y-89430918D01*
X150790616Y-89406744D01*
X150753293Y-89378771D01*
X150753291Y-89378770D01*
X150746106Y-89373385D01*
X150609717Y-89322255D01*
X150547535Y-89315500D01*
X149251267Y-89315500D01*
X149189085Y-89322255D01*
X149052696Y-89373385D01*
X148936140Y-89460739D01*
X148848786Y-89577295D01*
X148797656Y-89713684D01*
X148790901Y-89775866D01*
X148790901Y-91072134D01*
X147598411Y-91072134D01*
X147587543Y-90947913D01*
X147577292Y-90909655D01*
X147529707Y-90732067D01*
X147529706Y-90732065D01*
X147528284Y-90726757D01*
X147498978Y-90663910D01*
X147433849Y-90524238D01*
X147433846Y-90524233D01*
X147431523Y-90519251D01*
X147349267Y-90401777D01*
X147303357Y-90336211D01*
X147303355Y-90336208D01*
X147300198Y-90331700D01*
X147138300Y-90169802D01*
X147133792Y-90166645D01*
X147133789Y-90166643D01*
X147005445Y-90076776D01*
X146950749Y-90038477D01*
X146945767Y-90036154D01*
X146945762Y-90036151D01*
X146910951Y-90019919D01*
X146857666Y-89973002D01*
X146838205Y-89904725D01*
X146858747Y-89836765D01*
X146910951Y-89791529D01*
X146945511Y-89775414D01*
X146955007Y-89769931D01*
X147133467Y-89644972D01*
X147141875Y-89637916D01*
X147295916Y-89483875D01*
X147302972Y-89475467D01*
X147427931Y-89297007D01*
X147433414Y-89287511D01*
X147525490Y-89090053D01*
X147529236Y-89079761D01*
X147575394Y-88907497D01*
X147575058Y-88893401D01*
X147567116Y-88890000D01*
X145026033Y-88890000D01*
X145012502Y-88893973D01*
X145011273Y-88902522D01*
X145058764Y-89079761D01*
X145062510Y-89090053D01*
X145154586Y-89287511D01*
X145160069Y-89297007D01*
X145285028Y-89475467D01*
X145292084Y-89483875D01*
X145446125Y-89637916D01*
X145454533Y-89644972D01*
X145632993Y-89769931D01*
X145642489Y-89775414D01*
X145677049Y-89791529D01*
X145730334Y-89838446D01*
X145749795Y-89906723D01*
X145729253Y-89974683D01*
X145677049Y-90019919D01*
X145642238Y-90036151D01*
X145642233Y-90036154D01*
X145637251Y-90038477D01*
X145582555Y-90076776D01*
X145454211Y-90166643D01*
X145454208Y-90166645D01*
X145449700Y-90169802D01*
X145287802Y-90331700D01*
X145284645Y-90336208D01*
X145284643Y-90336211D01*
X145238733Y-90401777D01*
X145156477Y-90519251D01*
X145154154Y-90524233D01*
X145154151Y-90524238D01*
X145089022Y-90663910D01*
X145059716Y-90726757D01*
X145058294Y-90732065D01*
X145058293Y-90732067D01*
X145010708Y-90909655D01*
X145000457Y-90947913D01*
X144980502Y-91176000D01*
X145000457Y-91404087D01*
X145001881Y-91409400D01*
X145001881Y-91409402D01*
X145044971Y-91570213D01*
X145059716Y-91625243D01*
X145062039Y-91630224D01*
X145062039Y-91630225D01*
X145154151Y-91827762D01*
X145154154Y-91827767D01*
X145156477Y-91832749D01*
X145200986Y-91896314D01*
X145268296Y-91992442D01*
X145287802Y-92020300D01*
X145449700Y-92182198D01*
X145454208Y-92185355D01*
X145454211Y-92185357D01*
X145459985Y-92189400D01*
X145637251Y-92313523D01*
X145642233Y-92315846D01*
X145642238Y-92315849D01*
X145676457Y-92331805D01*
X145729742Y-92378722D01*
X145749203Y-92446999D01*
X145728661Y-92514959D01*
X145676457Y-92560195D01*
X145642238Y-92576151D01*
X145642233Y-92576154D01*
X145637251Y-92578477D01*
X145553993Y-92636775D01*
X145454211Y-92706643D01*
X145454208Y-92706645D01*
X145449700Y-92709802D01*
X145287802Y-92871700D01*
X145284645Y-92876208D01*
X145284643Y-92876211D01*
X145273250Y-92892482D01*
X145156477Y-93059251D01*
X145154154Y-93064233D01*
X145154151Y-93064238D01*
X145062039Y-93261775D01*
X145059716Y-93266757D01*
X145000457Y-93487913D01*
X144980502Y-93716000D01*
X139987498Y-93716000D01*
X139967543Y-93487913D01*
X139908284Y-93266757D01*
X139905961Y-93261775D01*
X139813849Y-93064238D01*
X139813846Y-93064233D01*
X139811523Y-93059251D01*
X139694750Y-92892482D01*
X139683357Y-92876211D01*
X139683355Y-92876208D01*
X139680198Y-92871700D01*
X139518300Y-92709802D01*
X139513792Y-92706645D01*
X139513789Y-92706643D01*
X139414007Y-92636775D01*
X139330749Y-92578477D01*
X139325767Y-92576154D01*
X139325762Y-92576151D01*
X139291543Y-92560195D01*
X139238258Y-92513278D01*
X139218797Y-92445001D01*
X139239339Y-92377041D01*
X139291543Y-92331805D01*
X139325762Y-92315849D01*
X139325767Y-92315846D01*
X139330749Y-92313523D01*
X139508015Y-92189400D01*
X139513789Y-92185357D01*
X139513792Y-92185355D01*
X139518300Y-92182198D01*
X139680198Y-92020300D01*
X139699705Y-91992442D01*
X139767014Y-91896314D01*
X139811523Y-91832749D01*
X139813846Y-91827767D01*
X139813849Y-91827762D01*
X139905961Y-91630225D01*
X139905961Y-91630224D01*
X139908284Y-91625243D01*
X139923030Y-91570213D01*
X139966119Y-91409402D01*
X139966119Y-91409400D01*
X139967543Y-91404087D01*
X139987498Y-91176000D01*
X139967543Y-90947913D01*
X139957292Y-90909655D01*
X139909707Y-90732067D01*
X139909706Y-90732065D01*
X139908284Y-90726757D01*
X139878978Y-90663910D01*
X139813849Y-90524238D01*
X139813846Y-90524233D01*
X139811523Y-90519251D01*
X139729267Y-90401777D01*
X139683357Y-90336211D01*
X139683355Y-90336208D01*
X139680198Y-90331700D01*
X139518300Y-90169802D01*
X139513792Y-90166645D01*
X139513789Y-90166643D01*
X139385445Y-90076776D01*
X139330749Y-90038477D01*
X139325767Y-90036154D01*
X139325762Y-90036151D01*
X139291543Y-90020195D01*
X139238258Y-89973278D01*
X139218797Y-89905001D01*
X139239339Y-89837041D01*
X139291543Y-89791805D01*
X139325762Y-89775849D01*
X139325767Y-89775846D01*
X139330749Y-89773523D01*
X139459008Y-89683715D01*
X139513789Y-89645357D01*
X139513792Y-89645355D01*
X139518300Y-89642198D01*
X139680198Y-89480300D01*
X139688868Y-89467919D01*
X139738098Y-89397611D01*
X139811523Y-89292749D01*
X139813846Y-89287767D01*
X139813849Y-89287762D01*
X139905961Y-89090225D01*
X139905961Y-89090224D01*
X139908284Y-89085243D01*
X139916063Y-89056214D01*
X139966119Y-88869402D01*
X139966119Y-88869400D01*
X139967543Y-88864087D01*
X139968735Y-88850457D01*
X167655500Y-88850457D01*
X167662255Y-88912639D01*
X167713385Y-89049028D01*
X167800739Y-89165584D01*
X167917295Y-89252938D01*
X168053684Y-89304068D01*
X168115866Y-89310823D01*
X170212134Y-89310823D01*
X170274316Y-89304068D01*
X170410705Y-89252938D01*
X170527261Y-89165584D01*
X170614615Y-89049028D01*
X170665745Y-88912639D01*
X170672500Y-88850457D01*
X170672500Y-86754189D01*
X170665745Y-86692007D01*
X170614615Y-86555618D01*
X170527261Y-86439062D01*
X170410705Y-86351708D01*
X170274316Y-86300578D01*
X170212134Y-86293823D01*
X168115866Y-86293823D01*
X168053684Y-86300578D01*
X167917295Y-86351708D01*
X167800739Y-86439062D01*
X167713385Y-86555618D01*
X167662255Y-86692007D01*
X167655500Y-86754189D01*
X167655500Y-88850457D01*
X139968735Y-88850457D01*
X139987498Y-88636000D01*
X139967543Y-88407913D01*
X139957244Y-88369478D01*
X139955911Y-88364503D01*
X145012606Y-88364503D01*
X145012942Y-88378599D01*
X145020884Y-88382000D01*
X146021885Y-88382000D01*
X146037124Y-88377525D01*
X146038329Y-88376135D01*
X146040000Y-88368452D01*
X146040000Y-88363885D01*
X146548000Y-88363885D01*
X146552475Y-88379124D01*
X146553865Y-88380329D01*
X146561548Y-88382000D01*
X147561967Y-88382000D01*
X147575498Y-88378027D01*
X147576727Y-88369478D01*
X147529236Y-88192239D01*
X147525490Y-88181947D01*
X147433414Y-87984489D01*
X147427931Y-87974993D01*
X147302972Y-87796533D01*
X147295916Y-87788125D01*
X147141875Y-87634084D01*
X147133467Y-87627028D01*
X146955007Y-87502069D01*
X146945511Y-87496586D01*
X146748053Y-87404510D01*
X146737761Y-87400764D01*
X146645340Y-87376000D01*
X153029285Y-87376000D01*
X153047715Y-87586655D01*
X153049139Y-87591968D01*
X153049139Y-87591970D01*
X153081745Y-87713655D01*
X153102445Y-87790910D01*
X153104767Y-87795891D01*
X153104768Y-87795892D01*
X153188168Y-87974743D01*
X153191812Y-87982558D01*
X153313100Y-88155776D01*
X153462625Y-88305301D01*
X153635843Y-88426589D01*
X153640821Y-88428910D01*
X153640824Y-88428912D01*
X153821857Y-88513329D01*
X153827491Y-88515956D01*
X153832799Y-88517378D01*
X153832801Y-88517379D01*
X154026431Y-88569262D01*
X154026433Y-88569262D01*
X154031746Y-88570686D01*
X154242401Y-88589116D01*
X154453056Y-88570686D01*
X154458369Y-88569262D01*
X154458371Y-88569262D01*
X154652001Y-88517379D01*
X154652003Y-88517378D01*
X154657311Y-88515956D01*
X154662945Y-88513329D01*
X154843978Y-88428912D01*
X154843981Y-88428910D01*
X154848959Y-88426589D01*
X155022177Y-88305301D01*
X155103306Y-88224172D01*
X155165618Y-88190146D01*
X155236433Y-88195211D01*
X155281496Y-88224172D01*
X155362625Y-88305301D01*
X155535843Y-88426589D01*
X155540821Y-88428910D01*
X155540824Y-88428912D01*
X155721857Y-88513329D01*
X155727491Y-88515956D01*
X155732799Y-88517378D01*
X155732801Y-88517379D01*
X155926431Y-88569262D01*
X155926433Y-88569262D01*
X155931746Y-88570686D01*
X156142401Y-88589116D01*
X156353056Y-88570686D01*
X156358369Y-88569262D01*
X156358371Y-88569262D01*
X156552001Y-88517379D01*
X156552003Y-88517378D01*
X156557311Y-88515956D01*
X156562945Y-88513329D01*
X156743978Y-88428912D01*
X156743981Y-88428910D01*
X156748959Y-88426589D01*
X156922177Y-88305301D01*
X157071702Y-88155776D01*
X157192990Y-87982558D01*
X157196635Y-87974743D01*
X157280034Y-87795892D01*
X157280035Y-87795891D01*
X157282357Y-87790910D01*
X157303058Y-87713655D01*
X157335663Y-87591970D01*
X157335663Y-87591968D01*
X157337087Y-87586655D01*
X157344406Y-87503000D01*
X158810884Y-87503000D01*
X158829314Y-87713655D01*
X158830738Y-87718968D01*
X158830738Y-87718970D01*
X158854219Y-87806600D01*
X158884044Y-87917910D01*
X158886366Y-87922891D01*
X158886367Y-87922892D01*
X158921660Y-87998577D01*
X158973411Y-88109558D01*
X159094699Y-88282776D01*
X159244224Y-88432301D01*
X159417442Y-88553589D01*
X159422420Y-88555910D01*
X159422423Y-88555912D01*
X159604108Y-88640633D01*
X159609090Y-88642956D01*
X159614398Y-88644378D01*
X159614400Y-88644379D01*
X159808030Y-88696262D01*
X159808032Y-88696262D01*
X159813345Y-88697686D01*
X160024000Y-88716116D01*
X160234655Y-88697686D01*
X160239968Y-88696262D01*
X160239970Y-88696262D01*
X160433600Y-88644379D01*
X160433602Y-88644378D01*
X160438910Y-88642956D01*
X160443892Y-88640633D01*
X160625577Y-88555912D01*
X160625580Y-88555910D01*
X160630558Y-88553589D01*
X160803776Y-88432301D01*
X160884905Y-88351172D01*
X160947217Y-88317146D01*
X161018032Y-88322211D01*
X161063095Y-88351172D01*
X161144224Y-88432301D01*
X161317442Y-88553589D01*
X161322420Y-88555910D01*
X161322423Y-88555912D01*
X161504108Y-88640633D01*
X161509090Y-88642956D01*
X161514398Y-88644378D01*
X161514400Y-88644379D01*
X161708030Y-88696262D01*
X161708032Y-88696262D01*
X161713345Y-88697686D01*
X161924000Y-88716116D01*
X162134655Y-88697686D01*
X162139968Y-88696262D01*
X162139970Y-88696262D01*
X162333600Y-88644379D01*
X162333602Y-88644378D01*
X162338910Y-88642956D01*
X162343892Y-88640633D01*
X162525577Y-88555912D01*
X162525580Y-88555910D01*
X162530558Y-88553589D01*
X162703776Y-88432301D01*
X162853301Y-88282776D01*
X162974589Y-88109558D01*
X163026341Y-87998577D01*
X163061633Y-87922892D01*
X163061634Y-87922891D01*
X163063956Y-87917910D01*
X163093782Y-87806600D01*
X163117262Y-87718970D01*
X163117262Y-87718968D01*
X163118686Y-87713655D01*
X163137116Y-87503000D01*
X163118686Y-87292345D01*
X163091752Y-87191825D01*
X163065379Y-87093400D01*
X163065378Y-87093398D01*
X163063956Y-87088090D01*
X163061633Y-87083108D01*
X162976912Y-86901423D01*
X162976910Y-86901420D01*
X162974589Y-86896442D01*
X162853301Y-86723224D01*
X162703776Y-86573699D01*
X162530558Y-86452411D01*
X162525580Y-86450090D01*
X162525577Y-86450088D01*
X162343892Y-86365367D01*
X162343891Y-86365366D01*
X162338910Y-86363044D01*
X162333602Y-86361622D01*
X162333600Y-86361621D01*
X162139970Y-86309738D01*
X162139968Y-86309738D01*
X162134655Y-86308314D01*
X161924000Y-86289884D01*
X161713345Y-86308314D01*
X161708032Y-86309738D01*
X161708030Y-86309738D01*
X161514400Y-86361621D01*
X161514398Y-86361622D01*
X161509090Y-86363044D01*
X161504109Y-86365366D01*
X161504108Y-86365367D01*
X161322423Y-86450088D01*
X161322420Y-86450090D01*
X161317442Y-86452411D01*
X161144224Y-86573699D01*
X161063095Y-86654828D01*
X161000783Y-86688854D01*
X160929968Y-86683789D01*
X160884905Y-86654828D01*
X160803776Y-86573699D01*
X160630558Y-86452411D01*
X160625580Y-86450090D01*
X160625577Y-86450088D01*
X160443892Y-86365367D01*
X160443891Y-86365366D01*
X160438910Y-86363044D01*
X160433602Y-86361622D01*
X160433600Y-86361621D01*
X160239970Y-86309738D01*
X160239968Y-86309738D01*
X160234655Y-86308314D01*
X160024000Y-86289884D01*
X159813345Y-86308314D01*
X159808032Y-86309738D01*
X159808030Y-86309738D01*
X159614400Y-86361621D01*
X159614398Y-86361622D01*
X159609090Y-86363044D01*
X159604109Y-86365366D01*
X159604108Y-86365367D01*
X159422423Y-86450088D01*
X159422420Y-86450090D01*
X159417442Y-86452411D01*
X159244224Y-86573699D01*
X159094699Y-86723224D01*
X158973411Y-86896442D01*
X158971090Y-86901420D01*
X158971088Y-86901423D01*
X158886367Y-87083108D01*
X158884044Y-87088090D01*
X158882622Y-87093398D01*
X158882621Y-87093400D01*
X158856248Y-87191825D01*
X158829314Y-87292345D01*
X158810884Y-87503000D01*
X157344406Y-87503000D01*
X157355517Y-87376000D01*
X157337087Y-87165345D01*
X157335663Y-87160030D01*
X157283780Y-86966400D01*
X157283779Y-86966398D01*
X157282357Y-86961090D01*
X157252211Y-86896442D01*
X157195313Y-86774423D01*
X157195311Y-86774420D01*
X157192990Y-86769442D01*
X157071702Y-86596224D01*
X156922177Y-86446699D01*
X156748959Y-86325411D01*
X156743981Y-86323090D01*
X156743978Y-86323088D01*
X156562293Y-86238367D01*
X156562292Y-86238366D01*
X156557311Y-86236044D01*
X156552003Y-86234622D01*
X156552001Y-86234621D01*
X156358371Y-86182738D01*
X156358369Y-86182738D01*
X156353056Y-86181314D01*
X156142401Y-86162884D01*
X155931746Y-86181314D01*
X155926433Y-86182738D01*
X155926431Y-86182738D01*
X155732801Y-86234621D01*
X155732799Y-86234622D01*
X155727491Y-86236044D01*
X155722510Y-86238366D01*
X155722509Y-86238367D01*
X155540824Y-86323088D01*
X155540821Y-86323090D01*
X155535843Y-86325411D01*
X155362625Y-86446699D01*
X155281496Y-86527828D01*
X155219184Y-86561854D01*
X155148369Y-86556789D01*
X155103306Y-86527828D01*
X155022177Y-86446699D01*
X154848959Y-86325411D01*
X154843981Y-86323090D01*
X154843978Y-86323088D01*
X154662293Y-86238367D01*
X154662292Y-86238366D01*
X154657311Y-86236044D01*
X154652003Y-86234622D01*
X154652001Y-86234621D01*
X154458371Y-86182738D01*
X154458369Y-86182738D01*
X154453056Y-86181314D01*
X154242401Y-86162884D01*
X154031746Y-86181314D01*
X154026433Y-86182738D01*
X154026431Y-86182738D01*
X153832801Y-86234621D01*
X153832799Y-86234622D01*
X153827491Y-86236044D01*
X153822510Y-86238366D01*
X153822509Y-86238367D01*
X153640824Y-86323088D01*
X153640821Y-86323090D01*
X153635843Y-86325411D01*
X153462625Y-86446699D01*
X153313100Y-86596224D01*
X153191812Y-86769442D01*
X153189491Y-86774420D01*
X153189489Y-86774423D01*
X153132591Y-86896442D01*
X153102445Y-86961090D01*
X153101023Y-86966398D01*
X153101022Y-86966400D01*
X153049139Y-87160030D01*
X153047715Y-87165345D01*
X153029285Y-87376000D01*
X146645340Y-87376000D01*
X146565497Y-87354606D01*
X146551401Y-87354942D01*
X146548000Y-87362884D01*
X146548000Y-88363885D01*
X146040000Y-88363885D01*
X146040000Y-87368033D01*
X146036027Y-87354502D01*
X146027478Y-87353273D01*
X145850239Y-87400764D01*
X145839947Y-87404510D01*
X145642489Y-87496586D01*
X145632993Y-87502069D01*
X145454533Y-87627028D01*
X145446125Y-87634084D01*
X145292084Y-87788125D01*
X145285028Y-87796533D01*
X145160069Y-87974993D01*
X145154586Y-87984489D01*
X145062510Y-88181947D01*
X145058764Y-88192239D01*
X145012606Y-88364503D01*
X139955911Y-88364503D01*
X139909707Y-88192067D01*
X139909706Y-88192065D01*
X139908284Y-88186757D01*
X139895447Y-88159228D01*
X139813849Y-87984238D01*
X139813846Y-87984233D01*
X139811523Y-87979251D01*
X139697838Y-87816892D01*
X139683357Y-87796211D01*
X139683355Y-87796208D01*
X139680198Y-87791700D01*
X139518300Y-87629802D01*
X139513792Y-87626645D01*
X139513789Y-87626643D01*
X139435611Y-87571902D01*
X139330749Y-87498477D01*
X139325767Y-87496154D01*
X139325762Y-87496151D01*
X139128225Y-87404039D01*
X139128224Y-87404039D01*
X139123243Y-87401716D01*
X139117935Y-87400294D01*
X139117933Y-87400293D01*
X138907402Y-87343881D01*
X138907400Y-87343881D01*
X138902087Y-87342457D01*
X138674000Y-87322502D01*
X138445913Y-87342457D01*
X138440600Y-87343881D01*
X138440598Y-87343881D01*
X138230067Y-87400293D01*
X138230065Y-87400294D01*
X138224757Y-87401716D01*
X138219776Y-87404039D01*
X138219775Y-87404039D01*
X138022238Y-87496151D01*
X138022233Y-87496154D01*
X138017251Y-87498477D01*
X137912389Y-87571902D01*
X137834211Y-87626643D01*
X137834208Y-87626645D01*
X137829700Y-87629802D01*
X137667802Y-87791700D01*
X137664645Y-87796208D01*
X137664643Y-87796211D01*
X137650162Y-87816892D01*
X137536477Y-87979251D01*
X137534154Y-87984233D01*
X137534151Y-87984238D01*
X137452553Y-88159228D01*
X137439716Y-88186757D01*
X137438294Y-88192065D01*
X137438293Y-88192067D01*
X137390756Y-88369478D01*
X137380457Y-88407913D01*
X137360502Y-88636000D01*
X137380457Y-88864087D01*
X137381881Y-88869400D01*
X137381881Y-88869402D01*
X137431938Y-89056214D01*
X137439716Y-89085243D01*
X137442039Y-89090224D01*
X137442039Y-89090225D01*
X137534151Y-89287762D01*
X137534154Y-89287767D01*
X137536477Y-89292749D01*
X137609902Y-89397611D01*
X137659133Y-89467919D01*
X137667802Y-89480300D01*
X137829700Y-89642198D01*
X137834208Y-89645355D01*
X137834211Y-89645357D01*
X137888992Y-89683715D01*
X138017251Y-89773523D01*
X138022233Y-89775846D01*
X138022238Y-89775849D01*
X138056457Y-89791805D01*
X138109742Y-89838722D01*
X138129203Y-89906999D01*
X138108661Y-89974959D01*
X138056457Y-90020195D01*
X138022238Y-90036151D01*
X138022233Y-90036154D01*
X138017251Y-90038477D01*
X137962555Y-90076776D01*
X137834211Y-90166643D01*
X137834208Y-90166645D01*
X137829700Y-90169802D01*
X137667802Y-90331700D01*
X137664645Y-90336208D01*
X137664643Y-90336211D01*
X137618733Y-90401777D01*
X137536477Y-90519251D01*
X137534154Y-90524233D01*
X137534151Y-90524238D01*
X137469022Y-90663910D01*
X137439716Y-90726757D01*
X137438294Y-90732065D01*
X137438293Y-90732067D01*
X137390708Y-90909655D01*
X137380457Y-90947913D01*
X137360502Y-91176000D01*
X137380457Y-91404087D01*
X137381881Y-91409400D01*
X137381881Y-91409402D01*
X137424971Y-91570213D01*
X137439716Y-91625243D01*
X137442039Y-91630224D01*
X137442039Y-91630225D01*
X137534151Y-91827762D01*
X137534154Y-91827767D01*
X137536477Y-91832749D01*
X137580986Y-91896314D01*
X137648296Y-91992442D01*
X137667802Y-92020300D01*
X137829700Y-92182198D01*
X137834208Y-92185355D01*
X137834211Y-92185357D01*
X137839985Y-92189400D01*
X138017251Y-92313523D01*
X138022233Y-92315846D01*
X138022238Y-92315849D01*
X138056457Y-92331805D01*
X138109742Y-92378722D01*
X138129203Y-92446999D01*
X138108661Y-92514959D01*
X138056457Y-92560195D01*
X138022238Y-92576151D01*
X138022233Y-92576154D01*
X138017251Y-92578477D01*
X137933993Y-92636775D01*
X137834211Y-92706643D01*
X137834208Y-92706645D01*
X137829700Y-92709802D01*
X137667802Y-92871700D01*
X137664645Y-92876208D01*
X137664643Y-92876211D01*
X137653250Y-92892482D01*
X137536477Y-93059251D01*
X137534154Y-93064233D01*
X137534151Y-93064238D01*
X137442039Y-93261775D01*
X137439716Y-93266757D01*
X137380457Y-93487913D01*
X137376924Y-93528301D01*
X137365988Y-93653289D01*
X137340124Y-93719407D01*
X137282621Y-93761047D01*
X137211733Y-93764987D01*
X137151372Y-93731402D01*
X134135787Y-90715817D01*
X134101761Y-90653505D01*
X134106826Y-90582690D01*
X134149373Y-90525854D01*
X134213900Y-90501201D01*
X134237652Y-90499123D01*
X134322655Y-90491686D01*
X134327968Y-90490262D01*
X134327970Y-90490262D01*
X134521600Y-90438379D01*
X134521602Y-90438378D01*
X134526910Y-90436956D01*
X134546751Y-90427704D01*
X134713577Y-90349912D01*
X134713580Y-90349910D01*
X134718558Y-90347589D01*
X134891776Y-90226301D01*
X135041301Y-90076776D01*
X135162589Y-89903558D01*
X135192952Y-89838446D01*
X135249633Y-89716892D01*
X135249634Y-89716891D01*
X135251956Y-89711910D01*
X135271680Y-89638301D01*
X135305262Y-89512970D01*
X135305262Y-89512968D01*
X135306686Y-89507655D01*
X135325116Y-89297000D01*
X135306686Y-89086345D01*
X135299542Y-89059684D01*
X135253379Y-88887400D01*
X135253378Y-88887398D01*
X135251956Y-88882090D01*
X135249633Y-88877108D01*
X135164912Y-88695423D01*
X135164910Y-88695420D01*
X135162589Y-88690442D01*
X135041301Y-88517224D01*
X134960172Y-88436095D01*
X134926146Y-88373783D01*
X134931211Y-88302968D01*
X134960172Y-88257905D01*
X135041301Y-88176776D01*
X135162589Y-88003558D01*
X135172382Y-87982558D01*
X135249633Y-87816892D01*
X135249634Y-87816891D01*
X135251956Y-87811910D01*
X135258416Y-87787803D01*
X135305262Y-87612970D01*
X135305262Y-87612968D01*
X135306686Y-87607655D01*
X135325116Y-87397000D01*
X135306686Y-87186345D01*
X135305262Y-87181030D01*
X135253379Y-86987400D01*
X135253378Y-86987398D01*
X135251956Y-86982090D01*
X135242164Y-86961090D01*
X135164912Y-86795423D01*
X135164910Y-86795420D01*
X135162589Y-86790442D01*
X135041301Y-86617224D01*
X134891776Y-86467699D01*
X134718558Y-86346411D01*
X134713580Y-86344090D01*
X134713577Y-86344088D01*
X134531892Y-86259367D01*
X134531891Y-86259366D01*
X134526910Y-86257044D01*
X134521602Y-86255622D01*
X134521600Y-86255621D01*
X134327970Y-86203738D01*
X134327968Y-86203738D01*
X134322655Y-86202314D01*
X134112000Y-86183884D01*
X133901345Y-86202314D01*
X133896032Y-86203738D01*
X133896030Y-86203738D01*
X133702400Y-86255621D01*
X133702398Y-86255622D01*
X133697090Y-86257044D01*
X133692109Y-86259366D01*
X133692108Y-86259367D01*
X133510423Y-86344088D01*
X133510420Y-86344090D01*
X133505442Y-86346411D01*
X133332224Y-86467699D01*
X133182699Y-86617224D01*
X133061411Y-86790442D01*
X133059090Y-86795420D01*
X133059088Y-86795423D01*
X132981836Y-86961090D01*
X132972044Y-86982090D01*
X132970622Y-86987398D01*
X132970621Y-86987400D01*
X132918738Y-87181030D01*
X132917314Y-87186345D01*
X132898884Y-87397000D01*
X132917314Y-87607655D01*
X132918738Y-87612968D01*
X132918738Y-87612970D01*
X132965585Y-87787803D01*
X132972044Y-87811910D01*
X132974366Y-87816891D01*
X132974367Y-87816892D01*
X133051619Y-87982558D01*
X133061411Y-88003558D01*
X133182699Y-88176776D01*
X133263828Y-88257905D01*
X133297854Y-88320217D01*
X133292789Y-88391032D01*
X133263828Y-88436095D01*
X133182699Y-88517224D01*
X133061411Y-88690442D01*
X133059090Y-88695420D01*
X133059088Y-88695423D01*
X132974367Y-88877108D01*
X132972044Y-88882090D01*
X132970622Y-88887398D01*
X132970621Y-88887400D01*
X132924458Y-89059684D01*
X132917314Y-89086345D01*
X132911010Y-89158404D01*
X132907799Y-89195100D01*
X132881935Y-89261218D01*
X132824432Y-89302857D01*
X132753545Y-89306798D01*
X132693183Y-89273213D01*
X130336450Y-86916480D01*
X130330596Y-86910215D01*
X130314651Y-86891937D01*
X130292561Y-86866615D01*
X130240280Y-86829871D01*
X130234986Y-86825939D01*
X130190693Y-86791209D01*
X130184718Y-86786524D01*
X130177802Y-86783401D01*
X130175516Y-86782017D01*
X130160835Y-86773643D01*
X130158475Y-86772378D01*
X130152261Y-86768010D01*
X130145182Y-86765250D01*
X130145180Y-86765249D01*
X130092725Y-86744798D01*
X130086656Y-86742247D01*
X130028427Y-86715955D01*
X130020960Y-86714571D01*
X130018405Y-86713770D01*
X130002152Y-86709141D01*
X129999572Y-86708478D01*
X129992491Y-86705718D01*
X129984960Y-86704727D01*
X129984958Y-86704726D01*
X129955339Y-86700827D01*
X129929139Y-86697378D01*
X129922641Y-86696348D01*
X129859814Y-86684704D01*
X129852234Y-86685141D01*
X129852233Y-86685141D01*
X129797608Y-86688291D01*
X129790354Y-86688500D01*
X129314801Y-86688500D01*
X129246680Y-86668498D01*
X129211589Y-86634772D01*
X129202462Y-86621738D01*
X129202460Y-86621736D01*
X129199301Y-86617224D01*
X129049776Y-86467699D01*
X128876558Y-86346411D01*
X128871580Y-86344090D01*
X128871577Y-86344088D01*
X128689892Y-86259367D01*
X128689891Y-86259366D01*
X128684910Y-86257044D01*
X128679602Y-86255622D01*
X128679600Y-86255621D01*
X128485970Y-86203738D01*
X128485968Y-86203738D01*
X128480655Y-86202314D01*
X128270000Y-86183884D01*
X128059345Y-86202314D01*
X128054032Y-86203738D01*
X128054030Y-86203738D01*
X127860400Y-86255621D01*
X127860398Y-86255622D01*
X127855090Y-86257044D01*
X127850109Y-86259366D01*
X127850108Y-86259367D01*
X127668423Y-86344088D01*
X127668420Y-86344090D01*
X127663442Y-86346411D01*
X127490224Y-86467699D01*
X127340699Y-86617224D01*
X127219411Y-86790442D01*
X127217090Y-86795420D01*
X127217088Y-86795423D01*
X127139836Y-86961090D01*
X127130044Y-86982090D01*
X127128622Y-86987398D01*
X127128621Y-86987400D01*
X127076738Y-87181030D01*
X127075314Y-87186345D01*
X127056884Y-87397000D01*
X127075314Y-87607655D01*
X127076738Y-87612968D01*
X127076738Y-87612970D01*
X127123585Y-87787803D01*
X127130044Y-87811910D01*
X127132366Y-87816891D01*
X127132367Y-87816892D01*
X127209619Y-87982558D01*
X127219411Y-88003558D01*
X127340699Y-88176776D01*
X127421828Y-88257905D01*
X127455854Y-88320217D01*
X127450789Y-88391032D01*
X127421828Y-88436095D01*
X127340699Y-88517224D01*
X127219411Y-88690442D01*
X127217090Y-88695420D01*
X127217088Y-88695423D01*
X127132367Y-88877108D01*
X127130044Y-88882090D01*
X127128622Y-88887398D01*
X127128621Y-88887400D01*
X127082458Y-89059684D01*
X127075314Y-89086345D01*
X127056884Y-89297000D01*
X124968000Y-89297000D01*
X124968000Y-84708000D01*
X124988002Y-84639879D01*
X125041658Y-84593386D01*
X125094000Y-84582000D01*
X195200000Y-84582000D01*
X195268121Y-84602002D01*
G37*
%TD.AperFunction*%
%TD*%
M02*
