%TF.GenerationSoftware,KiCad,Pcbnew,(6.0.0-0)*%
%TF.CreationDate,2023-11-25T22:37:42-05:00*%
%TF.ProjectId,pinker2,70696e6b-6572-4322-9e6b-696361645f70,rev?*%
%TF.SameCoordinates,Original*%
%TF.FileFunction,Legend,Top*%
%TF.FilePolarity,Positive*%
%FSLAX46Y46*%
G04 Gerber Fmt 4.6, Leading zero omitted, Abs format (unit mm)*
G04 Created by KiCad (PCBNEW (6.0.0-0)) date 2023-11-25 22:37:42*
%MOMM*%
%LPD*%
G01*
G04 APERTURE LIST*
%ADD10C,0.150000*%
%ADD11C,0.120000*%
G04 APERTURE END LIST*
D10*
X194254380Y-89185523D02*
X193254380Y-89185523D01*
X193254380Y-88804571D01*
X193302000Y-88709333D01*
X193349619Y-88661714D01*
X193444857Y-88614095D01*
X193587714Y-88614095D01*
X193682952Y-88661714D01*
X193730571Y-88709333D01*
X193778190Y-88804571D01*
X193778190Y-89185523D01*
X194254380Y-88185523D02*
X193587714Y-88185523D01*
X193254380Y-88185523D02*
X193302000Y-88233142D01*
X193349619Y-88185523D01*
X193302000Y-88137904D01*
X193254380Y-88185523D01*
X193349619Y-88185523D01*
X193587714Y-87709333D02*
X194254380Y-87709333D01*
X193682952Y-87709333D02*
X193635333Y-87661714D01*
X193587714Y-87566476D01*
X193587714Y-87423619D01*
X193635333Y-87328380D01*
X193730571Y-87280761D01*
X194254380Y-87280761D01*
X193349619Y-86090285D02*
X193302000Y-86042666D01*
X193254380Y-85947428D01*
X193254380Y-85709333D01*
X193302000Y-85614095D01*
X193349619Y-85566476D01*
X193444857Y-85518857D01*
X193540095Y-85518857D01*
X193682952Y-85566476D01*
X194254380Y-86137904D01*
X194254380Y-85518857D01*
X194254380Y-107473523D02*
X193254380Y-107473523D01*
X193254380Y-107092571D01*
X193302000Y-106997333D01*
X193349619Y-106949714D01*
X193444857Y-106902095D01*
X193587714Y-106902095D01*
X193682952Y-106949714D01*
X193730571Y-106997333D01*
X193778190Y-107092571D01*
X193778190Y-107473523D01*
X194254380Y-106473523D02*
X193587714Y-106473523D01*
X193254380Y-106473523D02*
X193302000Y-106521142D01*
X193349619Y-106473523D01*
X193302000Y-106425904D01*
X193254380Y-106473523D01*
X193349619Y-106473523D01*
X193587714Y-105997333D02*
X194254380Y-105997333D01*
X193682952Y-105997333D02*
X193635333Y-105949714D01*
X193587714Y-105854476D01*
X193587714Y-105711619D01*
X193635333Y-105616380D01*
X193730571Y-105568761D01*
X194254380Y-105568761D01*
X194254380Y-103806857D02*
X194254380Y-104378285D01*
X194254380Y-104092571D02*
X193254380Y-104092571D01*
X193397238Y-104187809D01*
X193492476Y-104283047D01*
X193540095Y-104378285D01*
%TO.C,R11*%
X160331142Y-86035380D02*
X159997809Y-85559190D01*
X159759714Y-86035380D02*
X159759714Y-85035380D01*
X160140666Y-85035380D01*
X160235904Y-85083000D01*
X160283523Y-85130619D01*
X160331142Y-85225857D01*
X160331142Y-85368714D01*
X160283523Y-85463952D01*
X160235904Y-85511571D01*
X160140666Y-85559190D01*
X159759714Y-85559190D01*
X161283523Y-86035380D02*
X160712095Y-86035380D01*
X160997809Y-86035380D02*
X160997809Y-85035380D01*
X160902571Y-85178238D01*
X160807333Y-85273476D01*
X160712095Y-85321095D01*
X162235904Y-86035380D02*
X161664476Y-86035380D01*
X161950190Y-86035380D02*
X161950190Y-85035380D01*
X161854952Y-85178238D01*
X161759714Y-85273476D01*
X161664476Y-85321095D01*
%TO.C,J1*%
X196556380Y-105743333D02*
X197270666Y-105743333D01*
X197413523Y-105790952D01*
X197508761Y-105886190D01*
X197556380Y-106029047D01*
X197556380Y-106124285D01*
X197556380Y-104743333D02*
X197556380Y-105314761D01*
X197556380Y-105029047D02*
X196556380Y-105029047D01*
X196699238Y-105124285D01*
X196794476Y-105219523D01*
X196842095Y-105314761D01*
%TO.C,R3*%
X140803333Y-101544380D02*
X140470000Y-101068190D01*
X140231904Y-101544380D02*
X140231904Y-100544380D01*
X140612857Y-100544380D01*
X140708095Y-100592000D01*
X140755714Y-100639619D01*
X140803333Y-100734857D01*
X140803333Y-100877714D01*
X140755714Y-100972952D01*
X140708095Y-101020571D01*
X140612857Y-101068190D01*
X140231904Y-101068190D01*
X141136666Y-100544380D02*
X141755714Y-100544380D01*
X141422380Y-100925333D01*
X141565238Y-100925333D01*
X141660476Y-100972952D01*
X141708095Y-101020571D01*
X141755714Y-101115809D01*
X141755714Y-101353904D01*
X141708095Y-101449142D01*
X141660476Y-101496761D01*
X141565238Y-101544380D01*
X141279523Y-101544380D01*
X141184285Y-101496761D01*
X141136666Y-101449142D01*
%TO.C,R17*%
X129407142Y-100909380D02*
X129073809Y-100433190D01*
X128835714Y-100909380D02*
X128835714Y-99909380D01*
X129216666Y-99909380D01*
X129311904Y-99957000D01*
X129359523Y-100004619D01*
X129407142Y-100099857D01*
X129407142Y-100242714D01*
X129359523Y-100337952D01*
X129311904Y-100385571D01*
X129216666Y-100433190D01*
X128835714Y-100433190D01*
X130359523Y-100909380D02*
X129788095Y-100909380D01*
X130073809Y-100909380D02*
X130073809Y-99909380D01*
X129978571Y-100052238D01*
X129883333Y-100147476D01*
X129788095Y-100195095D01*
X130692857Y-99909380D02*
X131359523Y-99909380D01*
X130930952Y-100909380D01*
%TO.C,C3*%
X159892734Y-102973142D02*
X159845115Y-103020761D01*
X159702258Y-103068380D01*
X159607020Y-103068380D01*
X159464162Y-103020761D01*
X159368924Y-102925523D01*
X159321305Y-102830285D01*
X159273686Y-102639809D01*
X159273686Y-102496952D01*
X159321305Y-102306476D01*
X159368924Y-102211238D01*
X159464162Y-102116000D01*
X159607020Y-102068380D01*
X159702258Y-102068380D01*
X159845115Y-102116000D01*
X159892734Y-102163619D01*
X160226067Y-102068380D02*
X160845115Y-102068380D01*
X160511781Y-102449333D01*
X160654639Y-102449333D01*
X160749877Y-102496952D01*
X160797496Y-102544571D01*
X160845115Y-102639809D01*
X160845115Y-102877904D01*
X160797496Y-102973142D01*
X160749877Y-103020761D01*
X160654639Y-103068380D01*
X160368924Y-103068380D01*
X160273686Y-103020761D01*
X160226067Y-102973142D01*
%TO.C,Q1*%
X128174761Y-93105619D02*
X128079523Y-93058000D01*
X127984285Y-92962761D01*
X127841428Y-92819904D01*
X127746190Y-92772285D01*
X127650952Y-92772285D01*
X127698571Y-93010380D02*
X127603333Y-92962761D01*
X127508095Y-92867523D01*
X127460476Y-92677047D01*
X127460476Y-92343714D01*
X127508095Y-92153238D01*
X127603333Y-92058000D01*
X127698571Y-92010380D01*
X127889047Y-92010380D01*
X127984285Y-92058000D01*
X128079523Y-92153238D01*
X128127142Y-92343714D01*
X128127142Y-92677047D01*
X128079523Y-92867523D01*
X127984285Y-92962761D01*
X127889047Y-93010380D01*
X127698571Y-93010380D01*
X129079523Y-93010380D02*
X128508095Y-93010380D01*
X128793809Y-93010380D02*
X128793809Y-92010380D01*
X128698571Y-92153238D01*
X128603333Y-92248476D01*
X128508095Y-92296095D01*
%TO.C,R15*%
X188079142Y-104846380D02*
X187745809Y-104370190D01*
X187507714Y-104846380D02*
X187507714Y-103846380D01*
X187888666Y-103846380D01*
X187983904Y-103894000D01*
X188031523Y-103941619D01*
X188079142Y-104036857D01*
X188079142Y-104179714D01*
X188031523Y-104274952D01*
X187983904Y-104322571D01*
X187888666Y-104370190D01*
X187507714Y-104370190D01*
X189031523Y-104846380D02*
X188460095Y-104846380D01*
X188745809Y-104846380D02*
X188745809Y-103846380D01*
X188650571Y-103989238D01*
X188555333Y-104084476D01*
X188460095Y-104132095D01*
X189936285Y-103846380D02*
X189460095Y-103846380D01*
X189412476Y-104322571D01*
X189460095Y-104274952D01*
X189555333Y-104227333D01*
X189793428Y-104227333D01*
X189888666Y-104274952D01*
X189936285Y-104322571D01*
X189983904Y-104417809D01*
X189983904Y-104655904D01*
X189936285Y-104751142D01*
X189888666Y-104798761D01*
X189793428Y-104846380D01*
X189555333Y-104846380D01*
X189460095Y-104798761D01*
X189412476Y-104751142D01*
%TO.C,R1*%
X128103333Y-86177380D02*
X127770000Y-85701190D01*
X127531904Y-86177380D02*
X127531904Y-85177380D01*
X127912857Y-85177380D01*
X128008095Y-85225000D01*
X128055714Y-85272619D01*
X128103333Y-85367857D01*
X128103333Y-85510714D01*
X128055714Y-85605952D01*
X128008095Y-85653571D01*
X127912857Y-85701190D01*
X127531904Y-85701190D01*
X129055714Y-86177380D02*
X128484285Y-86177380D01*
X128770000Y-86177380D02*
X128770000Y-85177380D01*
X128674761Y-85320238D01*
X128579523Y-85415476D01*
X128484285Y-85463095D01*
%TO.C,C8*%
X174839333Y-106783142D02*
X174791714Y-106830761D01*
X174648857Y-106878380D01*
X174553619Y-106878380D01*
X174410761Y-106830761D01*
X174315523Y-106735523D01*
X174267904Y-106640285D01*
X174220285Y-106449809D01*
X174220285Y-106306952D01*
X174267904Y-106116476D01*
X174315523Y-106021238D01*
X174410761Y-105926000D01*
X174553619Y-105878380D01*
X174648857Y-105878380D01*
X174791714Y-105926000D01*
X174839333Y-105973619D01*
X175410761Y-106306952D02*
X175315523Y-106259333D01*
X175267904Y-106211714D01*
X175220285Y-106116476D01*
X175220285Y-106068857D01*
X175267904Y-105973619D01*
X175315523Y-105926000D01*
X175410761Y-105878380D01*
X175601238Y-105878380D01*
X175696476Y-105926000D01*
X175744095Y-105973619D01*
X175791714Y-106068857D01*
X175791714Y-106116476D01*
X175744095Y-106211714D01*
X175696476Y-106259333D01*
X175601238Y-106306952D01*
X175410761Y-106306952D01*
X175315523Y-106354571D01*
X175267904Y-106402190D01*
X175220285Y-106497428D01*
X175220285Y-106687904D01*
X175267904Y-106783142D01*
X175315523Y-106830761D01*
X175410761Y-106878380D01*
X175601238Y-106878380D01*
X175696476Y-106830761D01*
X175744095Y-106783142D01*
X175791714Y-106687904D01*
X175791714Y-106497428D01*
X175744095Y-106402190D01*
X175696476Y-106354571D01*
X175601238Y-106306952D01*
%TO.C,C6*%
X184999333Y-86209142D02*
X184951714Y-86256761D01*
X184808857Y-86304380D01*
X184713619Y-86304380D01*
X184570761Y-86256761D01*
X184475523Y-86161523D01*
X184427904Y-86066285D01*
X184380285Y-85875809D01*
X184380285Y-85732952D01*
X184427904Y-85542476D01*
X184475523Y-85447238D01*
X184570761Y-85352000D01*
X184713619Y-85304380D01*
X184808857Y-85304380D01*
X184951714Y-85352000D01*
X184999333Y-85399619D01*
X185856476Y-85304380D02*
X185666000Y-85304380D01*
X185570761Y-85352000D01*
X185523142Y-85399619D01*
X185427904Y-85542476D01*
X185380285Y-85732952D01*
X185380285Y-86113904D01*
X185427904Y-86209142D01*
X185475523Y-86256761D01*
X185570761Y-86304380D01*
X185761238Y-86304380D01*
X185856476Y-86256761D01*
X185904095Y-86209142D01*
X185951714Y-86113904D01*
X185951714Y-85875809D01*
X185904095Y-85780571D01*
X185856476Y-85732952D01*
X185761238Y-85685333D01*
X185570761Y-85685333D01*
X185475523Y-85732952D01*
X185427904Y-85780571D01*
X185380285Y-85875809D01*
%TO.C,C7*%
X187555142Y-96543666D02*
X187602761Y-96591285D01*
X187650380Y-96734142D01*
X187650380Y-96829380D01*
X187602761Y-96972238D01*
X187507523Y-97067476D01*
X187412285Y-97115095D01*
X187221809Y-97162714D01*
X187078952Y-97162714D01*
X186888476Y-97115095D01*
X186793238Y-97067476D01*
X186698000Y-96972238D01*
X186650380Y-96829380D01*
X186650380Y-96734142D01*
X186698000Y-96591285D01*
X186745619Y-96543666D01*
X186650380Y-96210333D02*
X186650380Y-95543666D01*
X187650380Y-95972238D01*
%TO.C,C4*%
X159912734Y-97639142D02*
X159865115Y-97686761D01*
X159722258Y-97734380D01*
X159627020Y-97734380D01*
X159484162Y-97686761D01*
X159388924Y-97591523D01*
X159341305Y-97496285D01*
X159293686Y-97305809D01*
X159293686Y-97162952D01*
X159341305Y-96972476D01*
X159388924Y-96877238D01*
X159484162Y-96782000D01*
X159627020Y-96734380D01*
X159722258Y-96734380D01*
X159865115Y-96782000D01*
X159912734Y-96829619D01*
X160769877Y-97067714D02*
X160769877Y-97734380D01*
X160531781Y-96686761D02*
X160293686Y-97401047D01*
X160912734Y-97401047D01*
%TO.C,C9*%
X133831933Y-92971142D02*
X133784314Y-93018761D01*
X133641457Y-93066380D01*
X133546219Y-93066380D01*
X133403361Y-93018761D01*
X133308123Y-92923523D01*
X133260504Y-92828285D01*
X133212885Y-92637809D01*
X133212885Y-92494952D01*
X133260504Y-92304476D01*
X133308123Y-92209238D01*
X133403361Y-92114000D01*
X133546219Y-92066380D01*
X133641457Y-92066380D01*
X133784314Y-92114000D01*
X133831933Y-92161619D01*
X134308123Y-93066380D02*
X134498600Y-93066380D01*
X134593838Y-93018761D01*
X134641457Y-92971142D01*
X134736695Y-92828285D01*
X134784314Y-92637809D01*
X134784314Y-92256857D01*
X134736695Y-92161619D01*
X134689076Y-92114000D01*
X134593838Y-92066380D01*
X134403361Y-92066380D01*
X134308123Y-92114000D01*
X134260504Y-92161619D01*
X134212885Y-92256857D01*
X134212885Y-92494952D01*
X134260504Y-92590190D01*
X134308123Y-92637809D01*
X134403361Y-92685428D01*
X134593838Y-92685428D01*
X134689076Y-92637809D01*
X134736695Y-92590190D01*
X134784314Y-92494952D01*
%TO.C,R13*%
X187508380Y-92291857D02*
X187032190Y-92625190D01*
X187508380Y-92863285D02*
X186508380Y-92863285D01*
X186508380Y-92482333D01*
X186556000Y-92387095D01*
X186603619Y-92339476D01*
X186698857Y-92291857D01*
X186841714Y-92291857D01*
X186936952Y-92339476D01*
X186984571Y-92387095D01*
X187032190Y-92482333D01*
X187032190Y-92863285D01*
X187508380Y-91339476D02*
X187508380Y-91910904D01*
X187508380Y-91625190D02*
X186508380Y-91625190D01*
X186651238Y-91720428D01*
X186746476Y-91815666D01*
X186794095Y-91910904D01*
X186508380Y-91006142D02*
X186508380Y-90387095D01*
X186889333Y-90720428D01*
X186889333Y-90577571D01*
X186936952Y-90482333D01*
X186984571Y-90434714D01*
X187079809Y-90387095D01*
X187317904Y-90387095D01*
X187413142Y-90434714D01*
X187460761Y-90482333D01*
X187508380Y-90577571D01*
X187508380Y-90863285D01*
X187460761Y-90958523D01*
X187413142Y-91006142D01*
%TO.C,U1*%
X141732095Y-98258380D02*
X141732095Y-99067904D01*
X141779714Y-99163142D01*
X141827333Y-99210761D01*
X141922571Y-99258380D01*
X142113047Y-99258380D01*
X142208285Y-99210761D01*
X142255904Y-99163142D01*
X142303523Y-99067904D01*
X142303523Y-98258380D01*
X143303523Y-99258380D02*
X142732095Y-99258380D01*
X143017809Y-99258380D02*
X143017809Y-98258380D01*
X142922571Y-98401238D01*
X142827333Y-98496476D01*
X142732095Y-98544095D01*
%TO.C,R4*%
X144613333Y-101798380D02*
X144280000Y-101322190D01*
X144041904Y-101798380D02*
X144041904Y-100798380D01*
X144422857Y-100798380D01*
X144518095Y-100846000D01*
X144565714Y-100893619D01*
X144613333Y-100988857D01*
X144613333Y-101131714D01*
X144565714Y-101226952D01*
X144518095Y-101274571D01*
X144422857Y-101322190D01*
X144041904Y-101322190D01*
X145470476Y-101131714D02*
X145470476Y-101798380D01*
X145232380Y-100750761D02*
X144994285Y-101465047D01*
X145613333Y-101465047D01*
%TO.C,C5*%
X148423333Y-106783142D02*
X148375714Y-106830761D01*
X148232857Y-106878380D01*
X148137619Y-106878380D01*
X147994761Y-106830761D01*
X147899523Y-106735523D01*
X147851904Y-106640285D01*
X147804285Y-106449809D01*
X147804285Y-106306952D01*
X147851904Y-106116476D01*
X147899523Y-106021238D01*
X147994761Y-105926000D01*
X148137619Y-105878380D01*
X148232857Y-105878380D01*
X148375714Y-105926000D01*
X148423333Y-105973619D01*
X149328095Y-105878380D02*
X148851904Y-105878380D01*
X148804285Y-106354571D01*
X148851904Y-106306952D01*
X148947142Y-106259333D01*
X149185238Y-106259333D01*
X149280476Y-106306952D01*
X149328095Y-106354571D01*
X149375714Y-106449809D01*
X149375714Y-106687904D01*
X149328095Y-106783142D01*
X149280476Y-106830761D01*
X149185238Y-106878380D01*
X148947142Y-106878380D01*
X148851904Y-106830761D01*
X148804285Y-106783142D01*
%TO.C,R5*%
X170759010Y-103053380D02*
X170425677Y-102577190D01*
X170187581Y-103053380D02*
X170187581Y-102053380D01*
X170568534Y-102053380D01*
X170663772Y-102101000D01*
X170711391Y-102148619D01*
X170759010Y-102243857D01*
X170759010Y-102386714D01*
X170711391Y-102481952D01*
X170663772Y-102529571D01*
X170568534Y-102577190D01*
X170187581Y-102577190D01*
X171663772Y-102053380D02*
X171187581Y-102053380D01*
X171139962Y-102529571D01*
X171187581Y-102481952D01*
X171282819Y-102434333D01*
X171520915Y-102434333D01*
X171616153Y-102481952D01*
X171663772Y-102529571D01*
X171711391Y-102624809D01*
X171711391Y-102862904D01*
X171663772Y-102958142D01*
X171616153Y-103005761D01*
X171520915Y-103053380D01*
X171282819Y-103053380D01*
X171187581Y-103005761D01*
X171139962Y-102958142D01*
%TO.C,R14*%
X187508380Y-101943857D02*
X187032190Y-102277190D01*
X187508380Y-102515285D02*
X186508380Y-102515285D01*
X186508380Y-102134333D01*
X186556000Y-102039095D01*
X186603619Y-101991476D01*
X186698857Y-101943857D01*
X186841714Y-101943857D01*
X186936952Y-101991476D01*
X186984571Y-102039095D01*
X187032190Y-102134333D01*
X187032190Y-102515285D01*
X187508380Y-100991476D02*
X187508380Y-101562904D01*
X187508380Y-101277190D02*
X186508380Y-101277190D01*
X186651238Y-101372428D01*
X186746476Y-101467666D01*
X186794095Y-101562904D01*
X186841714Y-100134333D02*
X187508380Y-100134333D01*
X186460761Y-100372428D02*
X187175047Y-100610523D01*
X187175047Y-99991476D01*
%TO.C,R10*%
X165284142Y-97719380D02*
X164950809Y-97243190D01*
X164712714Y-97719380D02*
X164712714Y-96719380D01*
X165093666Y-96719380D01*
X165188904Y-96767000D01*
X165236523Y-96814619D01*
X165284142Y-96909857D01*
X165284142Y-97052714D01*
X165236523Y-97147952D01*
X165188904Y-97195571D01*
X165093666Y-97243190D01*
X164712714Y-97243190D01*
X166236523Y-97719380D02*
X165665095Y-97719380D01*
X165950809Y-97719380D02*
X165950809Y-96719380D01*
X165855571Y-96862238D01*
X165760333Y-96957476D01*
X165665095Y-97005095D01*
X166855571Y-96719380D02*
X166950809Y-96719380D01*
X167046047Y-96767000D01*
X167093666Y-96814619D01*
X167141285Y-96909857D01*
X167188904Y-97100333D01*
X167188904Y-97338428D01*
X167141285Y-97528904D01*
X167093666Y-97624142D01*
X167046047Y-97671761D01*
X166950809Y-97719380D01*
X166855571Y-97719380D01*
X166760333Y-97671761D01*
X166712714Y-97624142D01*
X166665095Y-97528904D01*
X166617476Y-97338428D01*
X166617476Y-97100333D01*
X166665095Y-96909857D01*
X166712714Y-96814619D01*
X166760333Y-96767000D01*
X166855571Y-96719380D01*
%TO.C,R8*%
X161057932Y-91623380D02*
X160724599Y-91147190D01*
X160486503Y-91623380D02*
X160486503Y-90623380D01*
X160867456Y-90623380D01*
X160962694Y-90671000D01*
X161010313Y-90718619D01*
X161057932Y-90813857D01*
X161057932Y-90956714D01*
X161010313Y-91051952D01*
X160962694Y-91099571D01*
X160867456Y-91147190D01*
X160486503Y-91147190D01*
X161629360Y-91051952D02*
X161534122Y-91004333D01*
X161486503Y-90956714D01*
X161438884Y-90861476D01*
X161438884Y-90813857D01*
X161486503Y-90718619D01*
X161534122Y-90671000D01*
X161629360Y-90623380D01*
X161819837Y-90623380D01*
X161915075Y-90671000D01*
X161962694Y-90718619D01*
X162010313Y-90813857D01*
X162010313Y-90861476D01*
X161962694Y-90956714D01*
X161915075Y-91004333D01*
X161819837Y-91051952D01*
X161629360Y-91051952D01*
X161534122Y-91099571D01*
X161486503Y-91147190D01*
X161438884Y-91242428D01*
X161438884Y-91432904D01*
X161486503Y-91528142D01*
X161534122Y-91575761D01*
X161629360Y-91623380D01*
X161819837Y-91623380D01*
X161915075Y-91575761D01*
X161962694Y-91528142D01*
X162010313Y-91432904D01*
X162010313Y-91242428D01*
X161962694Y-91147190D01*
X161915075Y-91099571D01*
X161819837Y-91051952D01*
%TO.C,R6*%
X171029333Y-97480380D02*
X170696000Y-97004190D01*
X170457904Y-97480380D02*
X170457904Y-96480380D01*
X170838857Y-96480380D01*
X170934095Y-96528000D01*
X170981714Y-96575619D01*
X171029333Y-96670857D01*
X171029333Y-96813714D01*
X170981714Y-96908952D01*
X170934095Y-96956571D01*
X170838857Y-97004190D01*
X170457904Y-97004190D01*
X171886476Y-96480380D02*
X171696000Y-96480380D01*
X171600761Y-96528000D01*
X171553142Y-96575619D01*
X171457904Y-96718476D01*
X171410285Y-96908952D01*
X171410285Y-97289904D01*
X171457904Y-97385142D01*
X171505523Y-97432761D01*
X171600761Y-97480380D01*
X171791238Y-97480380D01*
X171886476Y-97432761D01*
X171934095Y-97385142D01*
X171981714Y-97289904D01*
X171981714Y-97051809D01*
X171934095Y-96956571D01*
X171886476Y-96908952D01*
X171791238Y-96861333D01*
X171600761Y-96861333D01*
X171505523Y-96908952D01*
X171457904Y-96956571D01*
X171410285Y-97051809D01*
%TO.C,C2*%
X154920333Y-91416142D02*
X154872714Y-91463761D01*
X154729857Y-91511380D01*
X154634619Y-91511380D01*
X154491761Y-91463761D01*
X154396523Y-91368523D01*
X154348904Y-91273285D01*
X154301285Y-91082809D01*
X154301285Y-90939952D01*
X154348904Y-90749476D01*
X154396523Y-90654238D01*
X154491761Y-90559000D01*
X154634619Y-90511380D01*
X154729857Y-90511380D01*
X154872714Y-90559000D01*
X154920333Y-90606619D01*
X155301285Y-90606619D02*
X155348904Y-90559000D01*
X155444142Y-90511380D01*
X155682238Y-90511380D01*
X155777476Y-90559000D01*
X155825095Y-90606619D01*
X155872714Y-90701857D01*
X155872714Y-90797095D01*
X155825095Y-90939952D01*
X155253666Y-91511380D01*
X155872714Y-91511380D01*
%TO.C,R7*%
X155340734Y-85923380D02*
X155007401Y-85447190D01*
X154769305Y-85923380D02*
X154769305Y-84923380D01*
X155150258Y-84923380D01*
X155245496Y-84971000D01*
X155293115Y-85018619D01*
X155340734Y-85113857D01*
X155340734Y-85256714D01*
X155293115Y-85351952D01*
X155245496Y-85399571D01*
X155150258Y-85447190D01*
X154769305Y-85447190D01*
X155674067Y-84923380D02*
X156340734Y-84923380D01*
X155912162Y-85923380D01*
%TO.C,R2*%
X133945333Y-86050380D02*
X133612000Y-85574190D01*
X133373904Y-86050380D02*
X133373904Y-85050380D01*
X133754857Y-85050380D01*
X133850095Y-85098000D01*
X133897714Y-85145619D01*
X133945333Y-85240857D01*
X133945333Y-85383714D01*
X133897714Y-85478952D01*
X133850095Y-85526571D01*
X133754857Y-85574190D01*
X133373904Y-85574190D01*
X134326285Y-85145619D02*
X134373904Y-85098000D01*
X134469142Y-85050380D01*
X134707238Y-85050380D01*
X134802476Y-85098000D01*
X134850095Y-85145619D01*
X134897714Y-85240857D01*
X134897714Y-85336095D01*
X134850095Y-85478952D01*
X134278666Y-86050380D01*
X134897714Y-86050380D01*
%TO.C,R12*%
X174297142Y-94544380D02*
X173963809Y-94068190D01*
X173725714Y-94544380D02*
X173725714Y-93544380D01*
X174106666Y-93544380D01*
X174201904Y-93592000D01*
X174249523Y-93639619D01*
X174297142Y-93734857D01*
X174297142Y-93877714D01*
X174249523Y-93972952D01*
X174201904Y-94020571D01*
X174106666Y-94068190D01*
X173725714Y-94068190D01*
X175249523Y-94544380D02*
X174678095Y-94544380D01*
X174963809Y-94544380D02*
X174963809Y-93544380D01*
X174868571Y-93687238D01*
X174773333Y-93782476D01*
X174678095Y-93830095D01*
X175630476Y-93639619D02*
X175678095Y-93592000D01*
X175773333Y-93544380D01*
X176011428Y-93544380D01*
X176106666Y-93592000D01*
X176154285Y-93639619D01*
X176201904Y-93734857D01*
X176201904Y-93830095D01*
X176154285Y-93972952D01*
X175582857Y-94544380D01*
X176201904Y-94544380D01*
%TO.C,C11*%
X163949142Y-85955142D02*
X163901523Y-86002761D01*
X163758666Y-86050380D01*
X163663428Y-86050380D01*
X163520571Y-86002761D01*
X163425333Y-85907523D01*
X163377714Y-85812285D01*
X163330095Y-85621809D01*
X163330095Y-85478952D01*
X163377714Y-85288476D01*
X163425333Y-85193238D01*
X163520571Y-85098000D01*
X163663428Y-85050380D01*
X163758666Y-85050380D01*
X163901523Y-85098000D01*
X163949142Y-85145619D01*
X164901523Y-86050380D02*
X164330095Y-86050380D01*
X164615809Y-86050380D02*
X164615809Y-85050380D01*
X164520571Y-85193238D01*
X164425333Y-85288476D01*
X164330095Y-85336095D01*
X165853904Y-86050380D02*
X165282476Y-86050380D01*
X165568190Y-86050380D02*
X165568190Y-85050380D01*
X165472952Y-85193238D01*
X165377714Y-85288476D01*
X165282476Y-85336095D01*
%TO.C,C10*%
X136783142Y-101052142D02*
X136735523Y-101099761D01*
X136592666Y-101147380D01*
X136497428Y-101147380D01*
X136354571Y-101099761D01*
X136259333Y-101004523D01*
X136211714Y-100909285D01*
X136164095Y-100718809D01*
X136164095Y-100575952D01*
X136211714Y-100385476D01*
X136259333Y-100290238D01*
X136354571Y-100195000D01*
X136497428Y-100147380D01*
X136592666Y-100147380D01*
X136735523Y-100195000D01*
X136783142Y-100242619D01*
X137735523Y-101147380D02*
X137164095Y-101147380D01*
X137449809Y-101147380D02*
X137449809Y-100147380D01*
X137354571Y-100290238D01*
X137259333Y-100385476D01*
X137164095Y-100433095D01*
X138354571Y-100147380D02*
X138449809Y-100147380D01*
X138545047Y-100195000D01*
X138592666Y-100242619D01*
X138640285Y-100337857D01*
X138687904Y-100528333D01*
X138687904Y-100766428D01*
X138640285Y-100956904D01*
X138592666Y-101052142D01*
X138545047Y-101099761D01*
X138449809Y-101147380D01*
X138354571Y-101147380D01*
X138259333Y-101099761D01*
X138211714Y-101052142D01*
X138164095Y-100956904D01*
X138116476Y-100766428D01*
X138116476Y-100528333D01*
X138164095Y-100337857D01*
X138211714Y-100242619D01*
X138259333Y-100195000D01*
X138354571Y-100147380D01*
%TO.C,C1*%
X150482734Y-87531142D02*
X150435115Y-87578761D01*
X150292258Y-87626380D01*
X150197020Y-87626380D01*
X150054162Y-87578761D01*
X149958924Y-87483523D01*
X149911305Y-87388285D01*
X149863686Y-87197809D01*
X149863686Y-87054952D01*
X149911305Y-86864476D01*
X149958924Y-86769238D01*
X150054162Y-86674000D01*
X150197020Y-86626380D01*
X150292258Y-86626380D01*
X150435115Y-86674000D01*
X150482734Y-86721619D01*
X151435115Y-87626380D02*
X150863686Y-87626380D01*
X151149401Y-87626380D02*
X151149401Y-86626380D01*
X151054162Y-86769238D01*
X150958924Y-86864476D01*
X150863686Y-86912095D01*
%TO.C,R9*%
X165740333Y-103180380D02*
X165407000Y-102704190D01*
X165168904Y-103180380D02*
X165168904Y-102180380D01*
X165549857Y-102180380D01*
X165645095Y-102228000D01*
X165692714Y-102275619D01*
X165740333Y-102370857D01*
X165740333Y-102513714D01*
X165692714Y-102608952D01*
X165645095Y-102656571D01*
X165549857Y-102704190D01*
X165168904Y-102704190D01*
X166216523Y-103180380D02*
X166407000Y-103180380D01*
X166502238Y-103132761D01*
X166549857Y-103085142D01*
X166645095Y-102942285D01*
X166692714Y-102751809D01*
X166692714Y-102370857D01*
X166645095Y-102275619D01*
X166597476Y-102228000D01*
X166502238Y-102180380D01*
X166311761Y-102180380D01*
X166216523Y-102228000D01*
X166168904Y-102275619D01*
X166121285Y-102370857D01*
X166121285Y-102608952D01*
X166168904Y-102704190D01*
X166216523Y-102751809D01*
X166311761Y-102799428D01*
X166502238Y-102799428D01*
X166597476Y-102751809D01*
X166645095Y-102704190D01*
X166692714Y-102608952D01*
D11*
%TO.C,R11*%
X160441133Y-86803000D02*
G75*
G03*
X160344095Y-88252359I-417133J-700000D01*
G01*
%TO.C,J1*%
X205120000Y-105740000D02*
X199470000Y-105740000D01*
X205120000Y-109140000D02*
X205120000Y-105740000D01*
X205120000Y-87300000D02*
X205120000Y-83900000D01*
X199470000Y-102940000D02*
X199470000Y-105740000D01*
X192270000Y-101520000D02*
X192270000Y-102940000D01*
X192270000Y-90100000D02*
X192270000Y-91520000D01*
X211710000Y-85400000D02*
X214410000Y-85400000D01*
X211710000Y-109140000D02*
X205120000Y-109140000D01*
X192270000Y-95820000D02*
X192270000Y-93920000D01*
X211710000Y-83900000D02*
X211710000Y-85400000D01*
X214410000Y-85400000D02*
X214410000Y-107640000D01*
X205120000Y-87300000D02*
X199470000Y-87300000D01*
X199470000Y-90100000D02*
X199470000Y-87300000D01*
X199470000Y-102940000D02*
X192270000Y-102940000D01*
X211710000Y-107640000D02*
X211710000Y-109140000D01*
X192270000Y-97220000D02*
X192270000Y-99120000D01*
X199470000Y-90100000D02*
X192270000Y-90100000D01*
X211710000Y-107640000D02*
X214410000Y-107640000D01*
X211710000Y-83900000D02*
X205120000Y-83900000D01*
%TO.C,R3*%
X140524000Y-104484867D02*
G75*
G03*
X141973359Y-104581905I700000J-417133D01*
G01*
%TO.C,R17*%
X127335000Y-103222000D02*
X127335000Y-106327000D01*
X127334000Y-103927000D02*
X127334000Y-105947000D01*
X127335000Y-101587000D02*
X134285000Y-101587000D01*
X125815000Y-104937000D02*
X126574000Y-104937000D01*
X125815000Y-103927000D02*
X125815000Y-105947000D01*
X127335000Y-106327000D02*
X134285000Y-106327000D01*
X125815000Y-105947000D02*
X127334000Y-105947000D01*
X127335000Y-101587000D02*
X127335000Y-102232000D01*
X134285000Y-101587000D02*
X134285000Y-102232000D01*
X125815000Y-103927000D02*
X127334000Y-103927000D01*
X134285000Y-103222000D02*
X134285000Y-106327000D01*
%TO.C,C3*%
X160708401Y-103728000D02*
X159450401Y-103728000D01*
X160708401Y-105568000D02*
X159450401Y-105568000D01*
%TO.C,Q1*%
X126470000Y-97968000D02*
X130070000Y-97968000D01*
X130108478Y-97956478D02*
G75*
G03*
X128270000Y-93518000I-1838478J1838478D01*
G01*
X128270000Y-93517999D02*
G75*
G03*
X126431522Y-97956478I0J-2600001D01*
G01*
%TO.C,R15*%
X189463867Y-106872000D02*
G75*
G03*
X189560905Y-105422641I417133J700000D01*
G01*
%TO.C,R1*%
X127570000Y-88879867D02*
G75*
G03*
X129019359Y-88976905I700000J-417133D01*
G01*
%TO.C,C8*%
X178845000Y-105041323D02*
X175839000Y-105041323D01*
X178845000Y-103801323D02*
X175249000Y-103801323D01*
X185116000Y-102961323D02*
X175056000Y-102961323D01*
X184307000Y-105081323D02*
X181327000Y-105081323D01*
X183687000Y-105841323D02*
X181327000Y-105841323D01*
X182030000Y-106961323D02*
X178142000Y-106961323D01*
X180685000Y-107321323D02*
X179487000Y-107321323D01*
X184689000Y-104401323D02*
X181327000Y-104401323D01*
X178845000Y-104961323D02*
X175788000Y-104961323D01*
X184409000Y-104921323D02*
X181327000Y-104921323D01*
X185161000Y-102480323D02*
X175011000Y-102480323D01*
X178845000Y-104481323D02*
X175522000Y-104481323D01*
X184840000Y-104041323D02*
X181327000Y-104041323D01*
X178845000Y-105961323D02*
X176608000Y-105961323D01*
X184043000Y-105441323D02*
X181327000Y-105441323D01*
X181716000Y-107081323D02*
X178456000Y-107081323D01*
X182916000Y-106481323D02*
X177256000Y-106481323D01*
X185097000Y-103081323D02*
X175075000Y-103081323D01*
X178845000Y-103961323D02*
X175303000Y-103961323D01*
X183340000Y-106161323D02*
X176832000Y-106161323D01*
X178845000Y-104361323D02*
X175465000Y-104361323D01*
X183031000Y-106401323D02*
X177141000Y-106401323D01*
X185042000Y-103361323D02*
X175130000Y-103361323D01*
X178845000Y-103761323D02*
X175236000Y-103761323D01*
X185164000Y-102400323D02*
X175008000Y-102400323D01*
X185140000Y-102760323D02*
X175032000Y-102760323D01*
X184433000Y-104881323D02*
X181327000Y-104881323D01*
X182596000Y-106681323D02*
X177576000Y-106681323D01*
X181828000Y-107041323D02*
X178344000Y-107041323D01*
X185033000Y-103401323D02*
X175139000Y-103401323D01*
X178845000Y-104121323D02*
X175363000Y-104121323D01*
X183086000Y-106361323D02*
X177086000Y-106361323D01*
X178845000Y-105081323D02*
X175865000Y-105081323D01*
X183292000Y-106201323D02*
X176880000Y-106201323D01*
X178845000Y-103841323D02*
X175262000Y-103841323D01*
X181596000Y-107121323D02*
X178576000Y-107121323D01*
X184883000Y-103921323D02*
X181327000Y-103921323D01*
X178845000Y-105001323D02*
X175813000Y-105001323D01*
X185004000Y-103521323D02*
X181327000Y-103521323D01*
X178845000Y-105121323D02*
X175892000Y-105121323D01*
X178845000Y-104721323D02*
X175646000Y-104721323D01*
X185024000Y-103441323D02*
X175148000Y-103441323D01*
X178845000Y-105841323D02*
X176485000Y-105841323D01*
X185068000Y-103241323D02*
X175104000Y-103241323D01*
X183839000Y-105681323D02*
X181327000Y-105681323D01*
X184923000Y-103801323D02*
X181327000Y-103801323D01*
X182295000Y-106841323D02*
X177877000Y-106841323D01*
X185165000Y-102360323D02*
X175007000Y-102360323D01*
X185166000Y-102320323D02*
X175006000Y-102320323D01*
X178845000Y-104321323D02*
X175447000Y-104321323D01*
X178845000Y-105481323D02*
X176161000Y-105481323D01*
X185083000Y-103161323D02*
X175089000Y-103161323D01*
X178845000Y-104081323D02*
X175348000Y-104081323D01*
X184725000Y-104321323D02*
X181327000Y-104321323D01*
X181464000Y-107161323D02*
X178708000Y-107161323D01*
X183564000Y-105961323D02*
X181327000Y-105961323D01*
X182795000Y-106561323D02*
X177377000Y-106561323D01*
X185159000Y-102520323D02*
X175013000Y-102520323D01*
X183875000Y-105641323D02*
X181327000Y-105641323D01*
X184166000Y-105281323D02*
X181327000Y-105281323D01*
X178845000Y-105161323D02*
X175920000Y-105161323D01*
X185051000Y-103321323D02*
X175121000Y-103321323D01*
X184252000Y-105161323D02*
X181327000Y-105161323D01*
X183478000Y-106041323D02*
X176694000Y-106041323D01*
X183978000Y-105521323D02*
X181327000Y-105521323D01*
X184011000Y-105481323D02*
X181327000Y-105481323D01*
X184983000Y-103601323D02*
X181327000Y-103601323D01*
X185126000Y-102880323D02*
X175046000Y-102880323D01*
X178845000Y-104281323D02*
X175429000Y-104281323D01*
X183433000Y-106081323D02*
X176739000Y-106081323D01*
X185148000Y-102680323D02*
X175024000Y-102680323D01*
X184333000Y-105041323D02*
X181327000Y-105041323D01*
X183802000Y-105721323D02*
X181327000Y-105721323D01*
X185076000Y-103201323D02*
X175096000Y-103201323D01*
X178845000Y-104201323D02*
X175396000Y-104201323D01*
X184824000Y-104081323D02*
X181327000Y-104081323D01*
X184631000Y-104521323D02*
X181327000Y-104521323D01*
X185110000Y-103001323D02*
X175062000Y-103001323D01*
X178845000Y-105681323D02*
X176333000Y-105681323D01*
X178845000Y-104441323D02*
X175502000Y-104441323D01*
X183726000Y-105801323D02*
X181327000Y-105801323D01*
X182525000Y-106721323D02*
X177647000Y-106721323D01*
X184075000Y-105401323D02*
X181327000Y-105401323D01*
X178845000Y-104881323D02*
X175739000Y-104881323D01*
X178845000Y-104641323D02*
X175603000Y-104641323D01*
X178845000Y-104521323D02*
X175541000Y-104521323D01*
X184670000Y-104441323D02*
X181327000Y-104441323D01*
X182123000Y-106921323D02*
X178049000Y-106921323D01*
X183242000Y-106241323D02*
X176930000Y-106241323D01*
X178845000Y-103721323D02*
X175224000Y-103721323D01*
X178845000Y-104841323D02*
X175715000Y-104841323D01*
X185166000Y-102240323D02*
X175006000Y-102240323D01*
X184569000Y-104641323D02*
X181327000Y-104641323D01*
X178845000Y-104921323D02*
X175763000Y-104921323D01*
X178845000Y-104401323D02*
X175483000Y-104401323D01*
X184809000Y-104121323D02*
X181327000Y-104121323D01*
X185136000Y-102800323D02*
X175036000Y-102800323D01*
X184611000Y-104561323D02*
X181327000Y-104561323D01*
X185060000Y-103281323D02*
X175112000Y-103281323D01*
X184971000Y-103641323D02*
X181327000Y-103641323D01*
X178845000Y-105321323D02*
X176036000Y-105321323D01*
X184869000Y-103961323D02*
X181327000Y-103961323D01*
X184196000Y-105241323D02*
X181327000Y-105241323D01*
X180948000Y-107281323D02*
X179224000Y-107281323D01*
X178845000Y-103681323D02*
X175212000Y-103681323D01*
X178845000Y-104241323D02*
X175412000Y-104241323D01*
X185090000Y-103121323D02*
X175082000Y-103121323D01*
X185144000Y-102720323D02*
X175028000Y-102720323D01*
X178845000Y-105761323D02*
X176407000Y-105761323D01*
X178845000Y-105361323D02*
X176066000Y-105361323D01*
X184280000Y-105121323D02*
X181327000Y-105121323D01*
X182211000Y-106881323D02*
X177961000Y-106881323D01*
X178845000Y-105881323D02*
X176525000Y-105881323D01*
X184910000Y-103841323D02*
X181327000Y-103841323D01*
X182961000Y-96760677D02*
X182961000Y-97760677D01*
X183647000Y-105881323D02*
X181327000Y-105881323D01*
X184106000Y-105361323D02*
X181327000Y-105361323D01*
X184897000Y-103881323D02*
X181327000Y-103881323D01*
X182975000Y-106441323D02*
X177197000Y-106441323D01*
X178845000Y-103601323D02*
X175189000Y-103601323D01*
X178845000Y-103521323D02*
X175168000Y-103521323D01*
X181932000Y-107001323D02*
X178240000Y-107001323D01*
X184760000Y-104241323D02*
X181327000Y-104241323D01*
X178845000Y-104561323D02*
X175561000Y-104561323D01*
X184224000Y-105201323D02*
X181327000Y-105201323D01*
X178845000Y-103641323D02*
X175201000Y-103641323D01*
X178845000Y-105281323D02*
X176006000Y-105281323D01*
X182451000Y-106761323D02*
X177721000Y-106761323D01*
X178845000Y-105441323D02*
X176129000Y-105441323D01*
X178845000Y-103881323D02*
X175275000Y-103881323D01*
X183765000Y-105761323D02*
X181327000Y-105761323D01*
X185151000Y-102640323D02*
X175021000Y-102640323D01*
X178845000Y-104681323D02*
X175624000Y-104681323D01*
X178845000Y-105401323D02*
X176097000Y-105401323D01*
X185156000Y-102560323D02*
X175016000Y-102560323D01*
X184548000Y-104681323D02*
X181327000Y-104681323D01*
X183522000Y-106001323D02*
X176650000Y-106001323D01*
X178845000Y-105721323D02*
X176370000Y-105721323D01*
X184481000Y-104801323D02*
X181327000Y-104801323D01*
X184854000Y-104001323D02*
X181327000Y-104001323D01*
X178845000Y-105561323D02*
X176228000Y-105561323D01*
X182375000Y-106801323D02*
X177797000Y-106801323D01*
X178845000Y-105201323D02*
X175948000Y-105201323D01*
X181148000Y-107241323D02*
X179024000Y-107241323D01*
X178845000Y-104801323D02*
X175691000Y-104801323D01*
X184993000Y-103561323D02*
X181327000Y-103561323D01*
X183944000Y-105561323D02*
X181327000Y-105561323D01*
X183387000Y-106121323D02*
X176785000Y-106121323D01*
X178845000Y-104001323D02*
X175318000Y-104001323D01*
X183140000Y-106321323D02*
X177032000Y-106321323D01*
X178845000Y-104601323D02*
X175582000Y-104601323D01*
X181316000Y-107201323D02*
X178856000Y-107201323D01*
X178845000Y-103921323D02*
X175289000Y-103921323D01*
X185154000Y-102600323D02*
X175018000Y-102600323D01*
X182856000Y-106521323D02*
X177316000Y-106521323D01*
X184590000Y-104601323D02*
X181327000Y-104601323D01*
X178845000Y-104761323D02*
X175669000Y-104761323D01*
X178845000Y-105521323D02*
X176194000Y-105521323D01*
X184793000Y-104161323D02*
X181327000Y-104161323D01*
X184936000Y-103761323D02*
X181327000Y-103761323D01*
X185121000Y-102920323D02*
X175051000Y-102920323D01*
X178845000Y-105241323D02*
X175976000Y-105241323D01*
X184776000Y-104201323D02*
X181327000Y-104201323D01*
X185131000Y-102840323D02*
X175041000Y-102840323D01*
X182665000Y-106641323D02*
X177507000Y-106641323D01*
X184960000Y-103681323D02*
X181327000Y-103681323D01*
X182731000Y-106601323D02*
X177441000Y-106601323D01*
X184384000Y-104961323D02*
X181327000Y-104961323D01*
X185104000Y-103041323D02*
X175068000Y-103041323D01*
X183461000Y-97260677D02*
X182461000Y-97260677D01*
X185014000Y-103481323D02*
X175158000Y-103481323D01*
X178845000Y-104041323D02*
X175332000Y-104041323D01*
X183606000Y-105921323D02*
X181327000Y-105921323D01*
X183910000Y-105601323D02*
X181327000Y-105601323D01*
X185166000Y-102280323D02*
X175006000Y-102280323D01*
X184650000Y-104481323D02*
X181327000Y-104481323D01*
X185163000Y-102440323D02*
X175009000Y-102440323D01*
X178845000Y-105601323D02*
X176262000Y-105601323D01*
X183192000Y-106281323D02*
X176980000Y-106281323D01*
X178845000Y-105801323D02*
X176446000Y-105801323D01*
X184457000Y-104841323D02*
X181327000Y-104841323D01*
X184503000Y-104761323D02*
X181327000Y-104761323D01*
X178845000Y-105641323D02*
X176297000Y-105641323D01*
X184743000Y-104281323D02*
X181327000Y-104281323D01*
X184948000Y-103721323D02*
X181327000Y-103721323D01*
X178845000Y-105921323D02*
X176566000Y-105921323D01*
X184359000Y-105001323D02*
X181327000Y-105001323D01*
X178845000Y-104161323D02*
X175379000Y-104161323D01*
X184136000Y-105321323D02*
X181327000Y-105321323D01*
X184526000Y-104721323D02*
X181327000Y-104721323D01*
X178845000Y-103561323D02*
X175179000Y-103561323D01*
X184707000Y-104361323D02*
X181327000Y-104361323D01*
X185206000Y-102240323D02*
G75*
G03*
X185206000Y-102240323I-5120000J0D01*
G01*
%TO.C,C6*%
X185835677Y-90170000D02*
G75*
G03*
X185835677Y-90170000I-5120000J0D01*
G01*
X179674677Y-95144000D02*
X179674677Y-85196000D01*
X177554677Y-94159000D02*
X177554677Y-91411000D01*
X178194677Y-88929000D02*
X178194677Y-85753000D01*
X177514677Y-88929000D02*
X177514677Y-86213000D01*
X177754677Y-94308000D02*
X177754677Y-91411000D01*
X178634677Y-94809000D02*
X178634677Y-91411000D01*
X178034677Y-88929000D02*
X178034677Y-85847000D01*
X180555677Y-95248000D02*
X180555677Y-85092000D01*
X180115677Y-95215000D02*
X180115677Y-85125000D01*
X177074677Y-88929000D02*
X177074677Y-86609000D01*
X177874677Y-88929000D02*
X177874677Y-85949000D01*
X176234677Y-92609000D02*
X176234677Y-87731000D01*
X179874677Y-95181000D02*
X179874677Y-85159000D01*
X180235677Y-95228000D02*
X180235677Y-85112000D01*
X178194677Y-94587000D02*
X178194677Y-91411000D01*
X178394677Y-94695000D02*
X178394677Y-91411000D01*
X177994677Y-88929000D02*
X177994677Y-85872000D01*
X178474677Y-94734000D02*
X178474677Y-91411000D01*
X177594677Y-94190000D02*
X177594677Y-91411000D01*
X177314677Y-88929000D02*
X177314677Y-86381000D01*
X176914677Y-93562000D02*
X176914677Y-86778000D01*
X177274677Y-93923000D02*
X177274677Y-91411000D01*
X179034677Y-88929000D02*
X179034677Y-85373000D01*
X178154677Y-88929000D02*
X178154677Y-85775000D01*
X177434677Y-88929000D02*
X177434677Y-86278000D01*
X179354677Y-95067000D02*
X179354677Y-91411000D01*
X177234677Y-93886000D02*
X177234677Y-91411000D01*
X179914677Y-95188000D02*
X179914677Y-85152000D01*
X175874677Y-91800000D02*
X175874677Y-88540000D01*
X179394677Y-88929000D02*
X179394677Y-85263000D01*
X178354677Y-94674000D02*
X178354677Y-91411000D01*
X178074677Y-94517000D02*
X178074677Y-91411000D01*
X180035677Y-95205000D02*
X180035677Y-85135000D01*
X185695323Y-93545000D02*
X185695323Y-92545000D01*
X176354677Y-92815000D02*
X176354677Y-87525000D01*
X179074677Y-94981000D02*
X179074677Y-91411000D01*
X179234677Y-95032000D02*
X179234677Y-91411000D01*
X178554677Y-94773000D02*
X178554677Y-91411000D01*
X178514677Y-88929000D02*
X178514677Y-85586000D01*
X176194677Y-92535000D02*
X176194677Y-87805000D01*
X178074677Y-88929000D02*
X178074677Y-85823000D01*
X178794677Y-88929000D02*
X178794677Y-85463000D01*
X179194677Y-95020000D02*
X179194677Y-91411000D01*
X177514677Y-94127000D02*
X177514677Y-91411000D01*
X176514677Y-93059000D02*
X176514677Y-87281000D01*
X175714677Y-91232000D02*
X175714677Y-89108000D01*
X178914677Y-94924000D02*
X178914677Y-91411000D01*
X179834677Y-95174000D02*
X179834677Y-85166000D01*
X178714677Y-94844000D02*
X178714677Y-91411000D01*
X177954677Y-94443000D02*
X177954677Y-91411000D01*
X178794677Y-94877000D02*
X178794677Y-91411000D01*
X177954677Y-88929000D02*
X177954677Y-85897000D01*
X178434677Y-88929000D02*
X178434677Y-85625000D01*
X176394677Y-92879000D02*
X176394677Y-87461000D01*
X175954677Y-92016000D02*
X175954677Y-88324000D01*
X179434677Y-95088000D02*
X179434677Y-91411000D01*
X177314677Y-93959000D02*
X177314677Y-91411000D01*
X179994677Y-95200000D02*
X179994677Y-85140000D01*
X176594677Y-93170000D02*
X176594677Y-87170000D01*
X177234677Y-88929000D02*
X177234677Y-86454000D01*
X177154677Y-88929000D02*
X177154677Y-86530000D01*
X178994677Y-88929000D02*
X178994677Y-85387000D01*
X179274677Y-95044000D02*
X179274677Y-91411000D01*
X177434677Y-94062000D02*
X177434677Y-91411000D01*
X178914677Y-88929000D02*
X178914677Y-85416000D01*
X178674677Y-94827000D02*
X178674677Y-91411000D01*
X177674677Y-94250000D02*
X177674677Y-91411000D01*
X178834677Y-88929000D02*
X178834677Y-85447000D01*
X177074677Y-93731000D02*
X177074677Y-91411000D01*
X179314677Y-95055000D02*
X179314677Y-91411000D01*
X178354677Y-88929000D02*
X178354677Y-85666000D01*
X177714677Y-88929000D02*
X177714677Y-86060000D01*
X179434677Y-88929000D02*
X179434677Y-85252000D01*
X179114677Y-88929000D02*
X179114677Y-85346000D01*
X177914677Y-88929000D02*
X177914677Y-85923000D01*
X177794677Y-94336000D02*
X177794677Y-91411000D01*
X177634677Y-88929000D02*
X177634677Y-86120000D01*
X180435677Y-95243000D02*
X180435677Y-85097000D01*
X175634677Y-90769000D02*
X175634677Y-89571000D01*
X176274677Y-92680000D02*
X176274677Y-87660000D01*
X179954677Y-95194000D02*
X179954677Y-85146000D01*
X176714677Y-93326000D02*
X176714677Y-87014000D01*
X176034677Y-92207000D02*
X176034677Y-88133000D01*
X180195677Y-95224000D02*
X180195677Y-85116000D01*
X177354677Y-88929000D02*
X177354677Y-86346000D01*
X176994677Y-93648000D02*
X176994677Y-91411000D01*
X180715677Y-95250000D02*
X180715677Y-85090000D01*
X175834677Y-91680000D02*
X175834677Y-88660000D01*
X177834677Y-88929000D02*
X177834677Y-85976000D01*
X180275677Y-95232000D02*
X180275677Y-85108000D01*
X178754677Y-88929000D02*
X178754677Y-85480000D01*
X179274677Y-88929000D02*
X179274677Y-85296000D01*
X175914677Y-91912000D02*
X175914677Y-88428000D01*
X177554677Y-88929000D02*
X177554677Y-86181000D01*
X177034677Y-88929000D02*
X177034677Y-86650000D01*
X178714677Y-88929000D02*
X178714677Y-85496000D01*
X178274677Y-88929000D02*
X178274677Y-85708000D01*
X175674677Y-91032000D02*
X175674677Y-89308000D01*
X177114677Y-88929000D02*
X177114677Y-86569000D01*
X176434677Y-92940000D02*
X176434677Y-87400000D01*
X176954677Y-93606000D02*
X176954677Y-86734000D01*
X178314677Y-88929000D02*
X178314677Y-85687000D01*
X178554677Y-88929000D02*
X178554677Y-85567000D01*
X177634677Y-94220000D02*
X177634677Y-91411000D01*
X177274677Y-88929000D02*
X177274677Y-86417000D01*
X176474677Y-93000000D02*
X176474677Y-87340000D01*
X177794677Y-88929000D02*
X177794677Y-86004000D01*
X186195323Y-93045000D02*
X185195323Y-93045000D01*
X178474677Y-88929000D02*
X178474677Y-85606000D01*
X180515677Y-95247000D02*
X180515677Y-85093000D01*
X176874677Y-93517000D02*
X176874677Y-86823000D01*
X177114677Y-93771000D02*
X177114677Y-91411000D01*
X180395677Y-95240000D02*
X180395677Y-85100000D01*
X180315677Y-95235000D02*
X180315677Y-85105000D01*
X178834677Y-94893000D02*
X178834677Y-91411000D01*
X177834677Y-94364000D02*
X177834677Y-91411000D01*
X176114677Y-92379000D02*
X176114677Y-87961000D01*
X178594677Y-88929000D02*
X178594677Y-85549000D01*
X176634677Y-93224000D02*
X176634677Y-87116000D01*
X177394677Y-94028000D02*
X177394677Y-91411000D01*
X178514677Y-94754000D02*
X178514677Y-91411000D01*
X177914677Y-94417000D02*
X177914677Y-91411000D01*
X179234677Y-88929000D02*
X179234677Y-85308000D01*
X177994677Y-94468000D02*
X177994677Y-91411000D01*
X178154677Y-94565000D02*
X178154677Y-91411000D01*
X178994677Y-94953000D02*
X178994677Y-91411000D01*
X177594677Y-88929000D02*
X177594677Y-86150000D01*
X179474677Y-95098000D02*
X179474677Y-85242000D01*
X178434677Y-94715000D02*
X178434677Y-91411000D01*
X177474677Y-94095000D02*
X177474677Y-91411000D01*
X176154677Y-92459000D02*
X176154677Y-87881000D01*
X179314677Y-88929000D02*
X179314677Y-85285000D01*
X179634677Y-95135000D02*
X179634677Y-85205000D01*
X176754677Y-93376000D02*
X176754677Y-86964000D01*
X179154677Y-88929000D02*
X179154677Y-85333000D01*
X179554677Y-95117000D02*
X179554677Y-85223000D01*
X180355677Y-95238000D02*
X180355677Y-85102000D01*
X175994677Y-92114000D02*
X175994677Y-88226000D01*
X179514677Y-95108000D02*
X179514677Y-85232000D01*
X177194677Y-93849000D02*
X177194677Y-91411000D01*
X178394677Y-88929000D02*
X178394677Y-85645000D01*
X178274677Y-94632000D02*
X178274677Y-91411000D01*
X176554677Y-93115000D02*
X176554677Y-87225000D01*
X179154677Y-95007000D02*
X179154677Y-91411000D01*
X177714677Y-94280000D02*
X177714677Y-91411000D01*
X180075677Y-95210000D02*
X180075677Y-85130000D01*
X178954677Y-88929000D02*
X178954677Y-85402000D01*
X177474677Y-88929000D02*
X177474677Y-86245000D01*
X180155677Y-95220000D02*
X180155677Y-85120000D01*
X179754677Y-95160000D02*
X179754677Y-85180000D01*
X178034677Y-94493000D02*
X178034677Y-91411000D01*
X179074677Y-88929000D02*
X179074677Y-85359000D01*
X176834677Y-93471000D02*
X176834677Y-86869000D01*
X179194677Y-88929000D02*
X179194677Y-85320000D01*
X178874677Y-94908000D02*
X178874677Y-91411000D01*
X175794677Y-91548000D02*
X175794677Y-88792000D01*
X176794677Y-93424000D02*
X176794677Y-86916000D01*
X178314677Y-94653000D02*
X178314677Y-91411000D01*
X176074677Y-92295000D02*
X176074677Y-88045000D01*
X177874677Y-94391000D02*
X177874677Y-91411000D01*
X177754677Y-88929000D02*
X177754677Y-86032000D01*
X178594677Y-94791000D02*
X178594677Y-91411000D01*
X177154677Y-93810000D02*
X177154677Y-91411000D01*
X178114677Y-88929000D02*
X178114677Y-85799000D01*
X175754677Y-91400000D02*
X175754677Y-88940000D01*
X180635677Y-95250000D02*
X180635677Y-85090000D01*
X179714677Y-95152000D02*
X179714677Y-85188000D01*
X178954677Y-94938000D02*
X178954677Y-91411000D01*
X177194677Y-88929000D02*
X177194677Y-86491000D01*
X178634677Y-88929000D02*
X178634677Y-85531000D01*
X178234677Y-88929000D02*
X178234677Y-85730000D01*
X179114677Y-94994000D02*
X179114677Y-91411000D01*
X180595677Y-95249000D02*
X180595677Y-85091000D01*
X179354677Y-88929000D02*
X179354677Y-85273000D01*
X176314677Y-92749000D02*
X176314677Y-87591000D01*
X178114677Y-94541000D02*
X178114677Y-91411000D01*
X178234677Y-94610000D02*
X178234677Y-91411000D01*
X179394677Y-95077000D02*
X179394677Y-91411000D01*
X180475677Y-95245000D02*
X180475677Y-85095000D01*
X178754677Y-94860000D02*
X178754677Y-91411000D01*
X176994677Y-88929000D02*
X176994677Y-86692000D01*
X179794677Y-95167000D02*
X179794677Y-85173000D01*
X179594677Y-95126000D02*
X179594677Y-85214000D01*
X177394677Y-88929000D02*
X177394677Y-86312000D01*
X177354677Y-93994000D02*
X177354677Y-91411000D01*
X176674677Y-93276000D02*
X176674677Y-87064000D01*
X179034677Y-94967000D02*
X179034677Y-91411000D01*
X177674677Y-88929000D02*
X177674677Y-86090000D01*
X177034677Y-93690000D02*
X177034677Y-91411000D01*
X178874677Y-88929000D02*
X178874677Y-85432000D01*
X178674677Y-88929000D02*
X178674677Y-85513000D01*
X180675677Y-95250000D02*
X180675677Y-85090000D01*
%TO.C,C7*%
X188056000Y-95871000D02*
X188056000Y-97129000D01*
X189896000Y-95871000D02*
X189896000Y-97129000D01*
%TO.C,C4*%
X160816000Y-99853000D02*
X159558000Y-99853000D01*
X160816000Y-98013000D02*
X159558000Y-98013000D01*
%TO.C,C9*%
X134678600Y-96704000D02*
X134678600Y-97832000D01*
X134358600Y-96704000D02*
X134358600Y-97914000D01*
X134799600Y-96704000D02*
X134799600Y-97788000D01*
X134198600Y-96704000D02*
X134198600Y-97935000D01*
X135119600Y-96704000D02*
X135119600Y-97624000D01*
X134959600Y-94013000D02*
X134959600Y-95024000D01*
X135159600Y-96704000D02*
X135159600Y-97599000D01*
X134438600Y-93830000D02*
X134438600Y-95024000D01*
X135759600Y-94722000D02*
X135759600Y-97006000D01*
X134638600Y-93882000D02*
X134638600Y-95024000D01*
X136079600Y-95494000D02*
X136079600Y-96234000D01*
X135239600Y-96704000D02*
X135239600Y-97544000D01*
X135959600Y-95096000D02*
X135959600Y-96632000D01*
X135039600Y-96704000D02*
X135039600Y-97672000D01*
X134598600Y-96704000D02*
X134598600Y-97858000D01*
X134598600Y-93870000D02*
X134598600Y-95024000D01*
X134158600Y-93790000D02*
X134158600Y-95024000D01*
X133998600Y-96704000D02*
X133998600Y-97944000D01*
X134198600Y-93793000D02*
X134198600Y-95024000D01*
X134398600Y-96704000D02*
X134398600Y-97906000D01*
X134799600Y-93940000D02*
X134799600Y-95024000D01*
X135839600Y-94851000D02*
X135839600Y-96877000D01*
X135159600Y-94129000D02*
X135159600Y-95024000D01*
X135319600Y-94245000D02*
X135319600Y-95024000D01*
X134879600Y-96704000D02*
X134879600Y-97753000D01*
X135359600Y-96704000D02*
X135359600Y-97451000D01*
X134278600Y-96704000D02*
X134278600Y-97926000D01*
X134038600Y-93784000D02*
X134038600Y-95024000D01*
X134118600Y-96704000D02*
X134118600Y-97941000D01*
X135919600Y-95005000D02*
X135919600Y-96723000D01*
X135279600Y-94214000D02*
X135279600Y-95024000D01*
X131728799Y-94669000D02*
X132128799Y-94669000D01*
X135559600Y-94468000D02*
X135559600Y-95024000D01*
X135519600Y-96704000D02*
X135519600Y-97302000D01*
X134719600Y-96704000D02*
X134719600Y-97818000D01*
X134919600Y-96704000D02*
X134919600Y-97734000D01*
X135439600Y-94348000D02*
X135439600Y-95024000D01*
X134999600Y-96704000D02*
X134999600Y-97694000D01*
X134398600Y-93822000D02*
X134398600Y-95024000D01*
X135399600Y-96704000D02*
X135399600Y-97416000D01*
X135439600Y-96704000D02*
X135439600Y-97380000D01*
X134839600Y-93957000D02*
X134839600Y-95024000D01*
X134959600Y-96704000D02*
X134959600Y-97715000D01*
X135719600Y-94664000D02*
X135719600Y-97064000D01*
X135999600Y-95200000D02*
X135999600Y-96528000D01*
X134719600Y-93910000D02*
X134719600Y-95024000D01*
X135319600Y-96704000D02*
X135319600Y-97483000D01*
X134839600Y-96704000D02*
X134839600Y-97771000D01*
X134078600Y-93785000D02*
X134078600Y-95024000D01*
X135879600Y-94924000D02*
X135879600Y-96804000D01*
X135399600Y-94312000D02*
X135399600Y-95024000D01*
X134638600Y-96704000D02*
X134638600Y-97846000D01*
X135479600Y-94386000D02*
X135479600Y-95024000D01*
X134438600Y-96704000D02*
X134438600Y-97898000D01*
X134678600Y-93896000D02*
X134678600Y-95024000D01*
X134879600Y-93975000D02*
X134879600Y-95024000D01*
X134358600Y-93814000D02*
X134358600Y-95024000D01*
X134158600Y-96704000D02*
X134158600Y-97938000D01*
X134558600Y-96704000D02*
X134558600Y-97869000D01*
X134478600Y-93839000D02*
X134478600Y-95024000D01*
X135079600Y-96704000D02*
X135079600Y-97649000D01*
X134919600Y-93994000D02*
X134919600Y-95024000D01*
X134318600Y-93808000D02*
X134318600Y-95024000D01*
X131928799Y-94469000D02*
X131928799Y-94869000D01*
X134518600Y-96704000D02*
X134518600Y-97880000D01*
X134038600Y-96704000D02*
X134038600Y-97944000D01*
X134478600Y-96704000D02*
X134478600Y-97889000D01*
X135599600Y-94513000D02*
X135599600Y-97215000D01*
X135199600Y-96704000D02*
X135199600Y-97572000D01*
X134518600Y-93848000D02*
X134518600Y-95024000D01*
X135279600Y-96704000D02*
X135279600Y-97514000D01*
X134558600Y-93859000D02*
X134558600Y-95024000D01*
X134278600Y-93802000D02*
X134278600Y-95024000D01*
X136039600Y-95327000D02*
X136039600Y-96401000D01*
X134078600Y-96704000D02*
X134078600Y-97943000D01*
X135519600Y-94426000D02*
X135519600Y-95024000D01*
X135359600Y-94277000D02*
X135359600Y-95024000D01*
X134238600Y-93797000D02*
X134238600Y-95024000D01*
X135639600Y-94560000D02*
X135639600Y-97168000D01*
X133998600Y-93784000D02*
X133998600Y-95024000D01*
X134238600Y-96704000D02*
X134238600Y-97931000D01*
X135199600Y-94156000D02*
X135199600Y-95024000D01*
X134759600Y-93924000D02*
X134759600Y-95024000D01*
X134118600Y-93787000D02*
X134118600Y-95024000D01*
X134999600Y-94034000D02*
X134999600Y-95024000D01*
X135559600Y-96704000D02*
X135559600Y-97260000D01*
X134318600Y-96704000D02*
X134318600Y-97920000D01*
X135079600Y-94079000D02*
X135079600Y-95024000D01*
X135039600Y-94056000D02*
X135039600Y-95024000D01*
X134759600Y-96704000D02*
X134759600Y-97804000D01*
X135679600Y-94610000D02*
X135679600Y-97118000D01*
X135119600Y-94104000D02*
X135119600Y-95024000D01*
X135239600Y-94184000D02*
X135239600Y-95024000D01*
X135799600Y-94784000D02*
X135799600Y-96944000D01*
X135479600Y-96704000D02*
X135479600Y-97342000D01*
X136118600Y-95864000D02*
G75*
G03*
X136118600Y-95864000I-2120000J0D01*
G01*
%TO.C,R13*%
X188276000Y-92181867D02*
G75*
G03*
X189725359Y-92278905I700000J-417133D01*
G01*
%TO.C,U1*%
X137344000Y-87246000D02*
X137344000Y-97646000D01*
X147624000Y-87246000D02*
X137344000Y-87246000D01*
X137344000Y-97646000D02*
X147624000Y-97646000D01*
X145134000Y-97586000D02*
X145134000Y-87306000D01*
X145134000Y-87306000D02*
X139834000Y-87306000D01*
X147624000Y-97646000D02*
X147624000Y-87246000D01*
X143484000Y-97586000D02*
X145134000Y-97586000D01*
X139834000Y-87306000D02*
X139834000Y-97586000D01*
X139834000Y-97586000D02*
X141484000Y-97586000D01*
X143484000Y-97586000D02*
G75*
G03*
X141484000Y-97586000I-1000000J0D01*
G01*
%TO.C,R4*%
X144080000Y-104484867D02*
G75*
G03*
X145529359Y-104581905I700000J-417133D01*
G01*
%TO.C,C5*%
X156671000Y-103545323D02*
X153387000Y-103545323D01*
X154976000Y-105465323D02*
X149316000Y-105465323D01*
X150905000Y-102545323D02*
X147239000Y-102545323D01*
X157128000Y-102225323D02*
X147164000Y-102225323D01*
X156444000Y-103945323D02*
X153387000Y-103945323D01*
X155747000Y-104825323D02*
X153387000Y-104825323D01*
X154435000Y-105785323D02*
X149857000Y-105785323D01*
X156853000Y-103145323D02*
X153387000Y-103145323D01*
X156196000Y-104305323D02*
X153387000Y-104305323D01*
X150905000Y-104625323D02*
X148357000Y-104625323D01*
X156541000Y-103785323D02*
X153387000Y-103785323D01*
X155521000Y-96244677D02*
X154521000Y-96244677D01*
X150905000Y-104065323D02*
X147925000Y-104065323D01*
X156983000Y-102785323D02*
X153387000Y-102785323D01*
X155352000Y-105185323D02*
X148940000Y-105185323D01*
X155035000Y-105425323D02*
X149257000Y-105425323D01*
X154183000Y-105905323D02*
X150109000Y-105905323D01*
X156226000Y-104265323D02*
X153387000Y-104265323D01*
X155021000Y-95744677D02*
X155021000Y-96744677D01*
X156469000Y-103905323D02*
X153387000Y-103905323D01*
X150905000Y-104145323D02*
X147980000Y-104145323D01*
X156929000Y-102945323D02*
X153387000Y-102945323D01*
X150905000Y-103985323D02*
X147873000Y-103985323D01*
X150905000Y-104185323D02*
X148008000Y-104185323D01*
X153008000Y-106265323D02*
X151284000Y-106265323D01*
X156900000Y-103025323D02*
X153387000Y-103025323D01*
X150905000Y-103105323D02*
X147423000Y-103105323D01*
X155624000Y-104945323D02*
X153387000Y-104945323D01*
X150905000Y-103025323D02*
X147392000Y-103025323D01*
X157111000Y-102305323D02*
X147181000Y-102305323D01*
X150905000Y-104865323D02*
X148585000Y-104865323D01*
X155935000Y-104625323D02*
X153387000Y-104625323D01*
X150905000Y-103825323D02*
X147775000Y-103825323D01*
X157191000Y-101824323D02*
X147101000Y-101824323D01*
X150905000Y-103705323D02*
X147706000Y-103705323D01*
X156836000Y-103185323D02*
X153387000Y-103185323D01*
X150905000Y-103065323D02*
X147408000Y-103065323D01*
X157219000Y-101504323D02*
X147073000Y-101504323D01*
X154511000Y-105745323D02*
X149781000Y-105745323D01*
X155091000Y-105385323D02*
X149201000Y-105385323D01*
X153208000Y-106225323D02*
X151084000Y-106225323D01*
X156803000Y-103265323D02*
X153387000Y-103265323D01*
X150905000Y-104665323D02*
X148393000Y-104665323D01*
X156957000Y-102865323D02*
X153387000Y-102865323D01*
X150905000Y-104585323D02*
X148322000Y-104585323D01*
X150905000Y-104345323D02*
X148126000Y-104345323D01*
X156367000Y-104065323D02*
X153387000Y-104065323D01*
X150905000Y-102785323D02*
X147309000Y-102785323D01*
X155302000Y-105225323D02*
X148990000Y-105225323D01*
X150905000Y-102865323D02*
X147335000Y-102865323D01*
X150905000Y-103145323D02*
X147439000Y-103145323D01*
X156710000Y-103465323D02*
X153387000Y-103465323D01*
X157136000Y-102185323D02*
X147156000Y-102185323D01*
X157043000Y-102585323D02*
X153387000Y-102585323D01*
X155862000Y-104705323D02*
X153387000Y-104705323D01*
X150905000Y-102665323D02*
X147272000Y-102665323D01*
X157157000Y-102065323D02*
X147135000Y-102065323D01*
X156103000Y-104425323D02*
X153387000Y-104425323D01*
X150905000Y-104905323D02*
X148626000Y-104905323D01*
X156884000Y-103065323D02*
X153387000Y-103065323D01*
X156256000Y-104225323D02*
X153387000Y-104225323D01*
X150905000Y-104705323D02*
X148430000Y-104705323D01*
X156312000Y-104145323D02*
X153387000Y-104145323D01*
X150905000Y-102585323D02*
X147249000Y-102585323D01*
X150905000Y-103505323D02*
X147601000Y-103505323D01*
X157214000Y-101584323D02*
X147078000Y-101584323D01*
X150905000Y-103585323D02*
X147642000Y-103585323D01*
X150905000Y-103345323D02*
X147525000Y-103345323D01*
X157143000Y-102145323D02*
X147149000Y-102145323D01*
X150905000Y-104545323D02*
X148288000Y-104545323D01*
X155786000Y-104785323D02*
X153387000Y-104785323D01*
X150905000Y-102985323D02*
X147378000Y-102985323D01*
X150905000Y-104945323D02*
X148668000Y-104945323D01*
X157102000Y-102345323D02*
X147190000Y-102345323D01*
X150905000Y-102505323D02*
X147228000Y-102505323D01*
X156419000Y-103985323D02*
X153387000Y-103985323D01*
X157176000Y-101945323D02*
X147116000Y-101945323D01*
X156970000Y-102825323D02*
X153387000Y-102825323D01*
X155493000Y-105065323D02*
X148799000Y-105065323D01*
X156629000Y-103625323D02*
X153387000Y-103625323D01*
X150905000Y-104385323D02*
X148157000Y-104385323D01*
X154855000Y-105545323D02*
X149437000Y-105545323D01*
X150905000Y-103225323D02*
X147472000Y-103225323D01*
X150905000Y-103745323D02*
X147729000Y-103745323D01*
X157204000Y-101704323D02*
X147088000Y-101704323D01*
X157084000Y-102425323D02*
X147208000Y-102425323D01*
X153776000Y-106065323D02*
X150516000Y-106065323D01*
X157020000Y-102665323D02*
X153387000Y-102665323D01*
X157216000Y-101544323D02*
X147076000Y-101544323D01*
X157150000Y-102105323D02*
X147142000Y-102105323D01*
X157093000Y-102385323D02*
X147199000Y-102385323D01*
X157120000Y-102265323D02*
X147172000Y-102265323D01*
X150905000Y-104105323D02*
X147952000Y-104105323D01*
X155400000Y-105145323D02*
X148892000Y-105145323D01*
X155146000Y-105345323D02*
X149146000Y-105345323D01*
X155200000Y-105305323D02*
X149092000Y-105305323D01*
X153888000Y-106025323D02*
X150404000Y-106025323D01*
X150905000Y-104785323D02*
X148506000Y-104785323D01*
X156135000Y-104385323D02*
X153387000Y-104385323D01*
X150905000Y-103185323D02*
X147456000Y-103185323D01*
X154090000Y-105945323D02*
X150202000Y-105945323D01*
X154355000Y-105825323D02*
X149937000Y-105825323D01*
X156650000Y-103585323D02*
X153387000Y-103585323D01*
X150905000Y-103385323D02*
X147543000Y-103385323D01*
X156038000Y-104505323D02*
X153387000Y-104505323D01*
X150905000Y-104825323D02*
X148545000Y-104825323D01*
X150905000Y-102825323D02*
X147322000Y-102825323D01*
X156608000Y-103665323D02*
X153387000Y-103665323D01*
X156767000Y-103345323D02*
X153387000Y-103345323D01*
X150905000Y-102905323D02*
X147349000Y-102905323D01*
X157074000Y-102465323D02*
X147218000Y-102465323D01*
X150905000Y-102625323D02*
X147261000Y-102625323D01*
X156691000Y-103505323D02*
X153387000Y-103505323D01*
X156586000Y-103705323D02*
X153387000Y-103705323D01*
X155252000Y-105265323D02*
X149040000Y-105265323D01*
X150905000Y-103305323D02*
X147507000Y-103305323D01*
X156943000Y-102905323D02*
X153387000Y-102905323D01*
X156785000Y-103305323D02*
X153387000Y-103305323D01*
X154916000Y-105505323D02*
X149376000Y-105505323D01*
X156493000Y-103865323D02*
X153387000Y-103865323D01*
X154271000Y-105865323D02*
X150021000Y-105865323D01*
X150905000Y-104745323D02*
X148467000Y-104745323D01*
X150905000Y-103265323D02*
X147489000Y-103265323D01*
X153524000Y-106145323D02*
X150768000Y-106145323D01*
X155899000Y-104665323D02*
X153387000Y-104665323D01*
X156914000Y-102985323D02*
X153387000Y-102985323D01*
X157196000Y-101784323D02*
X147096000Y-101784323D01*
X156517000Y-103825323D02*
X153387000Y-103825323D01*
X150905000Y-103625323D02*
X147663000Y-103625323D01*
X157226000Y-101304323D02*
X147066000Y-101304323D01*
X157200000Y-101744323D02*
X147092000Y-101744323D01*
X155582000Y-104985323D02*
X148710000Y-104985323D01*
X150905000Y-103945323D02*
X147848000Y-103945323D01*
X150905000Y-103545323D02*
X147621000Y-103545323D01*
X157064000Y-102505323D02*
X153387000Y-102505323D01*
X157008000Y-102705323D02*
X153387000Y-102705323D01*
X153992000Y-105985323D02*
X150300000Y-105985323D01*
X156004000Y-104545323D02*
X153387000Y-104545323D01*
X157181000Y-101904323D02*
X147111000Y-101904323D01*
X157221000Y-101464323D02*
X147071000Y-101464323D01*
X156730000Y-103425323D02*
X153387000Y-103425323D01*
X154585000Y-105705323D02*
X149707000Y-105705323D01*
X156563000Y-103745323D02*
X153387000Y-103745323D01*
X156071000Y-104465323D02*
X153387000Y-104465323D01*
X155707000Y-104865323D02*
X153387000Y-104865323D01*
X150905000Y-104225323D02*
X148036000Y-104225323D01*
X157226000Y-101224323D02*
X147066000Y-101224323D01*
X157053000Y-102545323D02*
X153387000Y-102545323D01*
X156996000Y-102745323D02*
X153387000Y-102745323D01*
X150905000Y-102945323D02*
X147363000Y-102945323D01*
X150905000Y-104265323D02*
X148066000Y-104265323D01*
X154725000Y-105625323D02*
X149567000Y-105625323D01*
X150905000Y-103465323D02*
X147582000Y-103465323D01*
X156749000Y-103385323D02*
X153387000Y-103385323D01*
X153376000Y-106185323D02*
X150916000Y-106185323D01*
X157224000Y-101384323D02*
X147068000Y-101384323D01*
X150905000Y-103425323D02*
X147562000Y-103425323D01*
X150905000Y-103865323D02*
X147799000Y-103865323D01*
X157164000Y-102025323D02*
X147128000Y-102025323D01*
X156166000Y-104345323D02*
X153387000Y-104345323D01*
X156869000Y-103105323D02*
X153387000Y-103105323D01*
X154791000Y-105585323D02*
X149501000Y-105585323D01*
X156820000Y-103225323D02*
X153387000Y-103225323D01*
X152745000Y-106305323D02*
X151547000Y-106305323D01*
X150905000Y-104305323D02*
X148096000Y-104305323D01*
X155666000Y-104905323D02*
X153387000Y-104905323D01*
X157186000Y-101864323D02*
X147106000Y-101864323D01*
X156284000Y-104185323D02*
X153387000Y-104185323D01*
X153656000Y-106105323D02*
X150636000Y-106105323D01*
X157208000Y-101664323D02*
X147084000Y-101664323D01*
X150905000Y-104465323D02*
X148221000Y-104465323D01*
X156393000Y-104025323D02*
X153387000Y-104025323D01*
X150905000Y-104025323D02*
X147899000Y-104025323D01*
X150905000Y-102745323D02*
X147296000Y-102745323D01*
X157223000Y-101424323D02*
X147069000Y-101424323D01*
X157226000Y-101264323D02*
X147066000Y-101264323D01*
X150905000Y-103905323D02*
X147823000Y-103905323D01*
X150905000Y-104505323D02*
X148254000Y-104505323D01*
X157211000Y-101624323D02*
X147081000Y-101624323D01*
X155825000Y-104745323D02*
X153387000Y-104745323D01*
X157031000Y-102625323D02*
X153387000Y-102625323D01*
X157225000Y-101344323D02*
X147067000Y-101344323D01*
X150905000Y-104425323D02*
X148189000Y-104425323D01*
X150905000Y-103665323D02*
X147684000Y-103665323D01*
X155538000Y-105025323D02*
X148754000Y-105025323D01*
X156340000Y-104105323D02*
X153387000Y-104105323D01*
X155970000Y-104585323D02*
X153387000Y-104585323D01*
X155447000Y-105105323D02*
X148845000Y-105105323D01*
X150905000Y-102705323D02*
X147284000Y-102705323D01*
X150905000Y-103785323D02*
X147751000Y-103785323D01*
X154656000Y-105665323D02*
X149636000Y-105665323D01*
X157170000Y-101985323D02*
X147122000Y-101985323D01*
X157266000Y-101224323D02*
G75*
G03*
X157266000Y-101224323I-5120000J0D01*
G01*
%TO.C,R5*%
X170392810Y-103821000D02*
G75*
G03*
X170295772Y-105270359I-417133J-700000D01*
G01*
%TO.C,R14*%
X188276000Y-101833867D02*
G75*
G03*
X189725359Y-101930905I700000J-417133D01*
G01*
%TO.C,R10*%
X165394133Y-98487000D02*
G75*
G03*
X165297095Y-99936359I-417133J-700000D01*
G01*
%TO.C,R8*%
X160691732Y-92391000D02*
G75*
G03*
X160594694Y-93840359I-417133J-700000D01*
G01*
%TO.C,R6*%
X171540867Y-99506000D02*
G75*
G03*
X171637905Y-98056641I417133J700000D01*
G01*
%TO.C,C2*%
X155823599Y-92171000D02*
X154565599Y-92171000D01*
X155823599Y-94011000D02*
X154565599Y-94011000D01*
%TO.C,R7*%
X155725268Y-88076000D02*
G75*
G03*
X155822306Y-86626641I417133J700000D01*
G01*
%TO.C,R2*%
X133412000Y-88879867D02*
G75*
G03*
X134861359Y-88976905I700000J-417133D01*
G01*
%TO.C,R12*%
X174407133Y-95312000D02*
G75*
G03*
X174310095Y-96761359I-417133J-700000D01*
G01*
%TO.C,C11*%
X173887000Y-92183323D02*
X170405000Y-92183323D01*
X172804000Y-93863323D02*
X170405000Y-93863323D01*
X167923000Y-92983323D02*
X164841000Y-92983323D01*
X174194000Y-91023323D02*
X164134000Y-91023323D01*
X167923000Y-93943323D02*
X165603000Y-93943323D01*
X173302000Y-93263323D02*
X170405000Y-93263323D01*
X174071000Y-91623323D02*
X170405000Y-91623323D01*
X172539000Y-85322677D02*
X171539000Y-85322677D01*
X167923000Y-93423323D02*
X165144000Y-93423323D01*
X173385000Y-93143323D02*
X170405000Y-93143323D01*
X171108000Y-95023323D02*
X167220000Y-95023323D01*
X167923000Y-92743323D02*
X164702000Y-92743323D01*
X167923000Y-93583323D02*
X165272000Y-93583323D01*
X167923000Y-92103323D02*
X164410000Y-92103323D01*
X167923000Y-91623323D02*
X164257000Y-91623323D01*
X173089000Y-93543323D02*
X170405000Y-93543323D01*
X174014000Y-91823323D02*
X170405000Y-91823323D01*
X173535000Y-92903323D02*
X170405000Y-92903323D01*
X171201000Y-94983323D02*
X167127000Y-94983323D01*
X167923000Y-92223323D02*
X164457000Y-92223323D01*
X173975000Y-91943323D02*
X170405000Y-91943323D01*
X167923000Y-93103323D02*
X164917000Y-93103323D01*
X167923000Y-93343323D02*
X165084000Y-93343323D01*
X167923000Y-93623323D02*
X165306000Y-93623323D01*
X172642000Y-94023323D02*
X170405000Y-94023323D01*
X167923000Y-92583323D02*
X164619000Y-92583323D01*
X171934000Y-94583323D02*
X166394000Y-94583323D01*
X172600000Y-94063323D02*
X165728000Y-94063323D01*
X172556000Y-94103323D02*
X165772000Y-94103323D01*
X167923000Y-91943323D02*
X164353000Y-91943323D01*
X173511000Y-92943323D02*
X170405000Y-92943323D01*
X173462000Y-93023323D02*
X170405000Y-93023323D01*
X167923000Y-93743323D02*
X165411000Y-93743323D01*
X167923000Y-92863323D02*
X164769000Y-92863323D01*
X173022000Y-93623323D02*
X170405000Y-93623323D01*
X174226000Y-90742323D02*
X164102000Y-90742323D01*
X174111000Y-91463323D02*
X164217000Y-91463323D01*
X170906000Y-95103323D02*
X167422000Y-95103323D01*
X174026000Y-91783323D02*
X170405000Y-91783323D01*
X171603000Y-94783323D02*
X166725000Y-94783323D01*
X173559000Y-92863323D02*
X170405000Y-92863323D01*
X167923000Y-93663323D02*
X165340000Y-93663323D01*
X167923000Y-92703323D02*
X164681000Y-92703323D01*
X167923000Y-93223323D02*
X164998000Y-93223323D01*
X172370000Y-94263323D02*
X165958000Y-94263323D01*
X167923000Y-93463323D02*
X165175000Y-93463323D01*
X167923000Y-92943323D02*
X164817000Y-92943323D01*
X173854000Y-92263323D02*
X170405000Y-92263323D01*
X167923000Y-93183323D02*
X164970000Y-93183323D01*
X173902000Y-92143323D02*
X170405000Y-92143323D01*
X174061000Y-91663323D02*
X170405000Y-91663323D01*
X172164000Y-94423323D02*
X166164000Y-94423323D01*
X173947000Y-92023323D02*
X170405000Y-92023323D01*
X169763000Y-95383323D02*
X168565000Y-95383323D01*
X173961000Y-91983323D02*
X170405000Y-91983323D01*
X173748000Y-92503323D02*
X170405000Y-92503323D01*
X167923000Y-91983323D02*
X164367000Y-91983323D01*
X174038000Y-91743323D02*
X170405000Y-91743323D01*
X173767000Y-92463323D02*
X170405000Y-92463323D01*
X167923000Y-91663323D02*
X164267000Y-91663323D01*
X173184000Y-93423323D02*
X170405000Y-93423323D01*
X167923000Y-91743323D02*
X164290000Y-91743323D01*
X173918000Y-92103323D02*
X170405000Y-92103323D01*
X173932000Y-92063323D02*
X170405000Y-92063323D01*
X172988000Y-93663323D02*
X170405000Y-93663323D01*
X171873000Y-94623323D02*
X166455000Y-94623323D01*
X172953000Y-93703323D02*
X170405000Y-93703323D01*
X171453000Y-94863323D02*
X166875000Y-94863323D01*
X167923000Y-92783323D02*
X164724000Y-92783323D01*
X173604000Y-92783323D02*
X170405000Y-92783323D01*
X172880000Y-93783323D02*
X170405000Y-93783323D01*
X173785000Y-92423323D02*
X170405000Y-92423323D01*
X173487000Y-92983323D02*
X170405000Y-92983323D01*
X172418000Y-94223323D02*
X165910000Y-94223323D01*
X170542000Y-95223323D02*
X167786000Y-95223323D01*
X174092000Y-91543323D02*
X164236000Y-91543323D01*
X171994000Y-94543323D02*
X166334000Y-94543323D01*
X167923000Y-93703323D02*
X165375000Y-93703323D01*
X171809000Y-94663323D02*
X166519000Y-94663323D01*
X173988000Y-91903323D02*
X170405000Y-91903323D01*
X174209000Y-90902323D02*
X164119000Y-90902323D01*
X167923000Y-93543323D02*
X165239000Y-93543323D01*
X173803000Y-92383323D02*
X170405000Y-92383323D01*
X167923000Y-92823323D02*
X164747000Y-92823323D01*
X171289000Y-94943323D02*
X167039000Y-94943323D01*
X174242000Y-90462323D02*
X164086000Y-90462323D01*
X167923000Y-92343323D02*
X164507000Y-92343323D01*
X171373000Y-94903323D02*
X166955000Y-94903323D01*
X172684000Y-93983323D02*
X170405000Y-93983323D01*
X167923000Y-92463323D02*
X164561000Y-92463323D01*
X174049000Y-91703323D02*
X170405000Y-91703323D01*
X167923000Y-92263323D02*
X164474000Y-92263323D01*
X171529000Y-94823323D02*
X166799000Y-94823323D01*
X174001000Y-91863323D02*
X170405000Y-91863323D01*
X167923000Y-92063323D02*
X164396000Y-92063323D01*
X174239000Y-90542323D02*
X164089000Y-90542323D01*
X173647000Y-92703323D02*
X170405000Y-92703323D01*
X167923000Y-91863323D02*
X164327000Y-91863323D01*
X173214000Y-93383323D02*
X170405000Y-93383323D01*
X167923000Y-92023323D02*
X164381000Y-92023323D01*
X174154000Y-91263323D02*
X164174000Y-91263323D01*
X174182000Y-91103323D02*
X164146000Y-91103323D01*
X172465000Y-94183323D02*
X165863000Y-94183323D01*
X174120000Y-91423323D02*
X164208000Y-91423323D01*
X174161000Y-91223323D02*
X164167000Y-91223323D01*
X173838000Y-92303323D02*
X170405000Y-92303323D01*
X174082000Y-91583323D02*
X170405000Y-91583323D01*
X170226000Y-95303323D02*
X168102000Y-95303323D01*
X170394000Y-95263323D02*
X167934000Y-95263323D01*
X174199000Y-90982323D02*
X164129000Y-90982323D01*
X174244000Y-90302323D02*
X164084000Y-90302323D01*
X167923000Y-93143323D02*
X164943000Y-93143323D01*
X167923000Y-92423323D02*
X164543000Y-92423323D01*
X174168000Y-91183323D02*
X164160000Y-91183323D01*
X174129000Y-91383323D02*
X164199000Y-91383323D01*
X174241000Y-90502323D02*
X164087000Y-90502323D01*
X167923000Y-92663323D02*
X164660000Y-92663323D01*
X174204000Y-90942323D02*
X164124000Y-90942323D01*
X167923000Y-92503323D02*
X164580000Y-92503323D01*
X172053000Y-94503323D02*
X166275000Y-94503323D01*
X174222000Y-90782323D02*
X164106000Y-90782323D01*
X174102000Y-91503323D02*
X164226000Y-91503323D01*
X167923000Y-93023323D02*
X164866000Y-93023323D01*
X172917000Y-93743323D02*
X170405000Y-93743323D01*
X167923000Y-93263323D02*
X165026000Y-93263323D01*
X167923000Y-93383323D02*
X165114000Y-93383323D01*
X167923000Y-91823323D02*
X164314000Y-91823323D01*
X172843000Y-93823323D02*
X170405000Y-93823323D01*
X171743000Y-94703323D02*
X166585000Y-94703323D01*
X167923000Y-91903323D02*
X164340000Y-91903323D01*
X174237000Y-90582323D02*
X164091000Y-90582323D01*
X167923000Y-92383323D02*
X164525000Y-92383323D01*
X167923000Y-91783323D02*
X164302000Y-91783323D01*
X167923000Y-92183323D02*
X164441000Y-92183323D01*
X167923000Y-92623323D02*
X164639000Y-92623323D01*
X173244000Y-93343323D02*
X170405000Y-93343323D01*
X173626000Y-92743323D02*
X170405000Y-92743323D01*
X173728000Y-92543323D02*
X170405000Y-92543323D01*
X167923000Y-93823323D02*
X165485000Y-93823323D01*
X172511000Y-94143323D02*
X165817000Y-94143323D01*
X174229000Y-90702323D02*
X164099000Y-90702323D01*
X171674000Y-94743323D02*
X166654000Y-94743323D01*
X167923000Y-91703323D02*
X164279000Y-91703323D01*
X173581000Y-92823323D02*
X170405000Y-92823323D01*
X172109000Y-94463323D02*
X166219000Y-94463323D01*
X171010000Y-95063323D02*
X167318000Y-95063323D01*
X167923000Y-93063323D02*
X164891000Y-93063323D01*
X170026000Y-95343323D02*
X168302000Y-95343323D01*
X167923000Y-93863323D02*
X165524000Y-93863323D01*
X172725000Y-93943323D02*
X170405000Y-93943323D01*
X173358000Y-93183323D02*
X170405000Y-93183323D01*
X173709000Y-92583323D02*
X170405000Y-92583323D01*
X173821000Y-92343323D02*
X170405000Y-92343323D01*
X174244000Y-90342323D02*
X164084000Y-90342323D01*
X173274000Y-93303323D02*
X170405000Y-93303323D01*
X174146000Y-91303323D02*
X164182000Y-91303323D01*
X174244000Y-90382323D02*
X164084000Y-90382323D01*
X167923000Y-91583323D02*
X164246000Y-91583323D01*
X172039000Y-84822677D02*
X172039000Y-85822677D01*
X174218000Y-90822323D02*
X164110000Y-90822323D01*
X174188000Y-91063323D02*
X164140000Y-91063323D01*
X172765000Y-93903323D02*
X170405000Y-93903323D01*
X170674000Y-95183323D02*
X167654000Y-95183323D01*
X174232000Y-90662323D02*
X164096000Y-90662323D01*
X172320000Y-94303323D02*
X166008000Y-94303323D01*
X167923000Y-93903323D02*
X165563000Y-93903323D01*
X174243000Y-90422323D02*
X164085000Y-90422323D01*
X167923000Y-93983323D02*
X165644000Y-93983323D01*
X174175000Y-91143323D02*
X164153000Y-91143323D01*
X173689000Y-92623323D02*
X170405000Y-92623323D01*
X167923000Y-93503323D02*
X165207000Y-93503323D01*
X173411000Y-93103323D02*
X170405000Y-93103323D01*
X174214000Y-90862323D02*
X164114000Y-90862323D01*
X172218000Y-94383323D02*
X166110000Y-94383323D01*
X167923000Y-92303323D02*
X164490000Y-92303323D01*
X174234000Y-90622323D02*
X164094000Y-90622323D01*
X173668000Y-92663323D02*
X170405000Y-92663323D01*
X167923000Y-92543323D02*
X164600000Y-92543323D01*
X167923000Y-94023323D02*
X165686000Y-94023323D01*
X174138000Y-91343323D02*
X164190000Y-91343323D01*
X172270000Y-94343323D02*
X166058000Y-94343323D01*
X167923000Y-92143323D02*
X164426000Y-92143323D01*
X167923000Y-93783323D02*
X165448000Y-93783323D01*
X173056000Y-93583323D02*
X170405000Y-93583323D01*
X173121000Y-93503323D02*
X170405000Y-93503323D01*
X173437000Y-93063323D02*
X170405000Y-93063323D01*
X173871000Y-92223323D02*
X170405000Y-92223323D01*
X170794000Y-95143323D02*
X167534000Y-95143323D01*
X173330000Y-93223323D02*
X170405000Y-93223323D01*
X167923000Y-93303323D02*
X165054000Y-93303323D01*
X173153000Y-93463323D02*
X170405000Y-93463323D01*
X167923000Y-92903323D02*
X164793000Y-92903323D01*
X174284000Y-90302323D02*
G75*
G03*
X174284000Y-90302323I-5120000J0D01*
G01*
%TO.C,C10*%
X135625000Y-104823000D02*
X135625000Y-102663000D01*
X136345000Y-102903000D02*
X136345000Y-101958000D01*
X135505000Y-104602000D02*
X135505000Y-102884000D01*
X137266000Y-105817000D02*
X137266000Y-104583000D01*
X135745000Y-104997000D02*
X135745000Y-102489000D01*
X136185000Y-102903000D02*
X136185000Y-102063000D01*
X136906000Y-102903000D02*
X136906000Y-101727000D01*
X137186000Y-105810000D02*
X137186000Y-104583000D01*
X135545000Y-104683000D02*
X135545000Y-102803000D01*
X135985000Y-102903000D02*
X135985000Y-102227000D01*
X136345000Y-105528000D02*
X136345000Y-104583000D01*
X136786000Y-102903000D02*
X136786000Y-101761000D01*
X135865000Y-102903000D02*
X135865000Y-102347000D01*
X136145000Y-102903000D02*
X136145000Y-102093000D01*
X136265000Y-105478000D02*
X136265000Y-104583000D01*
X136105000Y-102903000D02*
X136105000Y-102124000D01*
X136305000Y-102903000D02*
X136305000Y-101983000D01*
X136265000Y-102903000D02*
X136265000Y-102008000D01*
X137026000Y-102903000D02*
X137026000Y-101701000D01*
X136225000Y-105451000D02*
X136225000Y-104583000D01*
X136866000Y-102903000D02*
X136866000Y-101738000D01*
X135905000Y-105181000D02*
X135905000Y-104583000D01*
X137386000Y-105823000D02*
X137386000Y-104583000D01*
X136705000Y-105697000D02*
X136705000Y-104583000D01*
X136465000Y-105594000D02*
X136465000Y-104583000D01*
X136105000Y-105362000D02*
X136105000Y-104583000D01*
X135665000Y-104885000D02*
X135665000Y-102601000D01*
X136305000Y-105503000D02*
X136305000Y-104583000D01*
X136705000Y-102903000D02*
X136705000Y-101789000D01*
X136866000Y-105748000D02*
X136866000Y-104583000D01*
X136385000Y-105551000D02*
X136385000Y-104583000D01*
X137346000Y-105822000D02*
X137346000Y-104583000D01*
X136545000Y-105632000D02*
X136545000Y-104583000D01*
X136425000Y-105573000D02*
X136425000Y-104583000D01*
X137386000Y-102903000D02*
X137386000Y-101663000D01*
X136585000Y-102903000D02*
X136585000Y-101836000D01*
X137066000Y-105793000D02*
X137066000Y-104583000D01*
X136826000Y-105737000D02*
X136826000Y-104583000D01*
X136986000Y-105777000D02*
X136986000Y-104583000D01*
X139695801Y-104938000D02*
X139295801Y-104938000D01*
X135705000Y-104943000D02*
X135705000Y-102543000D01*
X135945000Y-102903000D02*
X135945000Y-102265000D01*
X136505000Y-102903000D02*
X136505000Y-101873000D01*
X137346000Y-102903000D02*
X137346000Y-101664000D01*
X137186000Y-102903000D02*
X137186000Y-101676000D01*
X137266000Y-102903000D02*
X137266000Y-101669000D01*
X137306000Y-102903000D02*
X137306000Y-101666000D01*
X136946000Y-105768000D02*
X136946000Y-104583000D01*
X137146000Y-102903000D02*
X137146000Y-101681000D01*
X137146000Y-105805000D02*
X137146000Y-104583000D01*
X136225000Y-102903000D02*
X136225000Y-102035000D01*
X137106000Y-102903000D02*
X137106000Y-101687000D01*
X136465000Y-102903000D02*
X136465000Y-101892000D01*
X136505000Y-105613000D02*
X136505000Y-104583000D01*
X136025000Y-102903000D02*
X136025000Y-102191000D01*
X139495801Y-105138000D02*
X139495801Y-104738000D01*
X136385000Y-102903000D02*
X136385000Y-101935000D01*
X136625000Y-105667000D02*
X136625000Y-104583000D01*
X136665000Y-105683000D02*
X136665000Y-104583000D01*
X136746000Y-105711000D02*
X136746000Y-104583000D01*
X136185000Y-105423000D02*
X136185000Y-104583000D01*
X137066000Y-102903000D02*
X137066000Y-101693000D01*
X136906000Y-105759000D02*
X136906000Y-104583000D01*
X135905000Y-102903000D02*
X135905000Y-102305000D01*
X136665000Y-102903000D02*
X136665000Y-101803000D01*
X136585000Y-105650000D02*
X136585000Y-104583000D01*
X136946000Y-102903000D02*
X136946000Y-101718000D01*
X135385000Y-104280000D02*
X135385000Y-103206000D01*
X135825000Y-105094000D02*
X135825000Y-102392000D01*
X137226000Y-102903000D02*
X137226000Y-101672000D01*
X136065000Y-102903000D02*
X136065000Y-102156000D01*
X136826000Y-102903000D02*
X136826000Y-101749000D01*
X136145000Y-105393000D02*
X136145000Y-104583000D01*
X136986000Y-102903000D02*
X136986000Y-101709000D01*
X136625000Y-102903000D02*
X136625000Y-101819000D01*
X135345000Y-104113000D02*
X135345000Y-103373000D01*
X135425000Y-104407000D02*
X135425000Y-103079000D01*
X136025000Y-105295000D02*
X136025000Y-104583000D01*
X137426000Y-105823000D02*
X137426000Y-104583000D01*
X135785000Y-105047000D02*
X135785000Y-102439000D01*
X136065000Y-105330000D02*
X136065000Y-104583000D01*
X136746000Y-102903000D02*
X136746000Y-101775000D01*
X135585000Y-104756000D02*
X135585000Y-102730000D01*
X135945000Y-105221000D02*
X135945000Y-104583000D01*
X137106000Y-105799000D02*
X137106000Y-104583000D01*
X136545000Y-102903000D02*
X136545000Y-101854000D01*
X135985000Y-105259000D02*
X135985000Y-104583000D01*
X135865000Y-105139000D02*
X135865000Y-104583000D01*
X137306000Y-105820000D02*
X137306000Y-104583000D01*
X137226000Y-105814000D02*
X137226000Y-104583000D01*
X135465000Y-104511000D02*
X135465000Y-102975000D01*
X136786000Y-105725000D02*
X136786000Y-104583000D01*
X137026000Y-105785000D02*
X137026000Y-104583000D01*
X137426000Y-102903000D02*
X137426000Y-101663000D01*
X136425000Y-102903000D02*
X136425000Y-101913000D01*
X139546000Y-103743000D02*
G75*
G03*
X139546000Y-103743000I-2120000J0D01*
G01*
%TO.C,C1*%
X151890401Y-88744000D02*
X151890401Y-89584000D01*
X151329401Y-88456000D02*
X151329401Y-89584000D01*
X150649401Y-91264000D02*
X150649401Y-92504000D01*
X152450401Y-89344000D02*
X152450401Y-91504000D01*
X151089401Y-91264000D02*
X151089401Y-92458000D01*
X150889401Y-91264000D02*
X150889401Y-92491000D01*
X151850401Y-91264000D02*
X151850401Y-92132000D01*
X152010401Y-88837000D02*
X152010401Y-89584000D01*
X151690401Y-88616000D02*
X151690401Y-89584000D01*
X151209401Y-91264000D02*
X151209401Y-92429000D01*
X150849401Y-91264000D02*
X150849401Y-92495000D01*
X151049401Y-88382000D02*
X151049401Y-89584000D01*
X152490401Y-89411000D02*
X152490401Y-91437000D01*
X151089401Y-88390000D02*
X151089401Y-89584000D01*
X151049401Y-91264000D02*
X151049401Y-92466000D01*
X151169401Y-88408000D02*
X151169401Y-89584000D01*
X150969401Y-91264000D02*
X150969401Y-92480000D01*
X150649401Y-88344000D02*
X150649401Y-89584000D01*
X151570401Y-88554000D02*
X151570401Y-89584000D01*
X151450401Y-91264000D02*
X151450401Y-92348000D01*
X151810401Y-91264000D02*
X151810401Y-92159000D01*
X152130401Y-91264000D02*
X152130401Y-91902000D01*
X152090401Y-91264000D02*
X152090401Y-91940000D01*
X151490401Y-88517000D02*
X151490401Y-89584000D01*
X152650401Y-89760000D02*
X152650401Y-91088000D01*
X152210401Y-89028000D02*
X152210401Y-89584000D01*
X151009401Y-91264000D02*
X151009401Y-92474000D01*
X150889401Y-88357000D02*
X150889401Y-89584000D01*
X150769401Y-88347000D02*
X150769401Y-89584000D01*
X151610401Y-88573000D02*
X151610401Y-89584000D01*
X148379600Y-89229000D02*
X148779600Y-89229000D01*
X151289401Y-91264000D02*
X151289401Y-92406000D01*
X150929401Y-88362000D02*
X150929401Y-89584000D01*
X151249401Y-88430000D02*
X151249401Y-89584000D01*
X148579600Y-89029000D02*
X148579600Y-89429000D01*
X151810401Y-88689000D02*
X151810401Y-89584000D01*
X151690401Y-91264000D02*
X151690401Y-92232000D01*
X152250401Y-89073000D02*
X152250401Y-91775000D01*
X152530401Y-89484000D02*
X152530401Y-91364000D01*
X152570401Y-89565000D02*
X152570401Y-91283000D01*
X151570401Y-91264000D02*
X151570401Y-92294000D01*
X151930401Y-88774000D02*
X151930401Y-89584000D01*
X151650401Y-88594000D02*
X151650401Y-89584000D01*
X151410401Y-91264000D02*
X151410401Y-92364000D01*
X150689401Y-88344000D02*
X150689401Y-89584000D01*
X151770401Y-88664000D02*
X151770401Y-89584000D01*
X151009401Y-88374000D02*
X151009401Y-89584000D01*
X151970401Y-91264000D02*
X151970401Y-92043000D01*
X152290401Y-89120000D02*
X152290401Y-91728000D01*
X150809401Y-91264000D02*
X150809401Y-92498000D01*
X152610401Y-89656000D02*
X152610401Y-91192000D01*
X152370401Y-89224000D02*
X152370401Y-91624000D01*
X151209401Y-88419000D02*
X151209401Y-89584000D01*
X151329401Y-91264000D02*
X151329401Y-92392000D01*
X151410401Y-88484000D02*
X151410401Y-89584000D01*
X151169401Y-91264000D02*
X151169401Y-92440000D01*
X150849401Y-88353000D02*
X150849401Y-89584000D01*
X151129401Y-88399000D02*
X151129401Y-89584000D01*
X152170401Y-91264000D02*
X152170401Y-91862000D01*
X151970401Y-88805000D02*
X151970401Y-89584000D01*
X151249401Y-91264000D02*
X151249401Y-92418000D01*
X150929401Y-91264000D02*
X150929401Y-92486000D01*
X152210401Y-91264000D02*
X152210401Y-91820000D01*
X152050401Y-91264000D02*
X152050401Y-91976000D01*
X151610401Y-91264000D02*
X151610401Y-92275000D01*
X151770401Y-91264000D02*
X151770401Y-92184000D01*
X151450401Y-88500000D02*
X151450401Y-89584000D01*
X151370401Y-91264000D02*
X151370401Y-92378000D01*
X152330401Y-89170000D02*
X152330401Y-91678000D01*
X151530401Y-91264000D02*
X151530401Y-92313000D01*
X151730401Y-88639000D02*
X151730401Y-89584000D01*
X151650401Y-91264000D02*
X151650401Y-92254000D01*
X152170401Y-88986000D02*
X152170401Y-89584000D01*
X151530401Y-88535000D02*
X151530401Y-89584000D01*
X152410401Y-89282000D02*
X152410401Y-91566000D01*
X150729401Y-91264000D02*
X150729401Y-92503000D01*
X151850401Y-88716000D02*
X151850401Y-89584000D01*
X150809401Y-88350000D02*
X150809401Y-89584000D01*
X151129401Y-91264000D02*
X151129401Y-92449000D01*
X151490401Y-91264000D02*
X151490401Y-92331000D01*
X150969401Y-88368000D02*
X150969401Y-89584000D01*
X151289401Y-88442000D02*
X151289401Y-89584000D01*
X150769401Y-91264000D02*
X150769401Y-92501000D01*
X151730401Y-91264000D02*
X151730401Y-92209000D01*
X152690401Y-89887000D02*
X152690401Y-90961000D01*
X151370401Y-88470000D02*
X151370401Y-89584000D01*
X150689401Y-91264000D02*
X150689401Y-92504000D01*
X152130401Y-88946000D02*
X152130401Y-89584000D01*
X152010401Y-91264000D02*
X152010401Y-92011000D01*
X152050401Y-88872000D02*
X152050401Y-89584000D01*
X151890401Y-91264000D02*
X151890401Y-92104000D01*
X150729401Y-88345000D02*
X150729401Y-89584000D01*
X151930401Y-91264000D02*
X151930401Y-92074000D01*
X152730401Y-90054000D02*
X152730401Y-90794000D01*
X152090401Y-88908000D02*
X152090401Y-89584000D01*
X152769401Y-90424000D02*
G75*
G03*
X152769401Y-90424000I-2120000J0D01*
G01*
%TO.C,R9*%
X165374133Y-103948000D02*
G75*
G03*
X165277095Y-105397359I-417133J-700000D01*
G01*
%TD*%
M02*
