%TF.GenerationSoftware,KiCad,Pcbnew,(6.0.0-0)*%
%TF.CreationDate,2023-11-25T11:43:55-05:00*%
%TF.ProjectId,pinker2,70696e6b-6572-4322-9e6b-696361645f70,rev?*%
%TF.SameCoordinates,Original*%
%TF.FileFunction,Copper,L2,Bot*%
%TF.FilePolarity,Positive*%
%FSLAX46Y46*%
G04 Gerber Fmt 4.6, Leading zero omitted, Abs format (unit mm)*
G04 Created by KiCad (PCBNEW (6.0.0-0)) date 2023-11-25 11:43:55*
%MOMM*%
%LPD*%
G01*
G04 APERTURE LIST*
%TA.AperFunction,NonConductor*%
%ADD10C,0.200000*%
%TD*%
%TA.AperFunction,ComponentPad*%
%ADD11C,1.440000*%
%TD*%
%TA.AperFunction,ComponentPad*%
%ADD12R,1.600000X1.600000*%
%TD*%
%TA.AperFunction,ComponentPad*%
%ADD13O,1.600000X1.600000*%
%TD*%
%TA.AperFunction,ComponentPad*%
%ADD14C,1.400000*%
%TD*%
%TA.AperFunction,ComponentPad*%
%ADD15O,1.400000X1.400000*%
%TD*%
%TA.AperFunction,ComponentPad*%
%ADD16C,3.400000*%
%TD*%
%TA.AperFunction,ComponentPad*%
%ADD17C,2.900000*%
%TD*%
%TA.AperFunction,ComponentPad*%
%ADD18C,1.600000*%
%TD*%
%TA.AperFunction,ComponentPad*%
%ADD19R,1.050000X1.500000*%
%TD*%
%TA.AperFunction,ComponentPad*%
%ADD20O,1.050000X1.500000*%
%TD*%
%TA.AperFunction,ComponentPad*%
%ADD21R,2.000000X2.000000*%
%TD*%
%TA.AperFunction,ComponentPad*%
%ADD22C,2.000000*%
%TD*%
%TA.AperFunction,ComponentPad*%
%ADD23R,1.200000X1.200000*%
%TD*%
%TA.AperFunction,ComponentPad*%
%ADD24C,1.200000*%
%TD*%
%TA.AperFunction,Conductor*%
%ADD25C,0.400000*%
%TD*%
G04 APERTURE END LIST*
D10*
X124714000Y-84582000D02*
X196088000Y-84582000D01*
X196088000Y-84582000D02*
X196088000Y-108204000D01*
X196088000Y-108204000D02*
X124714000Y-108204000D01*
X124714000Y-108204000D02*
X124714000Y-84582000D01*
D11*
%TO.P,R17,1,1*%
%TO.N,Net-(C10-Pad2)*%
X132080000Y-100076000D03*
%TO.P,R17,2,2*%
X129540000Y-102616000D03*
%TO.P,R17,3,3*%
%TO.N,Earth*%
X127000000Y-100076000D03*
%TD*%
D12*
%TO.P,U1,1*%
%TO.N,Net-(R10-Pad2)*%
X146040000Y-94478000D03*
D13*
%TO.P,U1,5,+*%
%TO.N,Net-(C9-Pad2)*%
X138420000Y-86858000D03*
%TO.P,U1,2,-*%
%TO.N,Net-(C2-Pad2)*%
X146040000Y-91938000D03*
%TO.P,U1,6,-*%
%TO.N,Net-(R3-Pad2)*%
X138420000Y-89398000D03*
%TO.P,U1,3,+*%
%TO.N,Net-(C11-Pad1)*%
X146040000Y-89398000D03*
%TO.P,U1,7*%
%TO.N,Net-(C1-Pad1)*%
X138420000Y-91938000D03*
%TO.P,U1,4,V-*%
%TO.N,Earth*%
X146040000Y-86858000D03*
%TO.P,U1,8,V+*%
%TO.N,Net-(C5-Pad2)*%
X138420000Y-94478000D03*
%TD*%
D14*
%TO.P,R11,1*%
%TO.N,Net-(C2-Pad2)*%
X160024000Y-87503000D03*
D15*
%TO.P,R11,2*%
%TO.N,Net-(R10-Pad2)*%
X161924000Y-87503000D03*
%TD*%
D16*
%TO.P,J1,1*%
%TO.N,Earth*%
X193810000Y-100330000D03*
%TO.P,J1,2*%
%TO.N,Net-(C6-Pad1)*%
X193810000Y-92710000D03*
D17*
%TO.P,J1,3*%
%TO.N,Net-(C8-Pad1)*%
X193810000Y-96520000D03*
%TO.P,J1,G*%
%TO.N,N/C*%
X198890000Y-96520000D03*
%TD*%
D14*
%TO.P,R3,1*%
%TO.N,Net-(C10-Pad1)*%
X139954000Y-102251000D03*
D15*
%TO.P,R3,2*%
%TO.N,Net-(R3-Pad2)*%
X139954000Y-100351000D03*
%TD*%
D18*
%TO.P,C3,1*%
%TO.N,Net-(C3-Pad1)*%
X161329401Y-104648000D03*
%TO.P,C3,2*%
%TO.N,Net-(C2-Pad2)*%
X158829401Y-104648000D03*
%TD*%
D19*
%TO.P,Q1,1,C*%
%TO.N,unconnected-(Q1-Pad1)*%
X126746000Y-93451000D03*
D20*
%TO.P,Q1,2,B*%
%TO.N,Earth*%
X128016000Y-93451000D03*
%TO.P,Q1,3,E*%
%TO.N,Net-(C9-Pad1)*%
X129286000Y-93451000D03*
%TD*%
D14*
%TO.P,R15,1*%
%TO.N,Earth*%
X189881000Y-106426000D03*
D15*
%TO.P,R15,2*%
%TO.N,Net-(C8-Pad2)*%
X187981000Y-106426000D03*
%TD*%
D14*
%TO.P,R1,1*%
%TO.N,Net-(C9-Pad1)*%
X128016000Y-87646000D03*
D15*
%TO.P,R1,2*%
%TO.N,Net-(C5-Pad2)*%
X128016000Y-85746000D03*
%TD*%
D21*
%TO.P,C8,1*%
%TO.N,Net-(C8-Pad1)*%
X180086000Y-99740323D03*
D22*
%TO.P,C8,2*%
%TO.N,Net-(C8-Pad2)*%
X180086000Y-104740323D03*
%TD*%
D21*
%TO.P,C6,1*%
%TO.N,Net-(C6-Pad1)*%
X182707677Y-89916000D03*
D22*
%TO.P,C6,2*%
%TO.N,Net-(C6-Pad2)*%
X177707677Y-89916000D03*
%TD*%
D18*
%TO.P,C7,1*%
%TO.N,Earth*%
X188976000Y-95901000D03*
%TO.P,C7,2*%
%TO.N,Net-(C5-Pad2)*%
X188976000Y-98401000D03*
%TD*%
%TO.P,C4,1*%
%TO.N,Net-(C4-Pad1)*%
X161437000Y-98933000D03*
%TO.P,C4,2*%
%TO.N,Net-(C2-Pad2)*%
X158937000Y-98933000D03*
%TD*%
D23*
%TO.P,C9,1*%
%TO.N,Net-(C9-Pad1)*%
X132994600Y-93197000D03*
D24*
%TO.P,C9,2*%
%TO.N,Net-(C9-Pad2)*%
X134494600Y-93197000D03*
%TD*%
D14*
%TO.P,R13,1*%
%TO.N,Net-(C5-Pad2)*%
X188976000Y-93361000D03*
D15*
%TO.P,R13,2*%
%TO.N,Net-(C6-Pad1)*%
X188976000Y-91461000D03*
%TD*%
D14*
%TO.P,R4,1*%
%TO.N,Net-(R3-Pad2)*%
X143510000Y-102251000D03*
D15*
%TO.P,R4,2*%
%TO.N,Net-(C1-Pad1)*%
X143510000Y-100351000D03*
%TD*%
D21*
%TO.P,C5,1*%
%TO.N,Earth*%
X152146000Y-98724323D03*
D22*
%TO.P,C5,2*%
%TO.N,Net-(C5-Pad2)*%
X152146000Y-103724323D03*
%TD*%
D14*
%TO.P,R5,1*%
%TO.N,Net-(C11-Pad1)*%
X169975677Y-104521000D03*
D15*
%TO.P,R5,2*%
%TO.N,Net-(C5-Pad2)*%
X171875677Y-104521000D03*
%TD*%
D14*
%TO.P,R14,1*%
%TO.N,Net-(C5-Pad2)*%
X188976000Y-102648000D03*
D15*
%TO.P,R14,2*%
%TO.N,Net-(C8-Pad1)*%
X188976000Y-100748000D03*
%TD*%
D14*
%TO.P,R10,1*%
%TO.N,Net-(C4-Pad1)*%
X164977000Y-99187000D03*
D15*
%TO.P,R10,2*%
%TO.N,Net-(R10-Pad2)*%
X166877000Y-99187000D03*
%TD*%
D14*
%TO.P,R8,1*%
%TO.N,Net-(C2-Pad1)*%
X160274599Y-93091000D03*
D15*
%TO.P,R8,2*%
%TO.N,Net-(R10-Pad2)*%
X162174599Y-93091000D03*
%TD*%
D14*
%TO.P,R6,1*%
%TO.N,Earth*%
X171958000Y-98806000D03*
D15*
%TO.P,R6,2*%
%TO.N,Net-(C11-Pad1)*%
X170058000Y-98806000D03*
%TD*%
D18*
%TO.P,C2,1*%
%TO.N,Net-(C2-Pad1)*%
X156444599Y-93091000D03*
%TO.P,C2,2*%
%TO.N,Net-(C2-Pad2)*%
X153944599Y-93091000D03*
%TD*%
D14*
%TO.P,R7,1*%
%TO.N,Net-(C2-Pad2)*%
X156142401Y-87376000D03*
D15*
%TO.P,R7,2*%
%TO.N,Net-(C1-Pad2)*%
X154242401Y-87376000D03*
%TD*%
D14*
%TO.P,R2,1*%
%TO.N,Net-(C9-Pad2)*%
X133858000Y-87519000D03*
D15*
%TO.P,R2,2*%
%TO.N,Net-(C11-Pad1)*%
X133858000Y-85619000D03*
%TD*%
D14*
%TO.P,R12,1*%
%TO.N,Net-(R10-Pad2)*%
X187563000Y-87122000D03*
D15*
%TO.P,R12,2*%
%TO.N,Net-(C6-Pad2)*%
X189463000Y-87122000D03*
%TD*%
D21*
%TO.P,C11,1*%
%TO.N,Net-(C11-Pad1)*%
X169164000Y-87802323D03*
D22*
%TO.P,C11,2*%
%TO.N,Earth*%
X169164000Y-92802323D03*
%TD*%
D24*
%TO.P,C10,2*%
%TO.N,Net-(C10-Pad2)*%
X135406000Y-101092000D03*
D23*
%TO.P,C10,1*%
%TO.N,Net-(C10-Pad1)*%
X136906000Y-101092000D03*
%TD*%
%TO.P,C1,1*%
%TO.N,Net-(C1-Pad1)*%
X149899401Y-90424000D03*
D24*
%TO.P,C1,2*%
%TO.N,Net-(C1-Pad2)*%
X151399401Y-90424000D03*
%TD*%
D14*
%TO.P,R9,1*%
%TO.N,Net-(C3-Pad1)*%
X164957000Y-104648000D03*
D15*
%TO.P,R9,2*%
%TO.N,Net-(R10-Pad2)*%
X166857000Y-104648000D03*
%TD*%
D25*
%TO.N,Net-(R10-Pad2)*%
X187563000Y-87122000D02*
X178628534Y-87122000D01*
X178628534Y-87122000D02*
X166877000Y-98873534D01*
X166877000Y-98873534D02*
X166877000Y-99187000D01*
%TO.N,Earth*%
X152146000Y-98724323D02*
X153061834Y-97808489D01*
X164157834Y-97808489D02*
X169164000Y-92802323D01*
X153061834Y-97808489D02*
X164157834Y-97808489D01*
%TO.N,Net-(C11-Pad1)*%
X169164000Y-87802323D02*
X167568323Y-89398000D01*
X167568323Y-89398000D02*
X146040000Y-89398000D01*
%TO.N,Net-(C2-Pad2)*%
X153944599Y-93091000D02*
X147193000Y-93091000D01*
X147193000Y-93091000D02*
X146040000Y-91938000D01*
%TO.N,Net-(R10-Pad2)*%
X146040000Y-94478000D02*
X160787599Y-94478000D01*
X160787599Y-94478000D02*
X162174599Y-93091000D01*
%TO.N,Net-(C1-Pad1)*%
X143510000Y-93726000D02*
X142494000Y-92710000D01*
X142494000Y-92710000D02*
X141722000Y-91938000D01*
X149899401Y-90424000D02*
X149800890Y-90522511D01*
X149800890Y-90522511D02*
X144681489Y-90522511D01*
X144681489Y-90522511D02*
X142494000Y-92710000D01*
%TO.N,Net-(C9-Pad2)*%
X133858000Y-87519000D02*
X134494600Y-88155600D01*
X134494600Y-88155600D02*
X134494600Y-93197000D01*
%TO.N,Earth*%
X128016000Y-93451000D02*
X128016000Y-89094878D01*
X128016000Y-89094878D02*
X132516389Y-84594489D01*
X132516389Y-84594489D02*
X143776489Y-84594489D01*
X143776489Y-84594489D02*
X146040000Y-86858000D01*
%TO.N,Net-(R3-Pad2)*%
X139954000Y-100351000D02*
X139954000Y-99060000D01*
X139954000Y-99060000D02*
X136652000Y-95758000D01*
X136652000Y-95758000D02*
X136652000Y-91166000D01*
X136652000Y-91166000D02*
X138420000Y-89398000D01*
%TO.N,Net-(C1-Pad1)*%
X143510000Y-100351000D02*
X143510000Y-93726000D01*
X141722000Y-91938000D02*
X138420000Y-91938000D01*
%TO.N,Earth*%
X188976000Y-95901000D02*
X193405000Y-100330000D01*
X193405000Y-100330000D02*
X193810000Y-100330000D01*
%TO.N,Net-(C5-Pad2)*%
X188976000Y-98401000D02*
X187951489Y-99425511D01*
X187951489Y-99425511D02*
X187951489Y-101623489D01*
X187951489Y-101623489D02*
X188976000Y-102648000D01*
%TD*%
M02*
