<?xml version="1.0" standalone="no"?>
 <!DOCTYPE svg PUBLIC "-//W3C//DTD SVG 1.1//EN" 
 "http://www.w3.org/Graphics/SVG/1.1/DTD/svg11.dtd"> 
<svg
  xmlns:svg="http://www.w3.org/2000/svg"
  xmlns="http://www.w3.org/2000/svg"
  xmlns:xlink="http://www.w3.org/1999/xlink"
  version="1.1"
  width="29.700220cm" height="21.000720cm" viewBox="0 0 297002200 210007200">
<title>SVG Picture created as pinker2-F_Silkscreen.svg date 2023/11/23 13:49:20 </title>
  <desc>Picture generated by PCBNEW </desc>
<g style="fill:#000000; fill-opacity:1.000000;stroke:#000000; stroke-opacity:1.000000;
stroke-linecap:round; stroke-linejoin:round;"
 transform="translate(0 0) scale(1 1)">
</g>
<g style="fill:#000000; fill-opacity:0.0; 
stroke:#000000; stroke-width:0.000000; stroke-opacity:1; 
stroke-linecap:round; stroke-linejoin:round;">
</g>
<g style="fill:#000000; fill-opacity:0.0; 
stroke:#000000; stroke-width:150000.000000; stroke-opacity:1; 
stroke-linecap:round; stroke-linejoin:round;">
<text x="145816000.000000" y="97673000.000000"
textLength="2212381.000000" font-size="1333333.000000" lengthAdjust="spacingAndGlyphs"
text-anchor="middle" opacity="0">C4</text>
<g class="stroked-text"><desc>C4</desc>
<path d="M145649333 97530142
L145601714 97577761
L145458857 97625380
L145363619 97625380
L145220761 97577761
L145125523 97482523
L145077904 97387285
L145030285 97196809
L145030285 97053952
L145077904 96863476
L145125523 96768238
L145220761 96673000
L145363619 96625380
L145458857 96625380
L145601714 96673000
L145649333 96720619
" />
<path d="M146506476 96958714
L146506476 97625380
" />
<path d="M146268380 96577761
L146030285 97292047
L146649333 97292047
" />
</g><text x="145816000.000000" y="103388000.000000"
textLength="2147381.000000" font-size="1333333.000000" lengthAdjust="spacingAndGlyphs"
text-anchor="middle" opacity="0">C3</text>
<g class="stroked-text"><desc>C3</desc>
<path d="M145649333 103245142
L145601714 103292761
L145458857 103340380
L145363619 103340380
L145220761 103292761
L145125523 103197523
L145077904 103102285
L145030285 102911809
L145030285 102768952
L145077904 102578476
L145125523 102483238
L145220761 102388000
L145363619 102340380
L145458857 102340380
L145601714 102388000
L145649333 102435619
" />
<path d="M145982666 102340380
L146601714 102340380
L146268380 102721333
L146411238 102721333
L146506476 102768952
L146554095 102816571
L146601714 102911809
L146601714 103149904
L146554095 103245142
L146506476 103292761
L146411238 103340380
L146125523 103340380
L146030285 103292761
L145982666 103245142
" />
</g><text x="145816000.000000" y="91958000.000000"
textLength="2147381.000000" font-size="1333333.000000" lengthAdjust="spacingAndGlyphs"
text-anchor="middle" opacity="0">C2</text>
<g class="stroked-text"><desc>C2</desc>
<path d="M145649333 91815142
L145601714 91862761
L145458857 91910380
L145363619 91910380
L145220761 91862761
L145125523 91767523
L145077904 91672285
L145030285 91481809
L145030285 91338952
L145077904 91148476
L145125523 91053238
L145220761 90958000
L145363619 90910380
L145458857 90910380
L145601714 90958000
L145649333 91005619
" />
<path d="M146030285 91005619
L146077904 90958000
L146173142 90910380
L146411238 90910380
L146506476 90958000
L146554095 91005619
L146601714 91100857
L146601714 91196095
L146554095 91338952
L145982666 91910380
L146601714 91910380
" />
</g><text x="68580000.000000" y="77645000.000000"
textLength="3099762.000000" font-size="1333333.000000" lengthAdjust="spacingAndGlyphs"
text-anchor="middle" opacity="0">R17</text>
<g class="stroked-text"><desc>R17</desc>
<path d="M67937142 77597380
L67603809 77121190
" />
<path d="M67365714 77597380
L67365714 76597380
L67746666 76597380
L67841904 76645000
L67889523 76692619
L67937142 76787857
L67937142 76930714
L67889523 77025952
L67841904 77073571
L67746666 77121190
L67365714 77121190
" />
<path d="M68889523 77597380
L68318095 77597380
" />
<path d="M68603809 77597380
L68603809 76597380
L68508571 76740238
L68413333 76835476
L68318095 76883095
" />
<path d="M69222857 76597380
L69889523 76597380
L69460952 77597380
" />
</g><text x="187010000.000000" y="106560000.000000"
textLength="3099762.000000" font-size="1333333.000000" lengthAdjust="spacingAndGlyphs"
text-anchor="middle" opacity="0">R15</text>
<g class="stroked-text"><desc>R15</desc>
<path d="M186367142 106512380
L186033809 106036190
" />
<path d="M185795714 106512380
L185795714 105512380
L186176666 105512380
L186271904 105560000
L186319523 105607619
L186367142 105702857
L186367142 105845714
L186319523 105940952
L186271904 105988571
L186176666 106036190
L185795714 106036190
" />
<path d="M187319523 106512380
L186748095 106512380
" />
<path d="M187033809 106512380
L187033809 105512380
L186938571 105655238
L186843333 105750476
L186748095 105798095
" />
<path d="M188224285 105512380
L187748095 105512380
L187700476 105988571
L187748095 105940952
L187843333 105893333
L188081428 105893333
L188176666 105940952
L188224285 105988571
L188271904 106083809
L188271904 106321904
L188224285 106417142
L188176666 106464761
L188081428 106512380
L187843333 106512380
L187748095 106464761
L187700476 106417142
" />
</g><g transform="rotate(-90.000000 190515000.000000 94660000.000000)">
<text x="190515000.000000" y="95160000.000000"
textLength="3099762.000000" font-size="1333333.000000" lengthAdjust="spacingAndGlyphs"
text-anchor="middle" opacity="0">R14</text>
</g>
<g class="stroked-text"><desc>R14</desc>
<path d="M190967380 95302857
L190491190 95636190
" />
<path d="M190967380 95874285
L189967380 95874285
L189967380 95493333
L190015000 95398095
L190062619 95350476
L190157857 95302857
L190300714 95302857
L190395952 95350476
L190443571 95398095
L190491190 95493333
L190491190 95874285
" />
<path d="M190967380 94350476
L190967380 94921904
" />
<path d="M190967380 94636190
L189967380 94636190
L190110238 94731428
L190205476 94826666
L190253095 94921904
" />
<path d="M190300714 93493333
L190967380 93493333
" />
<path d="M189919761 93731428
L190634047 93969523
L190634047 93350476
" />
</g><g transform="rotate(-90.000000 190515000.000000 99105000.000000)">
<text x="190515000.000000" y="99605000.000000"
textLength="3099762.000000" font-size="1333333.000000" lengthAdjust="spacingAndGlyphs"
text-anchor="middle" opacity="0">R13</text>
</g>
<g class="stroked-text"><desc>R13</desc>
<path d="M190967380 99747857
L190491190 100081190
" />
<path d="M190967380 100319285
L189967380 100319285
L189967380 99938333
L190015000 99843095
L190062619 99795476
L190157857 99747857
L190300714 99747857
L190395952 99795476
L190443571 99843095
L190491190 99938333
L190491190 100319285
" />
<path d="M190967380 98795476
L190967380 99366904
" />
<path d="M190967380 99081190
L189967380 99081190
L190110238 99176428
L190205476 99271666
L190253095 99366904
" />
<path d="M189967380 98462142
L189967380 97843095
L190348333 98176428
L190348333 98033571
L190395952 97938333
L190443571 97890714
L190538809 97843095
L190776904 97843095
L190872142 97890714
L190919761 97938333
L190967380 98033571
L190967380 98319285
L190919761 98414523
L190872142 98462142
" />
</g><g transform="rotate(-90.000000 168895000.000000 105725000.000000)">
<text x="168895000.000000" y="106225000.000000"
textLength="3099762.000000" font-size="1333333.000000" lengthAdjust="spacingAndGlyphs"
text-anchor="middle" opacity="0">R12</text>
</g>
<g class="stroked-text"><desc>R12</desc>
<path d="M169347380 106367857
L168871190 106701190
" />
<path d="M169347380 106939285
L168347380 106939285
L168347380 106558333
L168395000 106463095
L168442619 106415476
L168537857 106367857
L168680714 106367857
L168775952 106415476
L168823571 106463095
L168871190 106558333
L168871190 106939285
" />
<path d="M169347380 105415476
L169347380 105986904
" />
<path d="M169347380 105701190
L168347380 105701190
L168490238 105796428
L168585476 105891666
L168633095 105986904
" />
<path d="M168442619 105034523
L168395000 104986904
L168347380 104891666
L168347380 104653571
L168395000 104558333
L168442619 104510714
L168537857 104463095
L168633095 104463095
L168775952 104510714
L169347380 105082142
L169347380 104463095
" />
</g><text x="151556000.000000" y="105133000.000000"
textLength="3099762.000000" font-size="1333333.000000" lengthAdjust="spacingAndGlyphs"
text-anchor="middle" opacity="0">R11</text>
<g class="stroked-text"><desc>R11</desc>
<path d="M150913142 105085380
L150579809 104609190
" />
<path d="M150341714 105085380
L150341714 104085380
L150722666 104085380
L150817904 104133000
L150865523 104180619
L150913142 104275857
L150913142 104418714
L150865523 104513952
L150817904 104561571
L150722666 104609190
L150341714 104609190
" />
<path d="M151865523 105085380
L151294095 105085380
" />
<path d="M151579809 105085380
L151579809 104085380
L151484571 104228238
L151389333 104323476
L151294095 104371095
" />
<path d="M152817904 105085380
L152246476 105085380
" />
<path d="M152532190 105085380
L152532190 104085380
L152436952 104228238
L152341714 104323476
L152246476 104371095
" />
</g><text x="151556000.000000" y="93703000.000000"
textLength="3099762.000000" font-size="1333333.000000" lengthAdjust="spacingAndGlyphs"
text-anchor="middle" opacity="0">R10</text>
<g class="stroked-text"><desc>R10</desc>
<path d="M150913142 93655380
L150579809 93179190
" />
<path d="M150341714 93655380
L150341714 92655380
L150722666 92655380
L150817904 92703000
L150865523 92750619
L150913142 92845857
L150913142 92988714
L150865523 93083952
L150817904 93131571
L150722666 93179190
L150341714 93179190
" />
<path d="M151865523 93655380
L151294095 93655380
" />
<path d="M151579809 93655380
L151579809 92655380
L151484571 92798238
L151389333 92893476
L151294095 92941095
" />
<path d="M152484571 92655380
L152579809 92655380
L152675047 92703000
L152722666 92750619
L152770285 92845857
L152817904 93036333
L152817904 93274428
L152770285 93464904
L152722666 93560142
L152675047 93607761
L152579809 93655380
L152484571 93655380
L152389333 93607761
L152341714 93560142
L152294095 93464904
L152246476 93274428
L152246476 93036333
L152294095 92845857
L152341714 92750619
L152389333 92703000
L152484571 92655380
" />
</g><text x="151536000.000000" y="99418000.000000"
textLength="2147381.000000" font-size="1333333.000000" lengthAdjust="spacingAndGlyphs"
text-anchor="middle" opacity="0">R9</text>
<g class="stroked-text"><desc>R9</desc>
<path d="M151369333 99370380
L151036000 98894190
" />
<path d="M150797904 99370380
L150797904 98370380
L151178857 98370380
L151274095 98418000
L151321714 98465619
L151369333 98560857
L151369333 98703714
L151321714 98798952
L151274095 98846571
L151178857 98894190
L150797904 98894190
" />
<path d="M151845523 99370380
L152036000 99370380
L152131238 99322761
L152178857 99275142
L152274095 99132285
L152321714 98941809
L152321714 98560857
L152274095 98465619
L152226476 98418000
L152131238 98370380
L151940761 98370380
L151845523 98418000
L151797904 98465619
L151750285 98560857
L151750285 98798952
L151797904 98894190
L151845523 98941809
L151940761 98989428
L152131238 98989428
L152226476 98941809
L152274095 98894190
L152321714 98798952
" />
</g><text x="151846000.000000" y="87988000.000000"
textLength="2147381.000000" font-size="1333333.000000" lengthAdjust="spacingAndGlyphs"
text-anchor="middle" opacity="0">R8</text>
<g class="stroked-text"><desc>R8</desc>
<path d="M151679333 87940380
L151346000 87464190
" />
<path d="M151107904 87940380
L151107904 86940380
L151488857 86940380
L151584095 86988000
L151631714 87035619
L151679333 87130857
L151679333 87273714
L151631714 87368952
L151584095 87416571
L151488857 87464190
L151107904 87464190
" />
<path d="M152250761 87368952
L152155523 87321333
L152107904 87273714
L152060285 87178476
L152060285 87130857
L152107904 87035619
L152155523 86988000
L152250761 86940380
L152441238 86940380
L152536476 86988000
L152584095 87035619
L152631714 87130857
L152631714 87178476
L152584095 87273714
L152536476 87321333
L152441238 87368952
L152250761 87368952
L152155523 87416571
L152107904 87464190
L152060285 87559428
L152060285 87749904
L152107904 87845142
L152155523 87892761
L152250761 87940380
L152441238 87940380
L152536476 87892761
L152584095 87845142
L152631714 87749904
L152631714 87559428
L152584095 87464190
L152536476 87416571
L152441238 87368952
" />
</g><text x="141224000.000000" y="100322000.000000"
textLength="2147381.000000" font-size="1333333.000000" lengthAdjust="spacingAndGlyphs"
text-anchor="middle" opacity="0">R7</text>
<g class="stroked-text"><desc>R7</desc>
<path d="M141057333 100274380
L140724000 99798190
" />
<path d="M140485904 100274380
L140485904 99274380
L140866857 99274380
L140962095 99322000
L141009714 99369619
L141057333 99464857
L141057333 99607714
L141009714 99702952
L140962095 99750571
L140866857 99798190
L140485904 99798190
" />
<path d="M141390666 99274380
L142057333 99274380
L141628761 100274380
" />
</g><g transform="rotate(-90.000000 170800000.000000 88855000.000000)">
<text x="170800000.000000" y="89355000.000000"
textLength="2147381.000000" font-size="1333333.000000" lengthAdjust="spacingAndGlyphs"
text-anchor="middle" opacity="0">R6</text>
</g>
<g class="stroked-text"><desc>R6</desc>
<path d="M171252380 89021666
L170776190 89355000
" />
<path d="M171252380 89593095
L170252380 89593095
L170252380 89212142
L170300000 89116904
L170347619 89069285
L170442857 89021666
L170585714 89021666
L170680952 89069285
L170728571 89116904
L170776190 89212142
L170776190 89593095
" />
<path d="M170252380 88164523
L170252380 88355000
L170300000 88450238
L170347619 88497857
L170490476 88593095
L170680952 88640714
L171061904 88640714
L171157142 88593095
L171204761 88545476
L171252380 88450238
L171252380 88259761
L171204761 88164523
L171157142 88116904
L171061904 88069285
L170823809 88069285
L170728571 88116904
L170680952 88164523
L170633333 88259761
L170633333 88450238
L170680952 88545476
L170728571 88593095
L170823809 88640714
" />
</g><g transform="rotate(-90.000000 165085000.000000 88855000.000000)">
<text x="165085000.000000" y="89355000.000000"
textLength="2147381.000000" font-size="1333333.000000" lengthAdjust="spacingAndGlyphs"
text-anchor="middle" opacity="0">R5</text>
</g>
<g class="stroked-text"><desc>R5</desc>
<path d="M165537380 89021666
L165061190 89355000
" />
<path d="M165537380 89593095
L164537380 89593095
L164537380 89212142
L164585000 89116904
L164632619 89069285
L164727857 89021666
L164870714 89021666
L164965952 89069285
L165013571 89116904
L165061190 89212142
L165061190 89593095
" />
<path d="M164537380 88116904
L164537380 88593095
L165013571 88640714
L164965952 88593095
L164918333 88497857
L164918333 88259761
L164965952 88164523
L165013571 88116904
L165108809 88069285
L165346904 88069285
L165442142 88116904
L165489761 88164523
L165537380 88259761
L165537380 88497857
L165489761 88593095
L165442142 88640714
" />
</g><text x="134411000.000000" y="88750000.000000"
textLength="2147381.000000" font-size="1333333.000000" lengthAdjust="spacingAndGlyphs"
text-anchor="middle" opacity="0">R4</text>
<g class="stroked-text"><desc>R4</desc>
<path d="M134244333 88702380
L133911000 88226190
" />
<path d="M133672904 88702380
L133672904 87702380
L134053857 87702380
L134149095 87750000
L134196714 87797619
L134244333 87892857
L134244333 88035714
L134196714 88130952
L134149095 88178571
L134053857 88226190
L133672904 88226190
" />
<path d="M135101476 88035714
L135101476 88702380
" />
<path d="M134863380 87654761
L134625285 88369047
L135244333 88369047
" />
</g><text x="123489000.000000" y="111864000.000000"
textLength="2147381.000000" font-size="1333333.000000" lengthAdjust="spacingAndGlyphs"
text-anchor="middle" opacity="0">R3</text>
<g class="stroked-text"><desc>R3</desc>
<path d="M123322333 111816380
L122989000 111340190
" />
<path d="M122750904 111816380
L122750904 110816380
L123131857 110816380
L123227095 110864000
L123274714 110911619
L123322333 111006857
L123322333 111149714
L123274714 111244952
L123227095 111292571
L123131857 111340190
L122750904 111340190
" />
<path d="M123655666 110816380
L124274714 110816380
L123941380 111197333
L124084238 111197333
L124179476 111244952
L124227095 111292571
L124274714 111387809
L124274714 111625904
L124227095 111721142
L124179476 111768761
L124084238 111816380
L123798523 111816380
L123703285 111768761
L123655666 111721142
" />
</g><text x="125664000.000000" y="88750000.000000"
textLength="2147381.000000" font-size="1333333.000000" lengthAdjust="spacingAndGlyphs"
text-anchor="middle" opacity="0">R2</text>
<g class="stroked-text"><desc>R2</desc>
<path d="M125497333 88702380
L125164000 88226190
" />
<path d="M124925904 88702380
L124925904 87702380
L125306857 87702380
L125402095 87750000
L125449714 87797619
L125497333 87892857
L125497333 88035714
L125449714 88130952
L125402095 88178571
L125306857 88226190
L124925904 88226190
" />
<path d="M125878285 87797619
L125925904 87750000
L126021142 87702380
L126259238 87702380
L126354476 87750000
L126402095 87797619
L126449714 87892857
L126449714 87988095
L126402095 88130952
L125830666 88702380
L126449714 88702380
" />
</g><text x="113583000.000000" y="91812000.000000"
textLength="2147381.000000" font-size="1333333.000000" lengthAdjust="spacingAndGlyphs"
text-anchor="middle" opacity="0">R1</text>
<g class="stroked-text"><desc>R1</desc>
<path d="M113416333 91764380
L113083000 91288190
" />
<path d="M112844904 91764380
L112844904 90764380
L113225857 90764380
L113321095 90812000
L113368714 90859619
L113416333 90954857
L113416333 91097714
L113368714 91192952
L113321095 91240571
L113225857 91288190
L112844904 91288190
" />
<path d="M114368714 91764380
L113797285 91764380
" />
<path d="M114083000 91764380
L114083000 90764380
L113987761 90907238
L113892523 91002476
L113797285 91050095
" />
</g><text x="90285000.000000" y="59480000.000000"
textLength="2147381.000000" font-size="1333333.000000" lengthAdjust="spacingAndGlyphs"
text-anchor="middle" opacity="0">C9</text>
<g class="stroked-text"><desc>C9</desc>
<path d="M90118333 59337142
L90070714 59384761
L89927857 59432380
L89832619 59432380
L89689761 59384761
L89594523 59289523
L89546904 59194285
L89499285 59003809
L89499285 58860952
L89546904 58670476
L89594523 58575238
L89689761 58480000
L89832619 58432380
L89927857 58432380
L90070714 58480000
L90118333 58527619
" />
<path d="M90594523 59432380
L90785000 59432380
L90880238 59384761
L90927857 59337142
L91023095 59194285
L91070714 59003809
L91070714 58622857
L91023095 58527619
L90975476 58480000
L90880238 58432380
L90689761 58432380
L90594523 58480000
L90546904 58527619
L90499285 58622857
L90499285 58860952
L90546904 58956190
L90594523 59003809
L90689761 59051428
L90880238 59051428
L90975476 59003809
L91023095 58956190
L91070714 58860952
" />
</g><text x="170295000.000000" y="91230000.000000"
textLength="2147381.000000" font-size="1333333.000000" lengthAdjust="spacingAndGlyphs"
text-anchor="middle" opacity="0">C7</text>
<g class="stroked-text"><desc>C7</desc>
<path d="M170128333 91087142
L170080714 91134761
L169937857 91182380
L169842619 91182380
L169699761 91134761
L169604523 91039523
L169556904 90944285
L169509285 90753809
L169509285 90610952
L169556904 90420476
L169604523 90325238
L169699761 90230000
L169842619 90182380
L169937857 90182380
L170080714 90230000
L170128333 90277619
" />
<path d="M170461666 90182380
L171128333 90182380
L170699761 91182380
" />
</g><text x="140743401.000000" y="89452000.000000"
textLength="2147381.000000" font-size="1333333.000000" lengthAdjust="spacingAndGlyphs"
text-anchor="middle" opacity="0">C1</text>
<g class="stroked-text"><desc>C1</desc>
<path d="M140576734 89309142
L140529115 89356761
L140386258 89404380
L140291020 89404380
L140148162 89356761
L140052924 89261523
L140005305 89166285
L139957686 88975809
L139957686 88832952
L140005305 88642476
L140052924 88547238
L140148162 88452000
L140291020 88404380
L140386258 88404380
L140529115 88452000
L140576734 88499619
" />
<path d="M141529115 89404380
L140957686 89404380
" />
<path d="M141243401 89404380
L141243401 88404380
L141148162 88547238
L141052924 88642476
L140957686 88690095
" />
</g><text x="159766000.000000" y="95086000.000000"
textLength="2195000.000000" font-size="1333333.000000" lengthAdjust="spacingAndGlyphs"
text-anchor="middle" opacity="0">U1</text>
<g class="stroked-text"><desc>U1</desc>
<path d="M159004095 94038380
L159004095 94847904
L159051714 94943142
L159099333 94990761
L159194571 95038380
L159385047 95038380
L159480285 94990761
L159527904 94943142
L159575523 94847904
L159575523 94038380
" />
<path d="M160575523 95038380
L160004095 95038380
" />
<path d="M160289809 95038380
L160289809 94038380
L160194571 94181238
L160099333 94276476
L160004095 94324095
" />
</g><text x="62624801.000000" y="65520000.000000"
textLength="2195000.000000" font-size="1333333.000000" lengthAdjust="spacingAndGlyphs"
text-anchor="middle" opacity="0">Q1</text>
<g class="stroked-text"><desc>Q1</desc>
<path d="M62529562 65567619
L62434324 65520000
L62339086 65424761
L62196229 65281904
L62100991 65234285
L62005753 65234285
" />
<path d="M62053372 65472380
L61958134 65424761
L61862896 65329523
L61815277 65139047
L61815277 64805714
L61862896 64615238
L61958134 64520000
L62053372 64472380
L62243848 64472380
L62339086 64520000
L62434324 64615238
L62481943 64805714
L62481943 65139047
L62434324 65329523
L62339086 65424761
L62243848 65472380
L62053372 65472380
" />
<path d="M63434324 65472380
L62862896 65472380
" />
<path d="M63148610 65472380
L63148610 64472380
L63053372 64615238
L62958134 64710476
L62862896 64758095
" />
</g><g transform="rotate(-90.000000 194310000.000000 105410000.000000)">
<text x="194310000.000000" y="105910000.000000"
textLength="1909286.000000" font-size="1333333.000000" lengthAdjust="spacingAndGlyphs"
text-anchor="middle" opacity="0">J1</text>
</g>
<g class="stroked-text"><desc>J1</desc>
<path d="M193762380 105743333
L194476666 105743333
L194619523 105790952
L194714761 105886190
L194762380 106029047
L194762380 106124285
" />
<path d="M194762380 104743333
L194762380 105314761
" />
<path d="M194762380 105029047
L193762380 105029047
L193905238 105124285
L194000476 105219523
L194048095 105314761
" />
</g><text x="165100000.000000" y="97020000.000000"
textLength="3099762.000000" font-size="1333333.000000" lengthAdjust="spacingAndGlyphs"
text-anchor="middle" opacity="0">C11</text>
<g class="stroked-text"><desc>C11</desc>
<path d="M164457142 96877142
L164409523 96924761
L164266666 96972380
L164171428 96972380
L164028571 96924761
L163933333 96829523
L163885714 96734285
L163838095 96543809
L163838095 96400952
L163885714 96210476
L163933333 96115238
L164028571 96020000
L164171428 95972380
L164266666 95972380
L164409523 96020000
L164457142 96067619
" />
<path d="M165409523 96972380
L164838095 96972380
" />
<path d="M165123809 96972380
L165123809 95972380
L165028571 96115238
L164933333 96210476
L164838095 96258095
" />
<path d="M166361904 96972380
L165790476 96972380
" />
<path d="M166076190 96972380
L166076190 95972380
L165980952 96115238
L165885714 96210476
L165790476 96258095
" />
</g><text x="103191621.000000" y="118274000.000000"
textLength="3099762.000000" font-size="1333333.000000" lengthAdjust="spacingAndGlyphs"
text-anchor="middle" opacity="0">C10</text>
<g class="stroked-text"><desc>C10</desc>
<path d="M102548763 118131142
L102501144 118178761
L102358287 118226380
L102263049 118226380
L102120192 118178761
L102024954 118083523
L101977335 117988285
L101929716 117797809
L101929716 117654952
L101977335 117464476
L102024954 117369238
L102120192 117274000
L102263049 117226380
L102358287 117226380
L102501144 117274000
L102548763 117321619
" />
<path d="M103501144 118226380
L102929716 118226380
" />
<path d="M103215430 118226380
L103215430 117226380
L103120192 117369238
L103024954 117464476
L102929716 117512095
" />
<path d="M104120192 117226380
L104215430 117226380
L104310668 117274000
L104358287 117321619
L104405906 117416857
L104453525 117607333
L104453525 117845428
L104405906 118035904
L104358287 118131142
L104310668 118178761
L104215430 118226380
L104120192 118226380
L104024954 118178761
L103977335 118131142
L103929716 118035904
L103882097 117845428
L103882097 117607333
L103929716 117416857
L103977335 117321619
L104024954 117274000
L104120192 117226380
" />
</g><text x="175895000.000000" y="86225000.000000"
textLength="2147381.000000" font-size="1333333.000000" lengthAdjust="spacingAndGlyphs"
text-anchor="middle" opacity="0">C8</text>
<g class="stroked-text"><desc>C8</desc>
<path d="M175728333 86082142
L175680714 86129761
L175537857 86177380
L175442619 86177380
L175299761 86129761
L175204523 86034523
L175156904 85939285
L175109285 85748809
L175109285 85605952
L175156904 85415476
L175204523 85320238
L175299761 85225000
L175442619 85177380
L175537857 85177380
L175680714 85225000
L175728333 85272619
" />
<path d="M176299761 85605952
L176204523 85558333
L176156904 85510714
L176109285 85415476
L176109285 85367857
L176156904 85272619
L176204523 85225000
L176299761 85177380
L176490238 85177380
L176585476 85225000
L176633095 85272619
L176680714 85367857
L176680714 85415476
L176633095 85510714
L176585476 85558333
L176490238 85605952
L176299761 85605952
L176204523 85653571
L176156904 85701190
L176109285 85796428
L176109285 85986904
L176156904 86082142
L176204523 86129761
L176299761 86177380
L176490238 86177380
L176585476 86129761
L176633095 86082142
L176680714 85986904
L176680714 85796428
L176633095 85701190
L176585476 85653571
L176490238 85605952
" />
</g><text x="178937677.000000" y="107715000.000000"
textLength="2147381.000000" font-size="1333333.000000" lengthAdjust="spacingAndGlyphs"
text-anchor="middle" opacity="0">C6</text>
<g class="stroked-text"><desc>C6</desc>
<path d="M178771010 107572142
L178723391 107619761
L178580534 107667380
L178485296 107667380
L178342438 107619761
L178247200 107524523
L178199581 107429285
L178151962 107238809
L178151962 107095952
L178199581 106905476
L178247200 106810238
L178342438 106715000
L178485296 106667380
L178580534 106667380
L178723391 106715000
L178771010 106762619
" />
<path d="M179628153 106667380
L179437677 106667380
L179342438 106715000
L179294819 106762619
L179199581 106905476
L179151962 107095952
L179151962 107476904
L179199581 107572142
L179247200 107619761
L179342438 107667380
L179532915 107667380
L179628153 107619761
L179675772 107572142
L179723391 107476904
L179723391 107238809
L179675772 107143571
L179628153 107095952
L179532915 107048333
L179342438 107048333
L179247200 107095952
L179199581 107143571
L179151962 107238809
" />
</g><text x="74716000.000000" y="106010000.000000"
textLength="2147381.000000" font-size="1333333.000000" lengthAdjust="spacingAndGlyphs"
text-anchor="middle" opacity="0">C5</text>
<g class="stroked-text"><desc>C5</desc>
<path d="M74549333 105867142
L74501714 105914761
L74358857 105962380
L74263619 105962380
L74120761 105914761
L74025523 105819523
L73977904 105724285
L73930285 105533809
L73930285 105390952
L73977904 105200476
L74025523 105105238
L74120761 105010000
L74263619 104962380
L74358857 104962380
L74501714 105010000
L74549333 105057619
" />
<path d="M75454095 104962380
L74977904 104962380
L74930285 105438571
L74977904 105390952
L75073142 105343333
L75311238 105343333
L75406476 105390952
L75454095 105438571
L75501714 105533809
L75501714 105771904
L75454095 105867142
L75406476 105914761
L75311238 105962380
L75073142 105962380
L74977904 105914761
L74930285 105867142
" />
</g></g>
<g style="fill:#000000; fill-opacity:0.0; 
stroke:#000000; stroke-width:120000.000000; stroke-opacity:1; 
stroke-linecap:round; stroke-linejoin:round;">
<path d="M146445000 96043000
L145187000 96043000
" />
<path d="M146445000 94203000
L145187000 94203000
" />
<path d="M146445000 101758000
L145187000 101758000
" />
<path d="M146445000 99918000
L145187000 99918000
" />
<path d="M146445000 90328000
L145187000 90328000
" />
<path d="M146445000 88488000
L145187000 88488000
" />
<path d="M70720000 78775000
L71100000 78775000
" />
<path d="M66060000 78775000
L66440000 78775000
" />
<path d="M68220000 78775000
L68940000 78775000
" />
<path d="M66060000 82515000
L67340000 82515000
" />
<path d="M69820000 82515000
L71100000 82515000
" />
<path d="M66060000 78775000
L66060000 82515000
" />
<path d="M71100000 78775000
L71100000 82515000
" />
<path d="M187542866.956228 104840000.073455 A814862.000000 814862.000000 0.0 1 0 187639904.913435 103390640.797347" />
<path d="M189295000.073455 94127133.043772 A814862.000000 814862.000000 0.0 1 0 187845640.797347 94030095.086565" />
<path d="M189295000.073455 98572133.043772 A814862.000000 814862.000000 0.0 1 0 187845640.797347 98475095.086565" />
<path d="M170114999.926545 106257866.956228 A814862.000000 814862.000000 0.0 1 0 171564359.202653 106354904.913435" />
<path d="M151023133.043772 105852999.926545 A814862.000000 814862.000000 0.0 1 0 150926095.086565 107302359.202653" />
<path d="M151023133.043772 94422999.926545 A814862.000000 814862.000000 0.0 1 0 150926095.086565 95872359.202653" />
<path d="M151003133.043772 100137999.926545 A814862.000000 814862.000000 0.0 1 0 150906095.086565 101587359.202653" />
<path d="M151313133.043772 88707999.926545 A814862.000000 814862.000000 0.0 1 0 151216095.086565 90157359.202653" />
<path d="M140523999.926545 103611866.956228 A814862.000000 814862.000000 0.0 1 0 141973359.202653 103708904.913435" />
<path d="M172019999.926545 89387866.956228 A814862.000000 814862.000000 0.0 1 0 173469359.202653 89484904.913435" />
<path d="M166304999.926545 89387866.956228 A814862.000000 814862.000000 0.0 1 0 167754359.202653 89484904.913435" />
<path d="M133878133.043772 89469999.926545 A814862.000000 814862.000000 0.0 1 0 133781095.086565 90919359.202653" />
<path d="M122956133.043772 112583999.926545 A814862.000000 814862.000000 0.0 1 0 122859095.086565 114033359.202653" />
<path d="M125131133.043772 89469999.926545 A814862.000000 814862.000000 0.0 1 0 125034095.086565 90919359.202653" />
<path d="M113050133.043772 92531999.926545 A814862.000000 814862.000000 0.0 1 0 112953095.086565 93981359.202653" />
<circle cx="90285000.000000" cy="62230000.000000" r="2120000.000000" /> 
<path d="M90285000 63070000
L90285000 64310000
" />
<path d="M90285000 60150000
L90285000 61390000
" />
<path d="M90325000 63070000
L90325000 64310000
" />
<path d="M90325000 60150000
L90325000 61390000
" />
<path d="M90365000 63070000
L90365000 64309000
" />
<path d="M90365000 60151000
L90365000 61390000
" />
<path d="M90405000 60153000
L90405000 61390000
" />
<path d="M90405000 63070000
L90405000 64307000
" />
<path d="M90445000 60156000
L90445000 61390000
" />
<path d="M90445000 63070000
L90445000 64304000
" />
<path d="M90485000 60159000
L90485000 61390000
" />
<path d="M90485000 63070000
L90485000 64301000
" />
<path d="M90525000 60163000
L90525000 61390000
" />
<path d="M90525000 63070000
L90525000 64297000
" />
<path d="M90565000 60168000
L90565000 61390000
" />
<path d="M90565000 63070000
L90565000 64292000
" />
<path d="M90605000 60174000
L90605000 61390000
" />
<path d="M90605000 63070000
L90605000 64286000
" />
<path d="M90645000 60180000
L90645000 61390000
" />
<path d="M90645000 63070000
L90645000 64280000
" />
<path d="M90685000 60188000
L90685000 61390000
" />
<path d="M90685000 63070000
L90685000 64272000
" />
<path d="M90725000 60196000
L90725000 61390000
" />
<path d="M90725000 63070000
L90725000 64264000
" />
<path d="M90765000 60205000
L90765000 61390000
" />
<path d="M90765000 63070000
L90765000 64255000
" />
<path d="M90805000 60214000
L90805000 61390000
" />
<path d="M90805000 63070000
L90805000 64246000
" />
<path d="M90845000 60225000
L90845000 61390000
" />
<path d="M90845000 63070000
L90845000 64235000
" />
<path d="M90885000 60236000
L90885000 61390000
" />
<path d="M90885000 63070000
L90885000 64224000
" />
<path d="M90925000 60248000
L90925000 61390000
" />
<path d="M90925000 63070000
L90925000 64212000
" />
<path d="M90965000 60262000
L90965000 61390000
" />
<path d="M90965000 63070000
L90965000 64198000
" />
<path d="M91006000 60276000
L91006000 61390000
" />
<path d="M91006000 63070000
L91006000 64184000
" />
<path d="M91046000 60290000
L91046000 61390000
" />
<path d="M91046000 63070000
L91046000 64170000
" />
<path d="M91086000 60306000
L91086000 61390000
" />
<path d="M91086000 63070000
L91086000 64154000
" />
<path d="M91126000 60323000
L91126000 61390000
" />
<path d="M91126000 63070000
L91126000 64137000
" />
<path d="M91166000 60341000
L91166000 61390000
" />
<path d="M91166000 63070000
L91166000 64119000
" />
<path d="M91206000 60360000
L91206000 61390000
" />
<path d="M91206000 63070000
L91206000 64100000
" />
<path d="M91246000 60379000
L91246000 61390000
" />
<path d="M91246000 63070000
L91246000 64081000
" />
<path d="M91286000 60400000
L91286000 61390000
" />
<path d="M91286000 63070000
L91286000 64060000
" />
<path d="M91326000 60422000
L91326000 61390000
" />
<path d="M91326000 63070000
L91326000 64038000
" />
<path d="M91366000 60445000
L91366000 61390000
" />
<path d="M91366000 63070000
L91366000 64015000
" />
<path d="M91406000 60470000
L91406000 61390000
" />
<path d="M91406000 63070000
L91406000 63990000
" />
<path d="M91446000 60495000
L91446000 61390000
" />
<path d="M91446000 63070000
L91446000 63965000
" />
<path d="M91486000 60522000
L91486000 61390000
" />
<path d="M91486000 63070000
L91486000 63938000
" />
<path d="M91526000 60550000
L91526000 61390000
" />
<path d="M91526000 63070000
L91526000 63910000
" />
<path d="M91566000 60580000
L91566000 61390000
" />
<path d="M91566000 63070000
L91566000 63880000
" />
<path d="M91606000 60611000
L91606000 61390000
" />
<path d="M91606000 63070000
L91606000 63849000
" />
<path d="M91646000 60643000
L91646000 61390000
" />
<path d="M91646000 63070000
L91646000 63817000
" />
<path d="M91686000 60678000
L91686000 61390000
" />
<path d="M91686000 63070000
L91686000 63782000
" />
<path d="M91726000 60714000
L91726000 61390000
" />
<path d="M91726000 63070000
L91726000 63746000
" />
<path d="M91766000 60752000
L91766000 61390000
" />
<path d="M91766000 63070000
L91766000 63708000
" />
<path d="M91806000 60792000
L91806000 61390000
" />
<path d="M91806000 63070000
L91806000 63668000
" />
<path d="M91846000 60834000
L91846000 61390000
" />
<path d="M91846000 63070000
L91846000 63626000
" />
<path d="M91886000 60879000
L91886000 63581000
" />
<path d="M91926000 60926000
L91926000 63534000
" />
<path d="M91966000 60976000
L91966000 63484000
" />
<path d="M92006000 61030000
L92006000 63430000
" />
<path d="M92046000 61088000
L92046000 63372000
" />
<path d="M92086000 61150000
L92086000 63310000
" />
<path d="M92126000 61217000
L92126000 63243000
" />
<path d="M92166000 61290000
L92166000 63170000
" />
<path d="M92206000 61371000
L92206000 63089000
" />
<path d="M92246000 61462000
L92246000 62998000
" />
<path d="M92286000 61566000
L92286000 62894000
" />
<path d="M92326000 61693000
L92326000 62767000
" />
<path d="M92366000 61860000
L92366000 62600000
" />
<path d="M88015199 61035000
L88415199 61035000
" />
<path d="M88215199 60835000
L88215199 61235000
" />
<circle cx="170295000.000000" cy="93980000.000000" r="2120000.000000" /> 
<path d="M170295000 94820000
L170295000 96060000
" />
<path d="M170295000 91900000
L170295000 93140000
" />
<path d="M170335000 94820000
L170335000 96060000
" />
<path d="M170335000 91900000
L170335000 93140000
" />
<path d="M170375000 94820000
L170375000 96059000
" />
<path d="M170375000 91901000
L170375000 93140000
" />
<path d="M170415000 91903000
L170415000 93140000
" />
<path d="M170415000 94820000
L170415000 96057000
" />
<path d="M170455000 91906000
L170455000 93140000
" />
<path d="M170455000 94820000
L170455000 96054000
" />
<path d="M170495000 91909000
L170495000 93140000
" />
<path d="M170495000 94820000
L170495000 96051000
" />
<path d="M170535000 91913000
L170535000 93140000
" />
<path d="M170535000 94820000
L170535000 96047000
" />
<path d="M170575000 91918000
L170575000 93140000
" />
<path d="M170575000 94820000
L170575000 96042000
" />
<path d="M170615000 91924000
L170615000 93140000
" />
<path d="M170615000 94820000
L170615000 96036000
" />
<path d="M170655000 91930000
L170655000 93140000
" />
<path d="M170655000 94820000
L170655000 96030000
" />
<path d="M170695000 91938000
L170695000 93140000
" />
<path d="M170695000 94820000
L170695000 96022000
" />
<path d="M170735000 91946000
L170735000 93140000
" />
<path d="M170735000 94820000
L170735000 96014000
" />
<path d="M170775000 91955000
L170775000 93140000
" />
<path d="M170775000 94820000
L170775000 96005000
" />
<path d="M170815000 91964000
L170815000 93140000
" />
<path d="M170815000 94820000
L170815000 95996000
" />
<path d="M170855000 91975000
L170855000 93140000
" />
<path d="M170855000 94820000
L170855000 95985000
" />
<path d="M170895000 91986000
L170895000 93140000
" />
<path d="M170895000 94820000
L170895000 95974000
" />
<path d="M170935000 91998000
L170935000 93140000
" />
<path d="M170935000 94820000
L170935000 95962000
" />
<path d="M170975000 92012000
L170975000 93140000
" />
<path d="M170975000 94820000
L170975000 95948000
" />
<path d="M171016000 92026000
L171016000 93140000
" />
<path d="M171016000 94820000
L171016000 95934000
" />
<path d="M171056000 92040000
L171056000 93140000
" />
<path d="M171056000 94820000
L171056000 95920000
" />
<path d="M171096000 92056000
L171096000 93140000
" />
<path d="M171096000 94820000
L171096000 95904000
" />
<path d="M171136000 92073000
L171136000 93140000
" />
<path d="M171136000 94820000
L171136000 95887000
" />
<path d="M171176000 92091000
L171176000 93140000
" />
<path d="M171176000 94820000
L171176000 95869000
" />
<path d="M171216000 92110000
L171216000 93140000
" />
<path d="M171216000 94820000
L171216000 95850000
" />
<path d="M171256000 92129000
L171256000 93140000
" />
<path d="M171256000 94820000
L171256000 95831000
" />
<path d="M171296000 92150000
L171296000 93140000
" />
<path d="M171296000 94820000
L171296000 95810000
" />
<path d="M171336000 92172000
L171336000 93140000
" />
<path d="M171336000 94820000
L171336000 95788000
" />
<path d="M171376000 92195000
L171376000 93140000
" />
<path d="M171376000 94820000
L171376000 95765000
" />
<path d="M171416000 92220000
L171416000 93140000
" />
<path d="M171416000 94820000
L171416000 95740000
" />
<path d="M171456000 92245000
L171456000 93140000
" />
<path d="M171456000 94820000
L171456000 95715000
" />
<path d="M171496000 92272000
L171496000 93140000
" />
<path d="M171496000 94820000
L171496000 95688000
" />
<path d="M171536000 92300000
L171536000 93140000
" />
<path d="M171536000 94820000
L171536000 95660000
" />
<path d="M171576000 92330000
L171576000 93140000
" />
<path d="M171576000 94820000
L171576000 95630000
" />
<path d="M171616000 92361000
L171616000 93140000
" />
<path d="M171616000 94820000
L171616000 95599000
" />
<path d="M171656000 92393000
L171656000 93140000
" />
<path d="M171656000 94820000
L171656000 95567000
" />
<path d="M171696000 92428000
L171696000 93140000
" />
<path d="M171696000 94820000
L171696000 95532000
" />
<path d="M171736000 92464000
L171736000 93140000
" />
<path d="M171736000 94820000
L171736000 95496000
" />
<path d="M171776000 92502000
L171776000 93140000
" />
<path d="M171776000 94820000
L171776000 95458000
" />
<path d="M171816000 92542000
L171816000 93140000
" />
<path d="M171816000 94820000
L171816000 95418000
" />
<path d="M171856000 92584000
L171856000 93140000
" />
<path d="M171856000 94820000
L171856000 95376000
" />
<path d="M171896000 92629000
L171896000 95331000
" />
<path d="M171936000 92676000
L171936000 95284000
" />
<path d="M171976000 92726000
L171976000 95234000
" />
<path d="M172016000 92780000
L172016000 95180000
" />
<path d="M172056000 92838000
L172056000 95122000
" />
<path d="M172096000 92900000
L172096000 95060000
" />
<path d="M172136000 92967000
L172136000 94993000
" />
<path d="M172176000 93040000
L172176000 94920000
" />
<path d="M172216000 93121000
L172216000 94839000
" />
<path d="M172256000 93212000
L172256000 94748000
" />
<path d="M172296000 93316000
L172296000 94644000
" />
<path d="M172336000 93443000
L172336000 94517000
" />
<path d="M172376000 93610000
L172376000 94350000
" />
<path d="M168025199 92785000
L168425199 92785000
" />
<path d="M168225199 92585000
L168225199 92985000
" />
<circle cx="140743401.000000" cy="92202000.000000" r="2120000.000000" /> 
<path d="M140743401 93042000
L140743401 94282000
" />
<path d="M140743401 90122000
L140743401 91362000
" />
<path d="M140783401 93042000
L140783401 94282000
" />
<path d="M140783401 90122000
L140783401 91362000
" />
<path d="M140823401 93042000
L140823401 94281000
" />
<path d="M140823401 90123000
L140823401 91362000
" />
<path d="M140863401 90125000
L140863401 91362000
" />
<path d="M140863401 93042000
L140863401 94279000
" />
<path d="M140903401 90128000
L140903401 91362000
" />
<path d="M140903401 93042000
L140903401 94276000
" />
<path d="M140943401 90131000
L140943401 91362000
" />
<path d="M140943401 93042000
L140943401 94273000
" />
<path d="M140983401 90135000
L140983401 91362000
" />
<path d="M140983401 93042000
L140983401 94269000
" />
<path d="M141023401 90140000
L141023401 91362000
" />
<path d="M141023401 93042000
L141023401 94264000
" />
<path d="M141063401 90146000
L141063401 91362000
" />
<path d="M141063401 93042000
L141063401 94258000
" />
<path d="M141103401 90152000
L141103401 91362000
" />
<path d="M141103401 93042000
L141103401 94252000
" />
<path d="M141143401 90160000
L141143401 91362000
" />
<path d="M141143401 93042000
L141143401 94244000
" />
<path d="M141183401 90168000
L141183401 91362000
" />
<path d="M141183401 93042000
L141183401 94236000
" />
<path d="M141223401 90177000
L141223401 91362000
" />
<path d="M141223401 93042000
L141223401 94227000
" />
<path d="M141263401 90186000
L141263401 91362000
" />
<path d="M141263401 93042000
L141263401 94218000
" />
<path d="M141303401 90197000
L141303401 91362000
" />
<path d="M141303401 93042000
L141303401 94207000
" />
<path d="M141343401 90208000
L141343401 91362000
" />
<path d="M141343401 93042000
L141343401 94196000
" />
<path d="M141383401 90220000
L141383401 91362000
" />
<path d="M141383401 93042000
L141383401 94184000
" />
<path d="M141423401 90234000
L141423401 91362000
" />
<path d="M141423401 93042000
L141423401 94170000
" />
<path d="M141464401 90248000
L141464401 91362000
" />
<path d="M141464401 93042000
L141464401 94156000
" />
<path d="M141504401 90262000
L141504401 91362000
" />
<path d="M141504401 93042000
L141504401 94142000
" />
<path d="M141544401 90278000
L141544401 91362000
" />
<path d="M141544401 93042000
L141544401 94126000
" />
<path d="M141584401 90295000
L141584401 91362000
" />
<path d="M141584401 93042000
L141584401 94109000
" />
<path d="M141624401 90313000
L141624401 91362000
" />
<path d="M141624401 93042000
L141624401 94091000
" />
<path d="M141664401 90332000
L141664401 91362000
" />
<path d="M141664401 93042000
L141664401 94072000
" />
<path d="M141704401 90351000
L141704401 91362000
" />
<path d="M141704401 93042000
L141704401 94053000
" />
<path d="M141744401 90372000
L141744401 91362000
" />
<path d="M141744401 93042000
L141744401 94032000
" />
<path d="M141784401 90394000
L141784401 91362000
" />
<path d="M141784401 93042000
L141784401 94010000
" />
<path d="M141824401 90417000
L141824401 91362000
" />
<path d="M141824401 93042000
L141824401 93987000
" />
<path d="M141864401 90442000
L141864401 91362000
" />
<path d="M141864401 93042000
L141864401 93962000
" />
<path d="M141904401 90467000
L141904401 91362000
" />
<path d="M141904401 93042000
L141904401 93937000
" />
<path d="M141944401 90494000
L141944401 91362000
" />
<path d="M141944401 93042000
L141944401 93910000
" />
<path d="M141984401 90522000
L141984401 91362000
" />
<path d="M141984401 93042000
L141984401 93882000
" />
<path d="M142024401 90552000
L142024401 91362000
" />
<path d="M142024401 93042000
L142024401 93852000
" />
<path d="M142064401 90583000
L142064401 91362000
" />
<path d="M142064401 93042000
L142064401 93821000
" />
<path d="M142104401 90615000
L142104401 91362000
" />
<path d="M142104401 93042000
L142104401 93789000
" />
<path d="M142144401 90650000
L142144401 91362000
" />
<path d="M142144401 93042000
L142144401 93754000
" />
<path d="M142184401 90686000
L142184401 91362000
" />
<path d="M142184401 93042000
L142184401 93718000
" />
<path d="M142224401 90724000
L142224401 91362000
" />
<path d="M142224401 93042000
L142224401 93680000
" />
<path d="M142264401 90764000
L142264401 91362000
" />
<path d="M142264401 93042000
L142264401 93640000
" />
<path d="M142304401 90806000
L142304401 91362000
" />
<path d="M142304401 93042000
L142304401 93598000
" />
<path d="M142344401 90851000
L142344401 93553000
" />
<path d="M142384401 90898000
L142384401 93506000
" />
<path d="M142424401 90948000
L142424401 93456000
" />
<path d="M142464401 91002000
L142464401 93402000
" />
<path d="M142504401 91060000
L142504401 93344000
" />
<path d="M142544401 91122000
L142544401 93282000
" />
<path d="M142584401 91189000
L142584401 93215000
" />
<path d="M142624401 91262000
L142624401 93142000
" />
<path d="M142664401 91343000
L142664401 93061000
" />
<path d="M142704401 91434000
L142704401 92970000
" />
<path d="M142744401 91538000
L142744401 92866000
" />
<path d="M142784401 91665000
L142784401 92739000
" />
<path d="M142824401 91832000
L142824401 92572000
" />
<path d="M138473600 91007000
L138873600 91007000
" />
<path d="M138673600 90807000
L138673600 91207000
" />
<path d="M159766000 88626000
L157816000 88626000
" />
<path d="M159766000 88626000
L161716000 88626000
" />
<path d="M159766000 93746000
L157816000 93746000
" />
<path d="M159766000 93746000
L163216000 93746000
" />
<path d="M60824801 70430000
L64424801 70430000
" />
<path d="M62624801.000000 65979999.000000 A2600001.000000 2600001.000000 0.0 0 0 60786322.661808 70418478.338192" />
<path d="M64463278.631085 70418477.631085 A2600000.000000 2600000.000000 0.0 0 0 62624801.000000 65980000.000000" />
<path d="M211710000 109140000
L205120000 109140000
" />
<path d="M211710000 83900000
L205120000 83900000
" />
<path d="M205120000 87300000
L205120000 83900000
" />
<path d="M205120000 109140000
L205120000 105740000
" />
<path d="M211710000 85400000
L214410000 85400000
" />
<path d="M211710000 107640000
L214410000 107640000
" />
<path d="M211710000 107640000
L211710000 109140000
" />
<path d="M211710000 83900000
L211710000 85400000
" />
<path d="M214410000 85400000
L214410000 107640000
" />
<path d="M192270000 97220000
L192270000 99120000
" />
<path d="M192270000 95820000
L192270000 93920000
" />
<path d="M205120000 105740000
L199470000 105740000
" />
<path d="M192270000 101520000
L192270000 102940000
" />
<path d="M199470000 102940000
L199470000 105740000
" />
<path d="M199470000 90100000
L199470000 87300000
" />
<path d="M205120000 87300000
L199470000 87300000
" />
<path d="M192270000 90100000
L192270000 91520000
" />
<path d="M199470000 102940000
L192270000 102940000
" />
<path d="M199470000 90100000
L192270000 90100000
" />
<circle cx="159898323.000000" cy="101600000.000000" r="5120000.000000" /> 
<path d="M159898323 96520000
L159898323 106680000
" />
<path d="M159938323 96520000
L159938323 106680000
" />
<path d="M159978323 96520000
L159978323 106680000
" />
<path d="M160018323 96521000
L160018323 106679000
" />
<path d="M160058323 96522000
L160058323 106678000
" />
<path d="M160098323 96523000
L160098323 106677000
" />
<path d="M160138323 96525000
L160138323 106675000
" />
<path d="M160178323 96527000
L160178323 106673000
" />
<path d="M160218323 96530000
L160218323 106670000
" />
<path d="M160258323 96532000
L160258323 106668000
" />
<path d="M160298323 96535000
L160298323 106665000
" />
<path d="M160338323 96538000
L160338323 106662000
" />
<path d="M160378323 96542000
L160378323 106658000
" />
<path d="M160418323 96546000
L160418323 106654000
" />
<path d="M160458323 96550000
L160458323 106650000
" />
<path d="M160498323 96555000
L160498323 106645000
" />
<path d="M160538323 96560000
L160538323 106640000
" />
<path d="M160578323 96565000
L160578323 106635000
" />
<path d="M160619323 96570000
L160619323 106630000
" />
<path d="M160659323 96576000
L160659323 106624000
" />
<path d="M160699323 96582000
L160699323 106618000
" />
<path d="M160739323 96589000
L160739323 106611000
" />
<path d="M160779323 96596000
L160779323 106604000
" />
<path d="M160819323 96603000
L160819323 106597000
" />
<path d="M160859323 96610000
L160859323 106590000
" />
<path d="M160899323 96618000
L160899323 106582000
" />
<path d="M160939323 96626000
L160939323 106574000
" />
<path d="M160979323 96635000
L160979323 106565000
" />
<path d="M161019323 96644000
L161019323 106556000
" />
<path d="M161059323 96653000
L161059323 106547000
" />
<path d="M161099323 96662000
L161099323 106538000
" />
<path d="M161139323 96672000
L161139323 106528000
" />
<path d="M161179323 96682000
L161179323 100359000
" />
<path d="M161179323 102841000
L161179323 106518000
" />
<path d="M161219323 96693000
L161219323 100359000
" />
<path d="M161219323 102841000
L161219323 106507000
" />
<path d="M161259323 96703000
L161259323 100359000
" />
<path d="M161259323 102841000
L161259323 106497000
" />
<path d="M161299323 96715000
L161299323 100359000
" />
<path d="M161299323 102841000
L161299323 106485000
" />
<path d="M161339323 96726000
L161339323 100359000
" />
<path d="M161339323 102841000
L161339323 106474000
" />
<path d="M161379323 96738000
L161379323 100359000
" />
<path d="M161379323 102841000
L161379323 106462000
" />
<path d="M161419323 96750000
L161419323 100359000
" />
<path d="M161419323 102841000
L161419323 106450000
" />
<path d="M161459323 96763000
L161459323 100359000
" />
<path d="M161459323 102841000
L161459323 106437000
" />
<path d="M161499323 96776000
L161499323 100359000
" />
<path d="M161499323 102841000
L161499323 106424000
" />
<path d="M161539323 96789000
L161539323 100359000
" />
<path d="M161539323 102841000
L161539323 106411000
" />
<path d="M161579323 96803000
L161579323 100359000
" />
<path d="M161579323 102841000
L161579323 106397000
" />
<path d="M161619323 96817000
L161619323 100359000
" />
<path d="M161619323 102841000
L161619323 106383000
" />
<path d="M161659323 96832000
L161659323 100359000
" />
<path d="M161659323 102841000
L161659323 106368000
" />
<path d="M161699323 96846000
L161699323 100359000
" />
<path d="M161699323 102841000
L161699323 106354000
" />
<path d="M161739323 96862000
L161739323 100359000
" />
<path d="M161739323 102841000
L161739323 106338000
" />
<path d="M161779323 96877000
L161779323 100359000
" />
<path d="M161779323 102841000
L161779323 106323000
" />
<path d="M161819323 96893000
L161819323 100359000
" />
<path d="M161819323 102841000
L161819323 106307000
" />
<path d="M161859323 96910000
L161859323 100359000
" />
<path d="M161859323 102841000
L161859323 106290000
" />
<path d="M161899323 96926000
L161899323 100359000
" />
<path d="M161899323 102841000
L161899323 106274000
" />
<path d="M161939323 96943000
L161939323 100359000
" />
<path d="M161939323 102841000
L161939323 106257000
" />
<path d="M161979323 96961000
L161979323 100359000
" />
<path d="M161979323 102841000
L161979323 106239000
" />
<path d="M162019323 96979000
L162019323 100359000
" />
<path d="M162019323 102841000
L162019323 106221000
" />
<path d="M162059323 96997000
L162059323 100359000
" />
<path d="M162059323 102841000
L162059323 106203000
" />
<path d="M162099323 97016000
L162099323 100359000
" />
<path d="M162099323 102841000
L162099323 106184000
" />
<path d="M162139323 97036000
L162139323 100359000
" />
<path d="M162139323 102841000
L162139323 106164000
" />
<path d="M162179323 97055000
L162179323 100359000
" />
<path d="M162179323 102841000
L162179323 106145000
" />
<path d="M162219323 97075000
L162219323 100359000
" />
<path d="M162219323 102841000
L162219323 106125000
" />
<path d="M162259323 97096000
L162259323 100359000
" />
<path d="M162259323 102841000
L162259323 106104000
" />
<path d="M162299323 97117000
L162299323 100359000
" />
<path d="M162299323 102841000
L162299323 106083000
" />
<path d="M162339323 97138000
L162339323 100359000
" />
<path d="M162339323 102841000
L162339323 106062000
" />
<path d="M162379323 97160000
L162379323 100359000
" />
<path d="M162379323 102841000
L162379323 106040000
" />
<path d="M162419323 97183000
L162419323 100359000
" />
<path d="M162419323 102841000
L162419323 106017000
" />
<path d="M162459323 97205000
L162459323 100359000
" />
<path d="M162459323 102841000
L162459323 105995000
" />
<path d="M162499323 97229000
L162499323 100359000
" />
<path d="M162499323 102841000
L162499323 105971000
" />
<path d="M162539323 97253000
L162539323 100359000
" />
<path d="M162539323 102841000
L162539323 105947000
" />
<path d="M162579323 97277000
L162579323 100359000
" />
<path d="M162579323 102841000
L162579323 105923000
" />
<path d="M162619323 97302000
L162619323 100359000
" />
<path d="M162619323 102841000
L162619323 105898000
" />
<path d="M162659323 97327000
L162659323 100359000
" />
<path d="M162659323 102841000
L162659323 105873000
" />
<path d="M162699323 97353000
L162699323 100359000
" />
<path d="M162699323 102841000
L162699323 105847000
" />
<path d="M162739323 97379000
L162739323 100359000
" />
<path d="M162739323 102841000
L162739323 105821000
" />
<path d="M162779323 97406000
L162779323 100359000
" />
<path d="M162779323 102841000
L162779323 105794000
" />
<path d="M162819323 97434000
L162819323 100359000
" />
<path d="M162819323 102841000
L162819323 105766000
" />
<path d="M162859323 97462000
L162859323 100359000
" />
<path d="M162859323 102841000
L162859323 105738000
" />
<path d="M162899323 97490000
L162899323 100359000
" />
<path d="M162899323 102841000
L162899323 105710000
" />
<path d="M162939323 97520000
L162939323 100359000
" />
<path d="M162939323 102841000
L162939323 105680000
" />
<path d="M162979323 97550000
L162979323 100359000
" />
<path d="M162979323 102841000
L162979323 105650000
" />
<path d="M163019323 97580000
L163019323 100359000
" />
<path d="M163019323 102841000
L163019323 105620000
" />
<path d="M163059323 97611000
L163059323 100359000
" />
<path d="M163059323 102841000
L163059323 105589000
" />
<path d="M163099323 97643000
L163099323 100359000
" />
<path d="M163099323 102841000
L163099323 105557000
" />
<path d="M163139323 97675000
L163139323 100359000
" />
<path d="M163139323 102841000
L163139323 105525000
" />
<path d="M163179323 97708000
L163179323 100359000
" />
<path d="M163179323 102841000
L163179323 105492000
" />
<path d="M163219323 97742000
L163219323 100359000
" />
<path d="M163219323 102841000
L163219323 105458000
" />
<path d="M163259323 97776000
L163259323 100359000
" />
<path d="M163259323 102841000
L163259323 105424000
" />
<path d="M163299323 97811000
L163299323 100359000
" />
<path d="M163299323 102841000
L163299323 105389000
" />
<path d="M163339323 97847000
L163339323 100359000
" />
<path d="M163339323 102841000
L163339323 105353000
" />
<path d="M163379323 97884000
L163379323 100359000
" />
<path d="M163379323 102841000
L163379323 105316000
" />
<path d="M163419323 97921000
L163419323 100359000
" />
<path d="M163419323 102841000
L163419323 105279000
" />
<path d="M163459323 97960000
L163459323 100359000
" />
<path d="M163459323 102841000
L163459323 105240000
" />
<path d="M163499323 97999000
L163499323 100359000
" />
<path d="M163499323 102841000
L163499323 105201000
" />
<path d="M163539323 98039000
L163539323 100359000
" />
<path d="M163539323 102841000
L163539323 105161000
" />
<path d="M163579323 98080000
L163579323 100359000
" />
<path d="M163579323 102841000
L163579323 105120000
" />
<path d="M163619323 98122000
L163619323 100359000
" />
<path d="M163619323 102841000
L163619323 105078000
" />
<path d="M163659323 98164000
L163659323 105036000
" />
<path d="M163699323 98208000
L163699323 104992000
" />
<path d="M163739323 98253000
L163739323 104947000
" />
<path d="M163779323 98299000
L163779323 104901000
" />
<path d="M163819323 98346000
L163819323 104854000
" />
<path d="M163859323 98394000
L163859323 104806000
" />
<path d="M163899323 98444000
L163899323 104756000
" />
<path d="M163939323 98494000
L163939323 104706000
" />
<path d="M163979323 98546000
L163979323 104654000
" />
<path d="M164019323 98600000
L164019323 104600000
" />
<path d="M164059323 98655000
L164059323 104545000
" />
<path d="M164099323 98711000
L164099323 104489000
" />
<path d="M164139323 98770000
L164139323 104430000
" />
<path d="M164179323 98830000
L164179323 104370000
" />
<path d="M164219323 98891000
L164219323 104309000
" />
<path d="M164259323 98955000
L164259323 104245000
" />
<path d="M164299323 99021000
L164299323 104179000
" />
<path d="M164339323 99090000
L164339323 104110000
" />
<path d="M164379323 99161000
L164379323 104039000
" />
<path d="M164419323 99235000
L164419323 103965000
" />
<path d="M164459323 99311000
L164459323 103889000
" />
<path d="M164499323 99391000
L164499323 103809000
" />
<path d="M164539323 99475000
L164539323 103725000
" />
<path d="M164579323 99563000
L164579323 103637000
" />
<path d="M164619323 99656000
L164619323 103544000
" />
<path d="M164659323 99754000
L164659323 103446000
" />
<path d="M164699323 99858000
L164699323 103342000
" />
<path d="M164739323 99970000
L164739323 103230000
" />
<path d="M164779323 100090000
L164779323 103110000
" />
<path d="M164819323 100222000
L164819323 102978000
" />
<path d="M164859323 100370000
L164859323 102830000
" />
<path d="M164899323 100538000
L164899323 102662000
" />
<path d="M164939323 100738000
L164939323 102462000
" />
<path d="M164979323 101001000
L164979323 102199000
" />
<path d="M154418677 98725000
L155418677 98725000
" />
<path d="M154918677 98225000
L154918677 99225000
" />
<circle cx="103191621.000000" cy="122174000.000000" r="3270000.000000" /> 
<path d="M103191621 118944000
L103191621 125404000
" />
<path d="M103231621 118944000
L103231621 125404000
" />
<path d="M103271621 118944000
L103271621 125404000
" />
<path d="M103311621 118946000
L103311621 125402000
" />
<path d="M103351621 118947000
L103351621 125401000
" />
<path d="M103391621 118950000
L103391621 125398000
" />
<path d="M103431621 118952000
L103431621 121134000
" />
<path d="M103431621 123214000
L103431621 125396000
" />
<path d="M103471621 118956000
L103471621 121134000
" />
<path d="M103471621 123214000
L103471621 125392000
" />
<path d="M103511621 118959000
L103511621 121134000
" />
<path d="M103511621 123214000
L103511621 125389000
" />
<path d="M103551621 118963000
L103551621 121134000
" />
<path d="M103551621 123214000
L103551621 125385000
" />
<path d="M103591621 118968000
L103591621 121134000
" />
<path d="M103591621 123214000
L103591621 125380000
" />
<path d="M103631621 118973000
L103631621 121134000
" />
<path d="M103631621 123214000
L103631621 125375000
" />
<path d="M103671621 118979000
L103671621 121134000
" />
<path d="M103671621 123214000
L103671621 125369000
" />
<path d="M103711621 118985000
L103711621 121134000
" />
<path d="M103711621 123214000
L103711621 125363000
" />
<path d="M103751621 118992000
L103751621 121134000
" />
<path d="M103751621 123214000
L103751621 125356000
" />
<path d="M103791621 118999000
L103791621 121134000
" />
<path d="M103791621 123214000
L103791621 125349000
" />
<path d="M103831621 119007000
L103831621 121134000
" />
<path d="M103831621 123214000
L103831621 125341000
" />
<path d="M103871621 119015000
L103871621 121134000
" />
<path d="M103871621 123214000
L103871621 125333000
" />
<path d="M103912621 119024000
L103912621 121134000
" />
<path d="M103912621 123214000
L103912621 125324000
" />
<path d="M103952621 119033000
L103952621 121134000
" />
<path d="M103952621 123214000
L103952621 125315000
" />
<path d="M103992621 119043000
L103992621 121134000
" />
<path d="M103992621 123214000
L103992621 125305000
" />
<path d="M104032621 119053000
L104032621 121134000
" />
<path d="M104032621 123214000
L104032621 125295000
" />
<path d="M104072621 119064000
L104072621 121134000
" />
<path d="M104072621 123214000
L104072621 125284000
" />
<path d="M104112621 119076000
L104112621 121134000
" />
<path d="M104112621 123214000
L104112621 125272000
" />
<path d="M104152621 119088000
L104152621 121134000
" />
<path d="M104152621 123214000
L104152621 125260000
" />
<path d="M104192621 119100000
L104192621 121134000
" />
<path d="M104192621 123214000
L104192621 125248000
" />
<path d="M104232621 119113000
L104232621 121134000
" />
<path d="M104232621 123214000
L104232621 125235000
" />
<path d="M104272621 119127000
L104272621 121134000
" />
<path d="M104272621 123214000
L104272621 125221000
" />
<path d="M104312621 119141000
L104312621 121134000
" />
<path d="M104312621 123214000
L104312621 125207000
" />
<path d="M104352621 119156000
L104352621 121134000
" />
<path d="M104352621 123214000
L104352621 125192000
" />
<path d="M104392621 119172000
L104392621 121134000
" />
<path d="M104392621 123214000
L104392621 125176000
" />
<path d="M104432621 119188000
L104432621 121134000
" />
<path d="M104432621 123214000
L104432621 125160000
" />
<path d="M104472621 119204000
L104472621 121134000
" />
<path d="M104472621 123214000
L104472621 125144000
" />
<path d="M104512621 119222000
L104512621 121134000
" />
<path d="M104512621 123214000
L104512621 125126000
" />
<path d="M104552621 119240000
L104552621 121134000
" />
<path d="M104552621 123214000
L104552621 125108000
" />
<path d="M104592621 119258000
L104592621 121134000
" />
<path d="M104592621 123214000
L104592621 125090000
" />
<path d="M104632621 119278000
L104632621 121134000
" />
<path d="M104632621 123214000
L104632621 125070000
" />
<path d="M104672621 119298000
L104672621 121134000
" />
<path d="M104672621 123214000
L104672621 125050000
" />
<path d="M104712621 119318000
L104712621 121134000
" />
<path d="M104712621 123214000
L104712621 125030000
" />
<path d="M104752621 119340000
L104752621 121134000
" />
<path d="M104752621 123214000
L104752621 125008000
" />
<path d="M104792621 119362000
L104792621 121134000
" />
<path d="M104792621 123214000
L104792621 124986000
" />
<path d="M104832621 119384000
L104832621 121134000
" />
<path d="M104832621 123214000
L104832621 124964000
" />
<path d="M104872621 119408000
L104872621 121134000
" />
<path d="M104872621 123214000
L104872621 124940000
" />
<path d="M104912621 119432000
L104912621 121134000
" />
<path d="M104912621 123214000
L104912621 124916000
" />
<path d="M104952621 119458000
L104952621 121134000
" />
<path d="M104952621 123214000
L104952621 124890000
" />
<path d="M104992621 119484000
L104992621 121134000
" />
<path d="M104992621 123214000
L104992621 124864000
" />
<path d="M105032621 119510000
L105032621 121134000
" />
<path d="M105032621 123214000
L105032621 124838000
" />
<path d="M105072621 119538000
L105072621 121134000
" />
<path d="M105072621 123214000
L105072621 124810000
" />
<path d="M105112621 119567000
L105112621 121134000
" />
<path d="M105112621 123214000
L105112621 124781000
" />
<path d="M105152621 119596000
L105152621 121134000
" />
<path d="M105152621 123214000
L105152621 124752000
" />
<path d="M105192621 119626000
L105192621 121134000
" />
<path d="M105192621 123214000
L105192621 124722000
" />
<path d="M105232621 119658000
L105232621 121134000
" />
<path d="M105232621 123214000
L105232621 124690000
" />
<path d="M105272621 119690000
L105272621 121134000
" />
<path d="M105272621 123214000
L105272621 124658000
" />
<path d="M105312621 119724000
L105312621 121134000
" />
<path d="M105312621 123214000
L105312621 124624000
" />
<path d="M105352621 119758000
L105352621 121134000
" />
<path d="M105352621 123214000
L105352621 124590000
" />
<path d="M105392621 119794000
L105392621 121134000
" />
<path d="M105392621 123214000
L105392621 124554000
" />
<path d="M105432621 119831000
L105432621 121134000
" />
<path d="M105432621 123214000
L105432621 124517000
" />
<path d="M105472621 119869000
L105472621 121134000
" />
<path d="M105472621 123214000
L105472621 124479000
" />
<path d="M105512621 119909000
L105512621 124439000
" />
<path d="M105552621 119950000
L105552621 124398000
" />
<path d="M105592621 119992000
L105592621 124356000
" />
<path d="M105632621 120037000
L105632621 124311000
" />
<path d="M105672621 120082000
L105672621 124266000
" />
<path d="M105712621 120130000
L105712621 124218000
" />
<path d="M105752621 120179000
L105752621 124169000
" />
<path d="M105792621 120230000
L105792621 124118000
" />
<path d="M105832621 120284000
L105832621 124064000
" />
<path d="M105872621 120340000
L105872621 124008000
" />
<path d="M105912621 120398000
L105912621 123950000
" />
<path d="M105952621 120460000
L105952621 123888000
" />
<path d="M105992621 120524000
L105992621 123824000
" />
<path d="M106032621 120593000
L106032621 123755000
" />
<path d="M106072621 120665000
L106072621 123683000
" />
<path d="M106112621 120742000
L106112621 123606000
" />
<path d="M106152621 120824000
L106152621 123524000
" />
<path d="M106192621 120912000
L106192621 123436000
" />
<path d="M106232621 121009000
L106232621 123339000
" />
<path d="M106272621 121115000
L106272621 123233000
" />
<path d="M106312621 121234000
L106312621 123114000
" />
<path d="M106352621 121372000
L106352621 122976000
" />
<path d="M106392621 121541000
L106392621 122807000
" />
<path d="M106432621 121772000
L106432621 122576000
" />
<path d="M99691380 120335000
L100321380 120335000
" />
<path d="M100006380 120020000
L100006380 120650000
" />
<path d="M185994646 93545000
L185994646 92545000
" />
<path d="M186494646 93045000
L185494646 93045000
" />
<path d="M175934000 90769000
L175934000 89571000
" />
<path d="M175974000 91032000
L175974000 89308000
" />
<path d="M176014000 91232000
L176014000 89108000
" />
<path d="M176054000 91400000
L176054000 88940000
" />
<path d="M176094000 91548000
L176094000 88792000
" />
<path d="M176134000 91680000
L176134000 88660000
" />
<path d="M176174000 91800000
L176174000 88540000
" />
<path d="M176214000 91912000
L176214000 88428000
" />
<path d="M176254000 92016000
L176254000 88324000
" />
<path d="M176294000 92114000
L176294000 88226000
" />
<path d="M176334000 92207000
L176334000 88133000
" />
<path d="M176374000 92295000
L176374000 88045000
" />
<path d="M176414000 92379000
L176414000 87961000
" />
<path d="M176454000 92459000
L176454000 87881000
" />
<path d="M176494000 92535000
L176494000 87805000
" />
<path d="M176534000 92609000
L176534000 87731000
" />
<path d="M176574000 92680000
L176574000 87660000
" />
<path d="M176614000 92749000
L176614000 87591000
" />
<path d="M176654000 92815000
L176654000 87525000
" />
<path d="M176694000 92879000
L176694000 87461000
" />
<path d="M176734000 92940000
L176734000 87400000
" />
<path d="M176774000 93000000
L176774000 87340000
" />
<path d="M176814000 93059000
L176814000 87281000
" />
<path d="M176854000 93115000
L176854000 87225000
" />
<path d="M176894000 93170000
L176894000 87170000
" />
<path d="M176934000 93224000
L176934000 87116000
" />
<path d="M176974000 93276000
L176974000 87064000
" />
<path d="M177014000 93326000
L177014000 87014000
" />
<path d="M177054000 93376000
L177054000 86964000
" />
<path d="M177094000 93424000
L177094000 86916000
" />
<path d="M177134000 93471000
L177134000 86869000
" />
<path d="M177174000 93517000
L177174000 86823000
" />
<path d="M177214000 93562000
L177214000 86778000
" />
<path d="M177254000 93606000
L177254000 86734000
" />
<path d="M177294000 88929000
L177294000 86692000
" />
<path d="M177294000 93648000
L177294000 91411000
" />
<path d="M177334000 88929000
L177334000 86650000
" />
<path d="M177334000 93690000
L177334000 91411000
" />
<path d="M177374000 88929000
L177374000 86609000
" />
<path d="M177374000 93731000
L177374000 91411000
" />
<path d="M177414000 88929000
L177414000 86569000
" />
<path d="M177414000 93771000
L177414000 91411000
" />
<path d="M177454000 88929000
L177454000 86530000
" />
<path d="M177454000 93810000
L177454000 91411000
" />
<path d="M177494000 88929000
L177494000 86491000
" />
<path d="M177494000 93849000
L177494000 91411000
" />
<path d="M177534000 88929000
L177534000 86454000
" />
<path d="M177534000 93886000
L177534000 91411000
" />
<path d="M177574000 88929000
L177574000 86417000
" />
<path d="M177574000 93923000
L177574000 91411000
" />
<path d="M177614000 88929000
L177614000 86381000
" />
<path d="M177614000 93959000
L177614000 91411000
" />
<path d="M177654000 88929000
L177654000 86346000
" />
<path d="M177654000 93994000
L177654000 91411000
" />
<path d="M177694000 88929000
L177694000 86312000
" />
<path d="M177694000 94028000
L177694000 91411000
" />
<path d="M177734000 88929000
L177734000 86278000
" />
<path d="M177734000 94062000
L177734000 91411000
" />
<path d="M177774000 88929000
L177774000 86245000
" />
<path d="M177774000 94095000
L177774000 91411000
" />
<path d="M177814000 88929000
L177814000 86213000
" />
<path d="M177814000 94127000
L177814000 91411000
" />
<path d="M177854000 88929000
L177854000 86181000
" />
<path d="M177854000 94159000
L177854000 91411000
" />
<path d="M177894000 88929000
L177894000 86150000
" />
<path d="M177894000 94190000
L177894000 91411000
" />
<path d="M177934000 88929000
L177934000 86120000
" />
<path d="M177934000 94220000
L177934000 91411000
" />
<path d="M177974000 88929000
L177974000 86090000
" />
<path d="M177974000 94250000
L177974000 91411000
" />
<path d="M178014000 88929000
L178014000 86060000
" />
<path d="M178014000 94280000
L178014000 91411000
" />
<path d="M178054000 88929000
L178054000 86032000
" />
<path d="M178054000 94308000
L178054000 91411000
" />
<path d="M178094000 88929000
L178094000 86004000
" />
<path d="M178094000 94336000
L178094000 91411000
" />
<path d="M178134000 88929000
L178134000 85976000
" />
<path d="M178134000 94364000
L178134000 91411000
" />
<path d="M178174000 88929000
L178174000 85949000
" />
<path d="M178174000 94391000
L178174000 91411000
" />
<path d="M178214000 88929000
L178214000 85923000
" />
<path d="M178214000 94417000
L178214000 91411000
" />
<path d="M178254000 88929000
L178254000 85897000
" />
<path d="M178254000 94443000
L178254000 91411000
" />
<path d="M178294000 88929000
L178294000 85872000
" />
<path d="M178294000 94468000
L178294000 91411000
" />
<path d="M178334000 88929000
L178334000 85847000
" />
<path d="M178334000 94493000
L178334000 91411000
" />
<path d="M178374000 88929000
L178374000 85823000
" />
<path d="M178374000 94517000
L178374000 91411000
" />
<path d="M178414000 88929000
L178414000 85799000
" />
<path d="M178414000 94541000
L178414000 91411000
" />
<path d="M178454000 88929000
L178454000 85775000
" />
<path d="M178454000 94565000
L178454000 91411000
" />
<path d="M178494000 88929000
L178494000 85753000
" />
<path d="M178494000 94587000
L178494000 91411000
" />
<path d="M178534000 88929000
L178534000 85730000
" />
<path d="M178534000 94610000
L178534000 91411000
" />
<path d="M178574000 88929000
L178574000 85708000
" />
<path d="M178574000 94632000
L178574000 91411000
" />
<path d="M178614000 88929000
L178614000 85687000
" />
<path d="M178614000 94653000
L178614000 91411000
" />
<path d="M178654000 88929000
L178654000 85666000
" />
<path d="M178654000 94674000
L178654000 91411000
" />
<path d="M178694000 88929000
L178694000 85645000
" />
<path d="M178694000 94695000
L178694000 91411000
" />
<path d="M178734000 88929000
L178734000 85625000
" />
<path d="M178734000 94715000
L178734000 91411000
" />
<path d="M178774000 88929000
L178774000 85606000
" />
<path d="M178774000 94734000
L178774000 91411000
" />
<path d="M178814000 88929000
L178814000 85586000
" />
<path d="M178814000 94754000
L178814000 91411000
" />
<path d="M178854000 88929000
L178854000 85567000
" />
<path d="M178854000 94773000
L178854000 91411000
" />
<path d="M178894000 88929000
L178894000 85549000
" />
<path d="M178894000 94791000
L178894000 91411000
" />
<path d="M178934000 88929000
L178934000 85531000
" />
<path d="M178934000 94809000
L178934000 91411000
" />
<path d="M178974000 88929000
L178974000 85513000
" />
<path d="M178974000 94827000
L178974000 91411000
" />
<path d="M179014000 88929000
L179014000 85496000
" />
<path d="M179014000 94844000
L179014000 91411000
" />
<path d="M179054000 88929000
L179054000 85480000
" />
<path d="M179054000 94860000
L179054000 91411000
" />
<path d="M179094000 88929000
L179094000 85463000
" />
<path d="M179094000 94877000
L179094000 91411000
" />
<path d="M179134000 88929000
L179134000 85447000
" />
<path d="M179134000 94893000
L179134000 91411000
" />
<path d="M179174000 88929000
L179174000 85432000
" />
<path d="M179174000 94908000
L179174000 91411000
" />
<path d="M179214000 88929000
L179214000 85416000
" />
<path d="M179214000 94924000
L179214000 91411000
" />
<path d="M179254000 88929000
L179254000 85402000
" />
<path d="M179254000 94938000
L179254000 91411000
" />
<path d="M179294000 88929000
L179294000 85387000
" />
<path d="M179294000 94953000
L179294000 91411000
" />
<path d="M179334000 88929000
L179334000 85373000
" />
<path d="M179334000 94967000
L179334000 91411000
" />
<path d="M179374000 88929000
L179374000 85359000
" />
<path d="M179374000 94981000
L179374000 91411000
" />
<path d="M179414000 88929000
L179414000 85346000
" />
<path d="M179414000 94994000
L179414000 91411000
" />
<path d="M179454000 88929000
L179454000 85333000
" />
<path d="M179454000 95007000
L179454000 91411000
" />
<path d="M179494000 88929000
L179494000 85320000
" />
<path d="M179494000 95020000
L179494000 91411000
" />
<path d="M179534000 88929000
L179534000 85308000
" />
<path d="M179534000 95032000
L179534000 91411000
" />
<path d="M179574000 88929000
L179574000 85296000
" />
<path d="M179574000 95044000
L179574000 91411000
" />
<path d="M179614000 88929000
L179614000 85285000
" />
<path d="M179614000 95055000
L179614000 91411000
" />
<path d="M179654000 88929000
L179654000 85273000
" />
<path d="M179654000 95067000
L179654000 91411000
" />
<path d="M179694000 88929000
L179694000 85263000
" />
<path d="M179694000 95077000
L179694000 91411000
" />
<path d="M179734000 88929000
L179734000 85252000
" />
<path d="M179734000 95088000
L179734000 91411000
" />
<path d="M179774000 95098000
L179774000 85242000
" />
<path d="M179814000 95108000
L179814000 85232000
" />
<path d="M179854000 95117000
L179854000 85223000
" />
<path d="M179894000 95126000
L179894000 85214000
" />
<path d="M179934000 95135000
L179934000 85205000
" />
<path d="M179974000 95144000
L179974000 85196000
" />
<path d="M180014000 95152000
L180014000 85188000
" />
<path d="M180054000 95160000
L180054000 85180000
" />
<path d="M180094000 95167000
L180094000 85173000
" />
<path d="M180134000 95174000
L180134000 85166000
" />
<path d="M180174000 95181000
L180174000 85159000
" />
<path d="M180214000 95188000
L180214000 85152000
" />
<path d="M180254000 95194000
L180254000 85146000
" />
<path d="M180294000 95200000
L180294000 85140000
" />
<path d="M180335000 95205000
L180335000 85135000
" />
<path d="M180375000 95210000
L180375000 85130000
" />
<path d="M180415000 95215000
L180415000 85125000
" />
<path d="M180455000 95220000
L180455000 85120000
" />
<path d="M180495000 95224000
L180495000 85116000
" />
<path d="M180535000 95228000
L180535000 85112000
" />
<path d="M180575000 95232000
L180575000 85108000
" />
<path d="M180615000 95235000
L180615000 85105000
" />
<path d="M180655000 95238000
L180655000 85102000
" />
<path d="M180695000 95240000
L180695000 85100000
" />
<path d="M180735000 95243000
L180735000 85097000
" />
<path d="M180775000 95245000
L180775000 85095000
" />
<path d="M180815000 95247000
L180815000 85093000
" />
<path d="M180855000 95248000
L180855000 85092000
" />
<path d="M180895000 95249000
L180895000 85091000
" />
<path d="M180935000 95250000
L180935000 85090000
" />
<path d="M180975000 95250000
L180975000 85090000
" />
<path d="M181015000 95250000
L181015000 85090000
" />
<circle cx="181015000.000000" cy="90170000.000000" r="5120000.000000" /> 
<circle cx="178937677.000000" cy="100965000.000000" r="5120000.000000" /> 
<path d="M178937677 106045000
L178937677 95885000
" />
<path d="M178897677 106045000
L178897677 95885000
" />
<path d="M178857677 106045000
L178857677 95885000
" />
<path d="M178817677 106044000
L178817677 95886000
" />
<path d="M178777677 106043000
L178777677 95887000
" />
<path d="M178737677 106042000
L178737677 95888000
" />
<path d="M178697677 106040000
L178697677 95890000
" />
<path d="M178657677 106038000
L178657677 95892000
" />
<path d="M178617677 106035000
L178617677 95895000
" />
<path d="M178577677 106033000
L178577677 95897000
" />
<path d="M178537677 106030000
L178537677 95900000
" />
<path d="M178497677 106027000
L178497677 95903000
" />
<path d="M178457677 106023000
L178457677 95907000
" />
<path d="M178417677 106019000
L178417677 95911000
" />
<path d="M178377677 106015000
L178377677 95915000
" />
<path d="M178337677 106010000
L178337677 95920000
" />
<path d="M178297677 106005000
L178297677 95925000
" />
<path d="M178257677 106000000
L178257677 95930000
" />
<path d="M178216677 105995000
L178216677 95935000
" />
<path d="M178176677 105989000
L178176677 95941000
" />
<path d="M178136677 105983000
L178136677 95947000
" />
<path d="M178096677 105976000
L178096677 95954000
" />
<path d="M178056677 105969000
L178056677 95961000
" />
<path d="M178016677 105962000
L178016677 95968000
" />
<path d="M177976677 105955000
L177976677 95975000
" />
<path d="M177936677 105947000
L177936677 95983000
" />
<path d="M177896677 105939000
L177896677 95991000
" />
<path d="M177856677 105930000
L177856677 96000000
" />
<path d="M177816677 105921000
L177816677 96009000
" />
<path d="M177776677 105912000
L177776677 96018000
" />
<path d="M177736677 105903000
L177736677 96027000
" />
<path d="M177696677 105893000
L177696677 96037000
" />
<path d="M177656677 105883000
L177656677 102206000
" />
<path d="M177656677 99724000
L177656677 96047000
" />
<path d="M177616677 105872000
L177616677 102206000
" />
<path d="M177616677 99724000
L177616677 96058000
" />
<path d="M177576677 105862000
L177576677 102206000
" />
<path d="M177576677 99724000
L177576677 96068000
" />
<path d="M177536677 105850000
L177536677 102206000
" />
<path d="M177536677 99724000
L177536677 96080000
" />
<path d="M177496677 105839000
L177496677 102206000
" />
<path d="M177496677 99724000
L177496677 96091000
" />
<path d="M177456677 105827000
L177456677 102206000
" />
<path d="M177456677 99724000
L177456677 96103000
" />
<path d="M177416677 105815000
L177416677 102206000
" />
<path d="M177416677 99724000
L177416677 96115000
" />
<path d="M177376677 105802000
L177376677 102206000
" />
<path d="M177376677 99724000
L177376677 96128000
" />
<path d="M177336677 105789000
L177336677 102206000
" />
<path d="M177336677 99724000
L177336677 96141000
" />
<path d="M177296677 105776000
L177296677 102206000
" />
<path d="M177296677 99724000
L177296677 96154000
" />
<path d="M177256677 105762000
L177256677 102206000
" />
<path d="M177256677 99724000
L177256677 96168000
" />
<path d="M177216677 105748000
L177216677 102206000
" />
<path d="M177216677 99724000
L177216677 96182000
" />
<path d="M177176677 105733000
L177176677 102206000
" />
<path d="M177176677 99724000
L177176677 96197000
" />
<path d="M177136677 105719000
L177136677 102206000
" />
<path d="M177136677 99724000
L177136677 96211000
" />
<path d="M177096677 105703000
L177096677 102206000
" />
<path d="M177096677 99724000
L177096677 96227000
" />
<path d="M177056677 105688000
L177056677 102206000
" />
<path d="M177056677 99724000
L177056677 96242000
" />
<path d="M177016677 105672000
L177016677 102206000
" />
<path d="M177016677 99724000
L177016677 96258000
" />
<path d="M176976677 105655000
L176976677 102206000
" />
<path d="M176976677 99724000
L176976677 96275000
" />
<path d="M176936677 105639000
L176936677 102206000
" />
<path d="M176936677 99724000
L176936677 96291000
" />
<path d="M176896677 105622000
L176896677 102206000
" />
<path d="M176896677 99724000
L176896677 96308000
" />
<path d="M176856677 105604000
L176856677 102206000
" />
<path d="M176856677 99724000
L176856677 96326000
" />
<path d="M176816677 105586000
L176816677 102206000
" />
<path d="M176816677 99724000
L176816677 96344000
" />
<path d="M176776677 105568000
L176776677 102206000
" />
<path d="M176776677 99724000
L176776677 96362000
" />
<path d="M176736677 105549000
L176736677 102206000
" />
<path d="M176736677 99724000
L176736677 96381000
" />
<path d="M176696677 105529000
L176696677 102206000
" />
<path d="M176696677 99724000
L176696677 96401000
" />
<path d="M176656677 105510000
L176656677 102206000
" />
<path d="M176656677 99724000
L176656677 96420000
" />
<path d="M176616677 105490000
L176616677 102206000
" />
<path d="M176616677 99724000
L176616677 96440000
" />
<path d="M176576677 105469000
L176576677 102206000
" />
<path d="M176576677 99724000
L176576677 96461000
" />
<path d="M176536677 105448000
L176536677 102206000
" />
<path d="M176536677 99724000
L176536677 96482000
" />
<path d="M176496677 105427000
L176496677 102206000
" />
<path d="M176496677 99724000
L176496677 96503000
" />
<path d="M176456677 105405000
L176456677 102206000
" />
<path d="M176456677 99724000
L176456677 96525000
" />
<path d="M176416677 105382000
L176416677 102206000
" />
<path d="M176416677 99724000
L176416677 96548000
" />
<path d="M176376677 105360000
L176376677 102206000
" />
<path d="M176376677 99724000
L176376677 96570000
" />
<path d="M176336677 105336000
L176336677 102206000
" />
<path d="M176336677 99724000
L176336677 96594000
" />
<path d="M176296677 105312000
L176296677 102206000
" />
<path d="M176296677 99724000
L176296677 96618000
" />
<path d="M176256677 105288000
L176256677 102206000
" />
<path d="M176256677 99724000
L176256677 96642000
" />
<path d="M176216677 105263000
L176216677 102206000
" />
<path d="M176216677 99724000
L176216677 96667000
" />
<path d="M176176677 105238000
L176176677 102206000
" />
<path d="M176176677 99724000
L176176677 96692000
" />
<path d="M176136677 105212000
L176136677 102206000
" />
<path d="M176136677 99724000
L176136677 96718000
" />
<path d="M176096677 105186000
L176096677 102206000
" />
<path d="M176096677 99724000
L176096677 96744000
" />
<path d="M176056677 105159000
L176056677 102206000
" />
<path d="M176056677 99724000
L176056677 96771000
" />
<path d="M176016677 105131000
L176016677 102206000
" />
<path d="M176016677 99724000
L176016677 96799000
" />
<path d="M175976677 105103000
L175976677 102206000
" />
<path d="M175976677 99724000
L175976677 96827000
" />
<path d="M175936677 105075000
L175936677 102206000
" />
<path d="M175936677 99724000
L175936677 96855000
" />
<path d="M175896677 105045000
L175896677 102206000
" />
<path d="M175896677 99724000
L175896677 96885000
" />
<path d="M175856677 105015000
L175856677 102206000
" />
<path d="M175856677 99724000
L175856677 96915000
" />
<path d="M175816677 104985000
L175816677 102206000
" />
<path d="M175816677 99724000
L175816677 96945000
" />
<path d="M175776677 104954000
L175776677 102206000
" />
<path d="M175776677 99724000
L175776677 96976000
" />
<path d="M175736677 104922000
L175736677 102206000
" />
<path d="M175736677 99724000
L175736677 97008000
" />
<path d="M175696677 104890000
L175696677 102206000
" />
<path d="M175696677 99724000
L175696677 97040000
" />
<path d="M175656677 104857000
L175656677 102206000
" />
<path d="M175656677 99724000
L175656677 97073000
" />
<path d="M175616677 104823000
L175616677 102206000
" />
<path d="M175616677 99724000
L175616677 97107000
" />
<path d="M175576677 104789000
L175576677 102206000
" />
<path d="M175576677 99724000
L175576677 97141000
" />
<path d="M175536677 104754000
L175536677 102206000
" />
<path d="M175536677 99724000
L175536677 97176000
" />
<path d="M175496677 104718000
L175496677 102206000
" />
<path d="M175496677 99724000
L175496677 97212000
" />
<path d="M175456677 104681000
L175456677 102206000
" />
<path d="M175456677 99724000
L175456677 97249000
" />
<path d="M175416677 104644000
L175416677 102206000
" />
<path d="M175416677 99724000
L175416677 97286000
" />
<path d="M175376677 104605000
L175376677 102206000
" />
<path d="M175376677 99724000
L175376677 97325000
" />
<path d="M175336677 104566000
L175336677 102206000
" />
<path d="M175336677 99724000
L175336677 97364000
" />
<path d="M175296677 104526000
L175296677 102206000
" />
<path d="M175296677 99724000
L175296677 97404000
" />
<path d="M175256677 104485000
L175256677 102206000
" />
<path d="M175256677 99724000
L175256677 97445000
" />
<path d="M175216677 104443000
L175216677 102206000
" />
<path d="M175216677 99724000
L175216677 97487000
" />
<path d="M175176677 104401000
L175176677 97529000
" />
<path d="M175136677 104357000
L175136677 97573000
" />
<path d="M175096677 104312000
L175096677 97618000
" />
<path d="M175056677 104266000
L175056677 97664000
" />
<path d="M175016677 104219000
L175016677 97711000
" />
<path d="M174976677 104171000
L174976677 97759000
" />
<path d="M174936677 104121000
L174936677 97809000
" />
<path d="M174896677 104071000
L174896677 97859000
" />
<path d="M174856677 104019000
L174856677 97911000
" />
<path d="M174816677 103965000
L174816677 97965000
" />
<path d="M174776677 103910000
L174776677 98020000
" />
<path d="M174736677 103854000
L174736677 98076000
" />
<path d="M174696677 103795000
L174696677 98135000
" />
<path d="M174656677 103735000
L174656677 98195000
" />
<path d="M174616677 103674000
L174616677 98256000
" />
<path d="M174576677 103610000
L174576677 98320000
" />
<path d="M174536677 103544000
L174536677 98386000
" />
<path d="M174496677 103475000
L174496677 98455000
" />
<path d="M174456677 103404000
L174456677 98526000
" />
<path d="M174416677 103330000
L174416677 98600000
" />
<path d="M174376677 103254000
L174376677 98676000
" />
<path d="M174336677 103174000
L174336677 98756000
" />
<path d="M174296677 103090000
L174296677 98840000
" />
<path d="M174256677 103002000
L174256677 98928000
" />
<path d="M174216677 102909000
L174216677 99021000
" />
<path d="M174176677 102811000
L174176677 99119000
" />
<path d="M174136677 102707000
L174136677 99223000
" />
<path d="M174096677 102595000
L174096677 99335000
" />
<path d="M174056677 102475000
L174056677 99455000
" />
<path d="M174016677 102343000
L174016677 99587000
" />
<path d="M173976677 102195000
L173976677 99735000
" />
<path d="M173936677 102027000
L173936677 99903000
" />
<path d="M173896677 101827000
L173896677 100103000
" />
<path d="M173856677 101564000
L173856677 100366000
" />
<path d="M184417323 103840000
L183417323 103840000
" />
<path d="M183917323 104340000
L183917323 103340000
" />
<circle cx="74716000.000000" cy="111760000.000000" r="5120000.000000" /> 
<path d="M74716000 106680000
L74716000 116840000
" />
<path d="M74756000 106680000
L74756000 116840000
" />
<path d="M74796000 106680000
L74796000 116840000
" />
<path d="M74836000 106681000
L74836000 116839000
" />
<path d="M74876000 106682000
L74876000 116838000
" />
<path d="M74916000 106683000
L74916000 116837000
" />
<path d="M74956000 106685000
L74956000 116835000
" />
<path d="M74996000 106687000
L74996000 116833000
" />
<path d="M75036000 106690000
L75036000 116830000
" />
<path d="M75076000 106692000
L75076000 116828000
" />
<path d="M75116000 106695000
L75116000 116825000
" />
<path d="M75156000 106698000
L75156000 116822000
" />
<path d="M75196000 106702000
L75196000 116818000
" />
<path d="M75236000 106706000
L75236000 116814000
" />
<path d="M75276000 106710000
L75276000 116810000
" />
<path d="M75316000 106715000
L75316000 116805000
" />
<path d="M75356000 106720000
L75356000 116800000
" />
<path d="M75396000 106725000
L75396000 116795000
" />
<path d="M75437000 106730000
L75437000 116790000
" />
<path d="M75477000 106736000
L75477000 116784000
" />
<path d="M75517000 106742000
L75517000 116778000
" />
<path d="M75557000 106749000
L75557000 116771000
" />
<path d="M75597000 106756000
L75597000 116764000
" />
<path d="M75637000 106763000
L75637000 116757000
" />
<path d="M75677000 106770000
L75677000 116750000
" />
<path d="M75717000 106778000
L75717000 116742000
" />
<path d="M75757000 106786000
L75757000 116734000
" />
<path d="M75797000 106795000
L75797000 116725000
" />
<path d="M75837000 106804000
L75837000 116716000
" />
<path d="M75877000 106813000
L75877000 116707000
" />
<path d="M75917000 106822000
L75917000 116698000
" />
<path d="M75957000 106832000
L75957000 116688000
" />
<path d="M75997000 106842000
L75997000 110519000
" />
<path d="M75997000 113001000
L75997000 116678000
" />
<path d="M76037000 106853000
L76037000 110519000
" />
<path d="M76037000 113001000
L76037000 116667000
" />
<path d="M76077000 106863000
L76077000 110519000
" />
<path d="M76077000 113001000
L76077000 116657000
" />
<path d="M76117000 106875000
L76117000 110519000
" />
<path d="M76117000 113001000
L76117000 116645000
" />
<path d="M76157000 106886000
L76157000 110519000
" />
<path d="M76157000 113001000
L76157000 116634000
" />
<path d="M76197000 106898000
L76197000 110519000
" />
<path d="M76197000 113001000
L76197000 116622000
" />
<path d="M76237000 106910000
L76237000 110519000
" />
<path d="M76237000 113001000
L76237000 116610000
" />
<path d="M76277000 106923000
L76277000 110519000
" />
<path d="M76277000 113001000
L76277000 116597000
" />
<path d="M76317000 106936000
L76317000 110519000
" />
<path d="M76317000 113001000
L76317000 116584000
" />
<path d="M76357000 106949000
L76357000 110519000
" />
<path d="M76357000 113001000
L76357000 116571000
" />
<path d="M76397000 106963000
L76397000 110519000
" />
<path d="M76397000 113001000
L76397000 116557000
" />
<path d="M76437000 106977000
L76437000 110519000
" />
<path d="M76437000 113001000
L76437000 116543000
" />
<path d="M76477000 106992000
L76477000 110519000
" />
<path d="M76477000 113001000
L76477000 116528000
" />
<path d="M76517000 107006000
L76517000 110519000
" />
<path d="M76517000 113001000
L76517000 116514000
" />
<path d="M76557000 107022000
L76557000 110519000
" />
<path d="M76557000 113001000
L76557000 116498000
" />
<path d="M76597000 107037000
L76597000 110519000
" />
<path d="M76597000 113001000
L76597000 116483000
" />
<path d="M76637000 107053000
L76637000 110519000
" />
<path d="M76637000 113001000
L76637000 116467000
" />
<path d="M76677000 107070000
L76677000 110519000
" />
<path d="M76677000 113001000
L76677000 116450000
" />
<path d="M76717000 107086000
L76717000 110519000
" />
<path d="M76717000 113001000
L76717000 116434000
" />
<path d="M76757000 107103000
L76757000 110519000
" />
<path d="M76757000 113001000
L76757000 116417000
" />
<path d="M76797000 107121000
L76797000 110519000
" />
<path d="M76797000 113001000
L76797000 116399000
" />
<path d="M76837000 107139000
L76837000 110519000
" />
<path d="M76837000 113001000
L76837000 116381000
" />
<path d="M76877000 107157000
L76877000 110519000
" />
<path d="M76877000 113001000
L76877000 116363000
" />
<path d="M76917000 107176000
L76917000 110519000
" />
<path d="M76917000 113001000
L76917000 116344000
" />
<path d="M76957000 107196000
L76957000 110519000
" />
<path d="M76957000 113001000
L76957000 116324000
" />
<path d="M76997000 107215000
L76997000 110519000
" />
<path d="M76997000 113001000
L76997000 116305000
" />
<path d="M77037000 107235000
L77037000 110519000
" />
<path d="M77037000 113001000
L77037000 116285000
" />
<path d="M77077000 107256000
L77077000 110519000
" />
<path d="M77077000 113001000
L77077000 116264000
" />
<path d="M77117000 107277000
L77117000 110519000
" />
<path d="M77117000 113001000
L77117000 116243000
" />
<path d="M77157000 107298000
L77157000 110519000
" />
<path d="M77157000 113001000
L77157000 116222000
" />
<path d="M77197000 107320000
L77197000 110519000
" />
<path d="M77197000 113001000
L77197000 116200000
" />
<path d="M77237000 107343000
L77237000 110519000
" />
<path d="M77237000 113001000
L77237000 116177000
" />
<path d="M77277000 107365000
L77277000 110519000
" />
<path d="M77277000 113001000
L77277000 116155000
" />
<path d="M77317000 107389000
L77317000 110519000
" />
<path d="M77317000 113001000
L77317000 116131000
" />
<path d="M77357000 107413000
L77357000 110519000
" />
<path d="M77357000 113001000
L77357000 116107000
" />
<path d="M77397000 107437000
L77397000 110519000
" />
<path d="M77397000 113001000
L77397000 116083000
" />
<path d="M77437000 107462000
L77437000 110519000
" />
<path d="M77437000 113001000
L77437000 116058000
" />
<path d="M77477000 107487000
L77477000 110519000
" />
<path d="M77477000 113001000
L77477000 116033000
" />
<path d="M77517000 107513000
L77517000 110519000
" />
<path d="M77517000 113001000
L77517000 116007000
" />
<path d="M77557000 107539000
L77557000 110519000
" />
<path d="M77557000 113001000
L77557000 115981000
" />
<path d="M77597000 107566000
L77597000 110519000
" />
<path d="M77597000 113001000
L77597000 115954000
" />
<path d="M77637000 107594000
L77637000 110519000
" />
<path d="M77637000 113001000
L77637000 115926000
" />
<path d="M77677000 107622000
L77677000 110519000
" />
<path d="M77677000 113001000
L77677000 115898000
" />
<path d="M77717000 107650000
L77717000 110519000
" />
<path d="M77717000 113001000
L77717000 115870000
" />
<path d="M77757000 107680000
L77757000 110519000
" />
<path d="M77757000 113001000
L77757000 115840000
" />
<path d="M77797000 107710000
L77797000 110519000
" />
<path d="M77797000 113001000
L77797000 115810000
" />
<path d="M77837000 107740000
L77837000 110519000
" />
<path d="M77837000 113001000
L77837000 115780000
" />
<path d="M77877000 107771000
L77877000 110519000
" />
<path d="M77877000 113001000
L77877000 115749000
" />
<path d="M77917000 107803000
L77917000 110519000
" />
<path d="M77917000 113001000
L77917000 115717000
" />
<path d="M77957000 107835000
L77957000 110519000
" />
<path d="M77957000 113001000
L77957000 115685000
" />
<path d="M77997000 107868000
L77997000 110519000
" />
<path d="M77997000 113001000
L77997000 115652000
" />
<path d="M78037000 107902000
L78037000 110519000
" />
<path d="M78037000 113001000
L78037000 115618000
" />
<path d="M78077000 107936000
L78077000 110519000
" />
<path d="M78077000 113001000
L78077000 115584000
" />
<path d="M78117000 107971000
L78117000 110519000
" />
<path d="M78117000 113001000
L78117000 115549000
" />
<path d="M78157000 108007000
L78157000 110519000
" />
<path d="M78157000 113001000
L78157000 115513000
" />
<path d="M78197000 108044000
L78197000 110519000
" />
<path d="M78197000 113001000
L78197000 115476000
" />
<path d="M78237000 108081000
L78237000 110519000
" />
<path d="M78237000 113001000
L78237000 115439000
" />
<path d="M78277000 108120000
L78277000 110519000
" />
<path d="M78277000 113001000
L78277000 115400000
" />
<path d="M78317000 108159000
L78317000 110519000
" />
<path d="M78317000 113001000
L78317000 115361000
" />
<path d="M78357000 108199000
L78357000 110519000
" />
<path d="M78357000 113001000
L78357000 115321000
" />
<path d="M78397000 108240000
L78397000 110519000
" />
<path d="M78397000 113001000
L78397000 115280000
" />
<path d="M78437000 108282000
L78437000 110519000
" />
<path d="M78437000 113001000
L78437000 115238000
" />
<path d="M78477000 108324000
L78477000 115196000
" />
<path d="M78517000 108368000
L78517000 115152000
" />
<path d="M78557000 108413000
L78557000 115107000
" />
<path d="M78597000 108459000
L78597000 115061000
" />
<path d="M78637000 108506000
L78637000 115014000
" />
<path d="M78677000 108554000
L78677000 114966000
" />
<path d="M78717000 108604000
L78717000 114916000
" />
<path d="M78757000 108654000
L78757000 114866000
" />
<path d="M78797000 108706000
L78797000 114814000
" />
<path d="M78837000 108760000
L78837000 114760000
" />
<path d="M78877000 108815000
L78877000 114705000
" />
<path d="M78917000 108871000
L78917000 114649000
" />
<path d="M78957000 108930000
L78957000 114590000
" />
<path d="M78997000 108990000
L78997000 114530000
" />
<path d="M79037000 109051000
L79037000 114469000
" />
<path d="M79077000 109115000
L79077000 114405000
" />
<path d="M79117000 109181000
L79117000 114339000
" />
<path d="M79157000 109250000
L79157000 114270000
" />
<path d="M79197000 109321000
L79197000 114199000
" />
<path d="M79237000 109395000
L79237000 114125000
" />
<path d="M79277000 109471000
L79277000 114049000
" />
<path d="M79317000 109551000
L79317000 113969000
" />
<path d="M79357000 109635000
L79357000 113885000
" />
<path d="M79397000 109723000
L79397000 113797000
" />
<path d="M79437000 109816000
L79437000 113704000
" />
<path d="M79477000 109914000
L79477000 113606000
" />
<path d="M79517000 110018000
L79517000 113502000
" />
<path d="M79557000 110130000
L79557000 113390000
" />
<path d="M79597000 110250000
L79597000 113270000
" />
<path d="M79637000 110382000
L79637000 113138000
" />
<path d="M79677000 110530000
L79677000 112990000
" />
<path d="M79717000 110698000
L79717000 112822000
" />
<path d="M79757000 110898000
L79757000 112622000
" />
<path d="M79797000 111161000
L79797000 112359000
" />
<path d="M69236354 108885000
L70236354 108885000
" />
<path d="M69736354 108385000
L69736354 109385000
" />
<g >
</g>
<g >
</g>
<g >
</g>
<g >
</g>
<g >
</g>
<g >
</g>
<g >
</g>
<g >
</g>
<g >
</g>
<g >
</g>
<g >
</g>
<g >
</g>
<g >
</g>
<g >
</g>
<g >
</g>
<g >
</g>
<g >
</g>
<g >
</g>
<g >
</g>
<g >
</g>
<g >
</g>
<g >
</g>
<g >
</g>
<g >
</g>
<g >
</g>
<g >
</g>
<g >
</g>
<g >
</g>
<g >
</g>
<g >
</g>
<g >
</g>
<g >
</g>
<g >
</g>
</g> 
</svg>
