%TF.GenerationSoftware,KiCad,Pcbnew,(6.0.0-0)*%
%TF.CreationDate,2023-11-25T22:37:42-05:00*%
%TF.ProjectId,pinker2,70696e6b-6572-4322-9e6b-696361645f70,rev?*%
%TF.SameCoordinates,Original*%
%TF.FileFunction,Soldermask,Bot*%
%TF.FilePolarity,Negative*%
%FSLAX46Y46*%
G04 Gerber Fmt 4.6, Leading zero omitted, Abs format (unit mm)*
G04 Created by KiCad (PCBNEW (6.0.0-0)) date 2023-11-25 22:37:42*
%MOMM*%
%LPD*%
G01*
G04 APERTURE LIST*
%ADD10C,1.400000*%
%ADD11O,1.400000X1.400000*%
%ADD12C,1.600000*%
%ADD13C,3.400000*%
%ADD14C,2.900000*%
%ADD15C,1.440000*%
%ADD16R,1.050000X1.500000*%
%ADD17O,1.050000X1.500000*%
%ADD18R,2.000000X2.000000*%
%ADD19C,2.000000*%
%ADD20R,1.200000X1.200000*%
%ADD21C,1.200000*%
%ADD22R,1.600000X1.600000*%
%ADD23O,1.600000X1.600000*%
G04 APERTURE END LIST*
D10*
%TO.C,R11*%
X160024000Y-87503000D03*
D11*
X161924000Y-87503000D03*
%TD*%
D12*
%TO.C,J1*%
X202700000Y-100330000D03*
X207780000Y-92710000D03*
D13*
X193810000Y-100330000D03*
X193810000Y-92710000D03*
D14*
X193810000Y-96520000D03*
X198890000Y-96520000D03*
%TD*%
D10*
%TO.C,R3*%
X141224000Y-104902000D03*
D11*
X141224000Y-103002000D03*
%TD*%
D15*
%TO.C,R17*%
X133350000Y-102727000D03*
X130810000Y-105267000D03*
X128270000Y-102727000D03*
%TD*%
D12*
%TO.C,C3*%
X161329401Y-104648000D03*
X158829401Y-104648000D03*
%TD*%
D16*
%TO.C,Q1*%
X127000000Y-96118000D03*
D17*
X128270000Y-96118000D03*
X129540000Y-96118000D03*
%TD*%
D10*
%TO.C,R15*%
X189881000Y-106172000D03*
D11*
X187981000Y-106172000D03*
%TD*%
D10*
%TO.C,R1*%
X128270000Y-89297000D03*
D11*
X128270000Y-87397000D03*
%TD*%
D18*
%TO.C,C8*%
X180086000Y-99740323D03*
D19*
X180086000Y-104740323D03*
%TD*%
%TO.C,C6*%
X178215677Y-90170000D03*
D18*
X183215677Y-90170000D03*
%TD*%
D12*
%TO.C,C7*%
X188976000Y-95250000D03*
X188976000Y-97750000D03*
%TD*%
%TO.C,C4*%
X161437000Y-98933000D03*
X158937000Y-98933000D03*
%TD*%
D20*
%TO.C,C9*%
X133248600Y-95864000D03*
D21*
X134748600Y-95864000D03*
%TD*%
D10*
%TO.C,R13*%
X188976000Y-92599000D03*
D11*
X188976000Y-90699000D03*
%TD*%
D22*
%TO.C,U1*%
X146294000Y-96256000D03*
D23*
X146294000Y-93716000D03*
X146294000Y-91176000D03*
X146294000Y-88636000D03*
X138674000Y-88636000D03*
X138674000Y-91176000D03*
X138674000Y-93716000D03*
X138674000Y-96256000D03*
%TD*%
D10*
%TO.C,R4*%
X144780000Y-104902000D03*
D11*
X144780000Y-103002000D03*
%TD*%
D18*
%TO.C,C5*%
X152146000Y-98724323D03*
D19*
X152146000Y-103724323D03*
%TD*%
D10*
%TO.C,R5*%
X169975677Y-104521000D03*
D11*
X171875677Y-104521000D03*
%TD*%
D10*
%TO.C,R14*%
X188976000Y-102251000D03*
D11*
X188976000Y-100351000D03*
%TD*%
D10*
%TO.C,R10*%
X164977000Y-99187000D03*
D11*
X166877000Y-99187000D03*
%TD*%
D10*
%TO.C,R8*%
X160274599Y-93091000D03*
D11*
X162174599Y-93091000D03*
%TD*%
D10*
%TO.C,R6*%
X171958000Y-98806000D03*
D11*
X170058000Y-98806000D03*
%TD*%
D12*
%TO.C,C2*%
X156444599Y-93091000D03*
X153944599Y-93091000D03*
%TD*%
D10*
%TO.C,R7*%
X156142401Y-87376000D03*
D11*
X154242401Y-87376000D03*
%TD*%
D10*
%TO.C,R2*%
X134112000Y-89297000D03*
D11*
X134112000Y-87397000D03*
%TD*%
D10*
%TO.C,R12*%
X173990000Y-96012000D03*
D11*
X175890000Y-96012000D03*
%TD*%
D18*
%TO.C,C11*%
X169164000Y-87802323D03*
D19*
X169164000Y-92802323D03*
%TD*%
D20*
%TO.C,C10*%
X138176000Y-103743000D03*
D21*
X136676000Y-103743000D03*
%TD*%
D20*
%TO.C,C1*%
X149899401Y-90424000D03*
D21*
X151399401Y-90424000D03*
%TD*%
D10*
%TO.C,R9*%
X164957000Y-104648000D03*
D11*
X166857000Y-104648000D03*
%TD*%
M02*
