%TF.GenerationSoftware,KiCad,Pcbnew,(6.0.0-0)*%
%TF.CreationDate,2023-11-25T22:37:42-05:00*%
%TF.ProjectId,pinker2,70696e6b-6572-4322-9e6b-696361645f70,rev?*%
%TF.SameCoordinates,Original*%
%TF.FileFunction,Legend,Bot*%
%TF.FilePolarity,Positive*%
%FSLAX46Y46*%
G04 Gerber Fmt 4.6, Leading zero omitted, Abs format (unit mm)*
G04 Created by KiCad (PCBNEW (6.0.0-0)) date 2023-11-25 22:37:42*
%MOMM*%
%LPD*%
G01*
G04 APERTURE LIST*
%ADD10C,0.300000*%
%ADD11C,0.250000*%
G04 APERTURE END LIST*
D10*
X160506000Y-106866571D02*
X160506000Y-108080857D01*
X160577428Y-108223714D01*
X160648857Y-108295142D01*
X160791714Y-108366571D01*
X161006000Y-108366571D01*
X161148857Y-108295142D01*
X160506000Y-107795142D02*
X160648857Y-107866571D01*
X160934571Y-107866571D01*
X161077428Y-107795142D01*
X161148857Y-107723714D01*
X161220285Y-107580857D01*
X161220285Y-107152285D01*
X161148857Y-107009428D01*
X161077428Y-106938000D01*
X160934571Y-106866571D01*
X160648857Y-106866571D01*
X160506000Y-106938000D01*
X159791714Y-107866571D02*
X159791714Y-106866571D01*
X159791714Y-106366571D02*
X159863142Y-106438000D01*
X159791714Y-106509428D01*
X159720285Y-106438000D01*
X159791714Y-106366571D01*
X159791714Y-106509428D01*
X159291714Y-106866571D02*
X158720285Y-106866571D01*
X159077428Y-106366571D02*
X159077428Y-107652285D01*
X159006000Y-107795142D01*
X158863142Y-107866571D01*
X158720285Y-107866571D01*
X158220285Y-107866571D02*
X158220285Y-106366571D01*
X157577428Y-107866571D02*
X157577428Y-107080857D01*
X157648857Y-106938000D01*
X157791714Y-106866571D01*
X158006000Y-106866571D01*
X158148857Y-106938000D01*
X158220285Y-107009428D01*
X156220285Y-106866571D02*
X156220285Y-107866571D01*
X156863142Y-106866571D02*
X156863142Y-107652285D01*
X156791714Y-107795142D01*
X156648857Y-107866571D01*
X156434571Y-107866571D01*
X156291714Y-107795142D01*
X156220285Y-107723714D01*
X155506000Y-107866571D02*
X155506000Y-106366571D01*
X155506000Y-106938000D02*
X155363142Y-106866571D01*
X155077428Y-106866571D01*
X154934571Y-106938000D01*
X154863142Y-107009428D01*
X154791714Y-107152285D01*
X154791714Y-107580857D01*
X154863142Y-107723714D01*
X154934571Y-107795142D01*
X155077428Y-107866571D01*
X155363142Y-107866571D01*
X155506000Y-107795142D01*
X154148857Y-107723714D02*
X154077428Y-107795142D01*
X154148857Y-107866571D01*
X154220285Y-107795142D01*
X154148857Y-107723714D01*
X154148857Y-107866571D01*
X154148857Y-106938000D02*
X154077428Y-107009428D01*
X154148857Y-107080857D01*
X154220285Y-107009428D01*
X154148857Y-106938000D01*
X154148857Y-107080857D01*
X152791714Y-107795142D02*
X152934571Y-107866571D01*
X153220285Y-107866571D01*
X153363142Y-107795142D01*
X153434571Y-107723714D01*
X153506000Y-107580857D01*
X153506000Y-107152285D01*
X153434571Y-107009428D01*
X153363142Y-106938000D01*
X153220285Y-106866571D01*
X152934571Y-106866571D01*
X152791714Y-106938000D01*
X152148857Y-107866571D02*
X152148857Y-106366571D01*
X151506000Y-107866571D02*
X151506000Y-107080857D01*
X151577428Y-106938000D01*
X151720285Y-106866571D01*
X151934571Y-106866571D01*
X152077428Y-106938000D01*
X152148857Y-107009428D01*
X150791714Y-107866571D02*
X150791714Y-106866571D01*
X150791714Y-107152285D02*
X150720285Y-107009428D01*
X150648857Y-106938000D01*
X150506000Y-106866571D01*
X150363142Y-106866571D01*
X149863142Y-107866571D02*
X149863142Y-106866571D01*
X149863142Y-106366571D02*
X149934571Y-106438000D01*
X149863142Y-106509428D01*
X149791714Y-106438000D01*
X149863142Y-106366571D01*
X149863142Y-106509428D01*
X149220285Y-107795142D02*
X149077428Y-107866571D01*
X148791714Y-107866571D01*
X148648857Y-107795142D01*
X148577428Y-107652285D01*
X148577428Y-107580857D01*
X148648857Y-107438000D01*
X148791714Y-107366571D01*
X149006000Y-107366571D01*
X149148857Y-107295142D01*
X149220285Y-107152285D01*
X149220285Y-107080857D01*
X149148857Y-106938000D01*
X149006000Y-106866571D01*
X148791714Y-106866571D01*
X148648857Y-106938000D01*
X148148857Y-106866571D02*
X147577428Y-106866571D01*
X147934571Y-107866571D02*
X147934571Y-106580857D01*
X147863142Y-106438000D01*
X147720285Y-106366571D01*
X147577428Y-106366571D01*
X147077428Y-107866571D02*
X147077428Y-106866571D01*
X147077428Y-107152285D02*
X147006000Y-107009428D01*
X146934571Y-106938000D01*
X146791714Y-106866571D01*
X146648857Y-106866571D01*
X145934571Y-107866571D02*
X146077428Y-107795142D01*
X146148857Y-107723714D01*
X146220285Y-107580857D01*
X146220285Y-107152285D01*
X146148857Y-107009428D01*
X146077428Y-106938000D01*
X145934571Y-106866571D01*
X145720285Y-106866571D01*
X145577428Y-106938000D01*
X145506000Y-107009428D01*
X145434571Y-107152285D01*
X145434571Y-107580857D01*
X145506000Y-107723714D01*
X145577428Y-107795142D01*
X145720285Y-107866571D01*
X145934571Y-107866571D01*
X144791714Y-107866571D02*
X144791714Y-106866571D01*
X144791714Y-107009428D02*
X144720285Y-106938000D01*
X144577428Y-106866571D01*
X144363142Y-106866571D01*
X144220285Y-106938000D01*
X144148857Y-107080857D01*
X144148857Y-107866571D01*
X144148857Y-107080857D02*
X144077428Y-106938000D01*
X143934571Y-106866571D01*
X143720285Y-106866571D01*
X143577428Y-106938000D01*
X143506000Y-107080857D01*
X143506000Y-107866571D01*
X143006000Y-106866571D02*
X142434571Y-106866571D01*
X142791714Y-106366571D02*
X142791714Y-107652285D01*
X142720285Y-107795142D01*
X142577428Y-107866571D01*
X142434571Y-107866571D01*
X141934571Y-107866571D02*
X141934571Y-106366571D01*
X141291714Y-107866571D02*
X141291714Y-107080857D01*
X141363142Y-106938000D01*
X141506000Y-106866571D01*
X141720285Y-106866571D01*
X141863142Y-106938000D01*
X141934571Y-107009428D01*
X140006000Y-107795142D02*
X140148857Y-107866571D01*
X140434571Y-107866571D01*
X140577428Y-107795142D01*
X140648857Y-107652285D01*
X140648857Y-107080857D01*
X140577428Y-106938000D01*
X140434571Y-106866571D01*
X140148857Y-106866571D01*
X140006000Y-106938000D01*
X139934571Y-107080857D01*
X139934571Y-107223714D01*
X140648857Y-107366571D01*
X139291714Y-106866571D02*
X139291714Y-108366571D01*
X139291714Y-106938000D02*
X139148857Y-106866571D01*
X138863142Y-106866571D01*
X138720285Y-106938000D01*
X138648857Y-107009428D01*
X138577428Y-107152285D01*
X138577428Y-107580857D01*
X138648857Y-107723714D01*
X138720285Y-107795142D01*
X138863142Y-107866571D01*
X139148857Y-107866571D01*
X139291714Y-107795142D01*
X137291714Y-107866571D02*
X137291714Y-107080857D01*
X137363142Y-106938000D01*
X137506000Y-106866571D01*
X137791714Y-106866571D01*
X137934571Y-106938000D01*
X137291714Y-107795142D02*
X137434571Y-107866571D01*
X137791714Y-107866571D01*
X137934571Y-107795142D01*
X138006000Y-107652285D01*
X138006000Y-107509428D01*
X137934571Y-107366571D01*
X137791714Y-107295142D01*
X137434571Y-107295142D01*
X137291714Y-107223714D01*
X136648857Y-107795142D02*
X136506000Y-107866571D01*
X136220285Y-107866571D01*
X136077428Y-107795142D01*
X136006000Y-107652285D01*
X136006000Y-107580857D01*
X136077428Y-107438000D01*
X136220285Y-107366571D01*
X136434571Y-107366571D01*
X136577428Y-107295142D01*
X136648857Y-107152285D01*
X136648857Y-107080857D01*
X136577428Y-106938000D01*
X136434571Y-106866571D01*
X136220285Y-106866571D01*
X136077428Y-106938000D01*
X135577428Y-106866571D02*
X135006000Y-106866571D01*
X135363142Y-106366571D02*
X135363142Y-107652285D01*
X135291714Y-107795142D01*
X135148857Y-107866571D01*
X135006000Y-107866571D01*
X133434571Y-106295142D02*
X134720285Y-108223714D01*
X132934571Y-106866571D02*
X132934571Y-108366571D01*
X132934571Y-106938000D02*
X132791714Y-106866571D01*
X132506000Y-106866571D01*
X132363142Y-106938000D01*
X132291714Y-107009428D01*
X132220285Y-107152285D01*
X132220285Y-107580857D01*
X132291714Y-107723714D01*
X132363142Y-107795142D01*
X132506000Y-107866571D01*
X132791714Y-107866571D01*
X132934571Y-107795142D01*
X131577428Y-107866571D02*
X131577428Y-106866571D01*
X131577428Y-106366571D02*
X131648857Y-106438000D01*
X131577428Y-106509428D01*
X131506000Y-106438000D01*
X131577428Y-106366571D01*
X131577428Y-106509428D01*
X130863142Y-106866571D02*
X130863142Y-107866571D01*
X130863142Y-107009428D02*
X130791714Y-106938000D01*
X130648857Y-106866571D01*
X130434571Y-106866571D01*
X130291714Y-106938000D01*
X130220285Y-107080857D01*
X130220285Y-107866571D01*
X129506000Y-107866571D02*
X129506000Y-106366571D01*
X129363142Y-107295142D02*
X128934571Y-107866571D01*
X128934571Y-106866571D02*
X129506000Y-107438000D01*
X127720285Y-107795142D02*
X127863142Y-107866571D01*
X128148857Y-107866571D01*
X128291714Y-107795142D01*
X128363142Y-107652285D01*
X128363142Y-107080857D01*
X128291714Y-106938000D01*
X128148857Y-106866571D01*
X127863142Y-106866571D01*
X127720285Y-106938000D01*
X127648857Y-107080857D01*
X127648857Y-107223714D01*
X128363142Y-107366571D01*
X127006000Y-107866571D02*
X127006000Y-106866571D01*
X127006000Y-107152285D02*
X126934571Y-107009428D01*
X126863142Y-106938000D01*
X126720285Y-106866571D01*
X126577428Y-106866571D01*
X126148857Y-106509428D02*
X126077428Y-106438000D01*
X125934571Y-106366571D01*
X125577428Y-106366571D01*
X125434571Y-106438000D01*
X125363142Y-106509428D01*
X125291714Y-106652285D01*
X125291714Y-106795142D01*
X125363142Y-107009428D01*
X126220285Y-107866571D01*
X125291714Y-107866571D01*
D11*
X194772095Y-85513642D02*
X193781619Y-85513642D01*
X194276857Y-86085071D02*
X194276857Y-84942214D01*
X192605428Y-85085071D02*
X192605428Y-86085071D01*
X192914952Y-84513642D02*
X193224476Y-85585071D01*
X192419714Y-85585071D01*
X191738761Y-85227928D02*
X191862571Y-85156500D01*
X191924476Y-85085071D01*
X191986380Y-84942214D01*
X191986380Y-84870785D01*
X191924476Y-84727928D01*
X191862571Y-84656500D01*
X191738761Y-84585071D01*
X191491142Y-84585071D01*
X191367333Y-84656500D01*
X191305428Y-84727928D01*
X191243523Y-84870785D01*
X191243523Y-84942214D01*
X191305428Y-85085071D01*
X191367333Y-85156500D01*
X191491142Y-85227928D01*
X191738761Y-85227928D01*
X191862571Y-85299357D01*
X191924476Y-85370785D01*
X191986380Y-85513642D01*
X191986380Y-85799357D01*
X191924476Y-85942214D01*
X191862571Y-86013642D01*
X191738761Y-86085071D01*
X191491142Y-86085071D01*
X191367333Y-86013642D01*
X191305428Y-85942214D01*
X191243523Y-85799357D01*
X191243523Y-85513642D01*
X191305428Y-85370785D01*
X191367333Y-85299357D01*
X191491142Y-85227928D01*
X190872095Y-84585071D02*
X190438761Y-86085071D01*
X190005428Y-84585071D01*
X188581619Y-86085071D02*
X188581619Y-84585071D01*
X188086380Y-84585071D01*
X187962571Y-84656500D01*
X187900666Y-84727928D01*
X187838761Y-84870785D01*
X187838761Y-85085071D01*
X187900666Y-85227928D01*
X187962571Y-85299357D01*
X188086380Y-85370785D01*
X188581619Y-85370785D01*
X187281619Y-86085071D02*
X187281619Y-85085071D01*
X187281619Y-84585071D02*
X187343523Y-84656500D01*
X187281619Y-84727928D01*
X187219714Y-84656500D01*
X187281619Y-84585071D01*
X187281619Y-84727928D01*
X186662571Y-85085071D02*
X186662571Y-86085071D01*
X186662571Y-85227928D02*
X186600666Y-85156500D01*
X186476857Y-85085071D01*
X186291142Y-85085071D01*
X186167333Y-85156500D01*
X186105428Y-85299357D01*
X186105428Y-86085071D01*
X185486380Y-86085071D02*
X185486380Y-84585071D01*
X185362571Y-85513642D02*
X184991142Y-86085071D01*
X184991142Y-85085071D02*
X185486380Y-85656500D01*
X183443523Y-85085071D02*
X183443523Y-86085071D01*
X183443523Y-85227928D02*
X183381619Y-85156500D01*
X183257809Y-85085071D01*
X183072095Y-85085071D01*
X182948285Y-85156500D01*
X182886380Y-85299357D01*
X182886380Y-86085071D01*
X182081619Y-86085071D02*
X182205428Y-86013642D01*
X182267333Y-85942214D01*
X182329238Y-85799357D01*
X182329238Y-85370785D01*
X182267333Y-85227928D01*
X182205428Y-85156500D01*
X182081619Y-85085071D01*
X181895904Y-85085071D01*
X181772095Y-85156500D01*
X181710190Y-85227928D01*
X181648285Y-85370785D01*
X181648285Y-85799357D01*
X181710190Y-85942214D01*
X181772095Y-86013642D01*
X181895904Y-86085071D01*
X182081619Y-86085071D01*
X181091142Y-86085071D02*
X181091142Y-85085071D01*
X181091142Y-84585071D02*
X181153047Y-84656500D01*
X181091142Y-84727928D01*
X181029238Y-84656500D01*
X181091142Y-84585071D01*
X181091142Y-84727928D01*
X180534000Y-86013642D02*
X180410190Y-86085071D01*
X180162571Y-86085071D01*
X180038761Y-86013642D01*
X179976857Y-85870785D01*
X179976857Y-85799357D01*
X180038761Y-85656500D01*
X180162571Y-85585071D01*
X180348285Y-85585071D01*
X180472095Y-85513642D01*
X180534000Y-85370785D01*
X180534000Y-85299357D01*
X180472095Y-85156500D01*
X180348285Y-85085071D01*
X180162571Y-85085071D01*
X180038761Y-85156500D01*
X178924476Y-86013642D02*
X179048285Y-86085071D01*
X179295904Y-86085071D01*
X179419714Y-86013642D01*
X179481619Y-85870785D01*
X179481619Y-85299357D01*
X179419714Y-85156500D01*
X179295904Y-85085071D01*
X179048285Y-85085071D01*
X178924476Y-85156500D01*
X178862571Y-85299357D01*
X178862571Y-85442214D01*
X179481619Y-85585071D01*
X177376857Y-86013642D02*
X177253047Y-86085071D01*
X177005428Y-86085071D01*
X176881619Y-86013642D01*
X176819714Y-85870785D01*
X176819714Y-85799357D01*
X176881619Y-85656500D01*
X177005428Y-85585071D01*
X177191142Y-85585071D01*
X177314952Y-85513642D01*
X177376857Y-85370785D01*
X177376857Y-85299357D01*
X177314952Y-85156500D01*
X177191142Y-85085071D01*
X177005428Y-85085071D01*
X176881619Y-85156500D01*
X176076857Y-86085071D02*
X176200666Y-86013642D01*
X176262571Y-85942214D01*
X176324476Y-85799357D01*
X176324476Y-85370785D01*
X176262571Y-85227928D01*
X176200666Y-85156500D01*
X176076857Y-85085071D01*
X175891142Y-85085071D01*
X175767333Y-85156500D01*
X175705428Y-85227928D01*
X175643523Y-85370785D01*
X175643523Y-85799357D01*
X175705428Y-85942214D01*
X175767333Y-86013642D01*
X175891142Y-86085071D01*
X176076857Y-86085071D01*
X174529238Y-85085071D02*
X174529238Y-86085071D01*
X175086380Y-85085071D02*
X175086380Y-85870785D01*
X175024476Y-86013642D01*
X174900666Y-86085071D01*
X174714952Y-86085071D01*
X174591142Y-86013642D01*
X174529238Y-85942214D01*
X173910190Y-86085071D02*
X173910190Y-85085071D01*
X173910190Y-85370785D02*
X173848285Y-85227928D01*
X173786380Y-85156500D01*
X173662571Y-85085071D01*
X173538761Y-85085071D01*
X172548285Y-86013642D02*
X172672095Y-86085071D01*
X172919714Y-86085071D01*
X173043523Y-86013642D01*
X173105428Y-85942214D01*
X173167333Y-85799357D01*
X173167333Y-85370785D01*
X173105428Y-85227928D01*
X173043523Y-85156500D01*
X172919714Y-85085071D01*
X172672095Y-85085071D01*
X172548285Y-85156500D01*
X171495904Y-86013642D02*
X171619714Y-86085071D01*
X171867333Y-86085071D01*
X171991142Y-86013642D01*
X172053047Y-85870785D01*
X172053047Y-85299357D01*
X171991142Y-85156500D01*
X171867333Y-85085071D01*
X171619714Y-85085071D01*
X171495904Y-85156500D01*
X171434000Y-85299357D01*
X171434000Y-85442214D01*
X172053047Y-85585071D01*
X192048285Y-88357214D02*
X192110190Y-88428642D01*
X192295904Y-88500071D01*
X192419714Y-88500071D01*
X192605428Y-88428642D01*
X192729238Y-88285785D01*
X192791142Y-88142928D01*
X192853047Y-87857214D01*
X192853047Y-87642928D01*
X192791142Y-87357214D01*
X192729238Y-87214357D01*
X192605428Y-87071500D01*
X192419714Y-87000071D01*
X192295904Y-87000071D01*
X192110190Y-87071500D01*
X192048285Y-87142928D01*
X191491142Y-88500071D02*
X191491142Y-87000071D01*
X190934000Y-88500071D02*
X190934000Y-87714357D01*
X190995904Y-87571500D01*
X191119714Y-87500071D01*
X191305428Y-87500071D01*
X191429238Y-87571500D01*
X191491142Y-87642928D01*
X190314952Y-88500071D02*
X190314952Y-87500071D01*
X190314952Y-87785785D02*
X190253047Y-87642928D01*
X190191142Y-87571500D01*
X190067333Y-87500071D01*
X189943523Y-87500071D01*
X189510190Y-88500071D02*
X189510190Y-87500071D01*
X189510190Y-87000071D02*
X189572095Y-87071500D01*
X189510190Y-87142928D01*
X189448285Y-87071500D01*
X189510190Y-87000071D01*
X189510190Y-87142928D01*
X188953047Y-88428642D02*
X188829238Y-88500071D01*
X188581619Y-88500071D01*
X188457809Y-88428642D01*
X188395904Y-88285785D01*
X188395904Y-88214357D01*
X188457809Y-88071500D01*
X188581619Y-88000071D01*
X188767333Y-88000071D01*
X188891142Y-87928642D01*
X188953047Y-87785785D01*
X188953047Y-87714357D01*
X188891142Y-87571500D01*
X188767333Y-87500071D01*
X188581619Y-87500071D01*
X188457809Y-87571500D01*
X186972095Y-87000071D02*
X186662571Y-88500071D01*
X186414952Y-87428642D01*
X186167333Y-88500071D01*
X185857809Y-87000071D01*
X185362571Y-88500071D02*
X185362571Y-87500071D01*
X185362571Y-87000071D02*
X185424476Y-87071500D01*
X185362571Y-87142928D01*
X185300666Y-87071500D01*
X185362571Y-87000071D01*
X185362571Y-87142928D01*
X184557809Y-88500071D02*
X184681619Y-88428642D01*
X184743523Y-88285785D01*
X184743523Y-87000071D01*
X183876857Y-88500071D02*
X184000666Y-88428642D01*
X184062571Y-88285785D01*
X184062571Y-87000071D01*
X183381619Y-88500071D02*
X183381619Y-87500071D01*
X183381619Y-87000071D02*
X183443523Y-87071500D01*
X183381619Y-87142928D01*
X183319714Y-87071500D01*
X183381619Y-87000071D01*
X183381619Y-87142928D01*
X182205428Y-88500071D02*
X182205428Y-87714357D01*
X182267333Y-87571500D01*
X182391142Y-87500071D01*
X182638761Y-87500071D01*
X182762571Y-87571500D01*
X182205428Y-88428642D02*
X182329238Y-88500071D01*
X182638761Y-88500071D01*
X182762571Y-88428642D01*
X182824476Y-88285785D01*
X182824476Y-88142928D01*
X182762571Y-88000071D01*
X182638761Y-87928642D01*
X182329238Y-87928642D01*
X182205428Y-87857214D01*
X181586380Y-88500071D02*
X181586380Y-87500071D01*
X181586380Y-87642928D02*
X181524476Y-87571500D01*
X181400666Y-87500071D01*
X181214952Y-87500071D01*
X181091142Y-87571500D01*
X181029238Y-87714357D01*
X181029238Y-88500071D01*
X181029238Y-87714357D02*
X180967333Y-87571500D01*
X180843523Y-87500071D01*
X180657809Y-87500071D01*
X180534000Y-87571500D01*
X180472095Y-87714357D01*
X180472095Y-88500071D01*
X179914952Y-88428642D02*
X179791142Y-88500071D01*
X179543523Y-88500071D01*
X179419714Y-88428642D01*
X179357809Y-88285785D01*
X179357809Y-88214357D01*
X179419714Y-88071500D01*
X179543523Y-88000071D01*
X179729238Y-88000071D01*
X179853047Y-87928642D01*
X179914952Y-87785785D01*
X179914952Y-87714357D01*
X179853047Y-87571500D01*
X179729238Y-87500071D01*
X179543523Y-87500071D01*
X179419714Y-87571500D01*
X177872095Y-87142928D02*
X177810190Y-87071500D01*
X177686380Y-87000071D01*
X177376857Y-87000071D01*
X177253047Y-87071500D01*
X177191142Y-87142928D01*
X177129238Y-87285785D01*
X177129238Y-87428642D01*
X177191142Y-87642928D01*
X177934000Y-88500071D01*
X177129238Y-88500071D01*
X176324476Y-87000071D02*
X176200666Y-87000071D01*
X176076857Y-87071500D01*
X176014952Y-87142928D01*
X175953047Y-87285785D01*
X175891142Y-87571500D01*
X175891142Y-87928642D01*
X175953047Y-88214357D01*
X176014952Y-88357214D01*
X176076857Y-88428642D01*
X176200666Y-88500071D01*
X176324476Y-88500071D01*
X176448285Y-88428642D01*
X176510190Y-88357214D01*
X176572095Y-88214357D01*
X176634000Y-87928642D01*
X176634000Y-87571500D01*
X176572095Y-87285785D01*
X176510190Y-87142928D01*
X176448285Y-87071500D01*
X176324476Y-87000071D01*
X175395904Y-87142928D02*
X175334000Y-87071500D01*
X175210190Y-87000071D01*
X174900666Y-87000071D01*
X174776857Y-87071500D01*
X174714952Y-87142928D01*
X174653047Y-87285785D01*
X174653047Y-87428642D01*
X174714952Y-87642928D01*
X175457809Y-88500071D01*
X174653047Y-88500071D01*
X174219714Y-87000071D02*
X173414952Y-87000071D01*
X173848285Y-87571500D01*
X173662571Y-87571500D01*
X173538761Y-87642928D01*
X173476857Y-87714357D01*
X173414952Y-87857214D01*
X173414952Y-88214357D01*
X173476857Y-88357214D01*
X173538761Y-88428642D01*
X173662571Y-88500071D01*
X174034000Y-88500071D01*
X174157809Y-88428642D01*
X174219714Y-88357214D01*
M02*
