<?xml version="1.0" standalone="no"?>
 <!DOCTYPE svg PUBLIC "-//W3C//DTD SVG 1.1//EN" 
 "http://www.w3.org/Graphics/SVG/1.1/DTD/svg11.dtd"> 
<svg
  xmlns:svg="http://www.w3.org/2000/svg"
  xmlns="http://www.w3.org/2000/svg"
  xmlns:xlink="http://www.w3.org/1999/xlink"
  version="1.1"
  width="29.700220cm" height="21.000720cm" viewBox="0 0 297002200 210007200">
<title>SVG Picture created as pinker2-F_Paste.svg date 2023/11/23 13:49:19 </title>
  <desc>Picture generated by PCBNEW </desc>
<g style="fill:#000000; fill-opacity:1.000000;stroke:#000000; stroke-opacity:1.000000;
stroke-linecap:round; stroke-linejoin:round;"
 transform="translate(0 0) scale(1 1)">
</g>
<g style="fill:#000000; fill-opacity:0.0; 
stroke:#000000; stroke-width:0.000000; stroke-opacity:1; 
stroke-linecap:round; stroke-linejoin:round;">
<g >
</g>
<g >
</g>
<g >
</g>
<g >
</g>
<g style="fill:#000000; fill-opacity:0.0; 
stroke:#000000; stroke-width:0.000000; stroke-opacity:1; 
stroke-linecap:round; stroke-linejoin:round;">
</g>
<g style="fill:#000000; fill-opacity:0.0; 
stroke:#000000; stroke-width:1.000000; stroke-opacity:1; 
stroke-linecap:round; stroke-linejoin:round;">
</g>
<g style="fill:#000000; fill-opacity:1.0; 
stroke:#000000; stroke-width:1.000000; stroke-opacity:1; 
stroke-linecap:round; stroke-linejoin:round;">
<path style="fill:#000000; fill-opacity:1.0; 
stroke:#000000; stroke-width:1.000000; stroke-opacity:1; 
stroke-linecap:round; stroke-linejoin:round;fill-rule:evenodd;"
d="M 69180001.000000,79994999.000000
69180001.000000,78395001.000000
70479999.000000,78395001.000000
70479999.000000,79994999.000000
Z" /> 
<path style="fill:#000000; fill-opacity:1.0; 
stroke:#000000; stroke-width:1.000000; stroke-opacity:1; 
stroke-linecap:round; stroke-linejoin:round;fill-rule:evenodd;"
d="M 67580001.000000,82894999.000000
67580001.000000,81295001.000000
69579999.000000,81295001.000000
69579999.000000,82894999.000000
Z" /> 
<path style="fill:#000000; fill-opacity:1.0; 
stroke:#000000; stroke-width:1.000000; stroke-opacity:1; 
stroke-linecap:round; stroke-linejoin:round;fill-rule:evenodd;"
d="M 66680001.000000,79994999.000000
66680001.000000,78395001.000000
67979999.000000,78395001.000000
67979999.000000,79994999.000000
Z" /> 
</g>
<g >
</g>
<g >
</g>
<g >
</g>
<g >
</g>
<g >
</g>
<g >
</g>
<g >
</g>
<g >
</g>
<g >
</g>
<g >
</g>
<g >
</g>
<g >
</g>
<g >
</g>
<g >
</g>
<g >
</g>
<g >
</g>
<g >
</g>
<g >
</g>
<g >
</g>
<g style="fill:#000000; fill-opacity:1.0; 
stroke:#000000; stroke-width:1.000000; stroke-opacity:1; 
stroke-linecap:round; stroke-linejoin:round;">
<path style="fill:#000000; fill-opacity:1.0; 
stroke:#000000; stroke-width:1.000000; stroke-opacity:1; 
stroke-linecap:round; stroke-linejoin:round;fill-rule:evenodd;"
d="M 163216000.000000,93241000.000000
163204582.000000,93298403.000000
163172066.000000,93347066.000000
163123403.000000,93379582.000000
163066000.000000,93391000.000000
161416000.000000,93391000.000000
161358597.000000,93379582.000000
161309934.000000,93347066.000000
161277418.000000,93298403.000000
161266000.000000,93241000.000000
161266000.000000,92941000.000000
161277418.000000,92883597.000000
161309934.000000,92834934.000000
161358597.000000,92802418.000000
161416000.000000,92791000.000000
163066000.000000,92791000.000000
163123403.000000,92802418.000000
163172066.000000,92834934.000000
163204582.000000,92883597.000000
163216000.000000,92941000.000000
Z" /> 
<path style="fill:#000000; fill-opacity:1.0; 
stroke:#000000; stroke-width:1.000000; stroke-opacity:1; 
stroke-linecap:round; stroke-linejoin:round;fill-rule:evenodd;"
d="M 163216000.000000,91971000.000000
163204582.000000,92028403.000000
163172066.000000,92077066.000000
163123403.000000,92109582.000000
163066000.000000,92121000.000000
161416000.000000,92121000.000000
161358597.000000,92109582.000000
161309934.000000,92077066.000000
161277418.000000,92028403.000000
161266000.000000,91971000.000000
161266000.000000,91671000.000000
161277418.000000,91613597.000000
161309934.000000,91564934.000000
161358597.000000,91532418.000000
161416000.000000,91521000.000000
163066000.000000,91521000.000000
163123403.000000,91532418.000000
163172066.000000,91564934.000000
163204582.000000,91613597.000000
163216000.000000,91671000.000000
Z" /> 
<path style="fill:#000000; fill-opacity:1.0; 
stroke:#000000; stroke-width:1.000000; stroke-opacity:1; 
stroke-linecap:round; stroke-linejoin:round;fill-rule:evenodd;"
d="M 163216000.000000,90701000.000000
163204582.000000,90758403.000000
163172066.000000,90807066.000000
163123403.000000,90839582.000000
163066000.000000,90851000.000000
161416000.000000,90851000.000000
161358597.000000,90839582.000000
161309934.000000,90807066.000000
161277418.000000,90758403.000000
161266000.000000,90701000.000000
161266000.000000,90401000.000000
161277418.000000,90343597.000000
161309934.000000,90294934.000000
161358597.000000,90262418.000000
161416000.000000,90251000.000000
163066000.000000,90251000.000000
163123403.000000,90262418.000000
163172066.000000,90294934.000000
163204582.000000,90343597.000000
163216000.000000,90401000.000000
Z" /> 
<path style="fill:#000000; fill-opacity:1.0; 
stroke:#000000; stroke-width:1.000000; stroke-opacity:1; 
stroke-linecap:round; stroke-linejoin:round;fill-rule:evenodd;"
d="M 163216000.000000,89431000.000000
163204582.000000,89488403.000000
163172066.000000,89537066.000000
163123403.000000,89569582.000000
163066000.000000,89581000.000000
161416000.000000,89581000.000000
161358597.000000,89569582.000000
161309934.000000,89537066.000000
161277418.000000,89488403.000000
161266000.000000,89431000.000000
161266000.000000,89131000.000000
161277418.000000,89073597.000000
161309934.000000,89024934.000000
161358597.000000,88992418.000000
161416000.000000,88981000.000000
163066000.000000,88981000.000000
163123403.000000,88992418.000000
163172066.000000,89024934.000000
163204582.000000,89073597.000000
163216000.000000,89131000.000000
Z" /> 
<path style="fill:#000000; fill-opacity:1.0; 
stroke:#000000; stroke-width:1.000000; stroke-opacity:1; 
stroke-linecap:round; stroke-linejoin:round;fill-rule:evenodd;"
d="M 158266000.000000,89431000.000000
158254582.000000,89488403.000000
158222066.000000,89537066.000000
158173403.000000,89569582.000000
158116000.000000,89581000.000000
156466000.000000,89581000.000000
156408597.000000,89569582.000000
156359934.000000,89537066.000000
156327418.000000,89488403.000000
156316000.000000,89431000.000000
156316000.000000,89131000.000000
156327418.000000,89073597.000000
156359934.000000,89024934.000000
156408597.000000,88992418.000000
156466000.000000,88981000.000000
158116000.000000,88981000.000000
158173403.000000,88992418.000000
158222066.000000,89024934.000000
158254582.000000,89073597.000000
158266000.000000,89131000.000000
Z" /> 
<path style="fill:#000000; fill-opacity:1.0; 
stroke:#000000; stroke-width:1.000000; stroke-opacity:1; 
stroke-linecap:round; stroke-linejoin:round;fill-rule:evenodd;"
d="M 158266000.000000,90701000.000000
158254582.000000,90758403.000000
158222066.000000,90807066.000000
158173403.000000,90839582.000000
158116000.000000,90851000.000000
156466000.000000,90851000.000000
156408597.000000,90839582.000000
156359934.000000,90807066.000000
156327418.000000,90758403.000000
156316000.000000,90701000.000000
156316000.000000,90401000.000000
156327418.000000,90343597.000000
156359934.000000,90294934.000000
156408597.000000,90262418.000000
156466000.000000,90251000.000000
158116000.000000,90251000.000000
158173403.000000,90262418.000000
158222066.000000,90294934.000000
158254582.000000,90343597.000000
158266000.000000,90401000.000000
Z" /> 
<path style="fill:#000000; fill-opacity:1.0; 
stroke:#000000; stroke-width:1.000000; stroke-opacity:1; 
stroke-linecap:round; stroke-linejoin:round;fill-rule:evenodd;"
d="M 158266000.000000,91971000.000000
158254582.000000,92028403.000000
158222066.000000,92077066.000000
158173403.000000,92109582.000000
158116000.000000,92121000.000000
156466000.000000,92121000.000000
156408597.000000,92109582.000000
156359934.000000,92077066.000000
156327418.000000,92028403.000000
156316000.000000,91971000.000000
156316000.000000,91671000.000000
156327418.000000,91613597.000000
156359934.000000,91564934.000000
156408597.000000,91532418.000000
156466000.000000,91521000.000000
158116000.000000,91521000.000000
158173403.000000,91532418.000000
158222066.000000,91564934.000000
158254582.000000,91613597.000000
158266000.000000,91671000.000000
Z" /> 
<path style="fill:#000000; fill-opacity:1.0; 
stroke:#000000; stroke-width:1.000000; stroke-opacity:1; 
stroke-linecap:round; stroke-linejoin:round;fill-rule:evenodd;"
d="M 158266000.000000,93241000.000000
158254582.000000,93298403.000000
158222066.000000,93347066.000000
158173403.000000,93379582.000000
158116000.000000,93391000.000000
156466000.000000,93391000.000000
156408597.000000,93379582.000000
156359934.000000,93347066.000000
156327418.000000,93298403.000000
156316000.000000,93241000.000000
156316000.000000,92941000.000000
156327418.000000,92883597.000000
156359934.000000,92834934.000000
156408597.000000,92802418.000000
156466000.000000,92791000.000000
158116000.000000,92791000.000000
158173403.000000,92802418.000000
158222066.000000,92834934.000000
158254582.000000,92883597.000000
158266000.000000,92941000.000000
Z" /> 
<path style="fill:#000000; fill-opacity:1.0; 
stroke:#000000; stroke-width:1.000000; stroke-opacity:1; 
stroke-linecap:round; stroke-linejoin:round;fill-rule:evenodd;"
d="M 160851000.000000,92663500.000000
160832541.000000,92756301.000000
160779973.000000,92834973.000000
160701301.000000,92887541.000000
160608500.000000,92906000.000000
160123500.000000,92906000.000000
160030699.000000,92887541.000000
159952027.000000,92834973.000000
159899459.000000,92756301.000000
159881000.000000,92663500.000000
159881000.000000,91608500.000000
159899459.000000,91515699.000000
159952027.000000,91437027.000000
160030699.000000,91384459.000000
160123500.000000,91366000.000000
160608500.000000,91366000.000000
160701301.000000,91384459.000000
160779973.000000,91437027.000000
160832541.000000,91515699.000000
160851000.000000,91608500.000000
Z" /> 
<path style="fill:#000000; fill-opacity:1.0; 
stroke:#000000; stroke-width:1.000000; stroke-opacity:1; 
stroke-linecap:round; stroke-linejoin:round;fill-rule:evenodd;"
d="M 160851000.000000,90763500.000000
160832541.000000,90856301.000000
160779973.000000,90934973.000000
160701301.000000,90987541.000000
160608500.000000,91006000.000000
160123500.000000,91006000.000000
160030699.000000,90987541.000000
159952027.000000,90934973.000000
159899459.000000,90856301.000000
159881000.000000,90763500.000000
159881000.000000,89708500.000000
159899459.000000,89615699.000000
159952027.000000,89537027.000000
160030699.000000,89484459.000000
160123500.000000,89466000.000000
160608500.000000,89466000.000000
160701301.000000,89484459.000000
160779973.000000,89537027.000000
160832541.000000,89615699.000000
160851000.000000,89708500.000000
Z" /> 
<path style="fill:#000000; fill-opacity:1.0; 
stroke:#000000; stroke-width:1.000000; stroke-opacity:1; 
stroke-linecap:round; stroke-linejoin:round;fill-rule:evenodd;"
d="M 159651000.000000,92663500.000000
159632541.000000,92756301.000000
159579973.000000,92834973.000000
159501301.000000,92887541.000000
159408500.000000,92906000.000000
158923500.000000,92906000.000000
158830699.000000,92887541.000000
158752027.000000,92834973.000000
158699459.000000,92756301.000000
158681000.000000,92663500.000000
158681000.000000,91608500.000000
158699459.000000,91515699.000000
158752027.000000,91437027.000000
158830699.000000,91384459.000000
158923500.000000,91366000.000000
159408500.000000,91366000.000000
159501301.000000,91384459.000000
159579973.000000,91437027.000000
159632541.000000,91515699.000000
159651000.000000,91608500.000000
Z" /> 
<path style="fill:#000000; fill-opacity:1.0; 
stroke:#000000; stroke-width:1.000000; stroke-opacity:1; 
stroke-linecap:round; stroke-linejoin:round;fill-rule:evenodd;"
d="M 159651000.000000,90763500.000000
159632541.000000,90856301.000000
159579973.000000,90934973.000000
159501301.000000,90987541.000000
159408500.000000,91006000.000000
158923500.000000,91006000.000000
158830699.000000,90987541.000000
158752027.000000,90934973.000000
158699459.000000,90856301.000000
158681000.000000,90763500.000000
158681000.000000,89708500.000000
158699459.000000,89615699.000000
158752027.000000,89537027.000000
158830699.000000,89484459.000000
158923500.000000,89466000.000000
159408500.000000,89466000.000000
159501301.000000,89484459.000000
159579973.000000,89537027.000000
159632541.000000,89615699.000000
159651000.000000,89708500.000000
Z" /> 
</g>
<g >
</g>
<g >
</g>
<g >
</g>
<g >
</g>
<g >
</g>
<g >
</g>
<g >
</g>
<g >
</g>
<g >
</g>
<g >
</g>
</g> 
</svg>
